<?xml version="1.0" encoding="utf-8" standalone="no"?>
<!DOCTYPE svg PUBLIC "-//W3C//DTD SVG 1.1//EN"
  "http://www.w3.org/Graphics/SVG/1.1/DTD/svg11.dtd">
<!-- Created with matplotlib (http://matplotlib.org/) -->
<svg height="864pt" version="1.1" viewBox="0 0 1152 864" width="1152pt" xmlns="http://www.w3.org/2000/svg" xmlns:xlink="http://www.w3.org/1999/xlink">
 <defs>
  <style type="text/css">
*{stroke-linecap:butt;stroke-linejoin:round;}
  </style>
 </defs>
 <g id="figure_1">
  <g id="patch_1">
   <path d="M 0 864 
L 1152 864 
L 1152 0 
L 0 0 
z
" style="fill:#ffffff;"/>
  </g>
  <g id="axes_1">
   <g id="patch_2">
    <path d="M 144 756 
L 1036.8 756 
L 1036.8 103.68 
L 144 103.68 
z
" style="fill:#ffffff;"/>
   </g>
   <g id="PolyCollection_1">
    <path clip-path="url(#p03245d565c)" d="M 186.514286 667.572968 
L 186.514286 735.280841 
L 195.017143 729.43143 
L 203.52 709.494927 
L 212.022857 700.98785 
L 220.525714 682.520415 
L 229.028571 675.247569 
L 237.531429 666.976736 
L 246.034286 657.460318 
L 254.537143 649.524351 
L 263.04 628.264884 
L 271.542857 624.201369 
L 280.045714 616.436423 
L 288.548571 606.734569 
L 297.051429 600.584058 
L 305.554286 593.71337 
L 314.057143 580.617386 
L 322.56 575.769325 
L 331.062857 557.783337 
L 339.565714 551.385392 
L 348.068571 548.670381 
L 356.571429 537.206668 
L 365.074286 533.127785 
L 373.577143 527.786941 
L 382.08 525.759016 
L 390.582857 522.138071 
L 399.085714 493.929903 
L 407.588571 492.094033 
L 416.091429 489.008867 
L 424.594286 485.474948 
L 433.097143 482.80631 
L 441.6 476.893905 
L 450.102857 473.015726 
L 458.605714 471.469305 
L 467.108571 463.368288 
L 475.611429 448.762024 
L 484.114286 445.193526 
L 492.617143 441.140887 
L 501.12 433.156818 
L 509.622857 420.521238 
L 518.125714 415.446247 
L 526.628571 413.241235 
L 535.131429 404.193085 
L 543.634286 402.502712 
L 552.137143 395.627094 
L 560.64 389.350353 
L 569.142857 386.192457 
L 577.645714 375.167769 
L 586.148571 373.19634 
L 594.651429 373.19634 
L 603.154286 370.099323 
L 611.657143 365.000162 
L 620.16 356.581612 
L 628.662857 353.057672 
L 637.165714 349.460457 
L 645.668571 346.949124 
L 654.171429 339.653459 
L 662.674286 335.861553 
L 671.177143 333.61147 
L 679.68 324.615325 
L 688.182857 324.615325 
L 696.685714 312.150348 
L 705.188571 306.625222 
L 713.691429 304.083815 
L 722.194286 296.44309 
L 730.697143 290.940873 
L 739.2 279.558137 
L 747.702857 275.712148 
L 756.205714 268.190127 
L 764.708571 267.638247 
L 773.211429 261.877759 
L 781.714286 257.217565 
L 790.217143 249.903463 
L 798.72 249.831153 
L 807.222857 245.422018 
L 815.725714 245.197538 
L 824.228571 245.197538 
L 832.731429 239.140877 
L 841.234286 239.140877 
L 849.737143 238.307343 
L 858.24 232.9841 
L 866.742857 227.479207 
L 875.245714 222.997937 
L 883.748571 222.997937 
L 892.251429 218.647669 
L 900.754286 211.912563 
L 909.257143 208.436193 
L 917.76 207.378567 
L 926.262857 207.378567 
L 934.765714 203.09493 
L 943.268571 203.09493 
L 951.771429 198.970251 
L 960.274286 194.899594 
L 968.777143 184.196282 
L 977.28 183.44188 
L 985.782857 180.076209 
L 994.285714 177.631606 
L 1002.788571 174.292301 
L 1011.291429 165.926284 
L 1019.794286 164.615798 
L 1028.297143 156.698917 
L 1036.8 134.742857 
L 1036.8 134.742857 
L 1036.8 134.742857 
L 1028.297143 136.200607 
L 1019.794286 139.136256 
L 1011.291429 139.483463 
L 1002.788571 142.357105 
L 994.285714 143.089332 
L 985.782857 144.219295 
L 977.28 145.416636 
L 968.777143 145.600392 
L 960.274286 147.330912 
L 951.771429 148.930382 
L 943.268571 151.242963 
L 934.765714 151.242963 
L 926.262857 153.01358 
L 917.76 153.01358 
L 909.257143 154.887347 
L 900.754286 157.511219 
L 892.251429 158.083996 
L 883.748571 158.477438 
L 875.245714 158.477438 
L 866.742857 160.70776 
L 858.24 162.27146 
L 849.737143 165.587415 
L 841.234286 167.728732 
L 832.731429 167.728732 
L 824.228571 167.982342 
L 815.725714 167.982342 
L 807.222857 168.82645 
L 798.72 172.707394 
L 790.217143 173.616826 
L 781.714286 174.185389 
L 773.211429 175.441109 
L 764.708571 177.639224 
L 756.205714 178.563422 
L 747.702857 182.660565 
L 739.2 187.349433 
L 730.697143 192.193165 
L 722.194286 197.928993 
L 713.691429 199.316204 
L 705.188571 203.502546 
L 696.685714 204.192327 
L 688.182857 206.701101 
L 679.68 206.701101 
L 671.177143 213.795228 
L 662.674286 217.014588 
L 654.171429 218.452448 
L 645.668571 220.720553 
L 637.165714 225.678434 
L 628.662857 229.753952 
L 620.16 230.443681 
L 611.657143 235.494965 
L 603.154286 242.742467 
L 594.651429 247.668493 
L 586.148571 247.668493 
L 577.645714 247.887928 
L 569.142857 253.960243 
L 560.64 258.219373 
L 552.137143 266.274451 
L 543.634286 274.16064 
L 535.131429 277.249043 
L 526.628571 279.233633 
L 518.125714 281.437414 
L 509.622857 295.995431 
L 501.12 307.30708 
L 492.617143 312.983627 
L 484.114286 320.590446 
L 475.611429 323.386449 
L 467.108571 338.20366 
L 458.605714 341.45801 
L 450.102857 346.83841 
L 441.6 350.061941 
L 433.097143 354.713227 
L 424.594286 358.553107 
L 416.091429 361.842611 
L 407.588571 364.877282 
L 399.085714 366.655577 
L 390.582857 389.835141 
L 382.08 394.176741 
L 373.577143 395.62675 
L 365.074286 401.025798 
L 356.571429 407.173889 
L 348.068571 422.333385 
L 339.565714 422.986534 
L 331.062857 430.018733 
L 322.56 441.691627 
L 314.057143 451.879747 
L 305.554286 462.600259 
L 297.051429 469.9845 
L 288.548571 481.902045 
L 280.045714 489.510021 
L 271.542857 501.493082 
L 263.04 507.193143 
L 254.537143 531.915462 
L 246.034286 548.13064 
L 237.531429 560.290174 
L 229.028571 570.558374 
L 220.525714 581.802171 
L 212.022857 610.973438 
L 203.52 621.641961 
L 195.017143 664.840356 
L 186.514286 667.572968 
z
" style="fill:#0000ff;fill-opacity:0.2;"/>
   </g>
   <g id="PolyCollection_2">
    <path clip-path="url(#p03245d565c)" d="M 186.514286 562.198981 
L 186.514286 724.633394 
L 195.017143 693.747457 
L 203.52 665.832888 
L 212.022857 637.72785 
L 220.525714 625.549888 
L 229.028571 609.712591 
L 237.531429 591.420288 
L 246.034286 579.404482 
L 254.537143 567.01719 
L 263.04 559.041975 
L 271.542857 552.964595 
L 280.045714 544.752312 
L 288.548571 541.259407 
L 297.051429 535.405626 
L 305.554286 527.457873 
L 314.057143 520.78133 
L 322.56 519.768478 
L 331.062857 502.787853 
L 339.565714 500.818542 
L 348.068571 485.141061 
L 356.571429 483.526605 
L 365.074286 478.752889 
L 373.577143 472.532382 
L 382.08 468.016294 
L 390.582857 460.117332 
L 399.085714 459.87012 
L 407.588571 459.652421 
L 416.091429 451.672917 
L 424.594286 446.499055 
L 433.097143 445.836161 
L 441.6 443.960571 
L 450.102857 440.011569 
L 458.605714 438.654407 
L 467.108571 432.908989 
L 475.611429 420.123594 
L 484.114286 418.526566 
L 492.617143 417.776775 
L 501.12 417.442717 
L 509.622857 408.991403 
L 518.125714 406.466139 
L 526.628571 403.183325 
L 535.131429 402.991069 
L 543.634286 392.190944 
L 552.137143 392.190944 
L 560.64 390.283929 
L 569.142857 384.516805 
L 577.645714 384.250258 
L 586.148571 382.619378 
L 594.651429 371.805273 
L 603.154286 370.532637 
L 611.657143 366.800904 
L 620.16 366.800904 
L 628.662857 365.148065 
L 637.165714 352.981969 
L 645.668571 351.916837 
L 654.171429 347.954376 
L 662.674286 346.746423 
L 671.177143 331.193066 
L 679.68 331.193066 
L 688.182857 324.458627 
L 696.685714 322.168572 
L 705.188571 316.963749 
L 713.691429 316.963749 
L 722.194286 305.310194 
L 730.697143 305.310194 
L 739.2 288.53685 
L 747.702857 288.060889 
L 756.205714 283.624114 
L 764.708571 279.655507 
L 773.211429 274.500558 
L 781.714286 271.838942 
L 790.217143 271.838942 
L 798.72 269.723754 
L 807.222857 268.072406 
L 815.725714 262.778504 
L 824.228571 260.980612 
L 832.731429 260.980612 
L 841.234286 259.755836 
L 849.737143 251.51903 
L 858.24 251.51903 
L 866.742857 249.502097 
L 875.245714 248.600526 
L 883.748571 246.005417 
L 892.251429 239.597952 
L 900.754286 230.27827 
L 909.257143 220.127758 
L 917.76 217.991137 
L 926.262857 214.502923 
L 934.765714 208.226023 
L 943.268571 207.280074 
L 951.771429 205.870766 
L 960.274286 198.623654 
L 968.777143 192.935318 
L 977.28 191.271028 
L 985.782857 184.397105 
L 994.285714 182.670276 
L 1002.788571 181.462393 
L 1011.291429 170.837299 
L 1019.794286 168.022399 
L 1028.297143 166.912686 
L 1036.8 139.673469 
L 1036.8 134.742857 
L 1036.8 134.742857 
L 1028.297143 136.015273 
L 1019.794286 136.680133 
L 1011.291429 137.699206 
L 1002.788571 138.634513 
L 994.285714 139.938961 
L 985.782857 141.491951 
L 977.28 142.76539 
L 968.777143 144.197722 
L 960.274286 145.850938 
L 951.771429 147.052288 
L 943.268571 148.182642 
L 934.765714 148.748273 
L 926.262857 150.532057 
L 917.76 155.018794 
L 909.257143 155.828087 
L 900.754286 158.652446 
L 892.251429 160.047891 
L 883.748571 161.029454 
L 875.245714 162.590448 
L 866.742857 165.301809 
L 858.24 166.037033 
L 849.737143 166.037033 
L 841.234286 168.86822 
L 832.731429 170.413581 
L 824.228571 170.413581 
L 815.725714 174.448037 
L 807.222857 177.77497 
L 798.72 177.77497 
L 790.217143 179.99707 
L 781.714286 179.99707 
L 773.211429 181.070698 
L 764.708571 184.378339 
L 756.205714 186.707989 
L 747.702857 188.18937 
L 739.2 188.662184 
L 730.697143 191.732978 
L 722.194286 191.732978 
L 713.691429 194.342029 
L 705.188571 194.342029 
L 696.685714 197.060334 
L 688.182857 200.993607 
L 679.68 203.912822 
L 671.177143 203.912822 
L 662.674286 209.985803 
L 654.171429 210.305152 
L 645.668571 211.052403 
L 637.165714 212.83323 
L 628.662857 218.685383 
L 620.16 218.793233 
L 611.657143 218.793233 
L 603.154286 222.219453 
L 594.651429 224.077222 
L 586.148571 228.851091 
L 577.645714 230.289516 
L 569.142857 230.289516 
L 560.64 234.412708 
L 552.137143 236.51183 
L 543.634286 236.51183 
L 535.131429 242.19798 
L 526.628571 242.488071 
L 518.125714 245.636019 
L 509.622857 247.556805 
L 501.12 250.2088 
L 492.617143 251.771162 
L 484.114286 253.267785 
L 475.611429 254.148262 
L 467.108571 258.345058 
L 458.605714 260.130694 
L 450.102857 261.791458 
L 441.6 265.405778 
L 433.097143 267.606115 
L 424.594286 267.609711 
L 416.091429 270.844292 
L 407.588571 276.043909 
L 399.085714 276.605646 
L 390.582857 277.221639 
L 382.08 281.696164 
L 373.577143 287.840319 
L 365.074286 292.903111 
L 356.571429 295.684881 
L 348.068571 296.558426 
L 339.565714 304.272369 
L 331.062857 307.015816 
L 322.56 316.694237 
L 314.057143 316.859643 
L 305.554286 322.653749 
L 297.051429 327.486999 
L 288.548571 333.765091 
L 280.045714 336.562509 
L 271.542857 341.232905 
L 263.04 347.354815 
L 254.537143 352.9708 
L 246.034286 367.464889 
L 237.531429 380.881882 
L 229.028571 404.885294 
L 220.525714 425.036469 
L 212.022857 443.281725 
L 203.52 486.433698 
L 195.017143 531.472806 
L 186.514286 562.198981 
z
" style="fill:#ff0000;fill-opacity:0.2;"/>
   </g>
   <g id="PolyCollection_3">
    <path clip-path="url(#p03245d565c)" d="M 186.514286 734.805399 
L 186.514286 754.779529 
L 195.017143 750.550844 
L 203.52 740.088635 
L 212.022857 731.262908 
L 220.525714 718.813353 
L 229.028571 710.260741 
L 237.531429 699.836745 
L 246.034286 694.59182 
L 254.537143 682.85963 
L 263.04 673.793172 
L 271.542857 667.633152 
L 280.045714 664.648232 
L 288.548571 659.352471 
L 297.051429 646.804663 
L 305.554286 631.455503 
L 314.057143 622.290368 
L 322.56 620.029703 
L 331.062857 607.452093 
L 339.565714 601.064335 
L 348.068571 586.666417 
L 356.571429 582.978807 
L 365.074286 578.70505 
L 373.577143 570.014014 
L 382.08 562.40966 
L 390.582857 559.403329 
L 399.085714 557.148682 
L 407.588571 552.484882 
L 416.091429 528.454498 
L 424.594286 525.007276 
L 433.097143 521.273515 
L 441.6 516.065246 
L 450.102857 508.093866 
L 458.605714 502.125138 
L 467.108571 493.440269 
L 475.611429 489.952811 
L 484.114286 488.842107 
L 492.617143 483.244714 
L 501.12 481.965287 
L 509.622857 471.440459 
L 518.125714 468.992826 
L 526.628571 459.1338 
L 535.131429 452.28486 
L 543.634286 452.28486 
L 552.137143 444.140117 
L 560.64 433.224366 
L 569.142857 424.757244 
L 577.645714 419.840964 
L 586.148571 418.654055 
L 594.651429 414.381533 
L 603.154286 406.628484 
L 611.657143 399.468655 
L 620.16 399.030566 
L 628.662857 393.880626 
L 637.165714 390.067625 
L 645.668571 386.15196 
L 654.171429 377.972977 
L 662.674286 372.238208 
L 671.177143 372.238208 
L 679.68 366.678478 
L 688.182857 364.520387 
L 696.685714 359.355044 
L 705.188571 351.932547 
L 713.691429 350.47892 
L 722.194286 345.608223 
L 730.697143 338.789535 
L 739.2 337.480363 
L 747.702857 333.625865 
L 756.205714 333.047591 
L 764.708571 329.465053 
L 773.211429 324.653078 
L 781.714286 323.680804 
L 790.217143 316.303927 
L 798.72 313.597165 
L 807.222857 304.617295 
L 815.725714 281.395631 
L 824.228571 279.714584 
L 832.731429 265.233348 
L 841.234286 259.943067 
L 849.737143 254.934973 
L 858.24 248.839759 
L 866.742857 245.653538 
L 875.245714 236.345963 
L 883.748571 234.593485 
L 892.251429 229.1537 
L 900.754286 221.858827 
L 909.257143 219.450269 
L 917.76 217.721993 
L 926.262857 204.962481 
L 934.765714 199.642026 
L 943.268571 198.289551 
L 951.771429 191.681126 
L 960.274286 186.254734 
L 968.777143 184.220161 
L 977.28 181.350449 
L 985.782857 177.485515 
L 994.285714 170.846129 
L 1002.788571 165.405655 
L 1011.291429 154.395706 
L 1019.794286 149.746599 
L 1028.297143 143.96699 
L 1036.8 134.742857 
L 1036.8 134.742857 
L 1036.8 134.742857 
L 1028.297143 136.084644 
L 1019.794286 137.674391 
L 1011.291429 139.299805 
L 1002.788571 142.411912 
L 994.285714 145.033048 
L 985.782857 146.827188 
L 977.28 149.80801 
L 968.777143 151.351322 
L 960.274286 152.133398 
L 951.771429 153.516668 
L 943.268571 159.308867 
L 934.765714 160.625593 
L 926.262857 164.237053 
L 917.76 167.803099 
L 909.257143 171.622034 
L 900.754286 174.37782 
L 892.251429 177.530097 
L 883.748571 178.641924 
L 875.245714 180.200187 
L 866.742857 185.949471 
L 858.24 188.316517 
L 849.737143 190.212955 
L 841.234286 194.244845 
L 832.731429 197.019557 
L 824.228571 203.358797 
L 815.725714 205.316837 
L 807.222857 210.852933 
L 798.72 215.180248 
L 790.217143 218.59816 
L 781.714286 226.758083 
L 773.211429 228.790653 
L 764.708571 232.182484 
L 756.205714 234.358421 
L 747.702857 236.187884 
L 739.2 239.309347 
L 730.697143 241.367546 
L 722.194286 246.247289 
L 713.691429 249.208324 
L 705.188571 250.677805 
L 696.685714 253.032338 
L 688.182857 255.766915 
L 679.68 262.034768 
L 671.177143 271.728414 
L 662.674286 271.728414 
L 654.171429 275.715282 
L 645.668571 282.09551 
L 637.165714 284.953798 
L 628.662857 285.739694 
L 620.16 294.05355 
L 611.657143 295.572572 
L 603.154286 298.873328 
L 594.651429 301.546263 
L 586.148571 306.849049 
L 577.645714 310.400884 
L 569.142857 318.127312 
L 560.64 326.772775 
L 552.137143 332.162046 
L 543.634286 342.217291 
L 535.131429 342.217291 
L 526.628571 349.241412 
L 518.125714 360.302869 
L 509.622857 365.030861 
L 501.12 375.51084 
L 492.617143 378.457784 
L 484.114286 382.496196 
L 475.611429 387.919642 
L 467.108571 396.314824 
L 458.605714 399.611461 
L 450.102857 405.231831 
L 441.6 411.147081 
L 433.097143 416.873662 
L 424.594286 418.767825 
L 416.091429 424.133217 
L 407.588571 441.466086 
L 399.085714 445.641084 
L 390.582857 452.933442 
L 382.08 453.629122 
L 373.577143 461.847337 
L 365.074286 467.86892 
L 356.571429 475.989361 
L 348.068571 482.93137 
L 339.565714 496.54406 
L 331.062857 508.064273 
L 322.56 515.278607 
L 314.057143 517.824491 
L 305.554286 534.823559 
L 297.051429 544.970916 
L 288.548571 565.73672 
L 280.045714 577.954954 
L 271.542857 582.309113 
L 263.04 591.035268 
L 254.537143 598.432114 
L 246.034286 614.713663 
L 237.531429 621.130411 
L 229.028571 632.072834 
L 220.525714 644.078366 
L 212.022857 652.716102 
L 203.52 673.529304 
L 195.017143 704.090424 
L 186.514286 734.805399 
z
" style="fill:#008000;fill-opacity:0.2;"/>
   </g>
   <g id="PolyCollection_4">
    <path clip-path="url(#p03245d565c)" d="M 186.514286 655.570834 
L 186.514286 746.492115 
L 195.017143 721.310039 
L 203.52 705.13253 
L 212.022857 681.945718 
L 220.525714 654.530472 
L 229.028571 641.634278 
L 237.531429 625.254245 
L 246.034286 619.178164 
L 254.537143 604.681882 
L 263.04 596.609632 
L 271.542857 587.285433 
L 280.045714 567.694219 
L 288.548571 561.945457 
L 297.051429 544.346098 
L 305.554286 536.536705 
L 314.057143 530.581994 
L 322.56 524.746868 
L 331.062857 517.047433 
L 339.565714 508.576375 
L 348.068571 500.447036 
L 356.571429 497.583462 
L 365.074286 485.501285 
L 373.577143 484.366001 
L 382.08 472.790821 
L 390.582857 464.175895 
L 399.085714 457.458554 
L 407.588571 454.286406 
L 416.091429 446.454046 
L 424.594286 438.368917 
L 433.097143 430.762283 
L 441.6 425.296748 
L 450.102857 419.908537 
L 458.605714 413.168916 
L 467.108571 410.283409 
L 475.611429 399.602926 
L 484.114286 392.254094 
L 492.617143 386.387478 
L 501.12 381.242863 
L 509.622857 375.816311 
L 518.125714 365.111873 
L 526.628571 361.406564 
L 535.131429 361.008143 
L 543.634286 346.980197 
L 552.137143 340.556325 
L 560.64 335.272589 
L 569.142857 329.380547 
L 577.645714 327.902921 
L 586.148571 323.087539 
L 594.651429 309.75376 
L 603.154286 298.576156 
L 611.657143 296.424906 
L 620.16 295.792982 
L 628.662857 290.258904 
L 637.165714 276.48997 
L 645.668571 272.779938 
L 654.171429 269.207135 
L 662.674286 260.885104 
L 671.177143 255.983029 
L 679.68 251.135427 
L 688.182857 246.217704 
L 696.685714 245.217313 
L 705.188571 233.880505 
L 713.691429 230.385483 
L 722.194286 228.682933 
L 730.697143 224.08855 
L 739.2 217.885226 
L 747.702857 209.446092 
L 756.205714 205.331642 
L 764.708571 205.223915 
L 773.211429 199.735447 
L 781.714286 194.598836 
L 790.217143 190.839685 
L 798.72 190.198702 
L 807.222857 179.078063 
L 815.725714 178.226721 
L 824.228571 176.392722 
L 832.731429 170.116088 
L 841.234286 170.073927 
L 849.737143 164.673294 
L 858.24 162.897848 
L 866.742857 161.051501 
L 875.245714 158.327679 
L 883.748571 156.365434 
L 892.251429 155.848875 
L 900.754286 153.5933 
L 909.257143 151.448254 
L 917.76 150.372569 
L 926.262857 148.456333 
L 934.765714 148.456333 
L 943.268571 145.388467 
L 951.771429 143.391811 
L 960.274286 141.368251 
L 968.777143 140.559909 
L 977.28 140.365449 
L 985.782857 138.972472 
L 994.285714 138.558902 
L 1002.788571 138.149653 
L 1011.291429 138.017996 
L 1019.794286 137.557443 
L 1028.297143 136.977327 
L 1036.8 136.977327 
L 1036.8 134.742857 
L 1036.8 134.742857 
L 1028.297143 134.742857 
L 1019.794286 134.89494 
L 1011.291429 135.117519 
L 1002.788571 135.174997 
L 994.285714 135.339288 
L 985.782857 135.74027 
L 977.28 136.225073 
L 968.777143 136.259654 
L 960.274286 136.35645 
L 951.771429 136.433326 
L 943.268571 137.032323 
L 934.765714 137.679594 
L 926.262857 137.679594 
L 917.76 137.961204 
L 909.257143 138.657799 
L 900.754286 138.781797 
L 892.251429 139.126383 
L 883.748571 139.787536 
L 875.245714 139.805572 
L 866.742857 141.23583 
L 858.24 142.353662 
L 849.737143 143.345906 
L 841.234286 144.842721 
L 832.731429 144.932694 
L 824.228571 145.959785 
L 815.725714 147.470295 
L 807.222857 148.976564 
L 798.72 151.12711 
L 790.217143 152.089016 
L 781.714286 155.408042 
L 773.211429 155.969085 
L 764.708571 159.213697 
L 756.205714 159.55483 
L 747.702857 163.03013 
L 739.2 166.411759 
L 730.697143 169.327099 
L 722.194286 171.131983 
L 713.691429 173.367487 
L 705.188571 174.784776 
L 696.685714 179.266048 
L 688.182857 181.067733 
L 679.68 185.804077 
L 671.177143 187.618105 
L 662.674286 189.96703 
L 654.171429 192.947421 
L 645.668571 197.817548 
L 637.165714 202.219783 
L 628.662857 204.872237 
L 620.16 210.242492 
L 611.657143 211.184258 
L 603.154286 214.713156 
L 594.651429 221.355325 
L 586.148571 228.124983 
L 577.645714 233.420484 
L 569.142857 237.190979 
L 560.64 243.312318 
L 552.137143 246.768521 
L 543.634286 249.60024 
L 535.131429 260.234 
L 526.628571 260.922083 
L 518.125714 265.938812 
L 509.622857 272.1716 
L 501.12 278.036295 
L 492.617143 282.782078 
L 484.114286 288.528801 
L 475.611429 293.843353 
L 467.108571 299.960589 
L 458.605714 304.174957 
L 450.102857 309.090819 
L 441.6 315.447395 
L 433.097143 317.109529 
L 424.594286 321.319688 
L 416.091429 331.001109 
L 407.588571 337.442818 
L 399.085714 342.972118 
L 390.582857 347.022151 
L 382.08 355.520872 
L 373.577143 363.467891 
L 365.074286 367.362302 
L 356.571429 375.80704 
L 348.068571 377.773256 
L 339.565714 390.32811 
L 331.062857 393.711448 
L 322.56 403.958632 
L 314.057143 410.432428 
L 305.554286 417.973855 
L 297.051429 425.546704 
L 288.548571 442.556396 
L 280.045714 449.084539 
L 271.542857 466.652682 
L 263.04 481.503193 
L 254.537143 489.21 
L 246.034286 504.720338 
L 237.531429 515.651082 
L 229.028571 534.233202 
L 220.525714 548.652044 
L 212.022857 581.209699 
L 203.52 607.397977 
L 195.017143 627.315572 
L 186.514286 655.570834 
z
" style="fill:#bf00bf;fill-opacity:0.2;"/>
   </g>
   <g id="matplotlib.axis_1">
    <g id="xtick_1">
     <g id="line2d_1">
      <defs>
       <path d="M 0 0 
L 0 3.5 
" id="mf9fdebfeaa" style="stroke:#000000;stroke-width:1.3;"/>
      </defs>
      <g>
       <use style="stroke:#000000;stroke-width:1.3;" x="186.514286" xlink:href="#mf9fdebfeaa" y="756"/>
      </g>
     </g>
     <g id="text_1">
      <!-- 0.0 -->
      <defs>
       <path d="M 31.78125 66.40625 
Q 24.171875 66.40625 20.328125 58.90625 
Q 16.5 51.421875 16.5 36.375 
Q 16.5 21.390625 20.328125 13.890625 
Q 24.171875 6.390625 31.78125 6.390625 
Q 39.453125 6.390625 43.28125 13.890625 
Q 47.125 21.390625 47.125 36.375 
Q 47.125 51.421875 43.28125 58.90625 
Q 39.453125 66.40625 31.78125 66.40625 
z
M 31.78125 74.21875 
Q 44.046875 74.21875 50.515625 64.515625 
Q 56.984375 54.828125 56.984375 36.375 
Q 56.984375 17.96875 50.515625 8.265625 
Q 44.046875 -1.421875 31.78125 -1.421875 
Q 19.53125 -1.421875 13.0625 8.265625 
Q 6.59375 17.96875 6.59375 36.375 
Q 6.59375 54.828125 13.0625 64.515625 
Q 19.53125 74.21875 31.78125 74.21875 
z
" id="DejaVuSans-30"/>
       <path d="M 10.6875 12.40625 
L 21 12.40625 
L 21 0 
L 10.6875 0 
z
" id="DejaVuSans-2e"/>
      </defs>
      <g transform="translate(176.177254 778.477969)scale(0.13 -0.13)">
       <use xlink:href="#DejaVuSans-30"/>
       <use x="63.623047" xlink:href="#DejaVuSans-2e"/>
       <use x="95.410156" xlink:href="#DejaVuSans-30"/>
      </g>
     </g>
    </g>
    <g id="xtick_2">
     <g id="line2d_2">
      <g>
       <use style="stroke:#000000;stroke-width:1.3;" x="356.571429" xlink:href="#mf9fdebfeaa" y="756"/>
      </g>
     </g>
     <g id="text_2">
      <!-- 0.2 -->
      <defs>
       <path d="M 19.1875 8.296875 
L 53.609375 8.296875 
L 53.609375 0 
L 7.328125 0 
L 7.328125 8.296875 
Q 12.9375 14.109375 22.625 23.890625 
Q 32.328125 33.6875 34.8125 36.53125 
Q 39.546875 41.84375 41.421875 45.53125 
Q 43.3125 49.21875 43.3125 52.78125 
Q 43.3125 58.59375 39.234375 62.25 
Q 35.15625 65.921875 28.609375 65.921875 
Q 23.96875 65.921875 18.8125 64.3125 
Q 13.671875 62.703125 7.8125 59.421875 
L 7.8125 69.390625 
Q 13.765625 71.78125 18.9375 73 
Q 24.125 74.21875 28.421875 74.21875 
Q 39.75 74.21875 46.484375 68.546875 
Q 53.21875 62.890625 53.21875 53.421875 
Q 53.21875 48.921875 51.53125 44.890625 
Q 49.859375 40.875 45.40625 35.40625 
Q 44.1875 33.984375 37.640625 27.21875 
Q 31.109375 20.453125 19.1875 8.296875 
z
" id="DejaVuSans-32"/>
      </defs>
      <g transform="translate(346.234397 778.477969)scale(0.13 -0.13)">
       <use xlink:href="#DejaVuSans-30"/>
       <use x="63.623047" xlink:href="#DejaVuSans-2e"/>
       <use x="95.410156" xlink:href="#DejaVuSans-32"/>
      </g>
     </g>
    </g>
    <g id="xtick_3">
     <g id="line2d_3">
      <g>
       <use style="stroke:#000000;stroke-width:1.3;" x="526.628571" xlink:href="#mf9fdebfeaa" y="756"/>
      </g>
     </g>
     <g id="text_3">
      <!-- 0.4 -->
      <defs>
       <path d="M 37.796875 64.3125 
L 12.890625 25.390625 
L 37.796875 25.390625 
z
M 35.203125 72.90625 
L 47.609375 72.90625 
L 47.609375 25.390625 
L 58.015625 25.390625 
L 58.015625 17.1875 
L 47.609375 17.1875 
L 47.609375 0 
L 37.796875 0 
L 37.796875 17.1875 
L 4.890625 17.1875 
L 4.890625 26.703125 
z
" id="DejaVuSans-34"/>
      </defs>
      <g transform="translate(516.29154 778.477969)scale(0.13 -0.13)">
       <use xlink:href="#DejaVuSans-30"/>
       <use x="63.623047" xlink:href="#DejaVuSans-2e"/>
       <use x="95.410156" xlink:href="#DejaVuSans-34"/>
      </g>
     </g>
    </g>
    <g id="xtick_4">
     <g id="line2d_4">
      <g>
       <use style="stroke:#000000;stroke-width:1.3;" x="696.685714" xlink:href="#mf9fdebfeaa" y="756"/>
      </g>
     </g>
     <g id="text_4">
      <!-- 0.6 -->
      <defs>
       <path d="M 33.015625 40.375 
Q 26.375 40.375 22.484375 35.828125 
Q 18.609375 31.296875 18.609375 23.390625 
Q 18.609375 15.53125 22.484375 10.953125 
Q 26.375 6.390625 33.015625 6.390625 
Q 39.65625 6.390625 43.53125 10.953125 
Q 47.40625 15.53125 47.40625 23.390625 
Q 47.40625 31.296875 43.53125 35.828125 
Q 39.65625 40.375 33.015625 40.375 
z
M 52.59375 71.296875 
L 52.59375 62.3125 
Q 48.875 64.0625 45.09375 64.984375 
Q 41.3125 65.921875 37.59375 65.921875 
Q 27.828125 65.921875 22.671875 59.328125 
Q 17.53125 52.734375 16.796875 39.40625 
Q 19.671875 43.65625 24.015625 45.921875 
Q 28.375 48.1875 33.59375 48.1875 
Q 44.578125 48.1875 50.953125 41.515625 
Q 57.328125 34.859375 57.328125 23.390625 
Q 57.328125 12.15625 50.6875 5.359375 
Q 44.046875 -1.421875 33.015625 -1.421875 
Q 20.359375 -1.421875 13.671875 8.265625 
Q 6.984375 17.96875 6.984375 36.375 
Q 6.984375 53.65625 15.1875 63.9375 
Q 23.390625 74.21875 37.203125 74.21875 
Q 40.921875 74.21875 44.703125 73.484375 
Q 48.484375 72.75 52.59375 71.296875 
z
" id="DejaVuSans-36"/>
      </defs>
      <g transform="translate(686.348683 778.477969)scale(0.13 -0.13)">
       <use xlink:href="#DejaVuSans-30"/>
       <use x="63.623047" xlink:href="#DejaVuSans-2e"/>
       <use x="95.410156" xlink:href="#DejaVuSans-36"/>
      </g>
     </g>
    </g>
    <g id="xtick_5">
     <g id="line2d_5">
      <g>
       <use style="stroke:#000000;stroke-width:1.3;" x="866.742857" xlink:href="#mf9fdebfeaa" y="756"/>
      </g>
     </g>
     <g id="text_5">
      <!-- 0.8 -->
      <defs>
       <path d="M 31.78125 34.625 
Q 24.75 34.625 20.71875 30.859375 
Q 16.703125 27.09375 16.703125 20.515625 
Q 16.703125 13.921875 20.71875 10.15625 
Q 24.75 6.390625 31.78125 6.390625 
Q 38.8125 6.390625 42.859375 10.171875 
Q 46.921875 13.96875 46.921875 20.515625 
Q 46.921875 27.09375 42.890625 30.859375 
Q 38.875 34.625 31.78125 34.625 
z
M 21.921875 38.8125 
Q 15.578125 40.375 12.03125 44.71875 
Q 8.5 49.078125 8.5 55.328125 
Q 8.5 64.0625 14.71875 69.140625 
Q 20.953125 74.21875 31.78125 74.21875 
Q 42.671875 74.21875 48.875 69.140625 
Q 55.078125 64.0625 55.078125 55.328125 
Q 55.078125 49.078125 51.53125 44.71875 
Q 48 40.375 41.703125 38.8125 
Q 48.828125 37.15625 52.796875 32.3125 
Q 56.78125 27.484375 56.78125 20.515625 
Q 56.78125 9.90625 50.3125 4.234375 
Q 43.84375 -1.421875 31.78125 -1.421875 
Q 19.734375 -1.421875 13.25 4.234375 
Q 6.78125 9.90625 6.78125 20.515625 
Q 6.78125 27.484375 10.78125 32.3125 
Q 14.796875 37.15625 21.921875 38.8125 
z
M 18.3125 54.390625 
Q 18.3125 48.734375 21.84375 45.5625 
Q 25.390625 42.390625 31.78125 42.390625 
Q 38.140625 42.390625 41.71875 45.5625 
Q 45.3125 48.734375 45.3125 54.390625 
Q 45.3125 60.0625 41.71875 63.234375 
Q 38.140625 66.40625 31.78125 66.40625 
Q 25.390625 66.40625 21.84375 63.234375 
Q 18.3125 60.0625 18.3125 54.390625 
z
" id="DejaVuSans-38"/>
      </defs>
      <g transform="translate(856.405826 778.477969)scale(0.13 -0.13)">
       <use xlink:href="#DejaVuSans-30"/>
       <use x="63.623047" xlink:href="#DejaVuSans-2e"/>
       <use x="95.410156" xlink:href="#DejaVuSans-38"/>
      </g>
     </g>
    </g>
    <g id="xtick_6">
     <g id="line2d_6">
      <g>
       <use style="stroke:#000000;stroke-width:1.3;" x="1036.8" xlink:href="#mf9fdebfeaa" y="756"/>
      </g>
     </g>
     <g id="text_6">
      <!-- 1.0 -->
      <defs>
       <path d="M 12.40625 8.296875 
L 28.515625 8.296875 
L 28.515625 63.921875 
L 10.984375 60.40625 
L 10.984375 69.390625 
L 28.421875 72.90625 
L 38.28125 72.90625 
L 38.28125 8.296875 
L 54.390625 8.296875 
L 54.390625 0 
L 12.40625 0 
z
" id="DejaVuSans-31"/>
      </defs>
      <g transform="translate(1026.462969 778.477969)scale(0.13 -0.13)">
       <use xlink:href="#DejaVuSans-31"/>
       <use x="63.623047" xlink:href="#DejaVuSans-2e"/>
       <use x="95.410156" xlink:href="#DejaVuSans-30"/>
      </g>
     </g>
    </g>
    <g id="text_7">
     <!-- False Positive Rate -->
     <defs>
      <path d="M 9.8125 72.90625 
L 51.703125 72.90625 
L 51.703125 64.59375 
L 19.671875 64.59375 
L 19.671875 43.109375 
L 48.578125 43.109375 
L 48.578125 34.8125 
L 19.671875 34.8125 
L 19.671875 0 
L 9.8125 0 
z
" id="DejaVuSans-46"/>
      <path d="M 34.28125 27.484375 
Q 23.390625 27.484375 19.1875 25 
Q 14.984375 22.515625 14.984375 16.5 
Q 14.984375 11.71875 18.140625 8.90625 
Q 21.296875 6.109375 26.703125 6.109375 
Q 34.1875 6.109375 38.703125 11.40625 
Q 43.21875 16.703125 43.21875 25.484375 
L 43.21875 27.484375 
z
M 52.203125 31.203125 
L 52.203125 0 
L 43.21875 0 
L 43.21875 8.296875 
Q 40.140625 3.328125 35.546875 0.953125 
Q 30.953125 -1.421875 24.3125 -1.421875 
Q 15.921875 -1.421875 10.953125 3.296875 
Q 6 8.015625 6 15.921875 
Q 6 25.140625 12.171875 29.828125 
Q 18.359375 34.515625 30.609375 34.515625 
L 43.21875 34.515625 
L 43.21875 35.40625 
Q 43.21875 41.609375 39.140625 45 
Q 35.0625 48.390625 27.6875 48.390625 
Q 23 48.390625 18.546875 47.265625 
Q 14.109375 46.140625 10.015625 43.890625 
L 10.015625 52.203125 
Q 14.9375 54.109375 19.578125 55.046875 
Q 24.21875 56 28.609375 56 
Q 40.484375 56 46.34375 49.84375 
Q 52.203125 43.703125 52.203125 31.203125 
z
" id="DejaVuSans-61"/>
      <path d="M 9.421875 75.984375 
L 18.40625 75.984375 
L 18.40625 0 
L 9.421875 0 
z
" id="DejaVuSans-6c"/>
      <path d="M 44.28125 53.078125 
L 44.28125 44.578125 
Q 40.484375 46.53125 36.375 47.5 
Q 32.28125 48.484375 27.875 48.484375 
Q 21.1875 48.484375 17.84375 46.4375 
Q 14.5 44.390625 14.5 40.28125 
Q 14.5 37.15625 16.890625 35.375 
Q 19.28125 33.59375 26.515625 31.984375 
L 29.59375 31.296875 
Q 39.15625 29.25 43.1875 25.515625 
Q 47.21875 21.78125 47.21875 15.09375 
Q 47.21875 7.46875 41.1875 3.015625 
Q 35.15625 -1.421875 24.609375 -1.421875 
Q 20.21875 -1.421875 15.453125 -0.5625 
Q 10.6875 0.296875 5.421875 2 
L 5.421875 11.28125 
Q 10.40625 8.6875 15.234375 7.390625 
Q 20.0625 6.109375 24.8125 6.109375 
Q 31.15625 6.109375 34.5625 8.28125 
Q 37.984375 10.453125 37.984375 14.40625 
Q 37.984375 18.0625 35.515625 20.015625 
Q 33.0625 21.96875 24.703125 23.78125 
L 21.578125 24.515625 
Q 13.234375 26.265625 9.515625 29.90625 
Q 5.8125 33.546875 5.8125 39.890625 
Q 5.8125 47.609375 11.28125 51.796875 
Q 16.75 56 26.8125 56 
Q 31.78125 56 36.171875 55.265625 
Q 40.578125 54.546875 44.28125 53.078125 
z
" id="DejaVuSans-73"/>
      <path d="M 56.203125 29.59375 
L 56.203125 25.203125 
L 14.890625 25.203125 
Q 15.484375 15.921875 20.484375 11.0625 
Q 25.484375 6.203125 34.421875 6.203125 
Q 39.59375 6.203125 44.453125 7.46875 
Q 49.3125 8.734375 54.109375 11.28125 
L 54.109375 2.78125 
Q 49.265625 0.734375 44.1875 -0.34375 
Q 39.109375 -1.421875 33.890625 -1.421875 
Q 20.796875 -1.421875 13.15625 6.1875 
Q 5.515625 13.8125 5.515625 26.8125 
Q 5.515625 40.234375 12.765625 48.109375 
Q 20.015625 56 32.328125 56 
Q 43.359375 56 49.78125 48.890625 
Q 56.203125 41.796875 56.203125 29.59375 
z
M 47.21875 32.234375 
Q 47.125 39.59375 43.09375 43.984375 
Q 39.0625 48.390625 32.421875 48.390625 
Q 24.90625 48.390625 20.390625 44.140625 
Q 15.875 39.890625 15.1875 32.171875 
z
" id="DejaVuSans-65"/>
      <path id="DejaVuSans-20"/>
      <path d="M 19.671875 64.796875 
L 19.671875 37.40625 
L 32.078125 37.40625 
Q 38.96875 37.40625 42.71875 40.96875 
Q 46.484375 44.53125 46.484375 51.125 
Q 46.484375 57.671875 42.71875 61.234375 
Q 38.96875 64.796875 32.078125 64.796875 
z
M 9.8125 72.90625 
L 32.078125 72.90625 
Q 44.34375 72.90625 50.609375 67.359375 
Q 56.890625 61.8125 56.890625 51.125 
Q 56.890625 40.328125 50.609375 34.8125 
Q 44.34375 29.296875 32.078125 29.296875 
L 19.671875 29.296875 
L 19.671875 0 
L 9.8125 0 
z
" id="DejaVuSans-50"/>
      <path d="M 30.609375 48.390625 
Q 23.390625 48.390625 19.1875 42.75 
Q 14.984375 37.109375 14.984375 27.296875 
Q 14.984375 17.484375 19.15625 11.84375 
Q 23.34375 6.203125 30.609375 6.203125 
Q 37.796875 6.203125 41.984375 11.859375 
Q 46.1875 17.53125 46.1875 27.296875 
Q 46.1875 37.015625 41.984375 42.703125 
Q 37.796875 48.390625 30.609375 48.390625 
z
M 30.609375 56 
Q 42.328125 56 49.015625 48.375 
Q 55.71875 40.765625 55.71875 27.296875 
Q 55.71875 13.875 49.015625 6.21875 
Q 42.328125 -1.421875 30.609375 -1.421875 
Q 18.84375 -1.421875 12.171875 6.21875 
Q 5.515625 13.875 5.515625 27.296875 
Q 5.515625 40.765625 12.171875 48.375 
Q 18.84375 56 30.609375 56 
z
" id="DejaVuSans-6f"/>
      <path d="M 9.421875 54.6875 
L 18.40625 54.6875 
L 18.40625 0 
L 9.421875 0 
z
M 9.421875 75.984375 
L 18.40625 75.984375 
L 18.40625 64.59375 
L 9.421875 64.59375 
z
" id="DejaVuSans-69"/>
      <path d="M 18.3125 70.21875 
L 18.3125 54.6875 
L 36.8125 54.6875 
L 36.8125 47.703125 
L 18.3125 47.703125 
L 18.3125 18.015625 
Q 18.3125 11.328125 20.140625 9.421875 
Q 21.96875 7.515625 27.59375 7.515625 
L 36.8125 7.515625 
L 36.8125 0 
L 27.59375 0 
Q 17.1875 0 13.234375 3.875 
Q 9.28125 7.765625 9.28125 18.015625 
L 9.28125 47.703125 
L 2.6875 47.703125 
L 2.6875 54.6875 
L 9.28125 54.6875 
L 9.28125 70.21875 
z
" id="DejaVuSans-74"/>
      <path d="M 2.984375 54.6875 
L 12.5 54.6875 
L 29.59375 8.796875 
L 46.6875 54.6875 
L 56.203125 54.6875 
L 35.6875 0 
L 23.484375 0 
z
" id="DejaVuSans-76"/>
      <path d="M 44.390625 34.1875 
Q 47.5625 33.109375 50.5625 29.59375 
Q 53.5625 26.078125 56.59375 19.921875 
L 66.609375 0 
L 56 0 
L 46.6875 18.703125 
Q 43.0625 26.03125 39.671875 28.421875 
Q 36.28125 30.8125 30.421875 30.8125 
L 19.671875 30.8125 
L 19.671875 0 
L 9.8125 0 
L 9.8125 72.90625 
L 32.078125 72.90625 
Q 44.578125 72.90625 50.734375 67.671875 
Q 56.890625 62.453125 56.890625 51.90625 
Q 56.890625 45.015625 53.6875 40.46875 
Q 50.484375 35.9375 44.390625 34.1875 
z
M 19.671875 64.796875 
L 19.671875 38.921875 
L 32.078125 38.921875 
Q 39.203125 38.921875 42.84375 42.21875 
Q 46.484375 45.515625 46.484375 51.90625 
Q 46.484375 58.296875 42.84375 61.546875 
Q 39.203125 64.796875 32.078125 64.796875 
z
" id="DejaVuSans-52"/>
     </defs>
     <g transform="translate(514.87125 797.339062)scale(0.16 -0.16)">
      <use xlink:href="#DejaVuSans-46"/>
      <use x="57.378906" xlink:href="#DejaVuSans-61"/>
      <use x="118.658203" xlink:href="#DejaVuSans-6c"/>
      <use x="146.441406" xlink:href="#DejaVuSans-73"/>
      <use x="198.541016" xlink:href="#DejaVuSans-65"/>
      <use x="260.064453" xlink:href="#DejaVuSans-20"/>
      <use x="291.851562" xlink:href="#DejaVuSans-50"/>
      <use x="352.107422" xlink:href="#DejaVuSans-6f"/>
      <use x="413.289062" xlink:href="#DejaVuSans-73"/>
      <use x="465.388672" xlink:href="#DejaVuSans-69"/>
      <use x="493.171875" xlink:href="#DejaVuSans-74"/>
      <use x="532.380859" xlink:href="#DejaVuSans-69"/>
      <use x="560.164062" xlink:href="#DejaVuSans-76"/>
      <use x="619.34375" xlink:href="#DejaVuSans-65"/>
      <use x="680.867188" xlink:href="#DejaVuSans-20"/>
      <use x="712.654297" xlink:href="#DejaVuSans-52"/>
      <use x="782.105469" xlink:href="#DejaVuSans-61"/>
      <use x="843.384766" xlink:href="#DejaVuSans-74"/>
      <use x="882.59375" xlink:href="#DejaVuSans-65"/>
     </g>
    </g>
   </g>
   <g id="matplotlib.axis_2">
    <g id="ytick_1">
     <g id="line2d_7">
      <defs>
       <path d="M 0 0 
L -3.5 0 
" id="mf9e2ec9755" style="stroke:#000000;stroke-width:1.3;"/>
      </defs>
      <g>
       <use style="stroke:#000000;stroke-width:1.3;" x="144" xlink:href="#mf9e2ec9755" y="756"/>
      </g>
     </g>
     <g id="text_8">
      <!-- 0.0 -->
      <g transform="translate(110.725938 760.938984)scale(0.13 -0.13)">
       <use xlink:href="#DejaVuSans-30"/>
       <use x="63.623047" xlink:href="#DejaVuSans-2e"/>
       <use x="95.410156" xlink:href="#DejaVuSans-30"/>
      </g>
     </g>
    </g>
    <g id="ytick_2">
     <g id="line2d_8">
      <g>
       <use style="stroke:#000000;stroke-width:1.3;" x="144" xlink:href="#mf9e2ec9755" y="631.748571"/>
      </g>
     </g>
     <g id="text_9">
      <!-- 0.2 -->
      <g transform="translate(110.725938 636.687556)scale(0.13 -0.13)">
       <use xlink:href="#DejaVuSans-30"/>
       <use x="63.623047" xlink:href="#DejaVuSans-2e"/>
       <use x="95.410156" xlink:href="#DejaVuSans-32"/>
      </g>
     </g>
    </g>
    <g id="ytick_3">
     <g id="line2d_9">
      <g>
       <use style="stroke:#000000;stroke-width:1.3;" x="144" xlink:href="#mf9e2ec9755" y="507.497143"/>
      </g>
     </g>
     <g id="text_10">
      <!-- 0.4 -->
      <g transform="translate(110.725938 512.436127)scale(0.13 -0.13)">
       <use xlink:href="#DejaVuSans-30"/>
       <use x="63.623047" xlink:href="#DejaVuSans-2e"/>
       <use x="95.410156" xlink:href="#DejaVuSans-34"/>
      </g>
     </g>
    </g>
    <g id="ytick_4">
     <g id="line2d_10">
      <g>
       <use style="stroke:#000000;stroke-width:1.3;" x="144" xlink:href="#mf9e2ec9755" y="383.245714"/>
      </g>
     </g>
     <g id="text_11">
      <!-- 0.6 -->
      <g transform="translate(110.725938 388.184699)scale(0.13 -0.13)">
       <use xlink:href="#DejaVuSans-30"/>
       <use x="63.623047" xlink:href="#DejaVuSans-2e"/>
       <use x="95.410156" xlink:href="#DejaVuSans-36"/>
      </g>
     </g>
    </g>
    <g id="ytick_5">
     <g id="line2d_11">
      <g>
       <use style="stroke:#000000;stroke-width:1.3;" x="144" xlink:href="#mf9e2ec9755" y="258.994286"/>
      </g>
     </g>
     <g id="text_12">
      <!-- 0.8 -->
      <g transform="translate(110.725938 263.93327)scale(0.13 -0.13)">
       <use xlink:href="#DejaVuSans-30"/>
       <use x="63.623047" xlink:href="#DejaVuSans-2e"/>
       <use x="95.410156" xlink:href="#DejaVuSans-38"/>
      </g>
     </g>
    </g>
    <g id="ytick_6">
     <g id="line2d_12">
      <g>
       <use style="stroke:#000000;stroke-width:1.3;" x="144" xlink:href="#mf9e2ec9755" y="134.742857"/>
      </g>
     </g>
     <g id="text_13">
      <!-- 1.0 -->
      <g transform="translate(110.725938 139.681842)scale(0.13 -0.13)">
       <use xlink:href="#DejaVuSans-31"/>
       <use x="63.623047" xlink:href="#DejaVuSans-2e"/>
       <use x="95.410156" xlink:href="#DejaVuSans-30"/>
      </g>
     </g>
    </g>
    <g id="text_14">
     <!-- True Positive Rate -->
     <defs>
      <path d="M -0.296875 72.90625 
L 61.375 72.90625 
L 61.375 64.59375 
L 35.5 64.59375 
L 35.5 0 
L 25.59375 0 
L 25.59375 64.59375 
L -0.296875 64.59375 
z
" id="DejaVuSans-54"/>
      <path d="M 41.109375 46.296875 
Q 39.59375 47.171875 37.8125 47.578125 
Q 36.03125 48 33.890625 48 
Q 26.265625 48 22.1875 43.046875 
Q 18.109375 38.09375 18.109375 28.8125 
L 18.109375 0 
L 9.078125 0 
L 9.078125 54.6875 
L 18.109375 54.6875 
L 18.109375 46.1875 
Q 20.953125 51.171875 25.484375 53.578125 
Q 30.03125 56 36.53125 56 
Q 37.453125 56 38.578125 55.875 
Q 39.703125 55.765625 41.0625 55.515625 
z
" id="DejaVuSans-72"/>
      <path d="M 8.5 21.578125 
L 8.5 54.6875 
L 17.484375 54.6875 
L 17.484375 21.921875 
Q 17.484375 14.15625 20.5 10.265625 
Q 23.53125 6.390625 29.59375 6.390625 
Q 36.859375 6.390625 41.078125 11.03125 
Q 45.3125 15.671875 45.3125 23.6875 
L 45.3125 54.6875 
L 54.296875 54.6875 
L 54.296875 0 
L 45.3125 0 
L 45.3125 8.40625 
Q 42.046875 3.421875 37.71875 1 
Q 33.40625 -1.421875 27.6875 -1.421875 
Q 18.265625 -1.421875 13.375 4.4375 
Q 8.5 10.296875 8.5 21.578125 
z
M 31.109375 56 
z
" id="DejaVuSans-75"/>
     </defs>
     <g transform="translate(103.398438 502.71375)rotate(-90)scale(0.16 -0.16)">
      <use xlink:href="#DejaVuSans-54"/>
      <use x="60.865234" xlink:href="#DejaVuSans-72"/>
      <use x="101.978516" xlink:href="#DejaVuSans-75"/>
      <use x="165.357422" xlink:href="#DejaVuSans-65"/>
      <use x="226.880859" xlink:href="#DejaVuSans-20"/>
      <use x="258.667969" xlink:href="#DejaVuSans-50"/>
      <use x="318.923828" xlink:href="#DejaVuSans-6f"/>
      <use x="380.105469" xlink:href="#DejaVuSans-73"/>
      <use x="432.205078" xlink:href="#DejaVuSans-69"/>
      <use x="459.988281" xlink:href="#DejaVuSans-74"/>
      <use x="499.197266" xlink:href="#DejaVuSans-69"/>
      <use x="526.980469" xlink:href="#DejaVuSans-76"/>
      <use x="586.160156" xlink:href="#DejaVuSans-65"/>
      <use x="647.683594" xlink:href="#DejaVuSans-20"/>
      <use x="679.470703" xlink:href="#DejaVuSans-52"/>
      <use x="748.921875" xlink:href="#DejaVuSans-61"/>
      <use x="810.201172" xlink:href="#DejaVuSans-74"/>
      <use x="849.410156" xlink:href="#DejaVuSans-65"/>
     </g>
    </g>
   </g>
   <g id="line2d_13">
    <path clip-path="url(#p03245d565c)" d="M 186.514286 703.826026 
L 195.017143 699.384681 
L 203.52 669.133116 
L 212.022857 659.100305 
L 220.525714 634.077944 
L 229.028571 625.313582 
L 237.531429 615.542599 
L 246.034286 604.425638 
L 254.537143 592.373002 
L 263.04 569.363371 
L 271.542857 564.219753 
L 280.045714 553.300898 
L 288.548571 543.507095 
L 297.051429 534.652553 
L 305.554286 526.613589 
L 314.057143 515.110594 
L 322.56 507.457169 
L 331.062857 492.856661 
L 339.565714 485.196363 
L 348.068571 483.721861 
L 356.571429 471.077486 
L 365.074286 466.374453 
L 373.577143 460.787773 
L 382.08 459.099574 
L 390.582857 455.431749 
L 399.085714 429.485804 
L 407.588571 427.494595 
L 416.091429 423.910419 
L 424.594286 420.355892 
L 433.097143 417.053658 
L 441.6 412.385192 
L 450.102857 409.038902 
L 458.605714 405.978344 
L 467.108571 400.357387 
L 475.611429 385.118359 
L 484.114286 381.741961 
L 492.617143 375.223785 
L 501.12 368.097635 
L 509.622857 356.83166 
L 518.125714 347.720065 
L 526.628571 345.381925 
L 535.131429 340.332184 
L 543.634286 337.151939 
L 552.137143 328.905738 
L 560.64 322.342868 
L 569.142857 318.13939 
L 577.645714 309.913464 
L 586.148571 308.834893 
L 594.651429 308.834893 
L 603.154286 304.852475 
L 611.657143 297.942968 
L 620.16 291.200777 
L 628.662857 288.995333 
L 637.165714 285.210922 
L 645.668571 281.533628 
L 654.171429 277.037952 
L 662.674286 274.826198 
L 671.177143 271.730211 
L 679.68 263.291251 
L 688.182857 263.291251 
L 696.685714 256.317312 
L 705.188571 253.283829 
L 713.691429 249.378132 
L 722.194286 245.571409 
L 730.697143 239.715665 
L 739.2 231.484939 
L 747.702857 226.446536 
L 756.205714 220.361339 
L 764.708571 219.806645 
L 773.211429 215.496037 
L 781.714286 212.849133 
L 790.217143 209.613418 
L 798.72 209.016056 
L 807.222857 204.428128 
L 815.725714 203.930326 
L 824.228571 203.930326 
L 832.731429 201.425257 
L 841.234286 201.425257 
L 849.737143 200.006891 
L 858.24 195.551922 
L 866.742857 192.235612 
L 875.245714 188.747956 
L 883.748571 188.747956 
L 892.251429 186.242887 
L 900.754286 183.050316 
L 909.257143 180.283545 
L 917.76 178.593361 
L 926.262857 178.593361 
L 934.765714 175.463388 
L 943.268571 175.463388 
L 951.771429 172.13261 
L 960.274286 169.210029 
L 968.777143 163.50326 
L 977.28 163.126284 
L 985.782857 161.076998 
L 994.285714 159.267319 
L 1002.788571 157.179608 
L 1011.291429 151.672218 
L 1019.794286 150.819771 
L 1028.297143 146.024131 
L 1036.8 134.742857 
" style="fill:none;stroke:#0000ff;stroke-linecap:square;stroke-width:3;"/>
   </g>
   <g id="line2d_14">
    <path clip-path="url(#p03245d565c)" d="M 186.514286 756 
L 1036.8 134.742857 
" style="fill:none;stroke:#000080;stroke-dasharray:11.1,4.8;stroke-dashoffset:0;stroke-width:3;"/>
   </g>
   <g id="line2d_15">
    <path clip-path="url(#p03245d565c)" d="M 186.514286 649.583948 
L 195.017143 616.761801 
L 203.52 579.973472 
L 212.022857 543.4267 
L 220.525714 528.743629 
L 229.028571 508.864244 
L 237.531429 485.303345 
L 246.034286 473.217906 
L 254.537143 459.833314 
L 263.04 452.869546 
L 271.542857 446.618981 
L 280.045714 439.915731 
L 288.548571 436.564458 
L 297.051429 430.507482 
L 305.554286 423.767836 
L 314.057143 417.680323 
L 322.56 416.768097 
L 331.062857 403.106242 
L 339.565714 401.2007 
L 348.068571 389.755191 
L 356.571429 388.317096 
L 365.074286 384.335325 
L 373.577143 378.220343 
L 382.08 372.759404 
L 390.582857 365.91574 
L 399.085714 365.299413 
L 407.588571 364.964323 
L 416.091429 358.018375 
L 424.594286 353.227373 
L 433.097143 353.008234 
L 441.6 351.120247 
L 450.102857 346.394125 
L 458.605714 345.006479 
L 467.108571 342.130288 
L 475.611429 334.192154 
L 484.114286 332.795843 
L 492.617143 331.612229 
L 501.12 330.408242 
L 509.622857 324.888404 
L 518.125714 323.297098 
L 526.628571 319.278182 
L 535.131429 318.936457 
L 543.634286 310.405699 
L 552.137143 310.405699 
L 560.64 308.745876 
L 569.142857 304.120471 
L 577.645714 304.010902 
L 586.148571 302.249969 
L 594.651429 294.377105 
L 603.154286 293.105444 
L 611.657143 289.106978 
L 620.16 289.106978 
L 628.662857 288.326994 
L 637.165714 279.035138 
L 645.668571 277.195714 
L 654.171429 275.087864 
L 662.674286 274.502876 
L 671.177143 263.918154 
L 679.68 263.918154 
L 688.182857 258.974886 
L 696.685714 255.618875 
L 705.188571 251.318286 
L 713.691429 251.318286 
L 722.194286 245.25478 
L 730.697143 245.25478 
L 739.2 235.797545 
L 747.702857 235.45582 
L 756.205714 232.278314 
L 764.708571 228.996208 
L 773.211429 224.177422 
L 781.714286 222.205177 
L 790.217143 222.205177 
L 798.72 219.777889 
L 807.222857 219.192901 
L 815.725714 214.994887 
L 824.228571 212.16272 
L 832.731429 212.16272 
L 841.234286 210.482208 
L 849.737143 205.092053 
L 858.24 205.092053 
L 866.742857 203.515769 
L 875.245714 201.517504 
L 883.748571 199.381662 
L 892.251429 196.174045 
L 900.754286 191.012491 
L 909.257143 184.84407 
L 917.76 183.375377 
L 926.262857 179.158826 
L 934.765714 175.398867 
L 943.268571 174.586566 
L 951.771429 173.047297 
L 960.274286 169.149235 
L 968.777143 166.080672 
L 977.28 164.273972 
L 985.782857 160.411189 
L 994.285714 158.552783 
L 1002.788571 156.712452 
L 1011.291429 150.736975 
L 1019.794286 148.660814 
L 1028.297143 147.587371 
L 1036.8 136.386395 
" style="fill:none;stroke:#ff0000;stroke-linecap:square;stroke-width:3;"/>
   </g>
   <g id="line2d_16">
    <path clip-path="url(#p03245d565c)" d="M 186.514286 756 
L 1036.8 134.742857 
" style="fill:none;stroke:#000080;stroke-dasharray:11.1,4.8;stroke-dashoffset:0;stroke-width:3;"/>
   </g>
   <g id="line2d_17">
    <path clip-path="url(#p03245d565c)" d="M 186.514286 747.416156 
L 195.017143 730.780458 
L 203.52 711.770396 
L 212.022857 696.847473 
L 220.525714 685.858753 
L 229.028571 675.012536 
L 237.531429 663.502553 
L 246.034286 657.546711 
L 254.537143 642.946401 
L 263.04 634.270403 
L 271.542857 626.666115 
L 280.045714 622.560557 
L 288.548571 615.097776 
L 297.051429 597.87546 
L 305.554286 584.815354 
L 314.057143 572.657268 
L 322.56 569.891622 
L 331.062857 559.828876 
L 339.565714 551.063494 
L 348.068571 536.939413 
L 356.571429 531.168572 
L 365.074286 524.052413 
L 373.577143 516.475378 
L 382.08 508.998761 
L 390.582857 507.340254 
L 399.085714 502.030364 
L 407.588571 497.489128 
L 416.091429 475.335391 
L 424.594286 471.228911 
L 433.097143 468.240658 
L 441.6 462.550536 
L 450.102857 455.701061 
L 458.605714 449.52198 
L 467.108571 443.18998 
L 475.611429 437.112034 
L 484.114286 434.208963 
L 492.617143 429.848124 
L 501.12 427.525047 
L 509.622857 417.116583 
L 518.125714 413.487975 
L 526.628571 402.197747 
L 535.131429 395.418364 
L 543.634286 395.418364 
L 552.137143 386.799342 
L 560.64 377.810827 
L 569.142857 369.058834 
L 577.645714 362.913265 
L 586.148571 360.546711 
L 594.651429 355.339399 
L 603.154286 350.985344 
L 611.657143 345.576572 
L 620.16 344.59357 
L 628.662857 337.806841 
L 637.165714 335.562979 
L 645.668571 332.209399 
L 654.171429 324.307666 
L 662.674286 319.877081 
L 671.177143 319.877081 
L 679.68 312.342711 
L 688.182857 307.825444 
L 696.685714 304.110784 
L 705.188571 299.77916 
L 713.691429 298.443123 
L 722.194286 294.203895 
L 730.697143 288.72354 
L 739.2 287.060292 
L 747.702857 283.094114 
L 756.205714 282.098509 
L 764.708571 279.134795 
L 773.211429 274.934159 
L 781.714286 273.247987 
L 790.217143 264.698367 
L 798.72 261.816932 
L 807.222857 254.99947 
L 815.725714 241.669165 
L 824.228571 239.594996 
L 832.731429 229.467116 
L 841.234286 225.605378 
L 849.737143 220.475904 
L 858.24 216.817154 
L 866.742857 214.155907 
L 875.245714 205.974337 
L 883.748571 204.356909 
L 892.251429 201.535882 
L 900.754286 196.203118 
L 909.257143 193.69157 
L 917.76 190.704757 
L 926.262857 183.364036 
L 934.765714 178.795398 
L 943.268571 177.55049 
L 951.771429 170.753445 
L 960.274286 167.843269 
L 968.777143 166.507501 
L 977.28 164.123265 
L 985.782857 160.402252 
L 994.285714 156.56188 
L 1002.788571 152.694263 
L 1011.291429 146.035795 
L 1019.794286 143.003562 
L 1028.297143 139.28139 
L 1036.8 134.742857 
" style="fill:none;stroke:#008000;stroke-linecap:square;stroke-width:3;"/>
   </g>
   <g id="line2d_18">
    <path clip-path="url(#p03245d565c)" d="M 186.514286 756 
L 1036.8 134.742857 
" style="fill:none;stroke:#000080;stroke-dasharray:11.1,4.8;stroke-dashoffset:0;stroke-width:3;"/>
   </g>
   <g id="line2d_19">
    <path clip-path="url(#p03245d565c)" d="M 186.514286 713.499198 
L 195.017143 684.315367 
L 203.52 666.009674 
L 212.022857 639.862174 
L 220.525714 608.015964 
L 229.028571 593.56154 
L 237.531429 574.919111 
L 246.034286 565.949039 
L 254.537143 551.463569 
L 263.04 542.892803 
L 271.542857 531.018075 
L 280.045714 511.33406 
L 288.548571 505.261795 
L 297.051429 487.684821 
L 305.554286 478.906811 
L 314.057143 472.439048 
L 322.56 464.881129 
L 331.062857 455.994069 
L 339.565714 450.095123 
L 348.068571 439.42723 
L 356.571429 436.524727 
L 365.074286 426.393248 
L 373.577143 423.547964 
L 382.08 413.121793 
L 390.582857 405.182188 
L 399.085714 399.509772 
L 407.588571 394.919136 
L 416.091429 386.711605 
L 424.594286 377.500222 
L 433.097143 372.012367 
L 441.6 368.928851 
L 450.102857 363.002443 
L 458.605714 356.548049 
L 467.108571 353.079607 
L 475.611429 344.904906 
L 484.114286 338.582631 
L 492.617143 332.518089 
L 501.12 327.169007 
L 509.622857 321.611098 
L 518.125714 312.791925 
L 526.628571 308.244512 
L 535.131429 307.597032 
L 543.634286 295.475318 
L 552.137143 291.592938 
L 560.64 287.056066 
L 569.142857 281.075373 
L 577.645714 277.703158 
L 586.148571 272.536666 
L 594.651429 262.239082 
L 603.154286 253.872622 
L 611.657143 250.760555 
L 620.16 249.922151 
L 628.662857 244.139704 
L 637.165714 236.973465 
L 645.668571 232.707564 
L 654.171429 228.086188 
L 662.674286 222.986714 
L 671.177143 219.211081 
L 679.68 215.980952 
L 688.182857 210.967271 
L 696.685714 209.528541 
L 705.188571 202.189028 
L 713.691429 199.649512 
L 722.194286 197.585976 
L 730.697143 194.521672 
L 739.2 190.234778 
L 747.702857 184.539769 
L 756.205714 180.643811 
L 764.708571 180.471796 
L 773.211429 175.834183 
L 781.714286 173.630267 
L 790.217143 169.694978 
L 798.72 168.862089 
L 807.222857 162.793999 
L 815.725714 161.586589 
L 824.228571 159.864777 
L 832.731429 156.668781 
L 841.234286 156.56051 
L 849.737143 153.038542 
L 858.24 151.764088 
L 866.742857 150.133445 
L 875.245714 147.951107 
L 883.748571 147.203119 
L 892.251429 146.6627 
L 900.754286 145.474926 
L 909.257143 144.446695 
L 917.76 143.488343 
L 926.262857 142.442567 
L 934.765714 142.442567 
L 943.268571 140.749719 
L 951.771429 139.451037 
L 960.274286 138.631731 
L 968.777143 138.235124 
L 977.28 138.128269 
L 985.782857 137.147012 
L 994.285714 136.724825 
L 1002.788571 136.413216 
L 1011.291429 136.306361 
L 1019.794286 135.899412 
L 1028.297143 135.48768 
L 1036.8 135.48768 
" style="fill:none;stroke:#bf00bf;stroke-linecap:square;stroke-width:3;"/>
   </g>
   <g id="line2d_20">
    <path clip-path="url(#p03245d565c)" d="M 186.514286 756 
L 1036.8 134.742857 
" style="fill:none;stroke:#000080;stroke-dasharray:11.1,4.8;stroke-dashoffset:0;stroke-width:3;"/>
   </g>
   <g id="patch_3">
    <path d="M 144 756 
L 144 103.68 
" style="fill:none;stroke:#000000;stroke-linecap:square;stroke-linejoin:miter;stroke-width:0.8;"/>
   </g>
   <g id="patch_4">
    <path d="M 1036.8 756 
L 1036.8 103.68 
" style="fill:none;stroke:#000000;stroke-linecap:square;stroke-linejoin:miter;stroke-width:0.8;"/>
   </g>
   <g id="patch_5">
    <path d="M 144 756 
L 1036.8 756 
" style="fill:none;stroke:#000000;stroke-linecap:square;stroke-linejoin:miter;stroke-width:0.8;"/>
   </g>
   <g id="patch_6">
    <path d="M 144 103.68 
L 1036.8 103.68 
" style="fill:none;stroke:#000000;stroke-linecap:square;stroke-linejoin:miter;stroke-width:0.8;"/>
   </g>
   <g id="legend_1">
    <g id="patch_7">
     <path d="M 810.679219 749.5 
L 1027.7 749.5 
Q 1030.3 749.5 1030.3 746.9 
L 1030.3 671.87375 
Q 1030.3 669.27375 1027.7 669.27375 
L 810.679219 669.27375 
Q 808.079219 669.27375 808.079219 671.87375 
L 808.079219 746.9 
Q 808.079219 749.5 810.679219 749.5 
z
" style="fill:#ffffff;opacity:0.8;stroke:#cccccc;stroke-linejoin:miter;stroke-width:0.39;"/>
    </g>
    <g id="line2d_21">
     <path d="M 813.279219 679.801719 
L 839.279219 679.801719 
" style="fill:none;stroke:#0000ff;stroke-linecap:square;stroke-width:3;"/>
    </g>
    <g id="line2d_22"/>
    <g id="text_15">
     <!-- Clinical - AUC = 0.695 -->
     <defs>
      <path d="M 64.40625 67.28125 
L 64.40625 56.890625 
Q 59.421875 61.53125 53.78125 63.8125 
Q 48.140625 66.109375 41.796875 66.109375 
Q 29.296875 66.109375 22.65625 58.46875 
Q 16.015625 50.828125 16.015625 36.375 
Q 16.015625 21.96875 22.65625 14.328125 
Q 29.296875 6.6875 41.796875 6.6875 
Q 48.140625 6.6875 53.78125 8.984375 
Q 59.421875 11.28125 64.40625 15.921875 
L 64.40625 5.609375 
Q 59.234375 2.09375 53.4375 0.328125 
Q 47.65625 -1.421875 41.21875 -1.421875 
Q 24.65625 -1.421875 15.125 8.703125 
Q 5.609375 18.84375 5.609375 36.375 
Q 5.609375 53.953125 15.125 64.078125 
Q 24.65625 74.21875 41.21875 74.21875 
Q 47.75 74.21875 53.53125 72.484375 
Q 59.328125 70.75 64.40625 67.28125 
z
" id="DejaVuSans-43"/>
      <path d="M 54.890625 33.015625 
L 54.890625 0 
L 45.90625 0 
L 45.90625 32.71875 
Q 45.90625 40.484375 42.875 44.328125 
Q 39.84375 48.1875 33.796875 48.1875 
Q 26.515625 48.1875 22.3125 43.546875 
Q 18.109375 38.921875 18.109375 30.90625 
L 18.109375 0 
L 9.078125 0 
L 9.078125 54.6875 
L 18.109375 54.6875 
L 18.109375 46.1875 
Q 21.34375 51.125 25.703125 53.5625 
Q 30.078125 56 35.796875 56 
Q 45.21875 56 50.046875 50.171875 
Q 54.890625 44.34375 54.890625 33.015625 
z
" id="DejaVuSans-6e"/>
      <path d="M 48.78125 52.59375 
L 48.78125 44.1875 
Q 44.96875 46.296875 41.140625 47.34375 
Q 37.3125 48.390625 33.40625 48.390625 
Q 24.65625 48.390625 19.8125 42.84375 
Q 14.984375 37.3125 14.984375 27.296875 
Q 14.984375 17.28125 19.8125 11.734375 
Q 24.65625 6.203125 33.40625 6.203125 
Q 37.3125 6.203125 41.140625 7.25 
Q 44.96875 8.296875 48.78125 10.40625 
L 48.78125 2.09375 
Q 45.015625 0.34375 40.984375 -0.53125 
Q 36.96875 -1.421875 32.421875 -1.421875 
Q 20.0625 -1.421875 12.78125 6.34375 
Q 5.515625 14.109375 5.515625 27.296875 
Q 5.515625 40.671875 12.859375 48.328125 
Q 20.21875 56 33.015625 56 
Q 37.15625 56 41.109375 55.140625 
Q 45.0625 54.296875 48.78125 52.59375 
z
" id="DejaVuSans-63"/>
      <path d="M 4.890625 31.390625 
L 31.203125 31.390625 
L 31.203125 23.390625 
L 4.890625 23.390625 
z
" id="DejaVuSans-2d"/>
      <path d="M 34.1875 63.1875 
L 20.796875 26.90625 
L 47.609375 26.90625 
z
M 28.609375 72.90625 
L 39.796875 72.90625 
L 67.578125 0 
L 57.328125 0 
L 50.6875 18.703125 
L 17.828125 18.703125 
L 11.1875 0 
L 0.78125 0 
z
" id="DejaVuSans-41"/>
      <path d="M 8.6875 72.90625 
L 18.609375 72.90625 
L 18.609375 28.609375 
Q 18.609375 16.890625 22.84375 11.734375 
Q 27.09375 6.59375 36.625 6.59375 
Q 46.09375 6.59375 50.34375 11.734375 
Q 54.59375 16.890625 54.59375 28.609375 
L 54.59375 72.90625 
L 64.5 72.90625 
L 64.5 27.390625 
Q 64.5 13.140625 57.4375 5.859375 
Q 50.390625 -1.421875 36.625 -1.421875 
Q 22.796875 -1.421875 15.734375 5.859375 
Q 8.6875 13.140625 8.6875 27.390625 
z
" id="DejaVuSans-55"/>
      <path d="M 10.59375 45.40625 
L 73.1875 45.40625 
L 73.1875 37.203125 
L 10.59375 37.203125 
z
M 10.59375 25.484375 
L 73.1875 25.484375 
L 73.1875 17.1875 
L 10.59375 17.1875 
z
" id="DejaVuSans-3d"/>
      <path d="M 10.984375 1.515625 
L 10.984375 10.5 
Q 14.703125 8.734375 18.5 7.8125 
Q 22.3125 6.890625 25.984375 6.890625 
Q 35.75 6.890625 40.890625 13.453125 
Q 46.046875 20.015625 46.78125 33.40625 
Q 43.953125 29.203125 39.59375 26.953125 
Q 35.25 24.703125 29.984375 24.703125 
Q 19.046875 24.703125 12.671875 31.3125 
Q 6.296875 37.9375 6.296875 49.421875 
Q 6.296875 60.640625 12.9375 67.421875 
Q 19.578125 74.21875 30.609375 74.21875 
Q 43.265625 74.21875 49.921875 64.515625 
Q 56.59375 54.828125 56.59375 36.375 
Q 56.59375 19.140625 48.40625 8.859375 
Q 40.234375 -1.421875 26.421875 -1.421875 
Q 22.703125 -1.421875 18.890625 -0.6875 
Q 15.09375 0.046875 10.984375 1.515625 
z
M 30.609375 32.421875 
Q 37.25 32.421875 41.125 36.953125 
Q 45.015625 41.5 45.015625 49.421875 
Q 45.015625 57.28125 41.125 61.84375 
Q 37.25 66.40625 30.609375 66.40625 
Q 23.96875 66.40625 20.09375 61.84375 
Q 16.21875 57.28125 16.21875 49.421875 
Q 16.21875 41.5 20.09375 36.953125 
Q 23.96875 32.421875 30.609375 32.421875 
z
" id="DejaVuSans-39"/>
      <path d="M 10.796875 72.90625 
L 49.515625 72.90625 
L 49.515625 64.59375 
L 19.828125 64.59375 
L 19.828125 46.734375 
Q 21.96875 47.46875 24.109375 47.828125 
Q 26.265625 48.1875 28.421875 48.1875 
Q 40.625 48.1875 47.75 41.5 
Q 54.890625 34.8125 54.890625 23.390625 
Q 54.890625 11.625 47.5625 5.09375 
Q 40.234375 -1.421875 26.90625 -1.421875 
Q 22.3125 -1.421875 17.546875 -0.640625 
Q 12.796875 0.140625 7.71875 1.703125 
L 7.71875 11.625 
Q 12.109375 9.234375 16.796875 8.0625 
Q 21.484375 6.890625 26.703125 6.890625 
Q 35.15625 6.890625 40.078125 11.328125 
Q 45.015625 15.765625 45.015625 23.390625 
Q 45.015625 31 40.078125 35.4375 
Q 35.15625 39.890625 26.703125 39.890625 
Q 22.75 39.890625 18.8125 39.015625 
Q 14.890625 38.140625 10.796875 36.28125 
z
" id="DejaVuSans-35"/>
     </defs>
     <g transform="translate(849.679219 684.351719)scale(0.13 -0.13)">
      <use xlink:href="#DejaVuSans-43"/>
      <use x="69.824219" xlink:href="#DejaVuSans-6c"/>
      <use x="97.607422" xlink:href="#DejaVuSans-69"/>
      <use x="125.390625" xlink:href="#DejaVuSans-6e"/>
      <use x="188.769531" xlink:href="#DejaVuSans-69"/>
      <use x="216.552734" xlink:href="#DejaVuSans-63"/>
      <use x="271.533203" xlink:href="#DejaVuSans-61"/>
      <use x="332.8125" xlink:href="#DejaVuSans-6c"/>
      <use x="360.595703" xlink:href="#DejaVuSans-20"/>
      <use x="392.382812" xlink:href="#DejaVuSans-2d"/>
      <use x="428.466797" xlink:href="#DejaVuSans-20"/>
      <use x="460.253906" xlink:href="#DejaVuSans-41"/>
      <use x="528.662109" xlink:href="#DejaVuSans-55"/>
      <use x="601.855469" xlink:href="#DejaVuSans-43"/>
      <use x="671.679688" xlink:href="#DejaVuSans-20"/>
      <use x="703.466797" xlink:href="#DejaVuSans-3d"/>
      <use x="787.255859" xlink:href="#DejaVuSans-20"/>
      <use x="819.042969" xlink:href="#DejaVuSans-30"/>
      <use x="882.666016" xlink:href="#DejaVuSans-2e"/>
      <use x="914.453125" xlink:href="#DejaVuSans-36"/>
      <use x="978.076172" xlink:href="#DejaVuSans-39"/>
      <use x="1041.699219" xlink:href="#DejaVuSans-35"/>
     </g>
    </g>
    <g id="line2d_23">
     <path d="M 813.279219 698.883281 
L 839.279219 698.883281 
" style="fill:none;stroke:#ff0000;stroke-linecap:square;stroke-width:3;"/>
    </g>
    <g id="line2d_24"/>
    <g id="text_16">
     <!-- Walking - AUC = 0.744 -->
     <defs>
      <path d="M 3.328125 72.90625 
L 13.28125 72.90625 
L 28.609375 11.28125 
L 43.890625 72.90625 
L 54.984375 72.90625 
L 70.3125 11.28125 
L 85.59375 72.90625 
L 95.609375 72.90625 
L 77.296875 0 
L 64.890625 0 
L 49.515625 63.28125 
L 33.984375 0 
L 21.578125 0 
z
" id="DejaVuSans-57"/>
      <path d="M 9.078125 75.984375 
L 18.109375 75.984375 
L 18.109375 31.109375 
L 44.921875 54.6875 
L 56.390625 54.6875 
L 27.390625 29.109375 
L 57.625 0 
L 45.90625 0 
L 18.109375 26.703125 
L 18.109375 0 
L 9.078125 0 
z
" id="DejaVuSans-6b"/>
      <path d="M 45.40625 27.984375 
Q 45.40625 37.75 41.375 43.109375 
Q 37.359375 48.484375 30.078125 48.484375 
Q 22.859375 48.484375 18.828125 43.109375 
Q 14.796875 37.75 14.796875 27.984375 
Q 14.796875 18.265625 18.828125 12.890625 
Q 22.859375 7.515625 30.078125 7.515625 
Q 37.359375 7.515625 41.375 12.890625 
Q 45.40625 18.265625 45.40625 27.984375 
z
M 54.390625 6.78125 
Q 54.390625 -7.171875 48.1875 -13.984375 
Q 42 -20.796875 29.203125 -20.796875 
Q 24.46875 -20.796875 20.265625 -20.09375 
Q 16.0625 -19.390625 12.109375 -17.921875 
L 12.109375 -9.1875 
Q 16.0625 -11.328125 19.921875 -12.34375 
Q 23.78125 -13.375 27.78125 -13.375 
Q 36.625 -13.375 41.015625 -8.765625 
Q 45.40625 -4.15625 45.40625 5.171875 
L 45.40625 9.625 
Q 42.625 4.78125 38.28125 2.390625 
Q 33.9375 0 27.875 0 
Q 17.828125 0 11.671875 7.65625 
Q 5.515625 15.328125 5.515625 27.984375 
Q 5.515625 40.671875 11.671875 48.328125 
Q 17.828125 56 27.875 56 
Q 33.9375 56 38.28125 53.609375 
Q 42.625 51.21875 45.40625 46.390625 
L 45.40625 54.6875 
L 54.390625 54.6875 
z
" id="DejaVuSans-67"/>
      <path d="M 8.203125 72.90625 
L 55.078125 72.90625 
L 55.078125 68.703125 
L 28.609375 0 
L 18.3125 0 
L 43.21875 64.59375 
L 8.203125 64.59375 
z
" id="DejaVuSans-37"/>
     </defs>
     <g transform="translate(849.679219 703.433281)scale(0.13 -0.13)">
      <use xlink:href="#DejaVuSans-57"/>
      <use x="98.783203" xlink:href="#DejaVuSans-61"/>
      <use x="160.0625" xlink:href="#DejaVuSans-6c"/>
      <use x="187.845703" xlink:href="#DejaVuSans-6b"/>
      <use x="245.755859" xlink:href="#DejaVuSans-69"/>
      <use x="273.539062" xlink:href="#DejaVuSans-6e"/>
      <use x="336.917969" xlink:href="#DejaVuSans-67"/>
      <use x="400.394531" xlink:href="#DejaVuSans-20"/>
      <use x="432.181641" xlink:href="#DejaVuSans-2d"/>
      <use x="468.265625" xlink:href="#DejaVuSans-20"/>
      <use x="500.052734" xlink:href="#DejaVuSans-41"/>
      <use x="568.460938" xlink:href="#DejaVuSans-55"/>
      <use x="641.654297" xlink:href="#DejaVuSans-43"/>
      <use x="711.478516" xlink:href="#DejaVuSans-20"/>
      <use x="743.265625" xlink:href="#DejaVuSans-3d"/>
      <use x="827.054688" xlink:href="#DejaVuSans-20"/>
      <use x="858.841797" xlink:href="#DejaVuSans-30"/>
      <use x="922.464844" xlink:href="#DejaVuSans-2e"/>
      <use x="954.251953" xlink:href="#DejaVuSans-37"/>
      <use x="1017.875" xlink:href="#DejaVuSans-34"/>
      <use x="1081.498047" xlink:href="#DejaVuSans-34"/>
     </g>
    </g>
    <g id="line2d_25">
     <path d="M 813.279219 717.964844 
L 839.279219 717.964844 
" style="fill:none;stroke:#008000;stroke-linecap:square;stroke-width:3;"/>
    </g>
    <g id="line2d_26"/>
    <g id="text_17">
     <!-- Gross Motor - AUC = 0.628 -->
     <defs>
      <path d="M 59.515625 10.40625 
L 59.515625 29.984375 
L 43.40625 29.984375 
L 43.40625 38.09375 
L 69.28125 38.09375 
L 69.28125 6.78125 
Q 63.578125 2.734375 56.6875 0.65625 
Q 49.8125 -1.421875 42 -1.421875 
Q 24.90625 -1.421875 15.25 8.5625 
Q 5.609375 18.5625 5.609375 36.375 
Q 5.609375 54.25 15.25 64.234375 
Q 24.90625 74.21875 42 74.21875 
Q 49.125 74.21875 55.546875 72.453125 
Q 61.96875 70.703125 67.390625 67.28125 
L 67.390625 56.78125 
Q 61.921875 61.421875 55.765625 63.765625 
Q 49.609375 66.109375 42.828125 66.109375 
Q 29.4375 66.109375 22.71875 58.640625 
Q 16.015625 51.171875 16.015625 36.375 
Q 16.015625 21.625 22.71875 14.15625 
Q 29.4375 6.6875 42.828125 6.6875 
Q 48.046875 6.6875 52.140625 7.59375 
Q 56.25 8.5 59.515625 10.40625 
z
" id="DejaVuSans-47"/>
      <path d="M 9.8125 72.90625 
L 24.515625 72.90625 
L 43.109375 23.296875 
L 61.8125 72.90625 
L 76.515625 72.90625 
L 76.515625 0 
L 66.890625 0 
L 66.890625 64.015625 
L 48.09375 14.015625 
L 38.1875 14.015625 
L 19.390625 64.015625 
L 19.390625 0 
L 9.8125 0 
z
" id="DejaVuSans-4d"/>
     </defs>
     <g transform="translate(849.679219 722.514844)scale(0.13 -0.13)">
      <use xlink:href="#DejaVuSans-47"/>
      <use x="77.490234" xlink:href="#DejaVuSans-72"/>
      <use x="118.572266" xlink:href="#DejaVuSans-6f"/>
      <use x="179.753906" xlink:href="#DejaVuSans-73"/>
      <use x="231.853516" xlink:href="#DejaVuSans-73"/>
      <use x="283.953125" xlink:href="#DejaVuSans-20"/>
      <use x="315.740234" xlink:href="#DejaVuSans-4d"/>
      <use x="402.019531" xlink:href="#DejaVuSans-6f"/>
      <use x="463.201172" xlink:href="#DejaVuSans-74"/>
      <use x="502.410156" xlink:href="#DejaVuSans-6f"/>
      <use x="563.591797" xlink:href="#DejaVuSans-72"/>
      <use x="604.705078" xlink:href="#DejaVuSans-20"/>
      <use x="636.492188" xlink:href="#DejaVuSans-2d"/>
      <use x="672.576172" xlink:href="#DejaVuSans-20"/>
      <use x="704.363281" xlink:href="#DejaVuSans-41"/>
      <use x="772.771484" xlink:href="#DejaVuSans-55"/>
      <use x="845.964844" xlink:href="#DejaVuSans-43"/>
      <use x="915.789062" xlink:href="#DejaVuSans-20"/>
      <use x="947.576172" xlink:href="#DejaVuSans-3d"/>
      <use x="1031.365234" xlink:href="#DejaVuSans-20"/>
      <use x="1063.152344" xlink:href="#DejaVuSans-30"/>
      <use x="1126.775391" xlink:href="#DejaVuSans-2e"/>
      <use x="1158.5625" xlink:href="#DejaVuSans-36"/>
      <use x="1222.185547" xlink:href="#DejaVuSans-32"/>
      <use x="1285.808594" xlink:href="#DejaVuSans-38"/>
     </g>
    </g>
    <g id="line2d_27">
     <path d="M 813.279219 737.046406 
L 839.279219 737.046406 
" style="fill:none;stroke:#bf00bf;stroke-linecap:square;stroke-width:3;"/>
    </g>
    <g id="line2d_28"/>
    <g id="text_18">
     <!-- Fine Motor - AUC = 0.752 -->
     <g transform="translate(849.679219 741.596406)scale(0.13 -0.13)">
      <use xlink:href="#DejaVuSans-46"/>
      <use x="57.410156" xlink:href="#DejaVuSans-69"/>
      <use x="85.193359" xlink:href="#DejaVuSans-6e"/>
      <use x="148.572266" xlink:href="#DejaVuSans-65"/>
      <use x="210.095703" xlink:href="#DejaVuSans-20"/>
      <use x="241.882812" xlink:href="#DejaVuSans-4d"/>
      <use x="328.162109" xlink:href="#DejaVuSans-6f"/>
      <use x="389.34375" xlink:href="#DejaVuSans-74"/>
      <use x="428.552734" xlink:href="#DejaVuSans-6f"/>
      <use x="489.734375" xlink:href="#DejaVuSans-72"/>
      <use x="530.847656" xlink:href="#DejaVuSans-20"/>
      <use x="562.634766" xlink:href="#DejaVuSans-2d"/>
      <use x="598.71875" xlink:href="#DejaVuSans-20"/>
      <use x="630.505859" xlink:href="#DejaVuSans-41"/>
      <use x="698.914062" xlink:href="#DejaVuSans-55"/>
      <use x="772.107422" xlink:href="#DejaVuSans-43"/>
      <use x="841.931641" xlink:href="#DejaVuSans-20"/>
      <use x="873.71875" xlink:href="#DejaVuSans-3d"/>
      <use x="957.507812" xlink:href="#DejaVuSans-20"/>
      <use x="989.294922" xlink:href="#DejaVuSans-30"/>
      <use x="1052.917969" xlink:href="#DejaVuSans-2e"/>
      <use x="1084.705078" xlink:href="#DejaVuSans-37"/>
      <use x="1148.328125" xlink:href="#DejaVuSans-35"/>
      <use x="1211.951172" xlink:href="#DejaVuSans-32"/>
     </g>
    </g>
   </g>
  </g>
 </g>
 <defs>
  <clipPath id="p03245d565c">
   <rect height="652.32" width="892.8" x="144" y="103.68"/>
  </clipPath>
 </defs>
</svg>
