<?xml version="1.0" encoding="utf-8" standalone="no"?>
<!DOCTYPE svg PUBLIC "-//W3C//DTD SVG 1.1//EN"
  "http://www.w3.org/Graphics/SVG/1.1/DTD/svg11.dtd">
<!-- Created with matplotlib (http://matplotlib.org/) -->
<svg height="864pt" version="1.1" viewBox="0 0 1152 864" width="1152pt" xmlns="http://www.w3.org/2000/svg" xmlns:xlink="http://www.w3.org/1999/xlink">
 <defs>
  <style type="text/css">
*{stroke-linecap:butt;stroke-linejoin:round;}
  </style>
 </defs>
 <g id="figure_1">
  <g id="patch_1">
   <path d="M 0 864 
L 1152 864 
L 1152 0 
L 0 0 
z
" style="fill:#ffffff;"/>
  </g>
  <g id="axes_1">
   <g id="patch_2">
    <path d="M 144 756 
L 1036.8 756 
L 1036.8 103.68 
L 144 103.68 
z
" style="fill:#ffffff;"/>
   </g>
   <g id="PolyCollection_1">
    <path clip-path="url(#p30c93a9e4d)" d="M 186.514286 280.357986 
L 186.514286 412.993847 
L 195.017143 412.993847 
L 203.52 412.993847 
L 212.022857 408.61969 
L 220.525714 406.779176 
L 229.028571 406.779176 
L 237.531429 397.023886 
L 246.034286 392.178314 
L 254.537143 390.854094 
L 263.04 366.783363 
L 271.542857 365.841104 
L 280.045714 363.303036 
L 288.548571 358.643006 
L 297.051429 354.488607 
L 305.554286 353.886799 
L 314.057143 348.414575 
L 322.56 346.258919 
L 331.062857 324.445256 
L 339.565714 320.715019 
L 348.068571 317.411253 
L 356.571429 317.411253 
L 365.074286 317.411253 
L 373.577143 316.705924 
L 382.08 316.705924 
L 390.582857 313.176097 
L 399.085714 298.925057 
L 407.588571 298.925057 
L 416.091429 296.097582 
L 424.594286 295.166028 
L 433.097143 293.043731 
L 441.6 289.618859 
L 450.102857 289.618859 
L 458.605714 285.040907 
L 467.108571 285.040907 
L 475.611429 276.657431 
L 484.114286 270.019552 
L 492.617143 268.830578 
L 501.12 267.733264 
L 509.622857 266.576594 
L 518.125714 266.418168 
L 526.628571 263.359633 
L 535.131429 263.359633 
L 543.634286 247.342904 
L 552.137143 246.044052 
L 560.64 245.557376 
L 569.142857 245.557376 
L 577.645714 245.557376 
L 586.148571 245.557376 
L 594.651429 244.688186 
L 603.154286 243.678745 
L 611.657143 224.587867 
L 620.16 224.587867 
L 628.662857 224.111509 
L 637.165714 224.111509 
L 645.668571 224.111509 
L 654.171429 223.9462 
L 662.674286 223.9462 
L 671.177143 223.9462 
L 679.68 223.117136 
L 688.182857 221.176555 
L 696.685714 217.422234 
L 705.188571 217.422234 
L 713.691429 217.422234 
L 722.194286 217.191161 
L 730.697143 217.191161 
L 739.2 217.191161 
L 747.702857 217.191161 
L 756.205714 206.834349 
L 764.708571 206.834349 
L 773.211429 206.834349 
L 781.714286 206.834349 
L 790.217143 206.834349 
L 798.72 206.468377 
L 807.222857 206.468377 
L 815.725714 206.468377 
L 824.228571 191.530202 
L 832.731429 191.530202 
L 841.234286 191.530202 
L 849.737143 191.530202 
L 858.24 191.530202 
L 866.742857 183.458475 
L 875.245714 183.458475 
L 883.748571 183.458475 
L 892.251429 183.458475 
L 900.754286 178.260062 
L 909.257143 178.260062 
L 917.76 176.439227 
L 926.262857 176.439227 
L 934.765714 176.094608 
L 943.268571 176.094608 
L 951.771429 173.667321 
L 960.274286 173.667321 
L 968.777143 173.226609 
L 977.28 173.226609 
L 985.782857 173.226609 
L 994.285714 173.226609 
L 1002.788571 172.984254 
L 1011.291429 172.984254 
L 1019.794286 172.984254 
L 1028.297143 172.984254 
L 1036.8 137.978571 
L 1036.8 134.742857 
L 1036.8 134.742857 
L 1028.297143 139.833714 
L 1019.794286 139.833714 
L 1011.291429 139.833714 
L 1002.788571 139.833714 
L 994.285714 140.146761 
L 985.782857 140.146761 
L 977.28 140.146761 
L 968.777143 140.146761 
L 960.274286 140.64987 
L 951.771429 140.64987 
L 943.268571 140.64987 
L 934.765714 140.64987 
L 926.262857 141.101637 
L 917.76 141.101637 
L 909.257143 141.417057 
L 900.754286 141.417057 
L 892.251429 147.012362 
L 883.748571 147.012362 
L 875.245714 147.012362 
L 866.742857 147.012362 
L 858.24 149.320674 
L 849.737143 149.320674 
L 841.234286 149.320674 
L 832.731429 149.320674 
L 824.228571 149.320674 
L 815.725714 151.198221 
L 807.222857 151.198221 
L 798.72 151.198221 
L 790.217143 151.319883 
L 781.714286 151.319883 
L 773.211429 151.319883 
L 764.708571 151.319883 
L 756.205714 151.319883 
L 747.702857 151.930289 
L 739.2 151.930289 
L 730.697143 151.930289 
L 722.194286 151.930289 
L 713.691429 152.388477 
L 705.188571 152.388477 
L 696.685714 152.388477 
L 688.182857 153.940259 
L 679.68 156.180756 
L 671.177143 156.540088 
L 662.674286 156.540088 
L 654.171429 156.540088 
L 645.668571 156.819082 
L 637.165714 156.819082 
L 628.662857 156.819082 
L 620.16 157.274982 
L 611.657143 157.274982 
L 603.154286 166.853441 
L 594.651429 167.487245 
L 586.148571 168.069096 
L 577.645714 168.069096 
L 569.142857 168.069096 
L 560.64 168.069096 
L 552.137143 168.542313 
L 543.634286 169.22298 
L 535.131429 175.278449 
L 526.628571 175.278449 
L 518.125714 176.459091 
L 509.622857 177.239106 
L 501.12 177.36181 
L 492.617143 178.501725 
L 484.114286 178.972554 
L 475.611429 180.703898 
L 467.108571 190.440619 
L 458.605714 190.440619 
L 450.102857 192.29387 
L 441.6 192.29387 
L 433.097143 199.295066 
L 424.594286 200.538972 
L 416.091429 200.595145 
L 407.588571 201.549167 
L 399.085714 201.549167 
L 390.582857 206.242608 
L 382.08 206.634747 
L 373.577143 206.634747 
L 365.074286 206.694052 
L 356.571429 206.694052 
L 348.068571 206.694052 
L 339.565714 214.383773 
L 331.062857 220.027921 
L 322.56 231.884636 
L 314.057143 232.127176 
L 305.554286 236.244069 
L 297.051429 236.251373 
L 288.548571 241.726802 
L 280.045714 245.173491 
L 271.542857 245.799001 
L 263.04 247.17559 
L 254.537143 266.467781 
L 246.034286 268.608169 
L 237.531429 275.246693 
L 229.028571 280.036566 
L 220.525714 280.036566 
L 212.022857 280.037062 
L 203.52 280.357986 
L 195.017143 280.357986 
L 186.514286 280.357986 
z
" style="fill:#0000ff;fill-opacity:0.2;"/>
   </g>
   <g id="PolyCollection_2">
    <path clip-path="url(#p30c93a9e4d)" d="M 186.514286 334.888972 
L 186.514286 568.037696 
L 195.017143 568.037696 
L 203.52 565.597543 
L 212.022857 565.100493 
L 220.525714 543.138464 
L 229.028571 538.573504 
L 237.531429 537.940478 
L 246.034286 532.551054 
L 254.537143 515.945007 
L 263.04 512.925827 
L 271.542857 510.180548 
L 280.045714 505.832181 
L 288.548571 492.774994 
L 297.051429 490.537277 
L 305.554286 490.29718 
L 314.057143 483.472806 
L 322.56 481.521106 
L 331.062857 477.244386 
L 339.565714 476.098678 
L 348.068571 472.246422 
L 356.571429 469.526482 
L 365.074286 469.526482 
L 373.577143 468.670255 
L 382.08 458.126579 
L 390.582857 452.903141 
L 399.085714 451.255279 
L 407.588571 448.994637 
L 416.091429 448.994637 
L 424.594286 443.515025 
L 433.097143 442.997893 
L 441.6 441.547783 
L 450.102857 441.547783 
L 458.605714 441.547783 
L 467.108571 440.942226 
L 475.611429 434.391789 
L 484.114286 430.458573 
L 492.617143 420.241658 
L 501.12 420.161369 
L 509.622857 420.161369 
L 518.125714 420.161369 
L 526.628571 410.772542 
L 535.131429 405.232211 
L 543.634286 402.890718 
L 552.137143 402.091897 
L 560.64 399.250987 
L 569.142857 398.834513 
L 577.645714 398.641705 
L 586.148571 398.641705 
L 594.651429 398.472824 
L 603.154286 393.078443 
L 611.657143 393.078443 
L 620.16 393.078443 
L 628.662857 381.144513 
L 637.165714 378.682751 
L 645.668571 378.682751 
L 654.171429 378.216968 
L 662.674286 377.582117 
L 671.177143 377.582117 
L 679.68 340.154458 
L 688.182857 339.700597 
L 696.685714 333.909472 
L 705.188571 330.140177 
L 713.691429 330.140177 
L 722.194286 325.690812 
L 730.697143 325.445679 
L 739.2 323.85662 
L 747.702857 323.85662 
L 756.205714 323.467765 
L 764.708571 322.65254 
L 773.211429 322.65254 
L 781.714286 322.65254 
L 790.217143 320.599275 
L 798.72 320.14939 
L 807.222857 320.14939 
L 815.725714 320.14939 
L 824.228571 320.14939 
L 832.731429 319.467352 
L 841.234286 315.841208 
L 849.737143 310.432858 
L 858.24 309.713124 
L 866.742857 308.630929 
L 875.245714 308.630929 
L 883.748571 308.630929 
L 892.251429 308.630929 
L 900.754286 308.630929 
L 909.257143 308.630929 
L 917.76 306.78503 
L 926.262857 306.78503 
L 934.765714 305.755775 
L 943.268571 303.063149 
L 951.771429 303.063149 
L 960.274286 303.063149 
L 968.777143 296.018309 
L 977.28 290.777602 
L 985.782857 290.777602 
L 994.285714 290.777602 
L 1002.788571 290.777602 
L 1011.291429 289.11304 
L 1019.794286 289.11304 
L 1028.297143 289.11304 
L 1036.8 188.254623 
L 1036.8 137.010117 
L 1036.8 137.010117 
L 1028.297143 156.195372 
L 1019.794286 156.195372 
L 1011.291429 156.195372 
L 1002.788571 157.793352 
L 994.285714 157.793352 
L 985.782857 157.793352 
L 977.28 157.793352 
L 968.777143 161.052169 
L 960.274286 165.821884 
L 951.771429 165.821884 
L 943.268571 165.821884 
L 934.765714 166.967423 
L 926.262857 167.917674 
L 917.76 167.917674 
L 909.257143 169.116364 
L 900.754286 169.116364 
L 892.251429 169.116364 
L 883.748571 169.116364 
L 875.245714 169.116364 
L 866.742857 169.116364 
L 858.24 169.783895 
L 849.737143 170.509217 
L 841.234286 171.311117 
L 832.731429 171.603885 
L 824.228571 172.234939 
L 815.725714 172.234939 
L 807.222857 172.234939 
L 798.72 172.234939 
L 790.217143 172.810592 
L 781.714286 174.135984 
L 773.211429 174.135984 
L 764.708571 174.135984 
L 756.205714 174.701933 
L 747.702857 175.480743 
L 739.2 175.480743 
L 730.697143 178.036825 
L 722.194286 178.126566 
L 713.691429 179.166963 
L 705.188571 179.166963 
L 696.685714 180.23559 
L 688.182857 184.715915 
L 679.68 184.963225 
L 671.177143 190.918523 
L 662.674286 190.918523 
L 654.171429 191.557024 
L 645.668571 192.337207 
L 637.165714 192.337207 
L 628.662857 192.955608 
L 620.16 201.924375 
L 611.657143 201.924375 
L 603.154286 201.924375 
L 594.651429 205.617254 
L 586.148571 205.962397 
L 577.645714 205.962397 
L 569.142857 206.477593 
L 560.64 206.688555 
L 552.137143 208.209676 
L 543.634286 208.849172 
L 535.131429 210.349684 
L 526.628571 211.809062 
L 518.125714 213.724313 
L 509.622857 213.724313 
L 501.12 213.724313 
L 492.617143 214.584805 
L 484.114286 222.109878 
L 475.611429 222.963045 
L 467.108571 223.518953 
L 458.605714 225.78442 
L 450.102857 225.78442 
L 441.6 225.78442 
L 433.097143 227.412159 
L 424.594286 228.138727 
L 416.091429 232.657789 
L 407.588571 232.657789 
L 399.085714 237.287637 
L 390.582857 239.266513 
L 382.08 242.7843 
L 373.577143 247.598519 
L 365.074286 249.652806 
L 356.571429 249.652806 
L 348.068571 252.286944 
L 339.565714 254.629197 
L 331.062857 256.94578 
L 322.56 258.8743 
L 314.057143 261.15762 
L 305.554286 264.334 
L 297.051429 264.6565 
L 288.548571 268.434311 
L 280.045714 281.607762 
L 271.542857 286.894965 
L 263.04 290.343485 
L 254.537143 291.56082 
L 246.034286 306.673384 
L 237.531429 310.564993 
L 229.028571 311.550826 
L 220.525714 313.364926 
L 212.022857 329.840837 
L 203.52 332.316009 
L 195.017143 334.888972 
L 186.514286 334.888972 
z
" style="fill:#ff0000;fill-opacity:0.2;"/>
   </g>
   <g id="PolyCollection_3">
    <path clip-path="url(#p30c93a9e4d)" d="M 186.514286 672.243244 
L 186.514286 733.475669 
L 195.017143 733.475669 
L 203.52 708.098575 
L 212.022857 692.159633 
L 220.525714 677.182577 
L 229.028571 666.40969 
L 237.531429 660.54511 
L 246.034286 654.296201 
L 254.537143 644.979804 
L 263.04 633.418791 
L 271.542857 611.552782 
L 280.045714 607.188368 
L 288.548571 592.795776 
L 297.051429 583.31757 
L 305.554286 576.17196 
L 314.057143 563.274536 
L 322.56 557.452804 
L 331.062857 552.873414 
L 339.565714 552.770776 
L 348.068571 546.216198 
L 356.571429 535.210288 
L 365.074286 531.407652 
L 373.577143 530.848637 
L 382.08 527.619171 
L 390.582857 522.413212 
L 399.085714 511.350572 
L 407.588571 508.93318 
L 416.091429 507.958125 
L 424.594286 504.648899 
L 433.097143 476.461141 
L 441.6 469.888342 
L 450.102857 466.881829 
L 458.605714 464.659908 
L 467.108571 464.451768 
L 475.611429 458.490605 
L 484.114286 455.83274 
L 492.617143 440.535627 
L 501.12 437.307661 
L 509.622857 436.5771 
L 518.125714 422.303068 
L 526.628571 416.288835 
L 535.131429 411.951433 
L 543.634286 398.284265 
L 552.137143 389.198767 
L 560.64 387.105042 
L 569.142857 381.878559 
L 577.645714 364.95634 
L 586.148571 363.590944 
L 594.651429 361.708229 
L 603.154286 359.940468 
L 611.657143 350.163818 
L 620.16 347.152424 
L 628.662857 344.346378 
L 637.165714 340.611666 
L 645.668571 335.930138 
L 654.171429 335.334279 
L 662.674286 335.205716 
L 671.177143 333.453906 
L 679.68 322.913184 
L 688.182857 320.817148 
L 696.685714 317.934587 
L 705.188571 311.112553 
L 713.691429 306.258174 
L 722.194286 302.506849 
L 730.697143 296.426774 
L 739.2 289.671276 
L 747.702857 289.348828 
L 756.205714 288.63626 
L 764.708571 284.071637 
L 773.211429 264.536277 
L 781.714286 257.360552 
L 790.217143 256.761427 
L 798.72 251.292567 
L 807.222857 249.755319 
L 815.725714 249.134625 
L 824.228571 247.141528 
L 832.731429 247.054761 
L 841.234286 244.766325 
L 849.737143 242.993795 
L 858.24 241.683344 
L 866.742857 241.273604 
L 875.245714 237.861936 
L 883.748571 235.418364 
L 892.251429 235.098744 
L 900.754286 200.852811 
L 909.257143 199.372251 
L 917.76 198.265746 
L 926.262857 194.820592 
L 934.765714 193.615833 
L 943.268571 193.145034 
L 951.771429 193.145034 
L 960.274286 185.797677 
L 968.777143 185.474806 
L 977.28 183.847308 
L 985.782857 183.847308 
L 994.285714 182.292021 
L 1002.788571 181.930322 
L 1011.291429 180.486488 
L 1019.794286 179.664639 
L 1028.297143 179.449581 
L 1036.8 176.16 
L 1036.8 134.742857 
L 1036.8 134.742857 
L 1028.297143 136.043254 
L 1019.794286 136.292011 
L 1011.291429 137.949078 
L 1002.788571 139.066615 
L 994.285714 139.521445 
L 985.782857 141.707161 
L 977.28 141.707161 
L 968.777143 142.933731 
L 960.274286 143.552279 
L 951.771429 144.848238 
L 943.268571 144.848238 
L 934.765714 145.435392 
L 926.262857 145.686943 
L 917.76 146.865806 
L 909.257143 148.020354 
L 900.754286 148.581215 
L 892.251429 150.438965 
L 883.748571 150.893893 
L 875.245714 153.293096 
L 866.742857 153.938501 
L 858.24 154.529586 
L 849.737143 155.663497 
L 841.234286 156.551507 
L 832.731429 158.150034 
L 824.228571 158.317668 
L 815.725714 159.935187 
L 807.222857 160.928881 
L 798.72 162.464332 
L 790.217143 164.322979 
L 781.714286 165.353705 
L 773.211429 170.617419 
L 764.708571 175.671863 
L 756.205714 181.805727 
L 747.702857 182.486843 
L 739.2 183.484919 
L 730.697143 188.144051 
L 722.194286 189.805721 
L 713.691429 192.168335 
L 705.188571 198.660879 
L 696.685714 199.925133 
L 688.182857 205.630113 
L 679.68 208.179415 
L 671.177143 211.746198 
L 662.674286 213.015481 
L 654.171429 213.955609 
L 645.668571 214.851633 
L 637.165714 226.038473 
L 628.662857 228.32541 
L 620.16 232.591873 
L 611.657143 238.331128 
L 603.154286 243.203478 
L 594.651429 247.504984 
L 586.148571 250.915094 
L 577.645714 253.597861 
L 569.142857 256.074369 
L 560.64 260.600348 
L 552.137143 261.582486 
L 543.634286 266.877773 
L 535.131429 270.710922 
L 526.628571 273.444263 
L 518.125714 282.425033 
L 509.622857 301.936434 
L 501.12 303.808127 
L 492.617143 308.4365 
L 484.114286 314.026172 
L 475.611429 319.625831 
L 467.108571 329.549121 
L 458.605714 330.609447 
L 450.102857 335.169306 
L 441.6 339.515706 
L 433.097143 349.246636 
L 424.594286 361.05162 
L 416.091429 367.18045 
L 407.588571 368.673509 
L 399.085714 369.925678 
L 390.582857 378.01151 
L 382.08 386.602523 
L 373.577143 390.61995 
L 365.074286 393.145998 
L 356.571429 397.897636 
L 348.068571 416.062007 
L 339.565714 421.982649 
L 331.062857 422.88551 
L 322.56 432.313192 
L 314.057143 438.651659 
L 305.554286 447.18192 
L 297.051429 457.18601 
L 288.548571 466.559158 
L 280.045714 476.194218 
L 271.542857 483.323728 
L 263.04 507.011825 
L 254.537143 533.183991 
L 246.034286 544.08995 
L 237.531429 552.139341 
L 229.028571 565.544202 
L 220.525714 581.403795 
L 212.022857 608.571979 
L 203.52 632.082044 
L 195.017143 672.243244 
L 186.514286 672.243244 
z
" style="fill:#008000;fill-opacity:0.2;"/>
   </g>
   <g id="PolyCollection_4">
    <path clip-path="url(#p30c93a9e4d)" d="M 186.514286 403.768674 
L 186.514286 542.153547 
L 195.017143 542.153547 
L 203.52 519.516004 
L 212.022857 507.112671 
L 220.525714 488.774889 
L 229.028571 480.735168 
L 237.531429 474.516184 
L 246.034286 462.279194 
L 254.537143 431.745784 
L 263.04 426.59061 
L 271.542857 416.103354 
L 280.045714 411.649118 
L 288.548571 401.874839 
L 297.051429 397.766981 
L 305.554286 393.107093 
L 314.057143 379.632166 
L 322.56 374.97452 
L 331.062857 369.135211 
L 339.565714 359.798938 
L 348.068571 352.188006 
L 356.571429 345.666915 
L 365.074286 341.535948 
L 373.577143 336.812508 
L 382.08 326.898084 
L 390.582857 323.552807 
L 399.085714 318.013961 
L 407.588571 316.916912 
L 416.091429 299.146146 
L 424.594286 295.189664 
L 433.097143 293.795289 
L 441.6 283.468347 
L 450.102857 277.911897 
L 458.605714 264.064043 
L 467.108571 260.350599 
L 475.611429 250.105435 
L 484.114286 248.25865 
L 492.617143 244.333783 
L 501.12 240.285344 
L 509.622857 238.156421 
L 518.125714 234.923753 
L 526.628571 230.537031 
L 535.131429 227.129786 
L 543.634286 221.877546 
L 552.137143 219.512586 
L 560.64 216.553567 
L 569.142857 213.162094 
L 577.645714 211.952268 
L 586.148571 209.482153 
L 594.651429 206.432365 
L 603.154286 205.440687 
L 611.657143 194.548629 
L 620.16 191.825704 
L 628.662857 189.178447 
L 637.165714 187.942504 
L 645.668571 185.409543 
L 654.171429 184.510907 
L 662.674286 182.653908 
L 671.177143 182.361591 
L 679.68 180.34518 
L 688.182857 177.665679 
L 696.685714 175.52821 
L 705.188571 172.080382 
L 713.691429 170.943035 
L 722.194286 170.055546 
L 730.697143 169.597264 
L 739.2 168.915822 
L 747.702857 166.695108 
L 756.205714 165.779029 
L 764.708571 164.955787 
L 773.211429 164.889531 
L 781.714286 163.586934 
L 790.217143 162.403988 
L 798.72 161.493196 
L 807.222857 160.965933 
L 815.725714 159.882185 
L 824.228571 159.819786 
L 832.731429 159.241084 
L 841.234286 157.993593 
L 849.737143 157.057615 
L 858.24 155.367014 
L 866.742857 154.779756 
L 875.245714 154.3481 
L 883.748571 153.180453 
L 892.251429 153.180453 
L 900.754286 151.488712 
L 909.257143 151.270647 
L 917.76 151.094092 
L 926.262857 150.311191 
L 934.765714 149.061543 
L 943.268571 148.165338 
L 951.771429 148.165338 
L 960.274286 146.018289 
L 968.777143 146.018289 
L 977.28 145.630065 
L 985.782857 145.057521 
L 994.285714 144.628033 
L 1002.788571 144.191813 
L 1011.291429 143.95602 
L 1019.794286 143.309696 
L 1028.297143 143.135402 
L 1036.8 137.185776 
L 1036.8 134.820709 
L 1036.8 134.820709 
L 1028.297143 135.208289 
L 1019.794286 135.419303 
L 1011.291429 135.419303 
L 1002.788571 135.419303 
L 994.285714 135.419303 
L 985.782857 135.419303 
L 977.28 135.762767 
L 968.777143 135.973216 
L 960.274286 135.973216 
L 951.771429 136.581063 
L 943.268571 136.581063 
L 934.765714 136.94657 
L 926.262857 137.294125 
L 917.76 138.071031 
L 909.257143 138.413986 
L 900.754286 138.501929 
L 892.251429 138.749042 
L 883.748571 138.749042 
L 875.245714 139.321453 
L 866.742857 139.480089 
L 858.24 139.480089 
L 849.737143 139.953499 
L 841.234286 140.53864 
L 832.731429 141.01606 
L 824.228571 141.718691 
L 815.725714 141.777008 
L 807.222857 142.286305 
L 798.72 142.655448 
L 790.217143 143.138314 
L 781.714286 143.912004 
L 773.211429 145.000116 
L 764.708571 145.063792 
L 756.205714 145.205817 
L 747.702857 146.177335 
L 739.2 146.512308 
L 730.697143 147.428327 
L 722.194286 147.584001 
L 713.691429 148.17208 
L 705.188571 149.096072 
L 696.685714 151.082545 
L 688.182857 152.33327 
L 679.68 153.443166 
L 671.177143 154.511708 
L 662.674286 154.671375 
L 654.171429 156.013089 
L 645.668571 156.174221 
L 637.165714 158.352858 
L 628.662857 159.183444 
L 620.16 160.609001 
L 611.657143 161.791407 
L 603.154286 166.821785 
L 594.651429 167.458706 
L 586.148571 169.133667 
L 577.645714 170.874162 
L 569.142857 171.295509 
L 560.64 173.120252 
L 552.137143 174.489412 
L 543.634286 176.595642 
L 535.131429 178.813703 
L 526.628571 179.776974 
L 518.125714 182.538073 
L 509.622857 184.42275 
L 501.12 186.150415 
L 492.617143 188.167561 
L 484.114286 190.198027 
L 475.611429 191.225621 
L 467.108571 196.053172 
L 458.605714 198.274038 
L 450.102857 203.834433 
L 441.6 206.445395 
L 433.097143 209.724685 
L 424.594286 211.572793 
L 416.091429 213.861793 
L 407.588571 216.437435 
L 399.085714 217.349497 
L 390.582857 221.182845 
L 382.08 224.023194 
L 373.577143 230.540033 
L 365.074286 233.927427 
L 356.571429 235.438385 
L 348.068571 239.56779 
L 339.565714 245.555025 
L 331.062857 249.690641 
L 322.56 253.539933 
L 314.057143 263.105163 
L 305.554286 274.998246 
L 297.051429 278.448519 
L 288.548571 283.00264 
L 280.045714 288.973175 
L 271.542857 292.825683 
L 263.04 300.725703 
L 254.537143 309.665801 
L 246.034286 340.21848 
L 237.531429 346.105907 
L 229.028571 354.827004 
L 220.525714 364.775606 
L 212.022857 381.748712 
L 203.52 392.722161 
L 195.017143 403.768674 
L 186.514286 403.768674 
z
" style="fill:#bf00bf;fill-opacity:0.2;"/>
   </g>
   <g id="matplotlib.axis_1">
    <g id="xtick_1">
     <g id="line2d_1">
      <defs>
       <path d="M 0 0 
L 0 3.5 
" id="m137cab508c" style="stroke:#000000;stroke-width:1.3;"/>
      </defs>
      <g>
       <use style="stroke:#000000;stroke-width:1.3;" x="186.514286" xlink:href="#m137cab508c" y="756"/>
      </g>
     </g>
     <g id="text_1">
      <!-- 0.0 -->
      <defs>
       <path d="M 31.78125 66.40625 
Q 24.171875 66.40625 20.328125 58.90625 
Q 16.5 51.421875 16.5 36.375 
Q 16.5 21.390625 20.328125 13.890625 
Q 24.171875 6.390625 31.78125 6.390625 
Q 39.453125 6.390625 43.28125 13.890625 
Q 47.125 21.390625 47.125 36.375 
Q 47.125 51.421875 43.28125 58.90625 
Q 39.453125 66.40625 31.78125 66.40625 
z
M 31.78125 74.21875 
Q 44.046875 74.21875 50.515625 64.515625 
Q 56.984375 54.828125 56.984375 36.375 
Q 56.984375 17.96875 50.515625 8.265625 
Q 44.046875 -1.421875 31.78125 -1.421875 
Q 19.53125 -1.421875 13.0625 8.265625 
Q 6.59375 17.96875 6.59375 36.375 
Q 6.59375 54.828125 13.0625 64.515625 
Q 19.53125 74.21875 31.78125 74.21875 
z
" id="DejaVuSans-30"/>
       <path d="M 10.6875 12.40625 
L 21 12.40625 
L 21 0 
L 10.6875 0 
z
" id="DejaVuSans-2e"/>
      </defs>
      <g transform="translate(176.177254 778.477969)scale(0.13 -0.13)">
       <use xlink:href="#DejaVuSans-30"/>
       <use x="63.623047" xlink:href="#DejaVuSans-2e"/>
       <use x="95.410156" xlink:href="#DejaVuSans-30"/>
      </g>
     </g>
    </g>
    <g id="xtick_2">
     <g id="line2d_2">
      <g>
       <use style="stroke:#000000;stroke-width:1.3;" x="356.571429" xlink:href="#m137cab508c" y="756"/>
      </g>
     </g>
     <g id="text_2">
      <!-- 0.2 -->
      <defs>
       <path d="M 19.1875 8.296875 
L 53.609375 8.296875 
L 53.609375 0 
L 7.328125 0 
L 7.328125 8.296875 
Q 12.9375 14.109375 22.625 23.890625 
Q 32.328125 33.6875 34.8125 36.53125 
Q 39.546875 41.84375 41.421875 45.53125 
Q 43.3125 49.21875 43.3125 52.78125 
Q 43.3125 58.59375 39.234375 62.25 
Q 35.15625 65.921875 28.609375 65.921875 
Q 23.96875 65.921875 18.8125 64.3125 
Q 13.671875 62.703125 7.8125 59.421875 
L 7.8125 69.390625 
Q 13.765625 71.78125 18.9375 73 
Q 24.125 74.21875 28.421875 74.21875 
Q 39.75 74.21875 46.484375 68.546875 
Q 53.21875 62.890625 53.21875 53.421875 
Q 53.21875 48.921875 51.53125 44.890625 
Q 49.859375 40.875 45.40625 35.40625 
Q 44.1875 33.984375 37.640625 27.21875 
Q 31.109375 20.453125 19.1875 8.296875 
z
" id="DejaVuSans-32"/>
      </defs>
      <g transform="translate(346.234397 778.477969)scale(0.13 -0.13)">
       <use xlink:href="#DejaVuSans-30"/>
       <use x="63.623047" xlink:href="#DejaVuSans-2e"/>
       <use x="95.410156" xlink:href="#DejaVuSans-32"/>
      </g>
     </g>
    </g>
    <g id="xtick_3">
     <g id="line2d_3">
      <g>
       <use style="stroke:#000000;stroke-width:1.3;" x="526.628571" xlink:href="#m137cab508c" y="756"/>
      </g>
     </g>
     <g id="text_3">
      <!-- 0.4 -->
      <defs>
       <path d="M 37.796875 64.3125 
L 12.890625 25.390625 
L 37.796875 25.390625 
z
M 35.203125 72.90625 
L 47.609375 72.90625 
L 47.609375 25.390625 
L 58.015625 25.390625 
L 58.015625 17.1875 
L 47.609375 17.1875 
L 47.609375 0 
L 37.796875 0 
L 37.796875 17.1875 
L 4.890625 17.1875 
L 4.890625 26.703125 
z
" id="DejaVuSans-34"/>
      </defs>
      <g transform="translate(516.29154 778.477969)scale(0.13 -0.13)">
       <use xlink:href="#DejaVuSans-30"/>
       <use x="63.623047" xlink:href="#DejaVuSans-2e"/>
       <use x="95.410156" xlink:href="#DejaVuSans-34"/>
      </g>
     </g>
    </g>
    <g id="xtick_4">
     <g id="line2d_4">
      <g>
       <use style="stroke:#000000;stroke-width:1.3;" x="696.685714" xlink:href="#m137cab508c" y="756"/>
      </g>
     </g>
     <g id="text_4">
      <!-- 0.6 -->
      <defs>
       <path d="M 33.015625 40.375 
Q 26.375 40.375 22.484375 35.828125 
Q 18.609375 31.296875 18.609375 23.390625 
Q 18.609375 15.53125 22.484375 10.953125 
Q 26.375 6.390625 33.015625 6.390625 
Q 39.65625 6.390625 43.53125 10.953125 
Q 47.40625 15.53125 47.40625 23.390625 
Q 47.40625 31.296875 43.53125 35.828125 
Q 39.65625 40.375 33.015625 40.375 
z
M 52.59375 71.296875 
L 52.59375 62.3125 
Q 48.875 64.0625 45.09375 64.984375 
Q 41.3125 65.921875 37.59375 65.921875 
Q 27.828125 65.921875 22.671875 59.328125 
Q 17.53125 52.734375 16.796875 39.40625 
Q 19.671875 43.65625 24.015625 45.921875 
Q 28.375 48.1875 33.59375 48.1875 
Q 44.578125 48.1875 50.953125 41.515625 
Q 57.328125 34.859375 57.328125 23.390625 
Q 57.328125 12.15625 50.6875 5.359375 
Q 44.046875 -1.421875 33.015625 -1.421875 
Q 20.359375 -1.421875 13.671875 8.265625 
Q 6.984375 17.96875 6.984375 36.375 
Q 6.984375 53.65625 15.1875 63.9375 
Q 23.390625 74.21875 37.203125 74.21875 
Q 40.921875 74.21875 44.703125 73.484375 
Q 48.484375 72.75 52.59375 71.296875 
z
" id="DejaVuSans-36"/>
      </defs>
      <g transform="translate(686.348683 778.477969)scale(0.13 -0.13)">
       <use xlink:href="#DejaVuSans-30"/>
       <use x="63.623047" xlink:href="#DejaVuSans-2e"/>
       <use x="95.410156" xlink:href="#DejaVuSans-36"/>
      </g>
     </g>
    </g>
    <g id="xtick_5">
     <g id="line2d_5">
      <g>
       <use style="stroke:#000000;stroke-width:1.3;" x="866.742857" xlink:href="#m137cab508c" y="756"/>
      </g>
     </g>
     <g id="text_5">
      <!-- 0.8 -->
      <defs>
       <path d="M 31.78125 34.625 
Q 24.75 34.625 20.71875 30.859375 
Q 16.703125 27.09375 16.703125 20.515625 
Q 16.703125 13.921875 20.71875 10.15625 
Q 24.75 6.390625 31.78125 6.390625 
Q 38.8125 6.390625 42.859375 10.171875 
Q 46.921875 13.96875 46.921875 20.515625 
Q 46.921875 27.09375 42.890625 30.859375 
Q 38.875 34.625 31.78125 34.625 
z
M 21.921875 38.8125 
Q 15.578125 40.375 12.03125 44.71875 
Q 8.5 49.078125 8.5 55.328125 
Q 8.5 64.0625 14.71875 69.140625 
Q 20.953125 74.21875 31.78125 74.21875 
Q 42.671875 74.21875 48.875 69.140625 
Q 55.078125 64.0625 55.078125 55.328125 
Q 55.078125 49.078125 51.53125 44.71875 
Q 48 40.375 41.703125 38.8125 
Q 48.828125 37.15625 52.796875 32.3125 
Q 56.78125 27.484375 56.78125 20.515625 
Q 56.78125 9.90625 50.3125 4.234375 
Q 43.84375 -1.421875 31.78125 -1.421875 
Q 19.734375 -1.421875 13.25 4.234375 
Q 6.78125 9.90625 6.78125 20.515625 
Q 6.78125 27.484375 10.78125 32.3125 
Q 14.796875 37.15625 21.921875 38.8125 
z
M 18.3125 54.390625 
Q 18.3125 48.734375 21.84375 45.5625 
Q 25.390625 42.390625 31.78125 42.390625 
Q 38.140625 42.390625 41.71875 45.5625 
Q 45.3125 48.734375 45.3125 54.390625 
Q 45.3125 60.0625 41.71875 63.234375 
Q 38.140625 66.40625 31.78125 66.40625 
Q 25.390625 66.40625 21.84375 63.234375 
Q 18.3125 60.0625 18.3125 54.390625 
z
" id="DejaVuSans-38"/>
      </defs>
      <g transform="translate(856.405826 778.477969)scale(0.13 -0.13)">
       <use xlink:href="#DejaVuSans-30"/>
       <use x="63.623047" xlink:href="#DejaVuSans-2e"/>
       <use x="95.410156" xlink:href="#DejaVuSans-38"/>
      </g>
     </g>
    </g>
    <g id="xtick_6">
     <g id="line2d_6">
      <g>
       <use style="stroke:#000000;stroke-width:1.3;" x="1036.8" xlink:href="#m137cab508c" y="756"/>
      </g>
     </g>
     <g id="text_6">
      <!-- 1.0 -->
      <defs>
       <path d="M 12.40625 8.296875 
L 28.515625 8.296875 
L 28.515625 63.921875 
L 10.984375 60.40625 
L 10.984375 69.390625 
L 28.421875 72.90625 
L 38.28125 72.90625 
L 38.28125 8.296875 
L 54.390625 8.296875 
L 54.390625 0 
L 12.40625 0 
z
" id="DejaVuSans-31"/>
      </defs>
      <g transform="translate(1026.462969 778.477969)scale(0.13 -0.13)">
       <use xlink:href="#DejaVuSans-31"/>
       <use x="63.623047" xlink:href="#DejaVuSans-2e"/>
       <use x="95.410156" xlink:href="#DejaVuSans-30"/>
      </g>
     </g>
    </g>
    <g id="text_7">
     <!-- False Positive Rate -->
     <defs>
      <path d="M 9.8125 72.90625 
L 51.703125 72.90625 
L 51.703125 64.59375 
L 19.671875 64.59375 
L 19.671875 43.109375 
L 48.578125 43.109375 
L 48.578125 34.8125 
L 19.671875 34.8125 
L 19.671875 0 
L 9.8125 0 
z
" id="DejaVuSans-46"/>
      <path d="M 34.28125 27.484375 
Q 23.390625 27.484375 19.1875 25 
Q 14.984375 22.515625 14.984375 16.5 
Q 14.984375 11.71875 18.140625 8.90625 
Q 21.296875 6.109375 26.703125 6.109375 
Q 34.1875 6.109375 38.703125 11.40625 
Q 43.21875 16.703125 43.21875 25.484375 
L 43.21875 27.484375 
z
M 52.203125 31.203125 
L 52.203125 0 
L 43.21875 0 
L 43.21875 8.296875 
Q 40.140625 3.328125 35.546875 0.953125 
Q 30.953125 -1.421875 24.3125 -1.421875 
Q 15.921875 -1.421875 10.953125 3.296875 
Q 6 8.015625 6 15.921875 
Q 6 25.140625 12.171875 29.828125 
Q 18.359375 34.515625 30.609375 34.515625 
L 43.21875 34.515625 
L 43.21875 35.40625 
Q 43.21875 41.609375 39.140625 45 
Q 35.0625 48.390625 27.6875 48.390625 
Q 23 48.390625 18.546875 47.265625 
Q 14.109375 46.140625 10.015625 43.890625 
L 10.015625 52.203125 
Q 14.9375 54.109375 19.578125 55.046875 
Q 24.21875 56 28.609375 56 
Q 40.484375 56 46.34375 49.84375 
Q 52.203125 43.703125 52.203125 31.203125 
z
" id="DejaVuSans-61"/>
      <path d="M 9.421875 75.984375 
L 18.40625 75.984375 
L 18.40625 0 
L 9.421875 0 
z
" id="DejaVuSans-6c"/>
      <path d="M 44.28125 53.078125 
L 44.28125 44.578125 
Q 40.484375 46.53125 36.375 47.5 
Q 32.28125 48.484375 27.875 48.484375 
Q 21.1875 48.484375 17.84375 46.4375 
Q 14.5 44.390625 14.5 40.28125 
Q 14.5 37.15625 16.890625 35.375 
Q 19.28125 33.59375 26.515625 31.984375 
L 29.59375 31.296875 
Q 39.15625 29.25 43.1875 25.515625 
Q 47.21875 21.78125 47.21875 15.09375 
Q 47.21875 7.46875 41.1875 3.015625 
Q 35.15625 -1.421875 24.609375 -1.421875 
Q 20.21875 -1.421875 15.453125 -0.5625 
Q 10.6875 0.296875 5.421875 2 
L 5.421875 11.28125 
Q 10.40625 8.6875 15.234375 7.390625 
Q 20.0625 6.109375 24.8125 6.109375 
Q 31.15625 6.109375 34.5625 8.28125 
Q 37.984375 10.453125 37.984375 14.40625 
Q 37.984375 18.0625 35.515625 20.015625 
Q 33.0625 21.96875 24.703125 23.78125 
L 21.578125 24.515625 
Q 13.234375 26.265625 9.515625 29.90625 
Q 5.8125 33.546875 5.8125 39.890625 
Q 5.8125 47.609375 11.28125 51.796875 
Q 16.75 56 26.8125 56 
Q 31.78125 56 36.171875 55.265625 
Q 40.578125 54.546875 44.28125 53.078125 
z
" id="DejaVuSans-73"/>
      <path d="M 56.203125 29.59375 
L 56.203125 25.203125 
L 14.890625 25.203125 
Q 15.484375 15.921875 20.484375 11.0625 
Q 25.484375 6.203125 34.421875 6.203125 
Q 39.59375 6.203125 44.453125 7.46875 
Q 49.3125 8.734375 54.109375 11.28125 
L 54.109375 2.78125 
Q 49.265625 0.734375 44.1875 -0.34375 
Q 39.109375 -1.421875 33.890625 -1.421875 
Q 20.796875 -1.421875 13.15625 6.1875 
Q 5.515625 13.8125 5.515625 26.8125 
Q 5.515625 40.234375 12.765625 48.109375 
Q 20.015625 56 32.328125 56 
Q 43.359375 56 49.78125 48.890625 
Q 56.203125 41.796875 56.203125 29.59375 
z
M 47.21875 32.234375 
Q 47.125 39.59375 43.09375 43.984375 
Q 39.0625 48.390625 32.421875 48.390625 
Q 24.90625 48.390625 20.390625 44.140625 
Q 15.875 39.890625 15.1875 32.171875 
z
" id="DejaVuSans-65"/>
      <path id="DejaVuSans-20"/>
      <path d="M 19.671875 64.796875 
L 19.671875 37.40625 
L 32.078125 37.40625 
Q 38.96875 37.40625 42.71875 40.96875 
Q 46.484375 44.53125 46.484375 51.125 
Q 46.484375 57.671875 42.71875 61.234375 
Q 38.96875 64.796875 32.078125 64.796875 
z
M 9.8125 72.90625 
L 32.078125 72.90625 
Q 44.34375 72.90625 50.609375 67.359375 
Q 56.890625 61.8125 56.890625 51.125 
Q 56.890625 40.328125 50.609375 34.8125 
Q 44.34375 29.296875 32.078125 29.296875 
L 19.671875 29.296875 
L 19.671875 0 
L 9.8125 0 
z
" id="DejaVuSans-50"/>
      <path d="M 30.609375 48.390625 
Q 23.390625 48.390625 19.1875 42.75 
Q 14.984375 37.109375 14.984375 27.296875 
Q 14.984375 17.484375 19.15625 11.84375 
Q 23.34375 6.203125 30.609375 6.203125 
Q 37.796875 6.203125 41.984375 11.859375 
Q 46.1875 17.53125 46.1875 27.296875 
Q 46.1875 37.015625 41.984375 42.703125 
Q 37.796875 48.390625 30.609375 48.390625 
z
M 30.609375 56 
Q 42.328125 56 49.015625 48.375 
Q 55.71875 40.765625 55.71875 27.296875 
Q 55.71875 13.875 49.015625 6.21875 
Q 42.328125 -1.421875 30.609375 -1.421875 
Q 18.84375 -1.421875 12.171875 6.21875 
Q 5.515625 13.875 5.515625 27.296875 
Q 5.515625 40.765625 12.171875 48.375 
Q 18.84375 56 30.609375 56 
z
" id="DejaVuSans-6f"/>
      <path d="M 9.421875 54.6875 
L 18.40625 54.6875 
L 18.40625 0 
L 9.421875 0 
z
M 9.421875 75.984375 
L 18.40625 75.984375 
L 18.40625 64.59375 
L 9.421875 64.59375 
z
" id="DejaVuSans-69"/>
      <path d="M 18.3125 70.21875 
L 18.3125 54.6875 
L 36.8125 54.6875 
L 36.8125 47.703125 
L 18.3125 47.703125 
L 18.3125 18.015625 
Q 18.3125 11.328125 20.140625 9.421875 
Q 21.96875 7.515625 27.59375 7.515625 
L 36.8125 7.515625 
L 36.8125 0 
L 27.59375 0 
Q 17.1875 0 13.234375 3.875 
Q 9.28125 7.765625 9.28125 18.015625 
L 9.28125 47.703125 
L 2.6875 47.703125 
L 2.6875 54.6875 
L 9.28125 54.6875 
L 9.28125 70.21875 
z
" id="DejaVuSans-74"/>
      <path d="M 2.984375 54.6875 
L 12.5 54.6875 
L 29.59375 8.796875 
L 46.6875 54.6875 
L 56.203125 54.6875 
L 35.6875 0 
L 23.484375 0 
z
" id="DejaVuSans-76"/>
      <path d="M 44.390625 34.1875 
Q 47.5625 33.109375 50.5625 29.59375 
Q 53.5625 26.078125 56.59375 19.921875 
L 66.609375 0 
L 56 0 
L 46.6875 18.703125 
Q 43.0625 26.03125 39.671875 28.421875 
Q 36.28125 30.8125 30.421875 30.8125 
L 19.671875 30.8125 
L 19.671875 0 
L 9.8125 0 
L 9.8125 72.90625 
L 32.078125 72.90625 
Q 44.578125 72.90625 50.734375 67.671875 
Q 56.890625 62.453125 56.890625 51.90625 
Q 56.890625 45.015625 53.6875 40.46875 
Q 50.484375 35.9375 44.390625 34.1875 
z
M 19.671875 64.796875 
L 19.671875 38.921875 
L 32.078125 38.921875 
Q 39.203125 38.921875 42.84375 42.21875 
Q 46.484375 45.515625 46.484375 51.90625 
Q 46.484375 58.296875 42.84375 61.546875 
Q 39.203125 64.796875 32.078125 64.796875 
z
" id="DejaVuSans-52"/>
     </defs>
     <g transform="translate(514.87125 797.339062)scale(0.16 -0.16)">
      <use xlink:href="#DejaVuSans-46"/>
      <use x="57.378906" xlink:href="#DejaVuSans-61"/>
      <use x="118.658203" xlink:href="#DejaVuSans-6c"/>
      <use x="146.441406" xlink:href="#DejaVuSans-73"/>
      <use x="198.541016" xlink:href="#DejaVuSans-65"/>
      <use x="260.064453" xlink:href="#DejaVuSans-20"/>
      <use x="291.851562" xlink:href="#DejaVuSans-50"/>
      <use x="352.107422" xlink:href="#DejaVuSans-6f"/>
      <use x="413.289062" xlink:href="#DejaVuSans-73"/>
      <use x="465.388672" xlink:href="#DejaVuSans-69"/>
      <use x="493.171875" xlink:href="#DejaVuSans-74"/>
      <use x="532.380859" xlink:href="#DejaVuSans-69"/>
      <use x="560.164062" xlink:href="#DejaVuSans-76"/>
      <use x="619.34375" xlink:href="#DejaVuSans-65"/>
      <use x="680.867188" xlink:href="#DejaVuSans-20"/>
      <use x="712.654297" xlink:href="#DejaVuSans-52"/>
      <use x="782.105469" xlink:href="#DejaVuSans-61"/>
      <use x="843.384766" xlink:href="#DejaVuSans-74"/>
      <use x="882.59375" xlink:href="#DejaVuSans-65"/>
     </g>
    </g>
   </g>
   <g id="matplotlib.axis_2">
    <g id="ytick_1">
     <g id="line2d_7">
      <defs>
       <path d="M 0 0 
L -3.5 0 
" id="mf7470f79fc" style="stroke:#000000;stroke-width:1.3;"/>
      </defs>
      <g>
       <use style="stroke:#000000;stroke-width:1.3;" x="144" xlink:href="#mf7470f79fc" y="756"/>
      </g>
     </g>
     <g id="text_8">
      <!-- 0.0 -->
      <g transform="translate(110.725938 760.938984)scale(0.13 -0.13)">
       <use xlink:href="#DejaVuSans-30"/>
       <use x="63.623047" xlink:href="#DejaVuSans-2e"/>
       <use x="95.410156" xlink:href="#DejaVuSans-30"/>
      </g>
     </g>
    </g>
    <g id="ytick_2">
     <g id="line2d_8">
      <g>
       <use style="stroke:#000000;stroke-width:1.3;" x="144" xlink:href="#mf7470f79fc" y="631.748571"/>
      </g>
     </g>
     <g id="text_9">
      <!-- 0.2 -->
      <g transform="translate(110.725938 636.687556)scale(0.13 -0.13)">
       <use xlink:href="#DejaVuSans-30"/>
       <use x="63.623047" xlink:href="#DejaVuSans-2e"/>
       <use x="95.410156" xlink:href="#DejaVuSans-32"/>
      </g>
     </g>
    </g>
    <g id="ytick_3">
     <g id="line2d_9">
      <g>
       <use style="stroke:#000000;stroke-width:1.3;" x="144" xlink:href="#mf7470f79fc" y="507.497143"/>
      </g>
     </g>
     <g id="text_10">
      <!-- 0.4 -->
      <g transform="translate(110.725938 512.436127)scale(0.13 -0.13)">
       <use xlink:href="#DejaVuSans-30"/>
       <use x="63.623047" xlink:href="#DejaVuSans-2e"/>
       <use x="95.410156" xlink:href="#DejaVuSans-34"/>
      </g>
     </g>
    </g>
    <g id="ytick_4">
     <g id="line2d_10">
      <g>
       <use style="stroke:#000000;stroke-width:1.3;" x="144" xlink:href="#mf7470f79fc" y="383.245714"/>
      </g>
     </g>
     <g id="text_11">
      <!-- 0.6 -->
      <g transform="translate(110.725938 388.184699)scale(0.13 -0.13)">
       <use xlink:href="#DejaVuSans-30"/>
       <use x="63.623047" xlink:href="#DejaVuSans-2e"/>
       <use x="95.410156" xlink:href="#DejaVuSans-36"/>
      </g>
     </g>
    </g>
    <g id="ytick_5">
     <g id="line2d_11">
      <g>
       <use style="stroke:#000000;stroke-width:1.3;" x="144" xlink:href="#mf7470f79fc" y="258.994286"/>
      </g>
     </g>
     <g id="text_12">
      <!-- 0.8 -->
      <g transform="translate(110.725938 263.93327)scale(0.13 -0.13)">
       <use xlink:href="#DejaVuSans-30"/>
       <use x="63.623047" xlink:href="#DejaVuSans-2e"/>
       <use x="95.410156" xlink:href="#DejaVuSans-38"/>
      </g>
     </g>
    </g>
    <g id="ytick_6">
     <g id="line2d_12">
      <g>
       <use style="stroke:#000000;stroke-width:1.3;" x="144" xlink:href="#mf7470f79fc" y="134.742857"/>
      </g>
     </g>
     <g id="text_13">
      <!-- 1.0 -->
      <g transform="translate(110.725938 139.681842)scale(0.13 -0.13)">
       <use xlink:href="#DejaVuSans-31"/>
       <use x="63.623047" xlink:href="#DejaVuSans-2e"/>
       <use x="95.410156" xlink:href="#DejaVuSans-30"/>
      </g>
     </g>
    </g>
    <g id="text_14">
     <!-- True Positive Rate -->
     <defs>
      <path d="M -0.296875 72.90625 
L 61.375 72.90625 
L 61.375 64.59375 
L 35.5 64.59375 
L 35.5 0 
L 25.59375 0 
L 25.59375 64.59375 
L -0.296875 64.59375 
z
" id="DejaVuSans-54"/>
      <path d="M 41.109375 46.296875 
Q 39.59375 47.171875 37.8125 47.578125 
Q 36.03125 48 33.890625 48 
Q 26.265625 48 22.1875 43.046875 
Q 18.109375 38.09375 18.109375 28.8125 
L 18.109375 0 
L 9.078125 0 
L 9.078125 54.6875 
L 18.109375 54.6875 
L 18.109375 46.1875 
Q 20.953125 51.171875 25.484375 53.578125 
Q 30.03125 56 36.53125 56 
Q 37.453125 56 38.578125 55.875 
Q 39.703125 55.765625 41.0625 55.515625 
z
" id="DejaVuSans-72"/>
      <path d="M 8.5 21.578125 
L 8.5 54.6875 
L 17.484375 54.6875 
L 17.484375 21.921875 
Q 17.484375 14.15625 20.5 10.265625 
Q 23.53125 6.390625 29.59375 6.390625 
Q 36.859375 6.390625 41.078125 11.03125 
Q 45.3125 15.671875 45.3125 23.6875 
L 45.3125 54.6875 
L 54.296875 54.6875 
L 54.296875 0 
L 45.3125 0 
L 45.3125 8.40625 
Q 42.046875 3.421875 37.71875 1 
Q 33.40625 -1.421875 27.6875 -1.421875 
Q 18.265625 -1.421875 13.375 4.4375 
Q 8.5 10.296875 8.5 21.578125 
z
M 31.109375 56 
z
" id="DejaVuSans-75"/>
     </defs>
     <g transform="translate(103.398438 502.71375)rotate(-90)scale(0.16 -0.16)">
      <use xlink:href="#DejaVuSans-54"/>
      <use x="60.865234" xlink:href="#DejaVuSans-72"/>
      <use x="101.978516" xlink:href="#DejaVuSans-75"/>
      <use x="165.357422" xlink:href="#DejaVuSans-65"/>
      <use x="226.880859" xlink:href="#DejaVuSans-20"/>
      <use x="258.667969" xlink:href="#DejaVuSans-50"/>
      <use x="318.923828" xlink:href="#DejaVuSans-6f"/>
      <use x="380.105469" xlink:href="#DejaVuSans-73"/>
      <use x="432.205078" xlink:href="#DejaVuSans-69"/>
      <use x="459.988281" xlink:href="#DejaVuSans-74"/>
      <use x="499.197266" xlink:href="#DejaVuSans-69"/>
      <use x="526.980469" xlink:href="#DejaVuSans-76"/>
      <use x="586.160156" xlink:href="#DejaVuSans-65"/>
      <use x="647.683594" xlink:href="#DejaVuSans-20"/>
      <use x="679.470703" xlink:href="#DejaVuSans-52"/>
      <use x="748.921875" xlink:href="#DejaVuSans-61"/>
      <use x="810.201172" xlink:href="#DejaVuSans-74"/>
      <use x="849.410156" xlink:href="#DejaVuSans-65"/>
     </g>
    </g>
   </g>
   <g id="line2d_13">
    <path clip-path="url(#p30c93a9e4d)" d="M 186.514286 339.790216 
L 195.017143 339.790216 
L 203.52 339.790216 
L 212.022857 337.998128 
L 220.525714 337.066242 
L 229.028571 337.066242 
L 237.531429 330.420583 
L 246.034286 324.078583 
L 254.537143 322.381219 
L 263.04 301.672648 
L 271.542857 300.594077 
L 280.045714 299.072224 
L 288.548571 294.606938 
L 297.051429 290.184796 
L 305.554286 289.587433 
L 314.057143 284.442728 
L 322.56 283.200214 
L 331.062857 267.984653 
L 339.565714 263.325224 
L 348.068571 258.030419 
L 356.571429 258.030419 
L 365.074286 258.030419 
L 373.577143 257.433056 
L 382.08 257.433056 
L 390.582857 255.491628 
L 399.085714 247.325301 
L 407.588571 247.325301 
L 416.091429 245.476322 
L 424.594286 244.855065 
L 433.097143 242.790602 
L 441.6 237.678174 
L 450.102857 237.678174 
L 458.605714 234.283447 
L 467.108571 234.283447 
L 475.611429 224.387554 
L 484.114286 219.445736 
L 492.617143 218.428269 
L 501.12 217.503779 
L 509.622857 216.906417 
L 518.125714 216.408615 
L 526.628571 213.735326 
L 535.131429 213.735326 
L 543.634286 204.274714 
L 552.137143 203.17253 
L 560.64 202.551273 
L 569.142857 202.551273 
L 577.645714 202.551273 
L 586.148571 202.551273 
L 594.651429 201.619387 
L 603.154286 200.913413 
L 611.657143 188.001372 
L 620.16 188.001372 
L 628.662857 187.40401 
L 637.165714 187.40401 
L 645.668571 187.40401 
L 654.171429 187.080438 
L 662.674286 187.080438 
L 671.177143 187.080438 
L 679.68 186.392284 
L 688.182857 184.342999 
L 696.685714 181.466377 
L 705.188571 181.466377 
L 713.691429 181.466377 
L 722.194286 180.869014 
L 730.697143 180.869014 
L 739.2 180.869014 
L 747.702857 180.869014 
L 756.205714 176.662586 
L 764.708571 176.662586 
L 773.211429 176.662586 
L 781.714286 176.662586 
L 790.217143 176.662586 
L 798.72 176.370642 
L 807.222857 176.370642 
L 815.725714 176.370642 
L 824.228571 168.604927 
L 832.731429 168.604927 
L 841.234286 168.604927 
L 849.737143 168.604927 
L 858.24 168.604927 
L 866.742857 163.208789 
L 875.245714 163.208789 
L 883.748571 163.208789 
L 892.251429 163.208789 
L 900.754286 157.49236 
L 909.257143 157.49236 
L 917.76 156.03264 
L 926.262857 156.03264 
L 934.765714 155.709068 
L 943.268571 155.709068 
L 951.771429 154.90014 
L 960.274286 154.90014 
L 968.777143 154.437895 
L 977.28 154.437895 
L 985.782857 154.437895 
L 994.285714 154.437895 
L 1002.788571 154.127266 
L 1011.291429 154.127266 
L 1019.794286 154.127266 
L 1028.297143 154.127266 
L 1036.8 135.821429 
" style="fill:none;stroke:#0000ff;stroke-linecap:square;stroke-width:3;"/>
   </g>
   <g id="line2d_14">
    <path clip-path="url(#p30c93a9e4d)" d="M 186.514286 756 
L 1036.8 134.742857 
" style="fill:none;stroke:#000080;stroke-dasharray:11.1,4.8;stroke-dashoffset:0;stroke-width:3;"/>
   </g>
   <g id="line2d_15">
    <path clip-path="url(#p30c93a9e4d)" d="M 186.514286 450.956938 
L 195.017143 450.956938 
L 203.52 448.540938 
L 212.022857 447.308284 
L 220.525714 427.121969 
L 229.028571 423.545489 
L 237.531429 422.855203 
L 246.034286 418.687021 
L 254.537143 401.458411 
L 263.04 398.972514 
L 271.542857 395.761787 
L 280.045714 390.441146 
L 288.548571 377.830438 
L 297.051429 375.092755 
L 305.554286 374.40247 
L 314.057143 368.827867 
L 322.56 366.239296 
L 331.062857 362.895994 
L 339.565714 361.220173 
L 348.068571 357.983878 
L 356.571429 355.163569 
L 365.074286 355.163569 
L 373.577143 353.772432 
L 382.08 345.69731 
L 390.582857 341.177266 
L 399.085714 339.241784 
L 407.588571 335.788294 
L 416.091429 335.788294 
L 424.594286 330.204059 
L 433.097143 329.596538 
L 441.6 328.292665 
L 450.102857 328.292665 
L 458.605714 328.292665 
L 467.108571 326.707825 
L 475.611429 323.512058 
L 484.114286 321.261126 
L 492.617143 312.084352 
L 501.12 311.652923 
L 509.622857 311.652923 
L 518.125714 311.652923 
L 526.628571 306.785552 
L 535.131429 303.163682 
L 543.634286 301.140716 
L 552.137143 300.493573 
L 560.64 298.104122 
L 569.142857 297.464969 
L 577.645714 297.093847 
L 586.148571 297.093847 
L 594.651429 296.748704 
L 603.154286 292.303683 
L 611.657143 292.303683 
L 620.16 292.303683 
L 628.662857 281.30792 
L 637.165714 279.056988 
L 645.668571 279.056988 
L 654.171429 278.393252 
L 662.674286 278.073675 
L 671.177143 278.073675 
L 679.68 256.402686 
L 688.182857 256.175618 
L 696.685714 250.837212 
L 705.188571 247.172233 
L 713.691429 247.172233 
L 722.194286 244.61562 
L 730.697143 244.451266 
L 739.2 242.498072 
L 747.702857 242.498072 
L 756.205714 241.951428 
L 764.708571 240.942549 
L 773.211429 240.942549 
L 781.714286 240.942549 
L 790.217143 239.344665 
L 798.72 238.65438 
L 807.222857 238.65438 
L 815.725714 238.65438 
L 824.228571 238.65438 
L 832.731429 237.964094 
L 841.234286 235.309149 
L 849.737143 232.113382 
L 858.24 231.03481 
L 866.742857 229.999382 
L 875.245714 229.999382 
L 883.748571 229.999382 
L 892.251429 229.999382 
L 900.754286 229.999382 
L 909.257143 229.999382 
L 917.76 228.289646 
L 926.262857 228.289646 
L 934.765714 227.204911 
L 943.268571 224.894126 
L 951.771429 224.894126 
L 960.274286 224.894126 
L 968.777143 217.959113 
L 977.28 213.14641 
L 985.782857 213.14641 
L 994.285714 213.14641 
L 1002.788571 213.14641 
L 1011.291429 211.155201 
L 1019.794286 211.155201 
L 1028.297143 211.155201 
L 1036.8 156.270107 
" style="fill:none;stroke:#ff0000;stroke-linecap:square;stroke-width:3;"/>
   </g>
   <g id="line2d_16">
    <path clip-path="url(#p30c93a9e4d)" d="M 186.514286 756 
L 1036.8 134.742857 
" style="fill:none;stroke:#000080;stroke-dasharray:11.1,4.8;stroke-dashoffset:0;stroke-width:3;"/>
   </g>
   <g id="line2d_17">
    <path clip-path="url(#p30c93a9e4d)" d="M 186.514286 705.76827 
L 195.017143 705.76827 
L 203.52 671.378789 
L 212.022857 650.159384 
L 220.525714 629.174309 
L 229.028571 615.523785 
L 237.531429 605.61729 
L 246.034286 597.737417 
L 254.537143 586.777352 
L 263.04 568.533097 
L 271.542857 544.710832 
L 280.045714 538.200857 
L 288.548571 526.982071 
L 297.051429 516.805444 
L 305.554286 507.916906 
L 314.057143 497.376131 
L 322.56 490.46252 
L 331.062857 483.453854 
L 339.565714 482.875716 
L 348.068571 476.386378 
L 356.571429 461.417104 
L 365.074286 457.003119 
L 373.577143 454.561864 
L 382.08 450.832184 
L 390.582857 443.480342 
L 399.085714 434.501265 
L 407.588571 432.611751 
L 416.091429 431.507078 
L 424.594286 426.348809 
L 433.097143 408.826125 
L 441.6 400.21383 
L 450.102857 396.023946 
L 458.605714 392.576292 
L 467.108571 391.725047 
L 475.611429 384.533038 
L 484.114286 379.951747 
L 492.617143 370.440512 
L 501.12 366.439779 
L 509.622857 365.005296 
L 518.125714 349.046966 
L 526.628571 340.74448 
L 535.131429 337.203182 
L 543.634286 328.62566 
L 552.137143 321.744744 
L 560.64 320.034059 
L 569.142857 314.920084 
L 577.645714 306.073046 
L 586.148571 303.956845 
L 594.651429 300.987252 
L 603.154286 297.873817 
L 611.657143 290.905347 
L 620.16 286.571925 
L 628.662857 283.133532 
L 637.165714 280.346022 
L 645.668571 272.652292 
L 654.171429 271.430489 
L 662.674286 270.635017 
L 671.177143 269.370987 
L 679.68 262.514907 
L 688.182857 260.071758 
L 696.685714 255.430439 
L 705.188571 251.15785 
L 713.691429 245.683353 
L 722.194286 242.662587 
L 730.697143 238.858972 
L 739.2 232.556816 
L 747.702857 231.474658 
L 756.205714 230.611828 
L 764.708571 225.401021 
L 773.211429 211.861704 
L 781.714286 206.254557 
L 790.217143 205.388433 
L 798.72 201.376117 
L 807.222857 199.417423 
L 815.725714 198.593123 
L 824.228571 196.727991 
L 832.731429 196.504718 
L 841.234286 194.065082 
L 849.737143 192.505613 
L 858.24 191.142145 
L 866.742857 190.747696 
L 875.245714 188.102384 
L 883.748571 185.492376 
L 892.251429 184.999315 
L 900.754286 172.249677 
L 909.257143 171.103534 
L 917.76 169.928059 
L 926.262857 167.018998 
L 934.765714 166.279406 
L 943.268571 165.788638 
L 951.771429 165.788638 
L 960.274286 160.904343 
L 968.777143 160.402477 
L 977.28 159.02609 
L 985.782857 159.02609 
L 994.285714 156.874676 
L 1002.788571 156.480227 
L 1011.291429 154.791454 
L 1019.794286 153.635934 
L 1028.297143 153.42078 
L 1036.8 149.803636 
" style="fill:none;stroke:#008000;stroke-linecap:square;stroke-width:3;"/>
   </g>
   <g id="line2d_18">
    <path clip-path="url(#p30c93a9e4d)" d="M 186.514286 756 
L 1036.8 134.742857 
" style="fill:none;stroke:#000080;stroke-dasharray:11.1,4.8;stroke-dashoffset:0;stroke-width:3;"/>
   </g>
   <g id="line2d_19">
    <path clip-path="url(#p30c93a9e4d)" d="M 186.514286 472.931305 
L 195.017143 472.931305 
L 203.52 455.374096 
L 212.022857 443.323095 
L 220.525714 425.729869 
L 229.028571 416.68152 
L 237.531429 409.236023 
L 246.034286 400.975491 
L 254.537143 368.966559 
L 263.04 362.012471 
L 271.542857 353.013405 
L 280.045714 348.573404 
L 288.548571 340.764561 
L 297.051429 336.515205 
L 305.554286 332.368184 
L 314.057143 319.366765 
L 322.56 312.49077 
L 331.062857 307.24235 
L 339.565714 300.996108 
L 348.068571 293.257535 
L 356.571429 287.56607 
L 365.074286 284.92922 
L 373.577143 280.873735 
L 382.08 272.265243 
L 390.582857 269.147394 
L 399.085714 264.463082 
L 407.588571 263.344208 
L 416.091429 255.307747 
L 424.594286 251.902043 
L 433.097143 250.171876 
L 441.6 244.049655 
L 450.102857 240.258731 
L 458.605714 231.253824 
L 467.108571 228.295111 
L 475.611429 220.964964 
L 484.114286 219.536676 
L 492.617143 216.302919 
L 501.12 213.354843 
L 509.622857 211.308244 
L 518.125714 208.821715 
L 526.628571 204.93335 
L 535.131429 202.766846 
L 543.634286 199.084064 
L 552.137143 196.53715 
L 560.64 194.30486 
L 569.142857 191.715647 
L 577.645714 190.981616 
L 586.148571 188.772112 
L 594.651429 186.25655 
L 603.154286 185.418153 
L 611.657143 177.734614 
L 620.16 175.585372 
L 628.662857 173.614719 
L 637.165714 172.46067 
L 645.668571 170.175687 
L 654.171429 169.625839 
L 662.674286 168.116811 
L 671.177143 167.792428 
L 679.68 166.385165 
L 688.182857 164.498964 
L 696.685714 162.77524 
L 705.188571 159.633742 
L 713.691429 158.454435 
L 722.194286 157.625058 
L 730.697143 157.391356 
L 739.2 156.556078 
L 747.702857 155.484158 
L 756.205714 154.492305 
L 764.708571 154.064697 
L 773.211429 153.999821 
L 781.714286 152.777237 
L 790.217143 151.493398 
L 798.72 150.962979 
L 807.222857 150.422466 
L 815.725714 149.637813 
L 824.228571 149.572937 
L 832.731429 148.966092 
L 841.234286 148.139184 
L 849.737143 147.470701 
L 858.24 146.337708 
L 866.742857 146.120447 
L 875.245714 145.889458 
L 883.748571 144.872224 
L 892.251429 144.872224 
L 900.754286 144.130114 
L 909.257143 143.992461 
L 917.76 143.739187 
L 926.262857 142.900783 
L 934.765714 142.174673 
L 943.268571 141.625906 
L 951.771429 141.625906 
L 960.274286 140.433662 
L 968.777143 140.433662 
L 977.28 140.16188 
L 985.782857 139.642869 
L 994.285714 139.487165 
L 1002.788571 139.264731 
L 1011.291429 139.181319 
L 1019.794286 138.833834 
L 1028.297143 138.64699 
L 1036.8 135.788718 
" style="fill:none;stroke:#bf00bf;stroke-linecap:square;stroke-width:3;"/>
   </g>
   <g id="line2d_20">
    <path clip-path="url(#p30c93a9e4d)" d="M 186.514286 756 
L 1036.8 134.742857 
" style="fill:none;stroke:#000080;stroke-dasharray:11.1,4.8;stroke-dashoffset:0;stroke-width:3;"/>
   </g>
   <g id="patch_3">
    <path d="M 144 756 
L 144 103.68 
" style="fill:none;stroke:#000000;stroke-linecap:square;stroke-linejoin:miter;stroke-width:0.8;"/>
   </g>
   <g id="patch_4">
    <path d="M 1036.8 756 
L 1036.8 103.68 
" style="fill:none;stroke:#000000;stroke-linecap:square;stroke-linejoin:miter;stroke-width:0.8;"/>
   </g>
   <g id="patch_5">
    <path d="M 144 756 
L 1036.8 756 
" style="fill:none;stroke:#000000;stroke-linecap:square;stroke-linejoin:miter;stroke-width:0.8;"/>
   </g>
   <g id="patch_6">
    <path d="M 144 103.68 
L 1036.8 103.68 
" style="fill:none;stroke:#000000;stroke-linecap:square;stroke-linejoin:miter;stroke-width:0.8;"/>
   </g>
   <g id="legend_1">
    <g id="patch_7">
     <path d="M 810.679219 749.5 
L 1027.7 749.5 
Q 1030.3 749.5 1030.3 746.9 
L 1030.3 671.87375 
Q 1030.3 669.27375 1027.7 669.27375 
L 810.679219 669.27375 
Q 808.079219 669.27375 808.079219 671.87375 
L 808.079219 746.9 
Q 808.079219 749.5 810.679219 749.5 
z
" style="fill:#ffffff;opacity:0.8;stroke:#cccccc;stroke-linejoin:miter;stroke-width:0.39;"/>
    </g>
    <g id="line2d_21">
     <path d="M 813.279219 679.801719 
L 839.279219 679.801719 
" style="fill:none;stroke:#0000ff;stroke-linecap:square;stroke-width:3;"/>
    </g>
    <g id="line2d_22"/>
    <g id="text_15">
     <!-- Clinical - AUC = 0.879 -->
     <defs>
      <path d="M 64.40625 67.28125 
L 64.40625 56.890625 
Q 59.421875 61.53125 53.78125 63.8125 
Q 48.140625 66.109375 41.796875 66.109375 
Q 29.296875 66.109375 22.65625 58.46875 
Q 16.015625 50.828125 16.015625 36.375 
Q 16.015625 21.96875 22.65625 14.328125 
Q 29.296875 6.6875 41.796875 6.6875 
Q 48.140625 6.6875 53.78125 8.984375 
Q 59.421875 11.28125 64.40625 15.921875 
L 64.40625 5.609375 
Q 59.234375 2.09375 53.4375 0.328125 
Q 47.65625 -1.421875 41.21875 -1.421875 
Q 24.65625 -1.421875 15.125 8.703125 
Q 5.609375 18.84375 5.609375 36.375 
Q 5.609375 53.953125 15.125 64.078125 
Q 24.65625 74.21875 41.21875 74.21875 
Q 47.75 74.21875 53.53125 72.484375 
Q 59.328125 70.75 64.40625 67.28125 
z
" id="DejaVuSans-43"/>
      <path d="M 54.890625 33.015625 
L 54.890625 0 
L 45.90625 0 
L 45.90625 32.71875 
Q 45.90625 40.484375 42.875 44.328125 
Q 39.84375 48.1875 33.796875 48.1875 
Q 26.515625 48.1875 22.3125 43.546875 
Q 18.109375 38.921875 18.109375 30.90625 
L 18.109375 0 
L 9.078125 0 
L 9.078125 54.6875 
L 18.109375 54.6875 
L 18.109375 46.1875 
Q 21.34375 51.125 25.703125 53.5625 
Q 30.078125 56 35.796875 56 
Q 45.21875 56 50.046875 50.171875 
Q 54.890625 44.34375 54.890625 33.015625 
z
" id="DejaVuSans-6e"/>
      <path d="M 48.78125 52.59375 
L 48.78125 44.1875 
Q 44.96875 46.296875 41.140625 47.34375 
Q 37.3125 48.390625 33.40625 48.390625 
Q 24.65625 48.390625 19.8125 42.84375 
Q 14.984375 37.3125 14.984375 27.296875 
Q 14.984375 17.28125 19.8125 11.734375 
Q 24.65625 6.203125 33.40625 6.203125 
Q 37.3125 6.203125 41.140625 7.25 
Q 44.96875 8.296875 48.78125 10.40625 
L 48.78125 2.09375 
Q 45.015625 0.34375 40.984375 -0.53125 
Q 36.96875 -1.421875 32.421875 -1.421875 
Q 20.0625 -1.421875 12.78125 6.34375 
Q 5.515625 14.109375 5.515625 27.296875 
Q 5.515625 40.671875 12.859375 48.328125 
Q 20.21875 56 33.015625 56 
Q 37.15625 56 41.109375 55.140625 
Q 45.0625 54.296875 48.78125 52.59375 
z
" id="DejaVuSans-63"/>
      <path d="M 4.890625 31.390625 
L 31.203125 31.390625 
L 31.203125 23.390625 
L 4.890625 23.390625 
z
" id="DejaVuSans-2d"/>
      <path d="M 34.1875 63.1875 
L 20.796875 26.90625 
L 47.609375 26.90625 
z
M 28.609375 72.90625 
L 39.796875 72.90625 
L 67.578125 0 
L 57.328125 0 
L 50.6875 18.703125 
L 17.828125 18.703125 
L 11.1875 0 
L 0.78125 0 
z
" id="DejaVuSans-41"/>
      <path d="M 8.6875 72.90625 
L 18.609375 72.90625 
L 18.609375 28.609375 
Q 18.609375 16.890625 22.84375 11.734375 
Q 27.09375 6.59375 36.625 6.59375 
Q 46.09375 6.59375 50.34375 11.734375 
Q 54.59375 16.890625 54.59375 28.609375 
L 54.59375 72.90625 
L 64.5 72.90625 
L 64.5 27.390625 
Q 64.5 13.140625 57.4375 5.859375 
Q 50.390625 -1.421875 36.625 -1.421875 
Q 22.796875 -1.421875 15.734375 5.859375 
Q 8.6875 13.140625 8.6875 27.390625 
z
" id="DejaVuSans-55"/>
      <path d="M 10.59375 45.40625 
L 73.1875 45.40625 
L 73.1875 37.203125 
L 10.59375 37.203125 
z
M 10.59375 25.484375 
L 73.1875 25.484375 
L 73.1875 17.1875 
L 10.59375 17.1875 
z
" id="DejaVuSans-3d"/>
      <path d="M 8.203125 72.90625 
L 55.078125 72.90625 
L 55.078125 68.703125 
L 28.609375 0 
L 18.3125 0 
L 43.21875 64.59375 
L 8.203125 64.59375 
z
" id="DejaVuSans-37"/>
      <path d="M 10.984375 1.515625 
L 10.984375 10.5 
Q 14.703125 8.734375 18.5 7.8125 
Q 22.3125 6.890625 25.984375 6.890625 
Q 35.75 6.890625 40.890625 13.453125 
Q 46.046875 20.015625 46.78125 33.40625 
Q 43.953125 29.203125 39.59375 26.953125 
Q 35.25 24.703125 29.984375 24.703125 
Q 19.046875 24.703125 12.671875 31.3125 
Q 6.296875 37.9375 6.296875 49.421875 
Q 6.296875 60.640625 12.9375 67.421875 
Q 19.578125 74.21875 30.609375 74.21875 
Q 43.265625 74.21875 49.921875 64.515625 
Q 56.59375 54.828125 56.59375 36.375 
Q 56.59375 19.140625 48.40625 8.859375 
Q 40.234375 -1.421875 26.421875 -1.421875 
Q 22.703125 -1.421875 18.890625 -0.6875 
Q 15.09375 0.046875 10.984375 1.515625 
z
M 30.609375 32.421875 
Q 37.25 32.421875 41.125 36.953125 
Q 45.015625 41.5 45.015625 49.421875 
Q 45.015625 57.28125 41.125 61.84375 
Q 37.25 66.40625 30.609375 66.40625 
Q 23.96875 66.40625 20.09375 61.84375 
Q 16.21875 57.28125 16.21875 49.421875 
Q 16.21875 41.5 20.09375 36.953125 
Q 23.96875 32.421875 30.609375 32.421875 
z
" id="DejaVuSans-39"/>
     </defs>
     <g transform="translate(849.679219 684.351719)scale(0.13 -0.13)">
      <use xlink:href="#DejaVuSans-43"/>
      <use x="69.824219" xlink:href="#DejaVuSans-6c"/>
      <use x="97.607422" xlink:href="#DejaVuSans-69"/>
      <use x="125.390625" xlink:href="#DejaVuSans-6e"/>
      <use x="188.769531" xlink:href="#DejaVuSans-69"/>
      <use x="216.552734" xlink:href="#DejaVuSans-63"/>
      <use x="271.533203" xlink:href="#DejaVuSans-61"/>
      <use x="332.8125" xlink:href="#DejaVuSans-6c"/>
      <use x="360.595703" xlink:href="#DejaVuSans-20"/>
      <use x="392.382812" xlink:href="#DejaVuSans-2d"/>
      <use x="428.466797" xlink:href="#DejaVuSans-20"/>
      <use x="460.253906" xlink:href="#DejaVuSans-41"/>
      <use x="528.662109" xlink:href="#DejaVuSans-55"/>
      <use x="601.855469" xlink:href="#DejaVuSans-43"/>
      <use x="671.679688" xlink:href="#DejaVuSans-20"/>
      <use x="703.466797" xlink:href="#DejaVuSans-3d"/>
      <use x="787.255859" xlink:href="#DejaVuSans-20"/>
      <use x="819.042969" xlink:href="#DejaVuSans-30"/>
      <use x="882.666016" xlink:href="#DejaVuSans-2e"/>
      <use x="914.453125" xlink:href="#DejaVuSans-38"/>
      <use x="978.076172" xlink:href="#DejaVuSans-37"/>
      <use x="1041.699219" xlink:href="#DejaVuSans-39"/>
     </g>
    </g>
    <g id="line2d_23">
     <path d="M 813.279219 698.883281 
L 839.279219 698.883281 
" style="fill:none;stroke:#ff0000;stroke-linecap:square;stroke-width:3;"/>
    </g>
    <g id="line2d_24"/>
    <g id="text_16">
     <!-- Walking - AUC = 0.784 -->
     <defs>
      <path d="M 3.328125 72.90625 
L 13.28125 72.90625 
L 28.609375 11.28125 
L 43.890625 72.90625 
L 54.984375 72.90625 
L 70.3125 11.28125 
L 85.59375 72.90625 
L 95.609375 72.90625 
L 77.296875 0 
L 64.890625 0 
L 49.515625 63.28125 
L 33.984375 0 
L 21.578125 0 
z
" id="DejaVuSans-57"/>
      <path d="M 9.078125 75.984375 
L 18.109375 75.984375 
L 18.109375 31.109375 
L 44.921875 54.6875 
L 56.390625 54.6875 
L 27.390625 29.109375 
L 57.625 0 
L 45.90625 0 
L 18.109375 26.703125 
L 18.109375 0 
L 9.078125 0 
z
" id="DejaVuSans-6b"/>
      <path d="M 45.40625 27.984375 
Q 45.40625 37.75 41.375 43.109375 
Q 37.359375 48.484375 30.078125 48.484375 
Q 22.859375 48.484375 18.828125 43.109375 
Q 14.796875 37.75 14.796875 27.984375 
Q 14.796875 18.265625 18.828125 12.890625 
Q 22.859375 7.515625 30.078125 7.515625 
Q 37.359375 7.515625 41.375 12.890625 
Q 45.40625 18.265625 45.40625 27.984375 
z
M 54.390625 6.78125 
Q 54.390625 -7.171875 48.1875 -13.984375 
Q 42 -20.796875 29.203125 -20.796875 
Q 24.46875 -20.796875 20.265625 -20.09375 
Q 16.0625 -19.390625 12.109375 -17.921875 
L 12.109375 -9.1875 
Q 16.0625 -11.328125 19.921875 -12.34375 
Q 23.78125 -13.375 27.78125 -13.375 
Q 36.625 -13.375 41.015625 -8.765625 
Q 45.40625 -4.15625 45.40625 5.171875 
L 45.40625 9.625 
Q 42.625 4.78125 38.28125 2.390625 
Q 33.9375 0 27.875 0 
Q 17.828125 0 11.671875 7.65625 
Q 5.515625 15.328125 5.515625 27.984375 
Q 5.515625 40.671875 11.671875 48.328125 
Q 17.828125 56 27.875 56 
Q 33.9375 56 38.28125 53.609375 
Q 42.625 51.21875 45.40625 46.390625 
L 45.40625 54.6875 
L 54.390625 54.6875 
z
" id="DejaVuSans-67"/>
     </defs>
     <g transform="translate(849.679219 703.433281)scale(0.13 -0.13)">
      <use xlink:href="#DejaVuSans-57"/>
      <use x="98.783203" xlink:href="#DejaVuSans-61"/>
      <use x="160.0625" xlink:href="#DejaVuSans-6c"/>
      <use x="187.845703" xlink:href="#DejaVuSans-6b"/>
      <use x="245.755859" xlink:href="#DejaVuSans-69"/>
      <use x="273.539062" xlink:href="#DejaVuSans-6e"/>
      <use x="336.917969" xlink:href="#DejaVuSans-67"/>
      <use x="400.394531" xlink:href="#DejaVuSans-20"/>
      <use x="432.181641" xlink:href="#DejaVuSans-2d"/>
      <use x="468.265625" xlink:href="#DejaVuSans-20"/>
      <use x="500.052734" xlink:href="#DejaVuSans-41"/>
      <use x="568.460938" xlink:href="#DejaVuSans-55"/>
      <use x="641.654297" xlink:href="#DejaVuSans-43"/>
      <use x="711.478516" xlink:href="#DejaVuSans-20"/>
      <use x="743.265625" xlink:href="#DejaVuSans-3d"/>
      <use x="827.054688" xlink:href="#DejaVuSans-20"/>
      <use x="858.841797" xlink:href="#DejaVuSans-30"/>
      <use x="922.464844" xlink:href="#DejaVuSans-2e"/>
      <use x="954.251953" xlink:href="#DejaVuSans-37"/>
      <use x="1017.875" xlink:href="#DejaVuSans-38"/>
      <use x="1081.498047" xlink:href="#DejaVuSans-34"/>
     </g>
    </g>
    <g id="line2d_25">
     <path d="M 813.279219 717.964844 
L 839.279219 717.964844 
" style="fill:none;stroke:#008000;stroke-linecap:square;stroke-width:3;"/>
    </g>
    <g id="line2d_26"/>
    <g id="text_17">
     <!-- Gross Motor - AUC = 0.706 -->
     <defs>
      <path d="M 59.515625 10.40625 
L 59.515625 29.984375 
L 43.40625 29.984375 
L 43.40625 38.09375 
L 69.28125 38.09375 
L 69.28125 6.78125 
Q 63.578125 2.734375 56.6875 0.65625 
Q 49.8125 -1.421875 42 -1.421875 
Q 24.90625 -1.421875 15.25 8.5625 
Q 5.609375 18.5625 5.609375 36.375 
Q 5.609375 54.25 15.25 64.234375 
Q 24.90625 74.21875 42 74.21875 
Q 49.125 74.21875 55.546875 72.453125 
Q 61.96875 70.703125 67.390625 67.28125 
L 67.390625 56.78125 
Q 61.921875 61.421875 55.765625 63.765625 
Q 49.609375 66.109375 42.828125 66.109375 
Q 29.4375 66.109375 22.71875 58.640625 
Q 16.015625 51.171875 16.015625 36.375 
Q 16.015625 21.625 22.71875 14.15625 
Q 29.4375 6.6875 42.828125 6.6875 
Q 48.046875 6.6875 52.140625 7.59375 
Q 56.25 8.5 59.515625 10.40625 
z
" id="DejaVuSans-47"/>
      <path d="M 9.8125 72.90625 
L 24.515625 72.90625 
L 43.109375 23.296875 
L 61.8125 72.90625 
L 76.515625 72.90625 
L 76.515625 0 
L 66.890625 0 
L 66.890625 64.015625 
L 48.09375 14.015625 
L 38.1875 14.015625 
L 19.390625 64.015625 
L 19.390625 0 
L 9.8125 0 
z
" id="DejaVuSans-4d"/>
     </defs>
     <g transform="translate(849.679219 722.514844)scale(0.13 -0.13)">
      <use xlink:href="#DejaVuSans-47"/>
      <use x="77.490234" xlink:href="#DejaVuSans-72"/>
      <use x="118.572266" xlink:href="#DejaVuSans-6f"/>
      <use x="179.753906" xlink:href="#DejaVuSans-73"/>
      <use x="231.853516" xlink:href="#DejaVuSans-73"/>
      <use x="283.953125" xlink:href="#DejaVuSans-20"/>
      <use x="315.740234" xlink:href="#DejaVuSans-4d"/>
      <use x="402.019531" xlink:href="#DejaVuSans-6f"/>
      <use x="463.201172" xlink:href="#DejaVuSans-74"/>
      <use x="502.410156" xlink:href="#DejaVuSans-6f"/>
      <use x="563.591797" xlink:href="#DejaVuSans-72"/>
      <use x="604.705078" xlink:href="#DejaVuSans-20"/>
      <use x="636.492188" xlink:href="#DejaVuSans-2d"/>
      <use x="672.576172" xlink:href="#DejaVuSans-20"/>
      <use x="704.363281" xlink:href="#DejaVuSans-41"/>
      <use x="772.771484" xlink:href="#DejaVuSans-55"/>
      <use x="845.964844" xlink:href="#DejaVuSans-43"/>
      <use x="915.789062" xlink:href="#DejaVuSans-20"/>
      <use x="947.576172" xlink:href="#DejaVuSans-3d"/>
      <use x="1031.365234" xlink:href="#DejaVuSans-20"/>
      <use x="1063.152344" xlink:href="#DejaVuSans-30"/>
      <use x="1126.775391" xlink:href="#DejaVuSans-2e"/>
      <use x="1158.5625" xlink:href="#DejaVuSans-37"/>
      <use x="1222.185547" xlink:href="#DejaVuSans-30"/>
      <use x="1285.808594" xlink:href="#DejaVuSans-36"/>
     </g>
    </g>
    <g id="line2d_27">
     <path d="M 813.279219 737.046406 
L 839.279219 737.046406 
" style="fill:none;stroke:#bf00bf;stroke-linecap:square;stroke-width:3;"/>
    </g>
    <g id="line2d_28"/>
    <g id="text_18">
     <!-- Fine Motor - AUC = 0.874 -->
     <g transform="translate(849.679219 741.596406)scale(0.13 -0.13)">
      <use xlink:href="#DejaVuSans-46"/>
      <use x="57.410156" xlink:href="#DejaVuSans-69"/>
      <use x="85.193359" xlink:href="#DejaVuSans-6e"/>
      <use x="148.572266" xlink:href="#DejaVuSans-65"/>
      <use x="210.095703" xlink:href="#DejaVuSans-20"/>
      <use x="241.882812" xlink:href="#DejaVuSans-4d"/>
      <use x="328.162109" xlink:href="#DejaVuSans-6f"/>
      <use x="389.34375" xlink:href="#DejaVuSans-74"/>
      <use x="428.552734" xlink:href="#DejaVuSans-6f"/>
      <use x="489.734375" xlink:href="#DejaVuSans-72"/>
      <use x="530.847656" xlink:href="#DejaVuSans-20"/>
      <use x="562.634766" xlink:href="#DejaVuSans-2d"/>
      <use x="598.71875" xlink:href="#DejaVuSans-20"/>
      <use x="630.505859" xlink:href="#DejaVuSans-41"/>
      <use x="698.914062" xlink:href="#DejaVuSans-55"/>
      <use x="772.107422" xlink:href="#DejaVuSans-43"/>
      <use x="841.931641" xlink:href="#DejaVuSans-20"/>
      <use x="873.71875" xlink:href="#DejaVuSans-3d"/>
      <use x="957.507812" xlink:href="#DejaVuSans-20"/>
      <use x="989.294922" xlink:href="#DejaVuSans-30"/>
      <use x="1052.917969" xlink:href="#DejaVuSans-2e"/>
      <use x="1084.705078" xlink:href="#DejaVuSans-38"/>
      <use x="1148.328125" xlink:href="#DejaVuSans-37"/>
      <use x="1211.951172" xlink:href="#DejaVuSans-34"/>
     </g>
    </g>
   </g>
  </g>
 </g>
 <defs>
  <clipPath id="p30c93a9e4d">
   <rect height="652.32" width="892.8" x="144" y="103.68"/>
  </clipPath>
 </defs>
</svg>
