<?xml version="1.0" encoding="utf-8" standalone="no"?>
<!DOCTYPE svg PUBLIC "-//W3C//DTD SVG 1.1//EN"
  "http://www.w3.org/Graphics/SVG/1.1/DTD/svg11.dtd">
<!-- Created with matplotlib (http://matplotlib.org/) -->
<svg height="864pt" version="1.1" viewBox="0 0 1152 864" width="1152pt" xmlns="http://www.w3.org/2000/svg" xmlns:xlink="http://www.w3.org/1999/xlink">
 <defs>
  <style type="text/css">
*{stroke-linecap:butt;stroke-linejoin:round;}
  </style>
 </defs>
 <g id="figure_1">
  <g id="patch_1">
   <path d="M 0 864 
L 1152 864 
L 1152 0 
L 0 0 
z
" style="fill:#ffffff;"/>
  </g>
  <g id="axes_1">
   <g id="patch_2">
    <path d="M 144 756 
L 1036.8 756 
L 1036.8 103.68 
L 144 103.68 
z
" style="fill:#ffffff;"/>
   </g>
   <g id="PolyCollection_1">
    <path clip-path="url(#p363dc304aa)" d="M 186.514286 649.182839 
L 186.514286 730.315566 
L 195.017143 717.386486 
L 203.52 693.242671 
L 212.022857 675.355683 
L 220.525714 668.127179 
L 229.028571 665.190925 
L 237.531429 658.192756 
L 246.034286 653.50425 
L 254.537143 644.818014 
L 263.04 640.715812 
L 271.542857 622.687393 
L 280.045714 611.789876 
L 288.548571 593.742083 
L 297.051429 592.633941 
L 305.554286 589.438705 
L 314.057143 576.955674 
L 322.56 567.7865 
L 331.062857 564.391688 
L 339.565714 549.622587 
L 348.068571 524.026665 
L 356.571429 512.32233 
L 365.074286 506.696761 
L 373.577143 500.687635 
L 382.08 496.485688 
L 390.582857 488.018429 
L 399.085714 483.043272 
L 407.588571 483.043272 
L 416.091429 470.109233 
L 424.594286 465.001364 
L 433.097143 462.289269 
L 441.6 458.148673 
L 450.102857 457.094762 
L 458.605714 454.64395 
L 467.108571 451.43384 
L 475.611429 436.010082 
L 484.114286 431.142203 
L 492.617143 429.720837 
L 501.12 429.720837 
L 509.622857 422.659762 
L 518.125714 418.457586 
L 526.628571 414.552782 
L 535.131429 412.112318 
L 543.634286 408.888781 
L 552.137143 405.14947 
L 560.64 401.752847 
L 569.142857 397.841227 
L 577.645714 393.486295 
L 586.148571 380.945553 
L 594.651429 369.22087 
L 603.154286 368.792446 
L 611.657143 357.614405 
L 620.16 334.215408 
L 628.662857 332.931377 
L 637.165714 330.5033 
L 645.668571 329.388136 
L 654.171429 326.23518 
L 662.674286 325.175458 
L 671.177143 325.175458 
L 679.68 312.425944 
L 688.182857 308.949598 
L 696.685714 306.21261 
L 705.188571 304.917 
L 713.691429 304.070192 
L 722.194286 298.882843 
L 730.697143 296.875952 
L 739.2 296.28261 
L 747.702857 296.28261 
L 756.205714 249.19531 
L 764.708571 244.048011 
L 773.211429 244.048011 
L 781.714286 238.403255 
L 790.217143 236.080896 
L 798.72 227.402171 
L 807.222857 226.683667 
L 815.725714 226.683667 
L 824.228571 208.480922 
L 832.731429 207.220061 
L 841.234286 206.857901 
L 849.737143 201.319074 
L 858.24 200.813796 
L 866.742857 198.635224 
L 875.245714 196.001302 
L 883.748571 192.290955 
L 892.251429 189.925424 
L 900.754286 185.403339 
L 909.257143 184.823267 
L 917.76 184.823267 
L 926.262857 181.965313 
L 934.765714 180.933634 
L 943.268571 168.750188 
L 951.771429 164.751615 
L 960.274286 164.751615 
L 968.777143 162.414554 
L 977.28 158.547314 
L 985.782857 157.500994 
L 994.285714 147.411596 
L 1002.788571 146.537584 
L 1011.291429 143.909135 
L 1019.794286 143.279519 
L 1028.297143 141.684174 
L 1036.8 134.742857 
L 1036.8 134.742857 
L 1036.8 134.742857 
L 1028.297143 134.742857 
L 1019.794286 135.387984 
L 1011.291429 135.994667 
L 1002.788571 136.678238 
L 994.285714 137.107318 
L 985.782857 137.323364 
L 977.28 137.645928 
L 968.777143 139.045047 
L 960.274286 141.314964 
L 951.771429 141.314964 
L 943.268571 144.990624 
L 934.765714 147.62559 
L 926.262857 148.014637 
L 917.76 150.330147 
L 909.257143 150.330147 
L 900.754286 150.580942 
L 892.251429 150.623826 
L 883.748571 152.332399 
L 875.245714 156.406053 
L 866.742857 158.543869 
L 858.24 159.628728 
L 849.737143 159.963487 
L 841.234286 160.485823 
L 832.731429 161.192481 
L 824.228571 162.697249 
L 815.725714 169.956824 
L 807.222857 169.956824 
L 798.72 171.122581 
L 790.217143 180.632416 
L 781.714286 180.875012 
L 773.211429 185.166591 
L 764.708571 185.166591 
L 756.205714 188.741017 
L 747.702857 192.193447 
L 739.2 192.193447 
L 730.697143 193.430977 
L 722.194286 195.253293 
L 713.691429 197.393986 
L 705.188571 198.023552 
L 696.685714 199.997699 
L 688.182857 203.65836 
L 679.68 205.902826 
L 671.177143 215.847711 
L 662.674286 215.847711 
L 654.171429 216.339625 
L 645.668571 219.025351 
L 637.165714 220.329485 
L 628.662857 222.322624 
L 620.16 224.650283 
L 611.657143 233.001838 
L 603.154286 235.37207 
L 594.651429 235.470992 
L 586.148571 246.616231 
L 577.645714 249.624803 
L 569.142857 253.960796 
L 560.64 256.55066 
L 552.137143 258.546858 
L 543.634286 262.772871 
L 535.131429 264.037593 
L 526.628571 266.241968 
L 518.125714 270.435521 
L 509.622857 273.466351 
L 501.12 280.352774 
L 492.617143 280.352774 
L 484.114286 281.569195 
L 475.611429 285.07137 
L 467.108571 300.958539 
L 458.605714 304.851049 
L 450.102857 308.498355 
L 441.6 309.99627 
L 433.097143 314.58317 
L 424.594286 317.124465 
L 416.091429 322.96486 
L 407.588571 343.217358 
L 399.085714 343.217358 
L 390.582857 346.494903 
L 382.08 354.099026 
L 373.577143 357.114149 
L 365.074286 367.622971 
L 356.571429 370.470455 
L 348.068571 381.144079 
L 339.565714 395.579046 
L 331.062857 407.570353 
L 322.56 409.212165 
L 314.057143 419.927714 
L 305.554286 438.028499 
L 297.051429 441.810211 
L 288.548571 442.605912 
L 280.045714 454.49729 
L 271.542857 461.515777 
L 263.04 493.75464 
L 254.537143 498.493747 
L 246.034286 519.577556 
L 237.531429 522.756728 
L 229.028571 533.313178 
L 220.525714 536.72316 
L 212.022857 544.760499 
L 203.52 575.920297 
L 195.017143 631.077286 
L 186.514286 649.182839 
z
" style="fill:#0000ff;fill-opacity:0.2;"/>
   </g>
   <g id="PolyCollection_2">
    <path clip-path="url(#p363dc304aa)" d="M 186.514286 448.853871 
L 186.514286 692.850279 
L 195.017143 666.493915 
L 203.52 635.028205 
L 212.022857 629.093787 
L 220.525714 626.958882 
L 229.028571 626.810569 
L 237.531429 623.028515 
L 246.034286 618.122639 
L 254.537143 610.486552 
L 263.04 604.612815 
L 271.542857 603.545362 
L 280.045714 603.545362 
L 288.548571 603.545362 
L 297.051429 603.545362 
L 305.554286 600.160921 
L 314.057143 600.160921 
L 322.56 600.160921 
L 331.062857 599.294453 
L 339.565714 599.294453 
L 348.068571 599.294453 
L 356.571429 599.294453 
L 365.074286 597.561519 
L 373.577143 597.561519 
L 382.08 592.224258 
L 390.582857 581.796246 
L 399.085714 581.796246 
L 407.588571 581.796246 
L 416.091429 581.796246 
L 424.594286 581.796246 
L 433.097143 581.796246 
L 441.6 581.796246 
L 450.102857 581.796246 
L 458.605714 574.551864 
L 467.108571 574.551864 
L 475.611429 574.551864 
L 484.114286 574.551864 
L 492.617143 574.551864 
L 501.12 574.551864 
L 509.622857 574.551864 
L 518.125714 574.551864 
L 526.628571 574.551864 
L 535.131429 574.551864 
L 543.634286 558.558809 
L 552.137143 558.558809 
L 560.64 558.558809 
L 569.142857 558.558809 
L 577.645714 558.558809 
L 586.148571 558.558809 
L 594.651429 558.558809 
L 603.154286 558.558809 
L 611.657143 514.183299 
L 620.16 514.183299 
L 628.662857 514.183299 
L 637.165714 514.183299 
L 645.668571 507.778586 
L 654.171429 507.778586 
L 662.674286 507.778586 
L 671.177143 507.778586 
L 679.68 507.778586 
L 688.182857 507.778586 
L 696.685714 507.778586 
L 705.188571 449.497039 
L 713.691429 449.497039 
L 722.194286 446.031169 
L 730.697143 446.031169 
L 739.2 446.031169 
L 747.702857 446.031169 
L 756.205714 446.031169 
L 764.708571 446.031169 
L 773.211429 419.624968 
L 781.714286 417.892033 
L 790.217143 413.598298 
L 798.72 413.598298 
L 807.222857 413.598298 
L 815.725714 413.598298 
L 824.228571 413.598298 
L 832.731429 413.598298 
L 841.234286 413.598298 
L 849.737143 413.598298 
L 858.24 362.894321 
L 866.742857 362.128889 
L 875.245714 362.128889 
L 883.748571 362.128889 
L 892.251429 362.128889 
L 900.754286 362.128889 
L 909.257143 362.128889 
L 917.76 311.684055 
L 926.262857 311.684055 
L 934.765714 311.684055 
L 943.268571 311.684055 
L 951.771429 311.653653 
L 960.274286 311.653653 
L 968.777143 240.419281 
L 977.28 237.563031 
L 985.782857 237.563031 
L 994.285714 237.563031 
L 1002.788571 237.563031 
L 1011.291429 237.218262 
L 1019.794286 237.218262 
L 1028.297143 237.218262 
L 1036.8 237.218262 
L 1036.8 143.438477 
L 1036.8 143.438477 
L 1028.297143 143.87171 
L 1019.794286 143.87171 
L 1011.291429 143.87171 
L 1002.788571 146.440167 
L 994.285714 146.440167 
L 985.782857 146.440167 
L 977.28 146.440167 
L 968.777143 149.534694 
L 960.274286 159.84001 
L 951.771429 159.84001 
L 943.268571 162.006179 
L 934.765714 162.006179 
L 926.262857 162.006179 
L 917.76 162.006179 
L 909.257143 162.036581 
L 900.754286 162.036581 
L 892.251429 167.235386 
L 883.748571 167.235386 
L 875.245714 167.235386 
L 866.742857 167.235386 
L 858.24 171.073684 
L 849.737143 171.073684 
L 841.234286 171.073684 
L 832.731429 171.073684 
L 824.228571 171.073684 
L 815.725714 171.073684 
L 807.222857 171.073684 
L 798.72 171.073684 
L 790.217143 171.073684 
L 781.714286 171.073684 
L 773.211429 172.000956 
L 764.708571 172.000956 
L 756.205714 172.000956 
L 747.702857 172.000956 
L 739.2 172.000956 
L 730.697143 172.000956 
L 722.194286 172.000956 
L 713.691429 175.466826 
L 705.188571 177.310952 
L 696.685714 179.94287 
L 688.182857 179.94287 
L 679.68 179.94287 
L 671.177143 179.94287 
L 662.674286 179.94287 
L 654.171429 182.542272 
L 645.668571 182.542272 
L 637.165714 182.542272 
L 628.662857 182.542272 
L 620.16 187.317641 
L 611.657143 187.317641 
L 603.154286 189.050576 
L 594.651429 196.419392 
L 586.148571 196.419392 
L 577.645714 196.419392 
L 569.142857 196.419392 
L 560.64 196.419392 
L 552.137143 198.969449 
L 543.634286 201.085686 
L 535.131429 201.085686 
L 526.628571 201.085686 
L 518.125714 201.085686 
L 509.622857 204.575379 
L 501.12 204.575379 
L 492.617143 204.575379 
L 484.114286 204.575379 
L 475.611429 204.575379 
L 467.108571 204.575379 
L 458.605714 206.09064 
L 450.102857 206.09064 
L 441.6 206.09064 
L 433.097143 206.09064 
L 424.594286 206.09064 
L 416.091429 206.09064 
L 407.588571 209.855835 
L 399.085714 209.855835 
L 390.582857 215.296615 
L 382.08 227.600984 
L 373.577143 228.118496 
L 365.074286 228.118496 
L 356.571429 228.994201 
L 348.068571 228.994201 
L 339.565714 234.641993 
L 331.062857 234.641993 
L 322.56 235.086057 
L 314.057143 243.23014 
L 305.554286 250.422339 
L 297.051429 256.843467 
L 288.548571 256.843467 
L 280.045714 258.576401 
L 271.542857 258.576401 
L 263.04 270.698492 
L 254.537143 283.132329 
L 246.034286 297.253627 
L 237.531429 297.253627 
L 229.028571 317.431846 
L 220.525714 329.548847 
L 212.022857 343.553535 
L 203.52 349.201327 
L 195.017143 403.936563 
L 186.514286 448.853871 
z
" style="fill:#ff0000;fill-opacity:0.2;"/>
   </g>
   <g id="PolyCollection_3">
    <path clip-path="url(#p363dc304aa)" d="M 186.514286 722.429436 
L 186.514286 753.314301 
L 195.017143 745.78264 
L 203.52 739.009599 
L 212.022857 735.567383 
L 220.525714 731.813982 
L 229.028571 726.613961 
L 237.531429 723.069547 
L 246.034286 720.02165 
L 254.537143 710.576139 
L 263.04 704.948908 
L 271.542857 702.862557 
L 280.045714 697.238228 
L 288.548571 691.856402 
L 297.051429 685.020295 
L 305.554286 678.516734 
L 314.057143 675.341761 
L 322.56 672.098435 
L 331.062857 663.533702 
L 339.565714 657.750543 
L 348.068571 652.201218 
L 356.571429 649.979725 
L 365.074286 644.18039 
L 373.577143 640.160821 
L 382.08 638.278263 
L 390.582857 623.83913 
L 399.085714 605.636522 
L 407.588571 600.385806 
L 416.091429 595.643009 
L 424.594286 579.779733 
L 433.097143 572.204113 
L 441.6 566.12697 
L 450.102857 566.12697 
L 458.605714 564.085424 
L 467.108571 556.844445 
L 475.611429 555.864696 
L 484.114286 546.797084 
L 492.617143 543.069792 
L 501.12 538.523604 
L 509.622857 534.073374 
L 518.125714 528.281097 
L 526.628571 526.203314 
L 535.131429 519.766631 
L 543.634286 513.970822 
L 552.137143 509.818588 
L 560.64 508.078733 
L 569.142857 480.997218 
L 577.645714 474.453175 
L 586.148571 469.120527 
L 594.651429 464.442245 
L 603.154286 460.275231 
L 611.657143 437.619985 
L 620.16 426.964148 
L 628.662857 426.664808 
L 637.165714 424.072811 
L 645.668571 415.326876 
L 654.171429 415.326876 
L 662.674286 415.326876 
L 671.177143 392.282035 
L 679.68 384.599397 
L 688.182857 383.372081 
L 696.685714 376.915631 
L 705.188571 376.700119 
L 713.691429 376.218839 
L 722.194286 370.966489 
L 730.697143 369.329625 
L 739.2 361.152381 
L 747.702857 358.748817 
L 756.205714 357.860716 
L 764.708571 351.142099 
L 773.211429 351.142099 
L 781.714286 337.219344 
L 790.217143 332.514393 
L 798.72 332.514393 
L 807.222857 328.620964 
L 815.725714 319.673657 
L 824.228571 308.06249 
L 832.731429 306.088717 
L 841.234286 303.012226 
L 849.737143 272.125009 
L 858.24 270.345086 
L 866.742857 261.465486 
L 875.245714 260.601386 
L 883.748571 252.726398 
L 892.251429 245.311786 
L 900.754286 243.534534 
L 909.257143 243.439077 
L 917.76 239.677368 
L 926.262857 237.959985 
L 934.765714 225.677663 
L 943.268571 218.870673 
L 951.771429 212.713235 
L 960.274286 200.142933 
L 968.777143 197.09709 
L 977.28 193.058668 
L 985.782857 192.835339 
L 994.285714 178.460289 
L 1002.788571 169.524933 
L 1011.291429 167.378167 
L 1019.794286 163.194124 
L 1028.297143 152.685295 
L 1036.8 138.34167 
L 1036.8 135.091682 
L 1036.8 135.091682 
L 1028.297143 139.468561 
L 1019.794286 144.926926 
L 1011.291429 147.73683 
L 1002.788571 149.467724 
L 994.285714 154.842545 
L 985.782857 164.18759 
L 977.28 165.375627 
L 968.777143 166.876617 
L 960.274286 170.943716 
L 951.771429 174.207114 
L 943.268571 177.307674 
L 934.765714 179.673005 
L 926.262857 184.63478 
L 917.76 186.917332 
L 909.257143 190.945394 
L 900.754286 192.041981 
L 892.251429 193.094695 
L 883.748571 199.578878 
L 875.245714 202.983314 
L 866.742857 210.939796 
L 858.24 215.773683 
L 849.737143 218.837832 
L 841.234286 228.786876 
L 832.731429 229.691306 
L 824.228571 232.903012 
L 815.725714 247.257066 
L 807.222857 250.971327 
L 798.72 251.502222 
L 790.217143 251.502222 
L 781.714286 258.097144 
L 773.211429 261.56947 
L 764.708571 261.56947 
L 756.205714 266.312248 
L 747.702857 269.526952 
L 739.2 272.324515 
L 730.697143 274.191753 
L 722.194286 276.12704 
L 713.691429 282.409756 
L 705.188571 284.953028 
L 696.685714 287.840587 
L 688.182857 293.963073 
L 679.68 298.55858 
L 671.177143 307.365443 
L 662.674286 319.667501 
L 654.171429 319.667501 
L 645.668571 319.667501 
L 637.165714 326.105269 
L 628.662857 327.971697 
L 620.16 333.074348 
L 611.657143 346.887179 
L 603.154286 355.613551 
L 594.651429 363.502477 
L 586.148571 368.5157 
L 577.645714 377.245441 
L 569.142857 382.206571 
L 560.64 390.904851 
L 552.137143 392.947126 
L 543.634286 397.087718 
L 535.131429 403.487926 
L 526.628571 411.198904 
L 518.125714 412.924932 
L 509.622857 425.219622 
L 501.12 429.680678 
L 492.617143 435.786126 
L 484.114286 436.794145 
L 475.611429 445.023877 
L 467.108571 446.939588 
L 458.605714 455.367404 
L 450.102857 460.777584 
L 441.6 460.777584 
L 433.097143 465.325685 
L 424.594286 472.186114 
L 416.091429 479.928746 
L 407.588571 484.390496 
L 399.085714 493.330777 
L 390.582857 503.52815 
L 382.08 518.346848 
L 373.577143 523.385224 
L 365.074286 530.164682 
L 356.571429 541.556879 
L 348.068571 545.596315 
L 339.565714 551.806435 
L 331.062857 558.318436 
L 322.56 565.046807 
L 314.057143 576.548484 
L 305.554286 581.117432 
L 297.051429 594.512502 
L 288.548571 608.474276 
L 280.045714 613.97171 
L 271.542857 627.471871 
L 263.04 629.918131 
L 254.537143 644.628754 
L 246.034286 654.022792 
L 237.531429 657.762626 
L 229.028571 666.234458 
L 220.525714 673.946454 
L 212.022857 681.541595 
L 203.52 686.131813 
L 195.017143 710.385977 
L 186.514286 722.429436 
z
" style="fill:#008000;fill-opacity:0.2;"/>
   </g>
   <g id="PolyCollection_4">
    <path clip-path="url(#p363dc304aa)" d="M 186.514286 692.501792 
L 186.514286 753.670391 
L 195.017143 738.12887 
L 203.52 729.159876 
L 212.022857 712.12516 
L 220.525714 700.895814 
L 229.028571 683.011865 
L 237.531429 675.441399 
L 246.034286 668.914943 
L 254.537143 651.233085 
L 263.04 644.412579 
L 271.542857 630.953505 
L 280.045714 616.597774 
L 288.548571 601.026275 
L 297.051429 594.819931 
L 305.554286 590.007662 
L 314.057143 575.549441 
L 322.56 571.423597 
L 331.062857 563.268152 
L 339.565714 553.54677 
L 348.068571 538.177807 
L 356.571429 536.513026 
L 365.074286 532.683321 
L 373.577143 529.367808 
L 382.08 520.652269 
L 390.582857 510.82554 
L 399.085714 505.21117 
L 407.588571 505.21117 
L 416.091429 493.224084 
L 424.594286 488.287941 
L 433.097143 486.862134 
L 441.6 484.0262 
L 450.102857 479.001336 
L 458.605714 477.67052 
L 467.108571 468.399866 
L 475.611429 465.867802 
L 484.114286 463.237015 
L 492.617143 453.301083 
L 501.12 445.209932 
L 509.622857 439.63938 
L 518.125714 432.528344 
L 526.628571 431.682137 
L 535.131429 418.919619 
L 543.634286 418.201685 
L 552.137143 412.719647 
L 560.64 408.076324 
L 569.142857 402.03043 
L 577.645714 402.03043 
L 586.148571 388.930597 
L 594.651429 383.225986 
L 603.154286 377.234421 
L 611.657143 372.790319 
L 620.16 370.039615 
L 628.662857 362.840997 
L 637.165714 358.057318 
L 645.668571 352.977657 
L 654.171429 349.227991 
L 662.674286 345.978467 
L 671.177143 344.344827 
L 679.68 340.454245 
L 688.182857 336.847674 
L 696.685714 328.387909 
L 705.188571 324.51543 
L 713.691429 323.310232 
L 722.194286 321.146008 
L 730.697143 314.457903 
L 739.2 311.303013 
L 747.702857 286.936571 
L 756.205714 281.002293 
L 764.708571 281.002293 
L 773.211429 278.520359 
L 781.714286 278.520359 
L 790.217143 265.752658 
L 798.72 258.562357 
L 807.222857 257.861106 
L 815.725714 255.870004 
L 824.228571 254.184881 
L 832.731429 252.424832 
L 841.234286 238.155161 
L 849.737143 236.797086 
L 858.24 232.790275 
L 866.742857 232.249904 
L 875.245714 228.990618 
L 883.748571 214.45778 
L 892.251429 212.592181 
L 900.754286 212.592181 
L 909.257143 211.787871 
L 917.76 192.973281 
L 926.262857 192.312228 
L 934.765714 191.480541 
L 943.268571 191.480541 
L 951.771429 166.280929 
L 960.274286 165.55421 
L 968.777143 165.069806 
L 977.28 148.635766 
L 985.782857 147.507499 
L 994.285714 146.89138 
L 1002.788571 146.374535 
L 1011.291429 146.374535 
L 1019.794286 146.124929 
L 1028.297143 140.692591 
L 1036.8 139.574188 
L 1036.8 135.193043 
L 1036.8 135.193043 
L 1028.297143 135.503983 
L 1019.794286 135.607508 
L 1011.291429 135.607508 
L 1002.788571 135.607508 
L 994.285714 135.750346 
L 985.782857 136.602615 
L 977.28 136.698276 
L 968.777143 136.872047 
L 960.274286 137.02145 
L 951.771429 137.761493 
L 943.268571 138.315603 
L 934.765714 138.315603 
L 926.262857 139.398349 
L 917.76 139.42355 
L 909.257143 139.840486 
L 900.754286 141.576337 
L 892.251429 141.576337 
L 883.748571 142.529684 
L 875.245714 142.918598 
L 866.742857 147.106299 
L 858.24 147.395173 
L 849.737143 151.266312 
L 841.234286 152.070597 
L 832.731429 154.485154 
L 824.228571 156.891478 
L 815.725714 157.686834 
L 807.222857 158.026698 
L 798.72 159.0651 
L 790.217143 166.729427 
L 781.714286 172.210375 
L 773.211429 172.210375 
L 764.708571 174.040813 
L 756.205714 174.040813 
L 747.702857 177.426547 
L 739.2 185.773534 
L 730.697143 189.089195 
L 722.194286 194.141296 
L 713.691429 197.330548 
L 705.188571 198.670249 
L 696.685714 201.950126 
L 688.182857 203.688898 
L 679.68 207.122189 
L 671.177143 209.635683 
L 662.674286 210.214868 
L 654.171429 214.223661 
L 645.668571 215.193997 
L 637.165714 220.63791 
L 628.662857 223.553395 
L 620.16 240.827092 
L 611.657143 242.133223 
L 603.154286 243.835102 
L 594.651429 247.819405 
L 586.148571 253.629123 
L 577.645714 258.573653 
L 569.142857 258.573653 
L 560.64 261.09388 
L 552.137143 265.232472 
L 543.634286 268.192948 
L 535.131429 270.83968 
L 526.628571 283.108177 
L 518.125714 286.709387 
L 509.622857 291.63579 
L 501.12 298.152654 
L 492.617143 305.459196 
L 484.114286 323.81717 
L 475.611429 326.530675 
L 467.108571 331.336397 
L 458.605714 335.638895 
L 450.102857 337.756424 
L 441.6 341.910385 
L 433.097143 348.520424 
L 424.594286 351.354281 
L 416.091429 352.941756 
L 407.588571 368.237475 
L 399.085714 368.237475 
L 390.582857 375.476528 
L 382.08 384.826536 
L 373.577143 390.15112 
L 365.074286 395.019082 
L 356.571429 405.482047 
L 348.068571 408.729123 
L 339.565714 418.209905 
L 331.062857 430.275807 
L 322.56 439.76969 
L 314.057143 445.096096 
L 305.554286 455.358312 
L 297.051429 463.076176 
L 288.548571 475.470619 
L 280.045714 491.861295 
L 271.542857 506.036652 
L 263.04 522.017915 
L 254.537143 533.806713 
L 246.034286 547.496422 
L 237.531429 563.8828 
L 229.028571 571.892584 
L 220.525714 589.850776 
L 212.022857 607.211822 
L 203.52 641.921661 
L 195.017143 664.037349 
L 186.514286 692.501792 
z
" style="fill:#bf00bf;fill-opacity:0.2;"/>
   </g>
   <g id="matplotlib.axis_1">
    <g id="xtick_1">
     <g id="line2d_1">
      <defs>
       <path d="M 0 0 
L 0 3.5 
" id="m062ec01ebe" style="stroke:#000000;stroke-width:1.3;"/>
      </defs>
      <g>
       <use style="stroke:#000000;stroke-width:1.3;" x="186.514286" xlink:href="#m062ec01ebe" y="756"/>
      </g>
     </g>
     <g id="text_1">
      <!-- 0.0 -->
      <defs>
       <path d="M 31.78125 66.40625 
Q 24.171875 66.40625 20.328125 58.90625 
Q 16.5 51.421875 16.5 36.375 
Q 16.5 21.390625 20.328125 13.890625 
Q 24.171875 6.390625 31.78125 6.390625 
Q 39.453125 6.390625 43.28125 13.890625 
Q 47.125 21.390625 47.125 36.375 
Q 47.125 51.421875 43.28125 58.90625 
Q 39.453125 66.40625 31.78125 66.40625 
z
M 31.78125 74.21875 
Q 44.046875 74.21875 50.515625 64.515625 
Q 56.984375 54.828125 56.984375 36.375 
Q 56.984375 17.96875 50.515625 8.265625 
Q 44.046875 -1.421875 31.78125 -1.421875 
Q 19.53125 -1.421875 13.0625 8.265625 
Q 6.59375 17.96875 6.59375 36.375 
Q 6.59375 54.828125 13.0625 64.515625 
Q 19.53125 74.21875 31.78125 74.21875 
z
" id="DejaVuSans-30"/>
       <path d="M 10.6875 12.40625 
L 21 12.40625 
L 21 0 
L 10.6875 0 
z
" id="DejaVuSans-2e"/>
      </defs>
      <g transform="translate(176.177254 778.477969)scale(0.13 -0.13)">
       <use xlink:href="#DejaVuSans-30"/>
       <use x="63.623047" xlink:href="#DejaVuSans-2e"/>
       <use x="95.410156" xlink:href="#DejaVuSans-30"/>
      </g>
     </g>
    </g>
    <g id="xtick_2">
     <g id="line2d_2">
      <g>
       <use style="stroke:#000000;stroke-width:1.3;" x="356.571429" xlink:href="#m062ec01ebe" y="756"/>
      </g>
     </g>
     <g id="text_2">
      <!-- 0.2 -->
      <defs>
       <path d="M 19.1875 8.296875 
L 53.609375 8.296875 
L 53.609375 0 
L 7.328125 0 
L 7.328125 8.296875 
Q 12.9375 14.109375 22.625 23.890625 
Q 32.328125 33.6875 34.8125 36.53125 
Q 39.546875 41.84375 41.421875 45.53125 
Q 43.3125 49.21875 43.3125 52.78125 
Q 43.3125 58.59375 39.234375 62.25 
Q 35.15625 65.921875 28.609375 65.921875 
Q 23.96875 65.921875 18.8125 64.3125 
Q 13.671875 62.703125 7.8125 59.421875 
L 7.8125 69.390625 
Q 13.765625 71.78125 18.9375 73 
Q 24.125 74.21875 28.421875 74.21875 
Q 39.75 74.21875 46.484375 68.546875 
Q 53.21875 62.890625 53.21875 53.421875 
Q 53.21875 48.921875 51.53125 44.890625 
Q 49.859375 40.875 45.40625 35.40625 
Q 44.1875 33.984375 37.640625 27.21875 
Q 31.109375 20.453125 19.1875 8.296875 
z
" id="DejaVuSans-32"/>
      </defs>
      <g transform="translate(346.234397 778.477969)scale(0.13 -0.13)">
       <use xlink:href="#DejaVuSans-30"/>
       <use x="63.623047" xlink:href="#DejaVuSans-2e"/>
       <use x="95.410156" xlink:href="#DejaVuSans-32"/>
      </g>
     </g>
    </g>
    <g id="xtick_3">
     <g id="line2d_3">
      <g>
       <use style="stroke:#000000;stroke-width:1.3;" x="526.628571" xlink:href="#m062ec01ebe" y="756"/>
      </g>
     </g>
     <g id="text_3">
      <!-- 0.4 -->
      <defs>
       <path d="M 37.796875 64.3125 
L 12.890625 25.390625 
L 37.796875 25.390625 
z
M 35.203125 72.90625 
L 47.609375 72.90625 
L 47.609375 25.390625 
L 58.015625 25.390625 
L 58.015625 17.1875 
L 47.609375 17.1875 
L 47.609375 0 
L 37.796875 0 
L 37.796875 17.1875 
L 4.890625 17.1875 
L 4.890625 26.703125 
z
" id="DejaVuSans-34"/>
      </defs>
      <g transform="translate(516.29154 778.477969)scale(0.13 -0.13)">
       <use xlink:href="#DejaVuSans-30"/>
       <use x="63.623047" xlink:href="#DejaVuSans-2e"/>
       <use x="95.410156" xlink:href="#DejaVuSans-34"/>
      </g>
     </g>
    </g>
    <g id="xtick_4">
     <g id="line2d_4">
      <g>
       <use style="stroke:#000000;stroke-width:1.3;" x="696.685714" xlink:href="#m062ec01ebe" y="756"/>
      </g>
     </g>
     <g id="text_4">
      <!-- 0.6 -->
      <defs>
       <path d="M 33.015625 40.375 
Q 26.375 40.375 22.484375 35.828125 
Q 18.609375 31.296875 18.609375 23.390625 
Q 18.609375 15.53125 22.484375 10.953125 
Q 26.375 6.390625 33.015625 6.390625 
Q 39.65625 6.390625 43.53125 10.953125 
Q 47.40625 15.53125 47.40625 23.390625 
Q 47.40625 31.296875 43.53125 35.828125 
Q 39.65625 40.375 33.015625 40.375 
z
M 52.59375 71.296875 
L 52.59375 62.3125 
Q 48.875 64.0625 45.09375 64.984375 
Q 41.3125 65.921875 37.59375 65.921875 
Q 27.828125 65.921875 22.671875 59.328125 
Q 17.53125 52.734375 16.796875 39.40625 
Q 19.671875 43.65625 24.015625 45.921875 
Q 28.375 48.1875 33.59375 48.1875 
Q 44.578125 48.1875 50.953125 41.515625 
Q 57.328125 34.859375 57.328125 23.390625 
Q 57.328125 12.15625 50.6875 5.359375 
Q 44.046875 -1.421875 33.015625 -1.421875 
Q 20.359375 -1.421875 13.671875 8.265625 
Q 6.984375 17.96875 6.984375 36.375 
Q 6.984375 53.65625 15.1875 63.9375 
Q 23.390625 74.21875 37.203125 74.21875 
Q 40.921875 74.21875 44.703125 73.484375 
Q 48.484375 72.75 52.59375 71.296875 
z
" id="DejaVuSans-36"/>
      </defs>
      <g transform="translate(686.348683 778.477969)scale(0.13 -0.13)">
       <use xlink:href="#DejaVuSans-30"/>
       <use x="63.623047" xlink:href="#DejaVuSans-2e"/>
       <use x="95.410156" xlink:href="#DejaVuSans-36"/>
      </g>
     </g>
    </g>
    <g id="xtick_5">
     <g id="line2d_5">
      <g>
       <use style="stroke:#000000;stroke-width:1.3;" x="866.742857" xlink:href="#m062ec01ebe" y="756"/>
      </g>
     </g>
     <g id="text_5">
      <!-- 0.8 -->
      <defs>
       <path d="M 31.78125 34.625 
Q 24.75 34.625 20.71875 30.859375 
Q 16.703125 27.09375 16.703125 20.515625 
Q 16.703125 13.921875 20.71875 10.15625 
Q 24.75 6.390625 31.78125 6.390625 
Q 38.8125 6.390625 42.859375 10.171875 
Q 46.921875 13.96875 46.921875 20.515625 
Q 46.921875 27.09375 42.890625 30.859375 
Q 38.875 34.625 31.78125 34.625 
z
M 21.921875 38.8125 
Q 15.578125 40.375 12.03125 44.71875 
Q 8.5 49.078125 8.5 55.328125 
Q 8.5 64.0625 14.71875 69.140625 
Q 20.953125 74.21875 31.78125 74.21875 
Q 42.671875 74.21875 48.875 69.140625 
Q 55.078125 64.0625 55.078125 55.328125 
Q 55.078125 49.078125 51.53125 44.71875 
Q 48 40.375 41.703125 38.8125 
Q 48.828125 37.15625 52.796875 32.3125 
Q 56.78125 27.484375 56.78125 20.515625 
Q 56.78125 9.90625 50.3125 4.234375 
Q 43.84375 -1.421875 31.78125 -1.421875 
Q 19.734375 -1.421875 13.25 4.234375 
Q 6.78125 9.90625 6.78125 20.515625 
Q 6.78125 27.484375 10.78125 32.3125 
Q 14.796875 37.15625 21.921875 38.8125 
z
M 18.3125 54.390625 
Q 18.3125 48.734375 21.84375 45.5625 
Q 25.390625 42.390625 31.78125 42.390625 
Q 38.140625 42.390625 41.71875 45.5625 
Q 45.3125 48.734375 45.3125 54.390625 
Q 45.3125 60.0625 41.71875 63.234375 
Q 38.140625 66.40625 31.78125 66.40625 
Q 25.390625 66.40625 21.84375 63.234375 
Q 18.3125 60.0625 18.3125 54.390625 
z
" id="DejaVuSans-38"/>
      </defs>
      <g transform="translate(856.405826 778.477969)scale(0.13 -0.13)">
       <use xlink:href="#DejaVuSans-30"/>
       <use x="63.623047" xlink:href="#DejaVuSans-2e"/>
       <use x="95.410156" xlink:href="#DejaVuSans-38"/>
      </g>
     </g>
    </g>
    <g id="xtick_6">
     <g id="line2d_6">
      <g>
       <use style="stroke:#000000;stroke-width:1.3;" x="1036.8" xlink:href="#m062ec01ebe" y="756"/>
      </g>
     </g>
     <g id="text_6">
      <!-- 1.0 -->
      <defs>
       <path d="M 12.40625 8.296875 
L 28.515625 8.296875 
L 28.515625 63.921875 
L 10.984375 60.40625 
L 10.984375 69.390625 
L 28.421875 72.90625 
L 38.28125 72.90625 
L 38.28125 8.296875 
L 54.390625 8.296875 
L 54.390625 0 
L 12.40625 0 
z
" id="DejaVuSans-31"/>
      </defs>
      <g transform="translate(1026.462969 778.477969)scale(0.13 -0.13)">
       <use xlink:href="#DejaVuSans-31"/>
       <use x="63.623047" xlink:href="#DejaVuSans-2e"/>
       <use x="95.410156" xlink:href="#DejaVuSans-30"/>
      </g>
     </g>
    </g>
    <g id="text_7">
     <!-- False Positive Rate -->
     <defs>
      <path d="M 9.8125 72.90625 
L 51.703125 72.90625 
L 51.703125 64.59375 
L 19.671875 64.59375 
L 19.671875 43.109375 
L 48.578125 43.109375 
L 48.578125 34.8125 
L 19.671875 34.8125 
L 19.671875 0 
L 9.8125 0 
z
" id="DejaVuSans-46"/>
      <path d="M 34.28125 27.484375 
Q 23.390625 27.484375 19.1875 25 
Q 14.984375 22.515625 14.984375 16.5 
Q 14.984375 11.71875 18.140625 8.90625 
Q 21.296875 6.109375 26.703125 6.109375 
Q 34.1875 6.109375 38.703125 11.40625 
Q 43.21875 16.703125 43.21875 25.484375 
L 43.21875 27.484375 
z
M 52.203125 31.203125 
L 52.203125 0 
L 43.21875 0 
L 43.21875 8.296875 
Q 40.140625 3.328125 35.546875 0.953125 
Q 30.953125 -1.421875 24.3125 -1.421875 
Q 15.921875 -1.421875 10.953125 3.296875 
Q 6 8.015625 6 15.921875 
Q 6 25.140625 12.171875 29.828125 
Q 18.359375 34.515625 30.609375 34.515625 
L 43.21875 34.515625 
L 43.21875 35.40625 
Q 43.21875 41.609375 39.140625 45 
Q 35.0625 48.390625 27.6875 48.390625 
Q 23 48.390625 18.546875 47.265625 
Q 14.109375 46.140625 10.015625 43.890625 
L 10.015625 52.203125 
Q 14.9375 54.109375 19.578125 55.046875 
Q 24.21875 56 28.609375 56 
Q 40.484375 56 46.34375 49.84375 
Q 52.203125 43.703125 52.203125 31.203125 
z
" id="DejaVuSans-61"/>
      <path d="M 9.421875 75.984375 
L 18.40625 75.984375 
L 18.40625 0 
L 9.421875 0 
z
" id="DejaVuSans-6c"/>
      <path d="M 44.28125 53.078125 
L 44.28125 44.578125 
Q 40.484375 46.53125 36.375 47.5 
Q 32.28125 48.484375 27.875 48.484375 
Q 21.1875 48.484375 17.84375 46.4375 
Q 14.5 44.390625 14.5 40.28125 
Q 14.5 37.15625 16.890625 35.375 
Q 19.28125 33.59375 26.515625 31.984375 
L 29.59375 31.296875 
Q 39.15625 29.25 43.1875 25.515625 
Q 47.21875 21.78125 47.21875 15.09375 
Q 47.21875 7.46875 41.1875 3.015625 
Q 35.15625 -1.421875 24.609375 -1.421875 
Q 20.21875 -1.421875 15.453125 -0.5625 
Q 10.6875 0.296875 5.421875 2 
L 5.421875 11.28125 
Q 10.40625 8.6875 15.234375 7.390625 
Q 20.0625 6.109375 24.8125 6.109375 
Q 31.15625 6.109375 34.5625 8.28125 
Q 37.984375 10.453125 37.984375 14.40625 
Q 37.984375 18.0625 35.515625 20.015625 
Q 33.0625 21.96875 24.703125 23.78125 
L 21.578125 24.515625 
Q 13.234375 26.265625 9.515625 29.90625 
Q 5.8125 33.546875 5.8125 39.890625 
Q 5.8125 47.609375 11.28125 51.796875 
Q 16.75 56 26.8125 56 
Q 31.78125 56 36.171875 55.265625 
Q 40.578125 54.546875 44.28125 53.078125 
z
" id="DejaVuSans-73"/>
      <path d="M 56.203125 29.59375 
L 56.203125 25.203125 
L 14.890625 25.203125 
Q 15.484375 15.921875 20.484375 11.0625 
Q 25.484375 6.203125 34.421875 6.203125 
Q 39.59375 6.203125 44.453125 7.46875 
Q 49.3125 8.734375 54.109375 11.28125 
L 54.109375 2.78125 
Q 49.265625 0.734375 44.1875 -0.34375 
Q 39.109375 -1.421875 33.890625 -1.421875 
Q 20.796875 -1.421875 13.15625 6.1875 
Q 5.515625 13.8125 5.515625 26.8125 
Q 5.515625 40.234375 12.765625 48.109375 
Q 20.015625 56 32.328125 56 
Q 43.359375 56 49.78125 48.890625 
Q 56.203125 41.796875 56.203125 29.59375 
z
M 47.21875 32.234375 
Q 47.125 39.59375 43.09375 43.984375 
Q 39.0625 48.390625 32.421875 48.390625 
Q 24.90625 48.390625 20.390625 44.140625 
Q 15.875 39.890625 15.1875 32.171875 
z
" id="DejaVuSans-65"/>
      <path id="DejaVuSans-20"/>
      <path d="M 19.671875 64.796875 
L 19.671875 37.40625 
L 32.078125 37.40625 
Q 38.96875 37.40625 42.71875 40.96875 
Q 46.484375 44.53125 46.484375 51.125 
Q 46.484375 57.671875 42.71875 61.234375 
Q 38.96875 64.796875 32.078125 64.796875 
z
M 9.8125 72.90625 
L 32.078125 72.90625 
Q 44.34375 72.90625 50.609375 67.359375 
Q 56.890625 61.8125 56.890625 51.125 
Q 56.890625 40.328125 50.609375 34.8125 
Q 44.34375 29.296875 32.078125 29.296875 
L 19.671875 29.296875 
L 19.671875 0 
L 9.8125 0 
z
" id="DejaVuSans-50"/>
      <path d="M 30.609375 48.390625 
Q 23.390625 48.390625 19.1875 42.75 
Q 14.984375 37.109375 14.984375 27.296875 
Q 14.984375 17.484375 19.15625 11.84375 
Q 23.34375 6.203125 30.609375 6.203125 
Q 37.796875 6.203125 41.984375 11.859375 
Q 46.1875 17.53125 46.1875 27.296875 
Q 46.1875 37.015625 41.984375 42.703125 
Q 37.796875 48.390625 30.609375 48.390625 
z
M 30.609375 56 
Q 42.328125 56 49.015625 48.375 
Q 55.71875 40.765625 55.71875 27.296875 
Q 55.71875 13.875 49.015625 6.21875 
Q 42.328125 -1.421875 30.609375 -1.421875 
Q 18.84375 -1.421875 12.171875 6.21875 
Q 5.515625 13.875 5.515625 27.296875 
Q 5.515625 40.765625 12.171875 48.375 
Q 18.84375 56 30.609375 56 
z
" id="DejaVuSans-6f"/>
      <path d="M 9.421875 54.6875 
L 18.40625 54.6875 
L 18.40625 0 
L 9.421875 0 
z
M 9.421875 75.984375 
L 18.40625 75.984375 
L 18.40625 64.59375 
L 9.421875 64.59375 
z
" id="DejaVuSans-69"/>
      <path d="M 18.3125 70.21875 
L 18.3125 54.6875 
L 36.8125 54.6875 
L 36.8125 47.703125 
L 18.3125 47.703125 
L 18.3125 18.015625 
Q 18.3125 11.328125 20.140625 9.421875 
Q 21.96875 7.515625 27.59375 7.515625 
L 36.8125 7.515625 
L 36.8125 0 
L 27.59375 0 
Q 17.1875 0 13.234375 3.875 
Q 9.28125 7.765625 9.28125 18.015625 
L 9.28125 47.703125 
L 2.6875 47.703125 
L 2.6875 54.6875 
L 9.28125 54.6875 
L 9.28125 70.21875 
z
" id="DejaVuSans-74"/>
      <path d="M 2.984375 54.6875 
L 12.5 54.6875 
L 29.59375 8.796875 
L 46.6875 54.6875 
L 56.203125 54.6875 
L 35.6875 0 
L 23.484375 0 
z
" id="DejaVuSans-76"/>
      <path d="M 44.390625 34.1875 
Q 47.5625 33.109375 50.5625 29.59375 
Q 53.5625 26.078125 56.59375 19.921875 
L 66.609375 0 
L 56 0 
L 46.6875 18.703125 
Q 43.0625 26.03125 39.671875 28.421875 
Q 36.28125 30.8125 30.421875 30.8125 
L 19.671875 30.8125 
L 19.671875 0 
L 9.8125 0 
L 9.8125 72.90625 
L 32.078125 72.90625 
Q 44.578125 72.90625 50.734375 67.671875 
Q 56.890625 62.453125 56.890625 51.90625 
Q 56.890625 45.015625 53.6875 40.46875 
Q 50.484375 35.9375 44.390625 34.1875 
z
M 19.671875 64.796875 
L 19.671875 38.921875 
L 32.078125 38.921875 
Q 39.203125 38.921875 42.84375 42.21875 
Q 46.484375 45.515625 46.484375 51.90625 
Q 46.484375 58.296875 42.84375 61.546875 
Q 39.203125 64.796875 32.078125 64.796875 
z
" id="DejaVuSans-52"/>
     </defs>
     <g transform="translate(514.87125 797.339062)scale(0.16 -0.16)">
      <use xlink:href="#DejaVuSans-46"/>
      <use x="57.378906" xlink:href="#DejaVuSans-61"/>
      <use x="118.658203" xlink:href="#DejaVuSans-6c"/>
      <use x="146.441406" xlink:href="#DejaVuSans-73"/>
      <use x="198.541016" xlink:href="#DejaVuSans-65"/>
      <use x="260.064453" xlink:href="#DejaVuSans-20"/>
      <use x="291.851562" xlink:href="#DejaVuSans-50"/>
      <use x="352.107422" xlink:href="#DejaVuSans-6f"/>
      <use x="413.289062" xlink:href="#DejaVuSans-73"/>
      <use x="465.388672" xlink:href="#DejaVuSans-69"/>
      <use x="493.171875" xlink:href="#DejaVuSans-74"/>
      <use x="532.380859" xlink:href="#DejaVuSans-69"/>
      <use x="560.164062" xlink:href="#DejaVuSans-76"/>
      <use x="619.34375" xlink:href="#DejaVuSans-65"/>
      <use x="680.867188" xlink:href="#DejaVuSans-20"/>
      <use x="712.654297" xlink:href="#DejaVuSans-52"/>
      <use x="782.105469" xlink:href="#DejaVuSans-61"/>
      <use x="843.384766" xlink:href="#DejaVuSans-74"/>
      <use x="882.59375" xlink:href="#DejaVuSans-65"/>
     </g>
    </g>
   </g>
   <g id="matplotlib.axis_2">
    <g id="ytick_1">
     <g id="line2d_7">
      <defs>
       <path d="M 0 0 
L -3.5 0 
" id="m5e826921e7" style="stroke:#000000;stroke-width:1.3;"/>
      </defs>
      <g>
       <use style="stroke:#000000;stroke-width:1.3;" x="144" xlink:href="#m5e826921e7" y="756"/>
      </g>
     </g>
     <g id="text_8">
      <!-- 0.0 -->
      <g transform="translate(110.725938 760.938984)scale(0.13 -0.13)">
       <use xlink:href="#DejaVuSans-30"/>
       <use x="63.623047" xlink:href="#DejaVuSans-2e"/>
       <use x="95.410156" xlink:href="#DejaVuSans-30"/>
      </g>
     </g>
    </g>
    <g id="ytick_2">
     <g id="line2d_8">
      <g>
       <use style="stroke:#000000;stroke-width:1.3;" x="144" xlink:href="#m5e826921e7" y="631.748571"/>
      </g>
     </g>
     <g id="text_9">
      <!-- 0.2 -->
      <g transform="translate(110.725938 636.687556)scale(0.13 -0.13)">
       <use xlink:href="#DejaVuSans-30"/>
       <use x="63.623047" xlink:href="#DejaVuSans-2e"/>
       <use x="95.410156" xlink:href="#DejaVuSans-32"/>
      </g>
     </g>
    </g>
    <g id="ytick_3">
     <g id="line2d_9">
      <g>
       <use style="stroke:#000000;stroke-width:1.3;" x="144" xlink:href="#m5e826921e7" y="507.497143"/>
      </g>
     </g>
     <g id="text_10">
      <!-- 0.4 -->
      <g transform="translate(110.725938 512.436127)scale(0.13 -0.13)">
       <use xlink:href="#DejaVuSans-30"/>
       <use x="63.623047" xlink:href="#DejaVuSans-2e"/>
       <use x="95.410156" xlink:href="#DejaVuSans-34"/>
      </g>
     </g>
    </g>
    <g id="ytick_4">
     <g id="line2d_10">
      <g>
       <use style="stroke:#000000;stroke-width:1.3;" x="144" xlink:href="#m5e826921e7" y="383.245714"/>
      </g>
     </g>
     <g id="text_11">
      <!-- 0.6 -->
      <g transform="translate(110.725938 388.184699)scale(0.13 -0.13)">
       <use xlink:href="#DejaVuSans-30"/>
       <use x="63.623047" xlink:href="#DejaVuSans-2e"/>
       <use x="95.410156" xlink:href="#DejaVuSans-36"/>
      </g>
     </g>
    </g>
    <g id="ytick_5">
     <g id="line2d_11">
      <g>
       <use style="stroke:#000000;stroke-width:1.3;" x="144" xlink:href="#m5e826921e7" y="258.994286"/>
      </g>
     </g>
     <g id="text_12">
      <!-- 0.8 -->
      <g transform="translate(110.725938 263.93327)scale(0.13 -0.13)">
       <use xlink:href="#DejaVuSans-30"/>
       <use x="63.623047" xlink:href="#DejaVuSans-2e"/>
       <use x="95.410156" xlink:href="#DejaVuSans-38"/>
      </g>
     </g>
    </g>
    <g id="ytick_6">
     <g id="line2d_12">
      <g>
       <use style="stroke:#000000;stroke-width:1.3;" x="144" xlink:href="#m5e826921e7" y="134.742857"/>
      </g>
     </g>
     <g id="text_13">
      <!-- 1.0 -->
      <g transform="translate(110.725938 139.681842)scale(0.13 -0.13)">
       <use xlink:href="#DejaVuSans-31"/>
       <use x="63.623047" xlink:href="#DejaVuSans-2e"/>
       <use x="95.410156" xlink:href="#DejaVuSans-30"/>
      </g>
     </g>
    </g>
    <g id="text_14">
     <!-- True Positive Rate -->
     <defs>
      <path d="M -0.296875 72.90625 
L 61.375 72.90625 
L 61.375 64.59375 
L 35.5 64.59375 
L 35.5 0 
L 25.59375 0 
L 25.59375 64.59375 
L -0.296875 64.59375 
z
" id="DejaVuSans-54"/>
      <path d="M 41.109375 46.296875 
Q 39.59375 47.171875 37.8125 47.578125 
Q 36.03125 48 33.890625 48 
Q 26.265625 48 22.1875 43.046875 
Q 18.109375 38.09375 18.109375 28.8125 
L 18.109375 0 
L 9.078125 0 
L 9.078125 54.6875 
L 18.109375 54.6875 
L 18.109375 46.1875 
Q 20.953125 51.171875 25.484375 53.578125 
Q 30.03125 56 36.53125 56 
Q 37.453125 56 38.578125 55.875 
Q 39.703125 55.765625 41.0625 55.515625 
z
" id="DejaVuSans-72"/>
      <path d="M 8.5 21.578125 
L 8.5 54.6875 
L 17.484375 54.6875 
L 17.484375 21.921875 
Q 17.484375 14.15625 20.5 10.265625 
Q 23.53125 6.390625 29.59375 6.390625 
Q 36.859375 6.390625 41.078125 11.03125 
Q 45.3125 15.671875 45.3125 23.6875 
L 45.3125 54.6875 
L 54.296875 54.6875 
L 54.296875 0 
L 45.3125 0 
L 45.3125 8.40625 
Q 42.046875 3.421875 37.71875 1 
Q 33.40625 -1.421875 27.6875 -1.421875 
Q 18.265625 -1.421875 13.375 4.4375 
Q 8.5 10.296875 8.5 21.578125 
z
M 31.109375 56 
z
" id="DejaVuSans-75"/>
     </defs>
     <g transform="translate(103.398438 502.71375)rotate(-90)scale(0.16 -0.16)">
      <use xlink:href="#DejaVuSans-54"/>
      <use x="60.865234" xlink:href="#DejaVuSans-72"/>
      <use x="101.978516" xlink:href="#DejaVuSans-75"/>
      <use x="165.357422" xlink:href="#DejaVuSans-65"/>
      <use x="226.880859" xlink:href="#DejaVuSans-20"/>
      <use x="258.667969" xlink:href="#DejaVuSans-50"/>
      <use x="318.923828" xlink:href="#DejaVuSans-6f"/>
      <use x="380.105469" xlink:href="#DejaVuSans-73"/>
      <use x="432.205078" xlink:href="#DejaVuSans-69"/>
      <use x="459.988281" xlink:href="#DejaVuSans-74"/>
      <use x="499.197266" xlink:href="#DejaVuSans-69"/>
      <use x="526.980469" xlink:href="#DejaVuSans-76"/>
      <use x="586.160156" xlink:href="#DejaVuSans-65"/>
      <use x="647.683594" xlink:href="#DejaVuSans-20"/>
      <use x="679.470703" xlink:href="#DejaVuSans-52"/>
      <use x="748.921875" xlink:href="#DejaVuSans-61"/>
      <use x="810.201172" xlink:href="#DejaVuSans-74"/>
      <use x="849.410156" xlink:href="#DejaVuSans-65"/>
     </g>
    </g>
   </g>
   <g id="line2d_13">
    <path clip-path="url(#p363dc304aa)" d="M 186.514286 694.321801 
L 195.017143 678.231808 
L 203.52 636.941844 
L 212.022857 612.516826 
L 220.525714 604.679265 
L 229.028571 601.378546 
L 237.531429 592.027412 
L 246.034286 588.46219 
L 254.537143 573.826426 
L 263.04 569.254021 
L 271.542857 544.652438 
L 280.045714 535.62776 
L 288.548571 520.683866 
L 297.051429 519.810086 
L 305.554286 516.21564 
L 314.057143 499.752422 
L 322.56 489.646239 
L 331.062857 486.807267 
L 339.565714 473.385045 
L 348.068571 453.877321 
L 356.571429 442.151163 
L 365.074286 437.393098 
L 373.577143 429.052145 
L 382.08 425.106882 
L 390.582857 416.881795 
L 399.085714 412.678132 
L 407.588571 412.678132 
L 416.091429 395.89453 
L 424.594286 390.045359 
L 433.097143 387.181901 
L 441.6 382.212705 
L 450.102857 380.658007 
L 458.605714 377.766679 
L 467.108571 373.007076 
L 475.611429 359.201362 
L 484.114286 354.464085 
L 492.617143 352.851268 
L 501.12 352.851268 
L 509.622857 344.757938 
L 518.125714 340.734526 
L 526.628571 336.729666 
L 535.131429 333.853475 
L 543.634286 331.384297 
L 552.137143 327.702118 
L 560.64 324.825928 
L 569.142857 321.345625 
L 577.645714 316.945115 
L 586.148571 309.67895 
L 594.651429 297.749012 
L 603.154286 297.446255 
L 611.657143 291.465598 
L 620.16 275.722093 
L 628.662857 273.837431 
L 637.165714 270.93436 
L 645.668571 269.698785 
L 654.171429 266.577984 
L 662.674286 265.704204 
L 671.177143 265.704204 
L 679.68 252.586625 
L 688.182857 249.45969 
L 696.685714 246.399202 
L 705.188571 244.784876 
L 713.691429 244.139749 
L 722.194286 239.821948 
L 730.697143 237.645372 
L 739.2 236.787841 
L 747.702857 236.787841 
L 756.205714 218.000589 
L 764.708571 213.408079 
L 773.211429 213.408079 
L 781.714286 207.91339 
L 790.217143 206.851412 
L 798.72 197.286581 
L 807.222857 196.423724 
L 815.725714 196.423724 
L 824.228571 183.022041 
L 832.731429 181.39479 
L 841.234286 180.963362 
L 849.737143 178.781141 
L 858.24 178.175627 
L 866.742857 176.56281 
L 875.245714 173.814837 
L 883.748571 169.867418 
L 892.251429 167.6887 
L 900.754286 166.139982 
L 909.257143 165.817419 
L 917.76 165.817419 
L 926.262857 162.982202 
L 934.765714 162.014511 
L 943.268571 155.81964 
L 951.771429 151.799425 
L 960.274286 151.799425 
L 968.777143 149.439474 
L 977.28 146.340733 
L 985.782857 145.695606 
L 994.285714 141.831186 
L 1002.788571 141.071733 
L 1011.291429 139.27613 
L 1019.794286 138.407812 
L 1028.297143 137.379193 
L 1036.8 134.742857 
" style="fill:none;stroke:#0000ff;stroke-linecap:square;stroke-width:3;"/>
   </g>
   <g id="line2d_14">
    <path clip-path="url(#p363dc304aa)" d="M 186.514286 756 
L 1036.8 134.742857 
" style="fill:none;stroke:#000080;stroke-dasharray:11.1,4.8;stroke-dashoffset:0;stroke-width:3;"/>
   </g>
   <g id="line2d_15">
    <path clip-path="url(#p363dc304aa)" d="M 186.514286 571.61165 
L 195.017143 533.638283 
L 203.52 492.101423 
L 212.022857 485.386179 
L 220.525714 477.442536 
L 229.028571 469.912146 
L 237.531429 459.073619 
L 246.034286 455.20578 
L 254.537143 442.017043 
L 263.04 434.352744 
L 271.542857 427.361998 
L 280.045714 427.361998 
L 288.548571 423.746466 
L 297.051429 423.746466 
L 305.554286 418.862497 
L 314.057143 414.8218 
L 322.56 411.056605 
L 331.062857 410.623371 
L 339.565714 410.623371 
L 348.068571 408.740774 
L 356.571429 408.740774 
L 365.074286 407.874306 
L 373.577143 407.874306 
L 382.08 402.031959 
L 390.582857 389.679477 
L 399.085714 387.79688 
L 407.588571 387.79688 
L 416.091429 385.914283 
L 424.594286 385.914283 
L 433.097143 385.914283 
L 441.6 385.914283 
L 450.102857 385.914283 
L 458.605714 379.710554 
L 467.108571 378.195293 
L 475.611429 378.195293 
L 484.114286 378.195293 
L 492.617143 377.762059 
L 501.12 377.762059 
L 509.622857 377.762059 
L 518.125714 375.879462 
L 526.628571 375.879462 
L 535.131429 375.879462 
L 543.634286 368.407297 
L 552.137143 366.5247 
L 560.64 365.224999 
L 569.142857 365.224999 
L 577.645714 365.224999 
L 586.148571 365.224999 
L 594.651429 365.224999 
L 603.154286 360.461541 
L 611.657143 344.803237 
L 620.16 344.803237 
L 628.662857 342.920639 
L 637.165714 342.920639 
L 645.668571 336.515927 
L 654.171429 336.515927 
L 662.674286 335.216226 
L 671.177143 335.216226 
L 679.68 335.216226 
L 688.182857 335.216226 
L 696.685714 335.216226 
L 705.188571 311.295536 
L 713.691429 310.285361 
L 722.194286 308.552427 
L 730.697143 308.552427 
L 739.2 308.552427 
L 747.702857 308.552427 
L 756.205714 308.552427 
L 764.708571 308.552427 
L 773.211429 290.40574 
L 781.714286 288.672805 
L 790.217143 285.206936 
L 798.72 285.206936 
L 807.222857 285.206936 
L 815.725714 285.206936 
L 824.228571 285.206936 
L 832.731429 285.206936 
L 841.234286 285.206936 
L 849.737143 285.206936 
L 858.24 263.019181 
L 866.742857 260.419778 
L 875.245714 260.419778 
L 883.748571 260.419778 
L 892.251429 260.419778 
L 900.754286 258.686843 
L 909.257143 258.686843 
L 917.76 232.00054 
L 926.262857 232.00054 
L 934.765714 232.00054 
L 943.268571 232.00054 
L 951.771429 229.834372 
L 960.274286 229.834372 
L 968.777143 192.85478 
L 977.28 189.822144 
L 985.782857 189.822144 
L 994.285714 189.822144 
L 1002.788571 189.822144 
L 1011.291429 187.655975 
L 1019.794286 187.655975 
L 1028.297143 187.655975 
L 1036.8 187.222741 
" style="fill:none;stroke:#ff0000;stroke-linecap:square;stroke-width:3;"/>
   </g>
   <g id="line2d_16">
    <path clip-path="url(#p363dc304aa)" d="M 186.514286 756 
L 1036.8 134.742857 
" style="fill:none;stroke:#000080;stroke-dasharray:11.1,4.8;stroke-dashoffset:0;stroke-width:3;"/>
   </g>
   <g id="line2d_17">
    <path clip-path="url(#p363dc304aa)" d="M 186.514286 741.477086 
L 195.017143 731.088166 
L 203.52 716.099073 
L 212.022857 711.196263 
L 220.525714 705.09839 
L 229.028571 698.197398 
L 237.531429 692.310904 
L 246.034286 688.682919 
L 254.537143 679.362909 
L 263.04 669.330683 
L 271.542857 666.643832 
L 280.045714 657.727732 
L 288.548571 651.817035 
L 297.051429 640.448678 
L 305.554286 631.066219 
L 314.057143 627.174382 
L 322.56 619.759907 
L 331.062857 612.003675 
L 339.565714 605.402085 
L 348.068571 599.551162 
L 356.571429 596.519813 
L 365.074286 587.981855 
L 373.577143 582.304773 
L 382.08 578.395027 
L 390.582857 563.449777 
L 399.085714 549.903008 
L 407.588571 542.879008 
L 416.091429 537.801472 
L 424.594286 526.909731 
L 433.097143 520.284177 
L 441.6 515.041034 
L 450.102857 515.041034 
L 458.605714 511.477028 
L 467.108571 503.818919 
L 475.611429 502.004146 
L 484.114286 492.542332 
L 492.617143 490.231921 
L 501.12 483.597539 
L 509.622857 478.94042 
L 518.125714 470.192362 
L 526.628571 468.114579 
L 535.131429 460.732867 
L 543.634286 453.982181 
L 552.137143 449.800643 
L 560.64 447.72286 
L 569.142857 431.353572 
L 577.645714 425.09778 
L 586.148571 417.608262 
L 594.651429 413.199987 
L 603.154286 407.181039 
L 611.657143 391.960705 
L 620.16 379.144567 
L 628.662857 376.863468 
L 637.165714 374.247282 
L 645.668571 366.472286 
L 654.171429 366.472286 
L 662.674286 366.472286 
L 671.177143 350.212586 
L 679.68 341.592814 
L 688.182857 338.568193 
L 696.685714 332.071139 
L 705.188571 330.588425 
L 713.691429 329.071314 
L 722.194286 322.94542 
L 730.697143 320.954212 
L 739.2 316.110457 
L 747.702857 313.158772 
L 756.205714 311.343999 
L 764.708571 304.357746 
L 773.211429 304.357746 
L 781.714286 297.625564 
L 790.217143 291.456879 
L 798.72 291.456879 
L 807.222857 289.160711 
L 815.725714 282.854303 
L 824.228571 269.580723 
L 832.731429 266.952774 
L 841.234286 264.642363 
L 849.737143 245.298145 
L 858.24 242.366987 
L 866.742857 236.080759 
L 875.245714 231.736303 
L 883.748571 226.763614 
L 892.251429 219.439924 
L 900.754286 217.448715 
L 909.257143 216.690159 
L 917.76 212.47239 
L 926.262857 210.32937 
L 934.765714 201.861394 
L 943.268571 197.559775 
L 951.771429 193.104275 
L 960.274286 185.77638 
L 968.777143 182.139587 
L 977.28 179.47668 
L 985.782857 178.630589 
L 994.285714 166.56328 
L 1002.788571 159.584567 
L 1011.291429 157.632403 
L 1019.794286 153.915238 
L 1028.297143 145.813239 
L 1036.8 136.572902 
" style="fill:none;stroke:#008000;stroke-linecap:square;stroke-width:3;"/>
   </g>
   <g id="line2d_18">
    <path clip-path="url(#p363dc304aa)" d="M 186.514286 756 
L 1036.8 134.742857 
" style="fill:none;stroke:#000080;stroke-dasharray:11.1,4.8;stroke-dashoffset:0;stroke-width:3;"/>
   </g>
   <g id="line2d_19">
    <path clip-path="url(#p363dc304aa)" d="M 186.514286 728.991399 
L 195.017143 707.639132 
L 203.52 692.18874 
L 212.022857 665.983843 
L 220.525714 651.712677 
L 229.028571 633.133648 
L 237.531429 624.762764 
L 246.034286 612.49519 
L 254.537143 596.238748 
L 263.04 585.913201 
L 271.542857 569.754488 
L 280.045714 554.648525 
L 288.548571 538.467939 
L 297.051429 529.788119 
L 305.554286 522.824925 
L 314.057143 509.367884 
L 322.56 504.834356 
L 331.062857 495.821406 
L 339.565714 483.881797 
L 348.068571 470.839989 
L 356.571429 467.909531 
L 365.074286 461.598832 
L 373.577143 456.582 
L 382.08 448.870102 
L 390.582857 438.43219 
L 399.085714 432.555678 
L 407.588571 432.555678 
L 416.091429 416.991812 
L 424.594286 413.766054 
L 433.097143 411.812415 
L 441.6 406.490273 
L 450.102857 401.507052 
L 458.605714 399.515843 
L 467.108571 393.431394 
L 475.611429 388.876035 
L 484.114286 386.151223 
L 492.617143 372.434424 
L 501.12 364.054812 
L 509.622857 358.385837 
L 518.125714 351.444919 
L 526.628571 349.45371 
L 535.131429 336.74213 
L 543.634286 334.788491 
L 552.137143 330.508083 
L 560.64 325.594046 
L 569.142857 320.280663 
L 577.645714 320.280663 
L 586.148571 312.970743 
L 594.651429 307.216977 
L 603.154286 301.927288 
L 611.657143 297.98314 
L 620.16 295.328195 
L 628.662857 284.216624 
L 637.165714 280.651745 
L 645.668571 275.005729 
L 654.171429 272.417157 
L 662.674286 268.388567 
L 671.177143 266.397358 
L 679.68 263.598902 
L 688.182857 259.906525 
L 696.685714 254.99768 
L 705.188571 250.449975 
L 713.691429 249.320258 
L 722.194286 246.453505 
L 730.697143 239.763044 
L 739.2 236.071195 
L 747.702857 223.122599 
L 756.205714 217.223205 
L 764.708571 217.223205 
L 773.211429 214.594809 
L 781.714286 214.594809 
L 790.217143 206.025623 
L 798.72 197.711963 
L 807.222857 196.716358 
L 815.725714 195.006191 
L 824.228571 193.678719 
L 832.731429 191.462569 
L 841.234286 185.31076 
L 849.737143 183.983287 
L 858.24 179.533263 
L 866.742857 179.142536 
L 875.245714 175.158753 
L 883.748571 169.390102 
L 892.251429 167.741494 
L 900.754286 167.741494 
L 909.257143 166.255233 
L 917.76 159.526956 
L 926.262857 159.060547 
L 934.765714 157.997886 
L 943.268571 157.997886 
L 951.771429 148.921538 
L 960.274286 148.080624 
L 968.777143 147.614214 
L 977.28 142.00091 
L 985.782857 141.20687 
L 994.285714 140.354601 
L 1002.788571 139.888192 
L 1011.291429 139.888192 
L 1019.794286 139.729384 
L 1028.297143 137.767934 
L 1036.8 136.980571 
" style="fill:none;stroke:#bf00bf;stroke-linecap:square;stroke-width:3;"/>
   </g>
   <g id="line2d_20">
    <path clip-path="url(#p363dc304aa)" d="M 186.514286 756 
L 1036.8 134.742857 
" style="fill:none;stroke:#000080;stroke-dasharray:11.1,4.8;stroke-dashoffset:0;stroke-width:3;"/>
   </g>
   <g id="patch_3">
    <path d="M 144 756 
L 144 103.68 
" style="fill:none;stroke:#000000;stroke-linecap:square;stroke-linejoin:miter;stroke-width:0.8;"/>
   </g>
   <g id="patch_4">
    <path d="M 1036.8 756 
L 1036.8 103.68 
" style="fill:none;stroke:#000000;stroke-linecap:square;stroke-linejoin:miter;stroke-width:0.8;"/>
   </g>
   <g id="patch_5">
    <path d="M 144 756 
L 1036.8 756 
" style="fill:none;stroke:#000000;stroke-linecap:square;stroke-linejoin:miter;stroke-width:0.8;"/>
   </g>
   <g id="patch_6">
    <path d="M 144 103.68 
L 1036.8 103.68 
" style="fill:none;stroke:#000000;stroke-linecap:square;stroke-linejoin:miter;stroke-width:0.8;"/>
   </g>
   <g id="legend_1">
    <g id="patch_7">
     <path d="M 810.679219 749.5 
L 1027.7 749.5 
Q 1030.3 749.5 1030.3 746.9 
L 1030.3 671.87375 
Q 1030.3 669.27375 1027.7 669.27375 
L 810.679219 669.27375 
Q 808.079219 669.27375 808.079219 671.87375 
L 808.079219 746.9 
Q 808.079219 749.5 810.679219 749.5 
z
" style="fill:#ffffff;opacity:0.8;stroke:#cccccc;stroke-linejoin:miter;stroke-width:0.39;"/>
    </g>
    <g id="line2d_21">
     <path d="M 813.279219 679.801719 
L 839.279219 679.801719 
" style="fill:none;stroke:#0000ff;stroke-linecap:square;stroke-width:3;"/>
    </g>
    <g id="line2d_22"/>
    <g id="text_15">
     <!-- Clinical - AUC = 0.719 -->
     <defs>
      <path d="M 64.40625 67.28125 
L 64.40625 56.890625 
Q 59.421875 61.53125 53.78125 63.8125 
Q 48.140625 66.109375 41.796875 66.109375 
Q 29.296875 66.109375 22.65625 58.46875 
Q 16.015625 50.828125 16.015625 36.375 
Q 16.015625 21.96875 22.65625 14.328125 
Q 29.296875 6.6875 41.796875 6.6875 
Q 48.140625 6.6875 53.78125 8.984375 
Q 59.421875 11.28125 64.40625 15.921875 
L 64.40625 5.609375 
Q 59.234375 2.09375 53.4375 0.328125 
Q 47.65625 -1.421875 41.21875 -1.421875 
Q 24.65625 -1.421875 15.125 8.703125 
Q 5.609375 18.84375 5.609375 36.375 
Q 5.609375 53.953125 15.125 64.078125 
Q 24.65625 74.21875 41.21875 74.21875 
Q 47.75 74.21875 53.53125 72.484375 
Q 59.328125 70.75 64.40625 67.28125 
z
" id="DejaVuSans-43"/>
      <path d="M 54.890625 33.015625 
L 54.890625 0 
L 45.90625 0 
L 45.90625 32.71875 
Q 45.90625 40.484375 42.875 44.328125 
Q 39.84375 48.1875 33.796875 48.1875 
Q 26.515625 48.1875 22.3125 43.546875 
Q 18.109375 38.921875 18.109375 30.90625 
L 18.109375 0 
L 9.078125 0 
L 9.078125 54.6875 
L 18.109375 54.6875 
L 18.109375 46.1875 
Q 21.34375 51.125 25.703125 53.5625 
Q 30.078125 56 35.796875 56 
Q 45.21875 56 50.046875 50.171875 
Q 54.890625 44.34375 54.890625 33.015625 
z
" id="DejaVuSans-6e"/>
      <path d="M 48.78125 52.59375 
L 48.78125 44.1875 
Q 44.96875 46.296875 41.140625 47.34375 
Q 37.3125 48.390625 33.40625 48.390625 
Q 24.65625 48.390625 19.8125 42.84375 
Q 14.984375 37.3125 14.984375 27.296875 
Q 14.984375 17.28125 19.8125 11.734375 
Q 24.65625 6.203125 33.40625 6.203125 
Q 37.3125 6.203125 41.140625 7.25 
Q 44.96875 8.296875 48.78125 10.40625 
L 48.78125 2.09375 
Q 45.015625 0.34375 40.984375 -0.53125 
Q 36.96875 -1.421875 32.421875 -1.421875 
Q 20.0625 -1.421875 12.78125 6.34375 
Q 5.515625 14.109375 5.515625 27.296875 
Q 5.515625 40.671875 12.859375 48.328125 
Q 20.21875 56 33.015625 56 
Q 37.15625 56 41.109375 55.140625 
Q 45.0625 54.296875 48.78125 52.59375 
z
" id="DejaVuSans-63"/>
      <path d="M 4.890625 31.390625 
L 31.203125 31.390625 
L 31.203125 23.390625 
L 4.890625 23.390625 
z
" id="DejaVuSans-2d"/>
      <path d="M 34.1875 63.1875 
L 20.796875 26.90625 
L 47.609375 26.90625 
z
M 28.609375 72.90625 
L 39.796875 72.90625 
L 67.578125 0 
L 57.328125 0 
L 50.6875 18.703125 
L 17.828125 18.703125 
L 11.1875 0 
L 0.78125 0 
z
" id="DejaVuSans-41"/>
      <path d="M 8.6875 72.90625 
L 18.609375 72.90625 
L 18.609375 28.609375 
Q 18.609375 16.890625 22.84375 11.734375 
Q 27.09375 6.59375 36.625 6.59375 
Q 46.09375 6.59375 50.34375 11.734375 
Q 54.59375 16.890625 54.59375 28.609375 
L 54.59375 72.90625 
L 64.5 72.90625 
L 64.5 27.390625 
Q 64.5 13.140625 57.4375 5.859375 
Q 50.390625 -1.421875 36.625 -1.421875 
Q 22.796875 -1.421875 15.734375 5.859375 
Q 8.6875 13.140625 8.6875 27.390625 
z
" id="DejaVuSans-55"/>
      <path d="M 10.59375 45.40625 
L 73.1875 45.40625 
L 73.1875 37.203125 
L 10.59375 37.203125 
z
M 10.59375 25.484375 
L 73.1875 25.484375 
L 73.1875 17.1875 
L 10.59375 17.1875 
z
" id="DejaVuSans-3d"/>
      <path d="M 8.203125 72.90625 
L 55.078125 72.90625 
L 55.078125 68.703125 
L 28.609375 0 
L 18.3125 0 
L 43.21875 64.59375 
L 8.203125 64.59375 
z
" id="DejaVuSans-37"/>
      <path d="M 10.984375 1.515625 
L 10.984375 10.5 
Q 14.703125 8.734375 18.5 7.8125 
Q 22.3125 6.890625 25.984375 6.890625 
Q 35.75 6.890625 40.890625 13.453125 
Q 46.046875 20.015625 46.78125 33.40625 
Q 43.953125 29.203125 39.59375 26.953125 
Q 35.25 24.703125 29.984375 24.703125 
Q 19.046875 24.703125 12.671875 31.3125 
Q 6.296875 37.9375 6.296875 49.421875 
Q 6.296875 60.640625 12.9375 67.421875 
Q 19.578125 74.21875 30.609375 74.21875 
Q 43.265625 74.21875 49.921875 64.515625 
Q 56.59375 54.828125 56.59375 36.375 
Q 56.59375 19.140625 48.40625 8.859375 
Q 40.234375 -1.421875 26.421875 -1.421875 
Q 22.703125 -1.421875 18.890625 -0.6875 
Q 15.09375 0.046875 10.984375 1.515625 
z
M 30.609375 32.421875 
Q 37.25 32.421875 41.125 36.953125 
Q 45.015625 41.5 45.015625 49.421875 
Q 45.015625 57.28125 41.125 61.84375 
Q 37.25 66.40625 30.609375 66.40625 
Q 23.96875 66.40625 20.09375 61.84375 
Q 16.21875 57.28125 16.21875 49.421875 
Q 16.21875 41.5 20.09375 36.953125 
Q 23.96875 32.421875 30.609375 32.421875 
z
" id="DejaVuSans-39"/>
     </defs>
     <g transform="translate(849.679219 684.351719)scale(0.13 -0.13)">
      <use xlink:href="#DejaVuSans-43"/>
      <use x="69.824219" xlink:href="#DejaVuSans-6c"/>
      <use x="97.607422" xlink:href="#DejaVuSans-69"/>
      <use x="125.390625" xlink:href="#DejaVuSans-6e"/>
      <use x="188.769531" xlink:href="#DejaVuSans-69"/>
      <use x="216.552734" xlink:href="#DejaVuSans-63"/>
      <use x="271.533203" xlink:href="#DejaVuSans-61"/>
      <use x="332.8125" xlink:href="#DejaVuSans-6c"/>
      <use x="360.595703" xlink:href="#DejaVuSans-20"/>
      <use x="392.382812" xlink:href="#DejaVuSans-2d"/>
      <use x="428.466797" xlink:href="#DejaVuSans-20"/>
      <use x="460.253906" xlink:href="#DejaVuSans-41"/>
      <use x="528.662109" xlink:href="#DejaVuSans-55"/>
      <use x="601.855469" xlink:href="#DejaVuSans-43"/>
      <use x="671.679688" xlink:href="#DejaVuSans-20"/>
      <use x="703.466797" xlink:href="#DejaVuSans-3d"/>
      <use x="787.255859" xlink:href="#DejaVuSans-20"/>
      <use x="819.042969" xlink:href="#DejaVuSans-30"/>
      <use x="882.666016" xlink:href="#DejaVuSans-2e"/>
      <use x="914.453125" xlink:href="#DejaVuSans-37"/>
      <use x="978.076172" xlink:href="#DejaVuSans-31"/>
      <use x="1041.699219" xlink:href="#DejaVuSans-39"/>
     </g>
    </g>
    <g id="line2d_23">
     <path d="M 813.279219 698.883281 
L 839.279219 698.883281 
" style="fill:none;stroke:#ff0000;stroke-linecap:square;stroke-width:3;"/>
    </g>
    <g id="line2d_24"/>
    <g id="text_16">
     <!-- Walking - AUC = 0.707 -->
     <defs>
      <path d="M 3.328125 72.90625 
L 13.28125 72.90625 
L 28.609375 11.28125 
L 43.890625 72.90625 
L 54.984375 72.90625 
L 70.3125 11.28125 
L 85.59375 72.90625 
L 95.609375 72.90625 
L 77.296875 0 
L 64.890625 0 
L 49.515625 63.28125 
L 33.984375 0 
L 21.578125 0 
z
" id="DejaVuSans-57"/>
      <path d="M 9.078125 75.984375 
L 18.109375 75.984375 
L 18.109375 31.109375 
L 44.921875 54.6875 
L 56.390625 54.6875 
L 27.390625 29.109375 
L 57.625 0 
L 45.90625 0 
L 18.109375 26.703125 
L 18.109375 0 
L 9.078125 0 
z
" id="DejaVuSans-6b"/>
      <path d="M 45.40625 27.984375 
Q 45.40625 37.75 41.375 43.109375 
Q 37.359375 48.484375 30.078125 48.484375 
Q 22.859375 48.484375 18.828125 43.109375 
Q 14.796875 37.75 14.796875 27.984375 
Q 14.796875 18.265625 18.828125 12.890625 
Q 22.859375 7.515625 30.078125 7.515625 
Q 37.359375 7.515625 41.375 12.890625 
Q 45.40625 18.265625 45.40625 27.984375 
z
M 54.390625 6.78125 
Q 54.390625 -7.171875 48.1875 -13.984375 
Q 42 -20.796875 29.203125 -20.796875 
Q 24.46875 -20.796875 20.265625 -20.09375 
Q 16.0625 -19.390625 12.109375 -17.921875 
L 12.109375 -9.1875 
Q 16.0625 -11.328125 19.921875 -12.34375 
Q 23.78125 -13.375 27.78125 -13.375 
Q 36.625 -13.375 41.015625 -8.765625 
Q 45.40625 -4.15625 45.40625 5.171875 
L 45.40625 9.625 
Q 42.625 4.78125 38.28125 2.390625 
Q 33.9375 0 27.875 0 
Q 17.828125 0 11.671875 7.65625 
Q 5.515625 15.328125 5.515625 27.984375 
Q 5.515625 40.671875 11.671875 48.328125 
Q 17.828125 56 27.875 56 
Q 33.9375 56 38.28125 53.609375 
Q 42.625 51.21875 45.40625 46.390625 
L 45.40625 54.6875 
L 54.390625 54.6875 
z
" id="DejaVuSans-67"/>
     </defs>
     <g transform="translate(849.679219 703.433281)scale(0.13 -0.13)">
      <use xlink:href="#DejaVuSans-57"/>
      <use x="98.783203" xlink:href="#DejaVuSans-61"/>
      <use x="160.0625" xlink:href="#DejaVuSans-6c"/>
      <use x="187.845703" xlink:href="#DejaVuSans-6b"/>
      <use x="245.755859" xlink:href="#DejaVuSans-69"/>
      <use x="273.539062" xlink:href="#DejaVuSans-6e"/>
      <use x="336.917969" xlink:href="#DejaVuSans-67"/>
      <use x="400.394531" xlink:href="#DejaVuSans-20"/>
      <use x="432.181641" xlink:href="#DejaVuSans-2d"/>
      <use x="468.265625" xlink:href="#DejaVuSans-20"/>
      <use x="500.052734" xlink:href="#DejaVuSans-41"/>
      <use x="568.460938" xlink:href="#DejaVuSans-55"/>
      <use x="641.654297" xlink:href="#DejaVuSans-43"/>
      <use x="711.478516" xlink:href="#DejaVuSans-20"/>
      <use x="743.265625" xlink:href="#DejaVuSans-3d"/>
      <use x="827.054688" xlink:href="#DejaVuSans-20"/>
      <use x="858.841797" xlink:href="#DejaVuSans-30"/>
      <use x="922.464844" xlink:href="#DejaVuSans-2e"/>
      <use x="954.251953" xlink:href="#DejaVuSans-37"/>
      <use x="1017.875" xlink:href="#DejaVuSans-30"/>
      <use x="1081.498047" xlink:href="#DejaVuSans-37"/>
     </g>
    </g>
    <g id="line2d_25">
     <path d="M 813.279219 717.964844 
L 839.279219 717.964844 
" style="fill:none;stroke:#008000;stroke-linecap:square;stroke-width:3;"/>
    </g>
    <g id="line2d_26"/>
    <g id="text_17">
     <!-- Gross Motor - AUC = 0.569 -->
     <defs>
      <path d="M 59.515625 10.40625 
L 59.515625 29.984375 
L 43.40625 29.984375 
L 43.40625 38.09375 
L 69.28125 38.09375 
L 69.28125 6.78125 
Q 63.578125 2.734375 56.6875 0.65625 
Q 49.8125 -1.421875 42 -1.421875 
Q 24.90625 -1.421875 15.25 8.5625 
Q 5.609375 18.5625 5.609375 36.375 
Q 5.609375 54.25 15.25 64.234375 
Q 24.90625 74.21875 42 74.21875 
Q 49.125 74.21875 55.546875 72.453125 
Q 61.96875 70.703125 67.390625 67.28125 
L 67.390625 56.78125 
Q 61.921875 61.421875 55.765625 63.765625 
Q 49.609375 66.109375 42.828125 66.109375 
Q 29.4375 66.109375 22.71875 58.640625 
Q 16.015625 51.171875 16.015625 36.375 
Q 16.015625 21.625 22.71875 14.15625 
Q 29.4375 6.6875 42.828125 6.6875 
Q 48.046875 6.6875 52.140625 7.59375 
Q 56.25 8.5 59.515625 10.40625 
z
" id="DejaVuSans-47"/>
      <path d="M 9.8125 72.90625 
L 24.515625 72.90625 
L 43.109375 23.296875 
L 61.8125 72.90625 
L 76.515625 72.90625 
L 76.515625 0 
L 66.890625 0 
L 66.890625 64.015625 
L 48.09375 14.015625 
L 38.1875 14.015625 
L 19.390625 64.015625 
L 19.390625 0 
L 9.8125 0 
z
" id="DejaVuSans-4d"/>
      <path d="M 10.796875 72.90625 
L 49.515625 72.90625 
L 49.515625 64.59375 
L 19.828125 64.59375 
L 19.828125 46.734375 
Q 21.96875 47.46875 24.109375 47.828125 
Q 26.265625 48.1875 28.421875 48.1875 
Q 40.625 48.1875 47.75 41.5 
Q 54.890625 34.8125 54.890625 23.390625 
Q 54.890625 11.625 47.5625 5.09375 
Q 40.234375 -1.421875 26.90625 -1.421875 
Q 22.3125 -1.421875 17.546875 -0.640625 
Q 12.796875 0.140625 7.71875 1.703125 
L 7.71875 11.625 
Q 12.109375 9.234375 16.796875 8.0625 
Q 21.484375 6.890625 26.703125 6.890625 
Q 35.15625 6.890625 40.078125 11.328125 
Q 45.015625 15.765625 45.015625 23.390625 
Q 45.015625 31 40.078125 35.4375 
Q 35.15625 39.890625 26.703125 39.890625 
Q 22.75 39.890625 18.8125 39.015625 
Q 14.890625 38.140625 10.796875 36.28125 
z
" id="DejaVuSans-35"/>
     </defs>
     <g transform="translate(849.679219 722.514844)scale(0.13 -0.13)">
      <use xlink:href="#DejaVuSans-47"/>
      <use x="77.490234" xlink:href="#DejaVuSans-72"/>
      <use x="118.572266" xlink:href="#DejaVuSans-6f"/>
      <use x="179.753906" xlink:href="#DejaVuSans-73"/>
      <use x="231.853516" xlink:href="#DejaVuSans-73"/>
      <use x="283.953125" xlink:href="#DejaVuSans-20"/>
      <use x="315.740234" xlink:href="#DejaVuSans-4d"/>
      <use x="402.019531" xlink:href="#DejaVuSans-6f"/>
      <use x="463.201172" xlink:href="#DejaVuSans-74"/>
      <use x="502.410156" xlink:href="#DejaVuSans-6f"/>
      <use x="563.591797" xlink:href="#DejaVuSans-72"/>
      <use x="604.705078" xlink:href="#DejaVuSans-20"/>
      <use x="636.492188" xlink:href="#DejaVuSans-2d"/>
      <use x="672.576172" xlink:href="#DejaVuSans-20"/>
      <use x="704.363281" xlink:href="#DejaVuSans-41"/>
      <use x="772.771484" xlink:href="#DejaVuSans-55"/>
      <use x="845.964844" xlink:href="#DejaVuSans-43"/>
      <use x="915.789062" xlink:href="#DejaVuSans-20"/>
      <use x="947.576172" xlink:href="#DejaVuSans-3d"/>
      <use x="1031.365234" xlink:href="#DejaVuSans-20"/>
      <use x="1063.152344" xlink:href="#DejaVuSans-30"/>
      <use x="1126.775391" xlink:href="#DejaVuSans-2e"/>
      <use x="1158.5625" xlink:href="#DejaVuSans-35"/>
      <use x="1222.185547" xlink:href="#DejaVuSans-36"/>
      <use x="1285.808594" xlink:href="#DejaVuSans-39"/>
     </g>
    </g>
    <g id="line2d_27">
     <path d="M 813.279219 737.046406 
L 839.279219 737.046406 
" style="fill:none;stroke:#bf00bf;stroke-linecap:square;stroke-width:3;"/>
    </g>
    <g id="line2d_28"/>
    <g id="text_18">
     <!-- Fine Motor - AUC = 0.703 -->
     <defs>
      <path d="M 40.578125 39.3125 
Q 47.65625 37.796875 51.625 33 
Q 55.609375 28.21875 55.609375 21.1875 
Q 55.609375 10.40625 48.1875 4.484375 
Q 40.765625 -1.421875 27.09375 -1.421875 
Q 22.515625 -1.421875 17.65625 -0.515625 
Q 12.796875 0.390625 7.625 2.203125 
L 7.625 11.71875 
Q 11.71875 9.328125 16.59375 8.109375 
Q 21.484375 6.890625 26.8125 6.890625 
Q 36.078125 6.890625 40.9375 10.546875 
Q 45.796875 14.203125 45.796875 21.1875 
Q 45.796875 27.640625 41.28125 31.265625 
Q 36.765625 34.90625 28.71875 34.90625 
L 20.21875 34.90625 
L 20.21875 43.015625 
L 29.109375 43.015625 
Q 36.375 43.015625 40.234375 45.921875 
Q 44.09375 48.828125 44.09375 54.296875 
Q 44.09375 59.90625 40.109375 62.90625 
Q 36.140625 65.921875 28.71875 65.921875 
Q 24.65625 65.921875 20.015625 65.03125 
Q 15.375 64.15625 9.8125 62.3125 
L 9.8125 71.09375 
Q 15.4375 72.65625 20.34375 73.4375 
Q 25.25 74.21875 29.59375 74.21875 
Q 40.828125 74.21875 47.359375 69.109375 
Q 53.90625 64.015625 53.90625 55.328125 
Q 53.90625 49.265625 50.4375 45.09375 
Q 46.96875 40.921875 40.578125 39.3125 
z
" id="DejaVuSans-33"/>
     </defs>
     <g transform="translate(849.679219 741.596406)scale(0.13 -0.13)">
      <use xlink:href="#DejaVuSans-46"/>
      <use x="57.410156" xlink:href="#DejaVuSans-69"/>
      <use x="85.193359" xlink:href="#DejaVuSans-6e"/>
      <use x="148.572266" xlink:href="#DejaVuSans-65"/>
      <use x="210.095703" xlink:href="#DejaVuSans-20"/>
      <use x="241.882812" xlink:href="#DejaVuSans-4d"/>
      <use x="328.162109" xlink:href="#DejaVuSans-6f"/>
      <use x="389.34375" xlink:href="#DejaVuSans-74"/>
      <use x="428.552734" xlink:href="#DejaVuSans-6f"/>
      <use x="489.734375" xlink:href="#DejaVuSans-72"/>
      <use x="530.847656" xlink:href="#DejaVuSans-20"/>
      <use x="562.634766" xlink:href="#DejaVuSans-2d"/>
      <use x="598.71875" xlink:href="#DejaVuSans-20"/>
      <use x="630.505859" xlink:href="#DejaVuSans-41"/>
      <use x="698.914062" xlink:href="#DejaVuSans-55"/>
      <use x="772.107422" xlink:href="#DejaVuSans-43"/>
      <use x="841.931641" xlink:href="#DejaVuSans-20"/>
      <use x="873.71875" xlink:href="#DejaVuSans-3d"/>
      <use x="957.507812" xlink:href="#DejaVuSans-20"/>
      <use x="989.294922" xlink:href="#DejaVuSans-30"/>
      <use x="1052.917969" xlink:href="#DejaVuSans-2e"/>
      <use x="1084.705078" xlink:href="#DejaVuSans-37"/>
      <use x="1148.328125" xlink:href="#DejaVuSans-30"/>
      <use x="1211.951172" xlink:href="#DejaVuSans-33"/>
     </g>
    </g>
   </g>
  </g>
 </g>
 <defs>
  <clipPath id="p363dc304aa">
   <rect height="652.32" width="892.8" x="144" y="103.68"/>
  </clipPath>
 </defs>
</svg>
