<?xml version="1.0" encoding="utf-8" standalone="no"?>
<!DOCTYPE svg PUBLIC "-//W3C//DTD SVG 1.1//EN"
  "http://www.w3.org/Graphics/SVG/1.1/DTD/svg11.dtd">
<!-- Created with matplotlib (http://matplotlib.org/) -->
<svg height="864pt" version="1.1" viewBox="0 0 1152 864" width="1152pt" xmlns="http://www.w3.org/2000/svg" xmlns:xlink="http://www.w3.org/1999/xlink">
 <defs>
  <style type="text/css">
*{stroke-linecap:butt;stroke-linejoin:round;}
  </style>
 </defs>
 <g id="figure_1">
  <g id="patch_1">
   <path d="M 0 864 
L 1152 864 
L 1152 0 
L 0 0 
z
" style="fill:#ffffff;"/>
  </g>
  <g id="axes_1">
   <g id="patch_2">
    <path d="M 144 756 
L 1036.8 756 
L 1036.8 103.68 
L 144 103.68 
z
" style="fill:#ffffff;"/>
   </g>
   <g id="PolyCollection_1">
    <path clip-path="url(#p4667a797af)" d="M 186.514286 365.50131 
L 186.514286 558.746625 
L 195.017143 558.746625 
L 203.52 558.746625 
L 212.022857 558.356458 
L 220.525714 558.356458 
L 229.028571 558.356458 
L 237.531429 527.352169 
L 246.034286 496.423497 
L 254.537143 495.358287 
L 263.04 492.989754 
L 271.542857 491.363312 
L 280.045714 491.363312 
L 288.548571 488.703283 
L 297.051429 477.160135 
L 305.554286 477.160135 
L 314.057143 472.826767 
L 322.56 472.826767 
L 331.062857 452.947657 
L 339.565714 449.477008 
L 348.068571 444.838663 
L 356.571429 435.529705 
L 365.074286 435.529705 
L 373.577143 433.114317 
L 382.08 416.61885 
L 390.582857 414.031783 
L 399.085714 414.017495 
L 407.588571 414.017495 
L 416.091429 414.017495 
L 424.594286 414.017495 
L 433.097143 409.555667 
L 441.6 408.261382 
L 450.102857 408.261382 
L 458.605714 408.261382 
L 467.108571 408.261382 
L 475.611429 397.084993 
L 484.114286 394.09807 
L 492.617143 394.08853 
L 501.12 394.08853 
L 509.622857 392.675188 
L 518.125714 392.675188 
L 526.628571 381.284514 
L 535.131429 381.284514 
L 543.634286 379.063273 
L 552.137143 376.263994 
L 560.64 376.263994 
L 569.142857 376.111138 
L 577.645714 376.111138 
L 586.148571 376.111138 
L 594.651429 374.262366 
L 603.154286 374.262366 
L 611.657143 364.808042 
L 620.16 364.808042 
L 628.662857 364.808042 
L 637.165714 363.424837 
L 645.668571 363.424837 
L 654.171429 363.424837 
L 662.674286 359.128967 
L 671.177143 358.065653 
L 679.68 356.902893 
L 688.182857 353.906259 
L 696.685714 352.848857 
L 705.188571 352.848857 
L 713.691429 351.907538 
L 722.194286 351.030077 
L 730.697143 351.030077 
L 739.2 350.916804 
L 747.702857 350.916804 
L 756.205714 340.900473 
L 764.708571 340.900473 
L 773.211429 340.900473 
L 781.714286 340.900473 
L 790.217143 340.900473 
L 798.72 340.05153 
L 807.222857 340.05153 
L 815.725714 340.05153 
L 824.228571 338.4937 
L 832.731429 338.4937 
L 841.234286 338.364956 
L 849.737143 337.647471 
L 858.24 336.719363 
L 866.742857 336.719363 
L 875.245714 336.719363 
L 883.748571 336.719363 
L 892.251429 336.719363 
L 900.754286 326.648465 
L 909.257143 326.648465 
L 917.76 325.503303 
L 926.262857 325.503303 
L 934.765714 323.658393 
L 943.268571 323.18208 
L 951.771429 323.18208 
L 960.274286 323.18208 
L 968.777143 323.009326 
L 977.28 322.775339 
L 985.782857 322.775339 
L 994.285714 319.849813 
L 1002.788571 319.849813 
L 1011.291429 319.849813 
L 1019.794286 319.849813 
L 1028.297143 319.849813 
L 1036.8 261.865751 
L 1036.8 135.186612 
L 1036.8 135.186612 
L 1028.297143 167.739729 
L 1019.794286 167.739729 
L 1011.291429 167.739729 
L 1002.788571 167.739729 
L 994.285714 167.739729 
L 985.782857 174.458413 
L 977.28 174.458413 
L 968.777143 175.120072 
L 960.274286 175.644026 
L 951.771429 175.644026 
L 943.268571 175.644026 
L 934.765714 175.888565 
L 926.262857 177.407743 
L 917.76 177.407743 
L 909.257143 179.090043 
L 900.754286 179.090043 
L 892.251429 189.270757 
L 883.748571 189.270757 
L 875.245714 189.270757 
L 866.742857 189.270757 
L 858.24 189.270757 
L 849.737143 191.341482 
L 841.234286 191.348041 
L 832.731429 192.142921 
L 824.228571 192.142921 
L 815.725714 193.204557 
L 807.222857 193.204557 
L 798.72 193.204557 
L 790.217143 194.440015 
L 781.714286 194.440015 
L 773.211429 194.440015 
L 764.708571 194.440015 
L 756.205714 194.440015 
L 747.702857 201.660305 
L 739.2 201.660305 
L 730.697143 202.409131 
L 722.194286 202.409131 
L 713.691429 203.057951 
L 705.188571 205.001217 
L 696.685714 205.001217 
L 688.182857 207.091871 
L 679.68 209.463885 
L 671.177143 210.486373 
L 662.674286 212.371099 
L 654.171429 214.881419 
L 645.668571 214.881419 
L 637.165714 214.881419 
L 628.662857 219.655984 
L 620.16 219.655984 
L 611.657143 219.655984 
L 603.154286 232.03136 
L 594.651429 232.03136 
L 586.148571 234.257373 
L 577.645714 234.257373 
L 569.142857 234.257373 
L 560.64 234.474317 
L 552.137143 234.474317 
L 543.634286 237.87445 
L 535.131429 240.813968 
L 526.628571 240.813968 
L 518.125714 253.831691 
L 509.622857 253.831691 
L 501.12 255.437989 
L 492.617143 255.437989 
L 484.114286 255.86328 
L 475.611429 262.030266 
L 467.108571 269.015128 
L 458.605714 269.015128 
L 450.102857 269.015128 
L 441.6 269.015128 
L 433.097143 269.746469 
L 424.594286 275.336522 
L 416.091429 275.336522 
L 407.588571 275.336522 
L 399.085714 275.336522 
L 390.582857 275.516991 
L 382.08 277.942588 
L 373.577143 278.947302 
L 365.074286 280.905346 
L 356.571429 280.905346 
L 348.068571 286.151661 
L 339.565714 289.336326 
L 331.062857 291.175051 
L 322.56 300.98474 
L 314.057143 300.98474 
L 305.554286 304.488626 
L 297.051429 304.488626 
L 288.548571 313.838971 
L 280.045714 319.386834 
L 271.542857 319.386834 
L 263.04 319.595471 
L 254.537143 324.782714 
L 246.034286 328.424485 
L 237.531429 340.304623 
L 229.028571 363.826182 
L 220.525714 363.826182 
L 212.022857 363.826182 
L 203.52 365.50131 
L 195.017143 365.50131 
L 186.514286 365.50131 
z
" style="fill:#0000ff;fill-opacity:0.2;"/>
   </g>
   <g id="PolyCollection_2">
    <path clip-path="url(#p4667a797af)" d="M 186.514286 362.558475 
L 186.514286 679.871828 
L 195.017143 679.871828 
L 203.52 679.871828 
L 212.022857 662.370843 
L 220.525714 656.418854 
L 229.028571 651.839318 
L 237.531429 651.839318 
L 246.034286 638.899458 
L 254.537143 630.50782 
L 263.04 630.50782 
L 271.542857 626.670891 
L 280.045714 626.670891 
L 288.548571 624.205585 
L 297.051429 598.079563 
L 305.554286 598.079563 
L 314.057143 598.079563 
L 322.56 589.252347 
L 331.062857 587.106106 
L 339.565714 554.639466 
L 348.068571 554.605094 
L 356.571429 551.843951 
L 365.074286 551.843951 
L 373.577143 551.843951 
L 382.08 551.843951 
L 390.582857 549.082808 
L 399.085714 520.26987 
L 407.588571 520.26987 
L 416.091429 517.482177 
L 424.594286 515.351999 
L 433.097143 515.351999 
L 441.6 515.351999 
L 450.102857 512.88414 
L 458.605714 510.751185 
L 467.108571 508.09624 
L 475.611429 508.09624 
L 484.114286 505.441295 
L 492.617143 504.538776 
L 501.12 504.538776 
L 509.622857 504.538776 
L 518.125714 504.538776 
L 526.628571 503.680172 
L 535.131429 503.680172 
L 543.634286 503.680172 
L 552.137143 503.680172 
L 560.64 499.538458 
L 569.142857 499.538458 
L 577.645714 499.538458 
L 586.148571 482.56099 
L 594.651429 482.56099 
L 603.154286 479.906045 
L 611.657143 479.906045 
L 620.16 479.906045 
L 628.662857 479.906045 
L 637.165714 478.46795 
L 645.668571 472.730518 
L 654.171429 469.854327 
L 662.674286 469.854327 
L 671.177143 469.854327 
L 679.68 469.854327 
L 688.182857 469.854327 
L 696.685714 467.093184 
L 705.188571 467.093184 
L 713.691429 460.163265 
L 722.194286 460.163265 
L 730.697143 460.163265 
L 739.2 460.163265 
L 747.702857 460.163265 
L 756.205714 460.163265 
L 764.708571 460.163265 
L 773.211429 460.163265 
L 781.714286 460.163265 
L 790.217143 460.163265 
L 798.72 460.163265 
L 807.222857 460.163265 
L 815.725714 460.163265 
L 824.228571 460.163265 
L 832.731429 460.163265 
L 841.234286 265.786675 
L 849.737143 265.786675 
L 858.24 265.786675 
L 866.742857 265.786675 
L 875.245714 265.786675 
L 883.748571 265.786675 
L 892.251429 263.179293 
L 900.754286 263.179293 
L 909.257143 184.169238 
L 917.76 184.169238 
L 926.262857 184.169238 
L 934.765714 182.849641 
L 943.268571 182.849641 
L 951.771429 182.849641 
L 960.274286 182.849641 
L 968.777143 182.849641 
L 977.28 180.984004 
L 985.782857 180.984004 
L 994.285714 180.984004 
L 1002.788571 180.984004 
L 1011.291429 180.984004 
L 1019.794286 180.984004 
L 1028.297143 180.984004 
L 1036.8 179.118367 
L 1036.8 134.742857 
L 1036.8 134.742857 
L 1028.297143 134.742857 
L 1019.794286 134.742857 
L 1011.291429 134.742857 
L 1002.788571 134.742857 
L 994.285714 134.742857 
L 985.782857 134.742857 
L 977.28 134.742857 
L 968.777143 136.608494 
L 960.274286 136.608494 
L 951.771429 136.608494 
L 943.268571 136.608494 
L 934.765714 136.608494 
L 926.262857 137.268293 
L 917.76 137.268293 
L 909.257143 137.268293 
L 900.754286 140.787521 
L 892.251429 140.787521 
L 883.748571 143.442466 
L 875.245714 143.442466 
L 866.742857 143.442466 
L 858.24 143.442466 
L 849.737143 143.442466 
L 841.234286 143.442466 
L 832.731429 143.442466 
L 824.228571 144.823038 
L 815.725714 144.823038 
L 807.222857 144.823038 
L 798.72 144.823038 
L 790.217143 144.823038 
L 781.714286 144.823038 
L 773.211429 145.755856 
L 764.708571 145.755856 
L 756.205714 147.136428 
L 747.702857 147.136428 
L 739.2 147.136428 
L 730.697143 147.136428 
L 722.194286 147.136428 
L 713.691429 147.136428 
L 705.188571 149.534694 
L 696.685714 149.534694 
L 688.182857 149.534694 
L 679.68 149.534694 
L 671.177143 149.534694 
L 662.674286 149.534694 
L 654.171429 149.534694 
L 645.668571 152.410884 
L 637.165714 152.410884 
L 628.662857 166.401283 
L 620.16 166.401283 
L 611.657143 166.401283 
L 603.154286 166.401283 
L 594.651429 167.202721 
L 586.148571 167.202721 
L 577.645714 167.202721 
L 569.142857 169.359864 
L 560.64 169.359864 
L 552.137143 169.359864 
L 543.634286 169.359864 
L 535.131429 169.359864 
L 526.628571 169.359864 
L 518.125714 169.359864 
L 509.622857 172.236054 
L 501.12 172.236054 
L 492.617143 172.236054 
L 484.114286 172.236054 
L 475.611429 174.890999 
L 467.108571 174.890999 
L 458.605714 177.545945 
L 450.102857 177.545945 
L 441.6 177.545945 
L 433.097143 177.545945 
L 424.594286 177.545945 
L 416.091429 179.703087 
L 407.588571 179.703087 
L 399.085714 179.703087 
L 390.582857 194.078726 
L 382.08 207.801256 
L 373.577143 216.429827 
L 365.074286 218.895133 
L 356.571429 221.324882 
L 348.068571 227.689639 
L 339.565714 234.423461 
L 331.062857 246.370714 
L 322.56 249.025659 
L 314.057143 255.98604 
L 305.554286 258.451346 
L 297.051429 262.18022 
L 288.548571 263.512335 
L 280.045714 280.365803 
L 271.542857 280.365803 
L 263.04 287.30509 
L 254.537143 287.30509 
L 246.034286 305.63124 
L 237.531429 316.28508 
L 229.028571 316.28508 
L 220.525714 320.292564 
L 212.022857 350.739357 
L 203.52 362.558475 
L 195.017143 362.558475 
L 186.514286 362.558475 
z
" style="fill:#ff0000;fill-opacity:0.2;"/>
   </g>
   <g id="PolyCollection_3">
    <path clip-path="url(#p4667a797af)" d="M 186.514286 667.997044 
L 186.514286 748.327005 
L 195.017143 748.327005 
L 203.52 745.737421 
L 212.022857 741.877501 
L 220.525714 738.690944 
L 229.028571 732.161143 
L 237.531429 720.223552 
L 246.034286 714.425292 
L 254.537143 713.683925 
L 263.04 713.079823 
L 271.542857 710.345654 
L 280.045714 705.850006 
L 288.548571 703.547225 
L 297.051429 698.981279 
L 305.554286 691.95286 
L 314.057143 690.406144 
L 322.56 686.175797 
L 331.062857 678.560197 
L 339.565714 677.275108 
L 348.068571 673.102158 
L 356.571429 659.343311 
L 365.074286 652.115312 
L 373.577143 648.865206 
L 382.08 638.101836 
L 390.582857 633.134502 
L 399.085714 628.52118 
L 407.588571 626.103152 
L 416.091429 616.870606 
L 424.594286 613.440457 
L 433.097143 612.48361 
L 441.6 607.764746 
L 450.102857 607.764746 
L 458.605714 602.453445 
L 467.108571 599.559982 
L 475.611429 593.343968 
L 484.114286 585.336252 
L 492.617143 565.128481 
L 501.12 559.921985 
L 509.622857 556.999735 
L 518.125714 551.399545 
L 526.628571 545.323967 
L 535.131429 543.151451 
L 543.634286 542.594537 
L 552.137143 539.343842 
L 560.64 536.879924 
L 569.142857 531.891139 
L 577.645714 530.951099 
L 586.148571 529.583368 
L 594.651429 527.324935 
L 603.154286 522.750916 
L 611.657143 516.944395 
L 620.16 513.982789 
L 628.662857 512.992636 
L 637.165714 510.402202 
L 645.668571 505.264363 
L 654.171429 504.2366 
L 662.674286 503.734865 
L 671.177143 502.39795 
L 679.68 499.295662 
L 688.182857 498.821959 
L 696.685714 493.575151 
L 705.188571 493.043511 
L 713.691429 488.35665 
L 722.194286 481.754286 
L 730.697143 481.423454 
L 739.2 480.32832 
L 747.702857 478.308954 
L 756.205714 475.95481 
L 764.708571 475.95481 
L 773.211429 475.402072 
L 781.714286 473.991166 
L 790.217143 473.731069 
L 798.72 464.134287 
L 807.222857 464.126168 
L 815.725714 464.11404 
L 824.228571 460.224639 
L 832.731429 456.215009 
L 841.234286 453.669414 
L 849.737143 453.146667 
L 858.24 453.146667 
L 866.742857 450.494306 
L 875.245714 446.734281 
L 883.748571 441.772797 
L 892.251429 441.362362 
L 900.754286 437.231628 
L 909.257143 435.771551 
L 917.76 435.761746 
L 926.262857 435.284478 
L 934.765714 434.821132 
L 943.268571 432.64423 
L 951.771429 432.039551 
L 960.274286 429.229444 
L 968.777143 428.674289 
L 977.28 427.017746 
L 985.782857 426.642591 
L 994.285714 426.193609 
L 1002.788571 424.134041 
L 1011.291429 422.076628 
L 1019.794286 421.051664 
L 1028.297143 420.11595 
L 1036.8 413.697336 
L 1036.8 166.072419 
L 1036.8 166.072419 
L 1028.297143 181.454854 
L 1019.794286 183.117828 
L 1011.291429 185.742778 
L 1002.788571 189.221505 
L 994.285714 192.272653 
L 985.782857 193.154292 
L 977.28 194.35511 
L 968.777143 196.835285 
L 960.274286 198.876245 
L 951.771429 204.936134 
L 943.268571 206.613729 
L 934.765714 209.559887 
L 926.262857 211.824115 
L 917.76 211.990483 
L 909.257143 212.469563 
L 900.754286 215.009924 
L 892.251429 222.694309 
L 883.748571 223.506237 
L 875.245714 232.591541 
L 866.742857 238.479061 
L 858.24 243.168004 
L 849.737143 243.168004 
L 841.234286 244.213307 
L 832.731429 249.493601 
L 824.228571 256.383164 
L 815.725714 261.457978 
L 807.222857 262.052502 
L 798.72 262.336502 
L 790.217143 274.149782 
L 781.714286 275.584256 
L 773.211429 279.356461 
L 764.708571 281.595274 
L 756.205714 281.595274 
L 747.702857 285.710948 
L 739.2 288.887518 
L 730.697143 291.614581 
L 722.194286 292.583954 
L 713.691429 299.405552 
L 705.188571 304.918713 
L 696.685714 307.103615 
L 688.182857 314.141581 
L 679.68 315.583388 
L 671.177143 321.840574 
L 662.674286 326.009818 
L 654.171429 327.543178 
L 645.668571 330.510516 
L 637.165714 335.055412 
L 628.662857 340.252091 
L 620.16 341.919234 
L 611.657143 346.663071 
L 603.154286 354.409452 
L 594.651429 359.244651 
L 586.148571 361.522939 
L 577.645714 363.105662 
L 569.142857 366.908692 
L 560.64 370.174068 
L 552.137143 373.885743 
L 543.634286 378.296767 
L 535.131429 380.104045 
L 526.628571 381.571224 
L 518.125714 387.929493 
L 509.622857 391.867024 
L 501.12 397.504445 
L 492.617143 405.754981 
L 484.114286 414.261832 
L 475.611429 421.714524 
L 467.108571 431.857905 
L 458.605714 436.601384 
L 450.102857 447.300942 
L 441.6 449.281318 
L 433.097143 454.033601 
L 424.594286 455.337784 
L 416.091429 458.984838 
L 407.588571 472.73265 
L 399.085714 476.014135 
L 390.582857 482.475395 
L 382.08 490.881225 
L 373.577143 497.576347 
L 365.074286 503.585723 
L 356.571429 511.421852 
L 348.068571 521.735346 
L 339.565714 526.292643 
L 331.062857 531.917432 
L 322.56 540.915542 
L 314.057143 547.402232 
L 305.554286 550.33388 
L 297.051429 559.502228 
L 288.548571 563.498581 
L 280.045714 570.492278 
L 271.542857 575.747436 
L 263.04 584.174239 
L 254.537143 588.19355 
L 246.034286 594.612642 
L 237.531429 601.667498 
L 229.028571 624.542138 
L 220.525714 630.780747 
L 212.022857 643.223271 
L 203.52 646.514022 
L 195.017143 667.997044 
L 186.514286 667.997044 
z
" style="fill:#008000;fill-opacity:0.2;"/>
   </g>
   <g id="PolyCollection_4">
    <path clip-path="url(#p4667a797af)" d="M 186.514286 420.20791 
L 186.514286 628.90425 
L 195.017143 628.90425 
L 203.52 619.340504 
L 212.022857 607.095976 
L 220.525714 587.601921 
L 229.028571 575.881488 
L 237.531429 570.579672 
L 246.034286 567.97785 
L 254.537143 541.606982 
L 263.04 530.063218 
L 271.542857 513.706055 
L 280.045714 508.781876 
L 288.548571 502.597904 
L 297.051429 497.534037 
L 305.554286 493.30109 
L 314.057143 482.234682 
L 322.56 477.492883 
L 331.062857 476.019914 
L 339.565714 457.885909 
L 348.068571 450.785821 
L 356.571429 449.161079 
L 365.074286 445.230539 
L 373.577143 441.142811 
L 382.08 440.623629 
L 390.582857 433.735854 
L 399.085714 430.722718 
L 407.588571 429.718608 
L 416.091429 425.479854 
L 424.594286 425.087138 
L 433.097143 423.405673 
L 441.6 422.397016 
L 450.102857 420.541252 
L 458.605714 420.380913 
L 467.108571 417.251089 
L 475.611429 416.597656 
L 484.114286 415.705404 
L 492.617143 408.606763 
L 501.12 408.606763 
L 509.622857 406.184782 
L 518.125714 404.047739 
L 526.628571 403.785564 
L 535.131429 402.252084 
L 543.634286 400.322561 
L 552.137143 396.791055 
L 560.64 395.787421 
L 569.142857 395.619722 
L 577.645714 394.966273 
L 586.148571 392.564102 
L 594.651429 365.165266 
L 603.154286 362.94771 
L 611.657143 362.94771 
L 620.16 362.94771 
L 628.662857 362.774583 
L 637.165714 362.035745 
L 645.668571 360.598368 
L 654.171429 360.598368 
L 662.674286 360.598368 
L 671.177143 360.598368 
L 679.68 360.176835 
L 688.182857 359.113645 
L 696.685714 358.7387 
L 705.188571 354.873089 
L 713.691429 354.300733 
L 722.194286 354.300733 
L 730.697143 354.300733 
L 739.2 353.812122 
L 747.702857 353.812122 
L 756.205714 353.812122 
L 764.708571 353.812122 
L 773.211429 353.812122 
L 781.714286 351.905339 
L 790.217143 351.652796 
L 798.72 350.398552 
L 807.222857 344.538715 
L 815.725714 344.538715 
L 824.228571 343.996096 
L 832.731429 343.947531 
L 841.234286 343.627783 
L 849.737143 343.627783 
L 858.24 343.440877 
L 866.742857 343.166954 
L 875.245714 342.998861 
L 883.748571 342.823822 
L 892.251429 340.301818 
L 900.754286 340.301818 
L 909.257143 340.301818 
L 917.76 340.091151 
L 926.262857 340.091151 
L 934.765714 339.512266 
L 943.268571 339.512266 
L 951.771429 338.835589 
L 960.274286 338.216093 
L 968.777143 338.216093 
L 977.28 337.13692 
L 985.782857 337.13692 
L 994.285714 336.776158 
L 1002.788571 336.776158 
L 1011.291429 335.255435 
L 1019.794286 335.255435 
L 1028.297143 334.188422 
L 1036.8 330.73909 
L 1036.8 140.495238 
L 1036.8 140.495238 
L 1028.297143 147.586564 
L 1019.794286 151.548966 
L 1011.291429 151.548966 
L 1002.788571 152.812325 
L 994.285714 152.812325 
L 985.782857 153.414166 
L 977.28 153.414166 
L 968.777143 154.403412 
L 960.274286 154.403412 
L 951.771429 154.720626 
L 943.268571 155.559408 
L 934.765714 155.559408 
L 926.262857 156.367976 
L 917.76 156.367976 
L 909.257143 156.899226 
L 900.754286 156.899226 
L 892.251429 156.899226 
L 883.748571 159.660817 
L 875.245714 160.718489 
L 866.742857 161.234484 
L 858.24 161.669999 
L 849.737143 162.082153 
L 841.234286 162.082153 
L 832.731429 162.194025 
L 824.228571 162.49387 
L 815.725714 163.080409 
L 807.222857 163.080409 
L 798.72 168.56158 
L 790.217143 170.345979 
L 781.714286 170.833577 
L 773.211429 173.04316 
L 764.708571 173.04316 
L 756.205714 173.04316 
L 747.702857 173.04316 
L 739.2 173.04316 
L 730.697143 173.719118 
L 722.194286 173.719118 
L 713.691429 173.719118 
L 705.188571 175.10715 
L 696.685714 178.331285 
L 688.182857 178.869311 
L 679.68 180.74595 
L 671.177143 181.04408 
L 662.674286 181.467689 
L 654.171429 181.467689 
L 645.668571 181.467689 
L 637.165714 183.072623 
L 628.662857 183.24113 
L 620.16 184.690474 
L 611.657143 184.690474 
L 603.154286 184.942112 
L 594.651429 187.264368 
L 586.148571 188.164203 
L 577.645714 190.445353 
L 569.142857 192.189879 
L 560.64 192.480535 
L 552.137143 193.658265 
L 543.634286 197.722453 
L 535.131429 201.505117 
L 526.628571 202.450528 
L 518.125714 202.606568 
L 509.622857 204.78302 
L 501.12 208.918176 
L 492.617143 208.918176 
L 484.114286 215.439092 
L 475.611429 217.48771 
L 467.108571 218.642593 
L 458.605714 221.578123 
L 450.102857 222.566556 
L 441.6 224.538656 
L 433.097143 226.661005 
L 424.594286 230.234198 
L 416.091429 230.672924 
L 407.588571 234.658507 
L 399.085714 236.723954 
L 390.582857 240.276484 
L 382.08 247.16622 
L 373.577143 247.913021 
L 365.074286 253.475472 
L 356.571429 257.339757 
L 348.068571 259.581257 
L 339.565714 267.091331 
L 331.062857 274.806462 
L 322.56 277.441342 
L 314.057143 282.702199 
L 305.554286 292.523499 
L 297.051429 298.667862 
L 288.548571 302.780742 
L 280.045714 308.775093 
L 271.542857 315.080588 
L 263.04 321.3427 
L 254.537143 324.999545 
L 246.034286 350.603407 
L 237.531429 352.886866 
L 229.028571 358.29134 
L 220.525714 370.246174 
L 212.022857 382.484736 
L 203.52 406.221987 
L 195.017143 420.20791 
L 186.514286 420.20791 
z
" style="fill:#bf00bf;fill-opacity:0.2;"/>
   </g>
   <g id="matplotlib.axis_1">
    <g id="xtick_1">
     <g id="line2d_1">
      <defs>
       <path d="M 0 0 
L 0 3.5 
" id="m81289457c8" style="stroke:#000000;stroke-width:1.3;"/>
      </defs>
      <g>
       <use style="stroke:#000000;stroke-width:1.3;" x="186.514286" xlink:href="#m81289457c8" y="756"/>
      </g>
     </g>
     <g id="text_1">
      <!-- 0.0 -->
      <defs>
       <path d="M 31.78125 66.40625 
Q 24.171875 66.40625 20.328125 58.90625 
Q 16.5 51.421875 16.5 36.375 
Q 16.5 21.390625 20.328125 13.890625 
Q 24.171875 6.390625 31.78125 6.390625 
Q 39.453125 6.390625 43.28125 13.890625 
Q 47.125 21.390625 47.125 36.375 
Q 47.125 51.421875 43.28125 58.90625 
Q 39.453125 66.40625 31.78125 66.40625 
z
M 31.78125 74.21875 
Q 44.046875 74.21875 50.515625 64.515625 
Q 56.984375 54.828125 56.984375 36.375 
Q 56.984375 17.96875 50.515625 8.265625 
Q 44.046875 -1.421875 31.78125 -1.421875 
Q 19.53125 -1.421875 13.0625 8.265625 
Q 6.59375 17.96875 6.59375 36.375 
Q 6.59375 54.828125 13.0625 64.515625 
Q 19.53125 74.21875 31.78125 74.21875 
z
" id="DejaVuSans-30"/>
       <path d="M 10.6875 12.40625 
L 21 12.40625 
L 21 0 
L 10.6875 0 
z
" id="DejaVuSans-2e"/>
      </defs>
      <g transform="translate(176.177254 778.477969)scale(0.13 -0.13)">
       <use xlink:href="#DejaVuSans-30"/>
       <use x="63.623047" xlink:href="#DejaVuSans-2e"/>
       <use x="95.410156" xlink:href="#DejaVuSans-30"/>
      </g>
     </g>
    </g>
    <g id="xtick_2">
     <g id="line2d_2">
      <g>
       <use style="stroke:#000000;stroke-width:1.3;" x="356.571429" xlink:href="#m81289457c8" y="756"/>
      </g>
     </g>
     <g id="text_2">
      <!-- 0.2 -->
      <defs>
       <path d="M 19.1875 8.296875 
L 53.609375 8.296875 
L 53.609375 0 
L 7.328125 0 
L 7.328125 8.296875 
Q 12.9375 14.109375 22.625 23.890625 
Q 32.328125 33.6875 34.8125 36.53125 
Q 39.546875 41.84375 41.421875 45.53125 
Q 43.3125 49.21875 43.3125 52.78125 
Q 43.3125 58.59375 39.234375 62.25 
Q 35.15625 65.921875 28.609375 65.921875 
Q 23.96875 65.921875 18.8125 64.3125 
Q 13.671875 62.703125 7.8125 59.421875 
L 7.8125 69.390625 
Q 13.765625 71.78125 18.9375 73 
Q 24.125 74.21875 28.421875 74.21875 
Q 39.75 74.21875 46.484375 68.546875 
Q 53.21875 62.890625 53.21875 53.421875 
Q 53.21875 48.921875 51.53125 44.890625 
Q 49.859375 40.875 45.40625 35.40625 
Q 44.1875 33.984375 37.640625 27.21875 
Q 31.109375 20.453125 19.1875 8.296875 
z
" id="DejaVuSans-32"/>
      </defs>
      <g transform="translate(346.234397 778.477969)scale(0.13 -0.13)">
       <use xlink:href="#DejaVuSans-30"/>
       <use x="63.623047" xlink:href="#DejaVuSans-2e"/>
       <use x="95.410156" xlink:href="#DejaVuSans-32"/>
      </g>
     </g>
    </g>
    <g id="xtick_3">
     <g id="line2d_3">
      <g>
       <use style="stroke:#000000;stroke-width:1.3;" x="526.628571" xlink:href="#m81289457c8" y="756"/>
      </g>
     </g>
     <g id="text_3">
      <!-- 0.4 -->
      <defs>
       <path d="M 37.796875 64.3125 
L 12.890625 25.390625 
L 37.796875 25.390625 
z
M 35.203125 72.90625 
L 47.609375 72.90625 
L 47.609375 25.390625 
L 58.015625 25.390625 
L 58.015625 17.1875 
L 47.609375 17.1875 
L 47.609375 0 
L 37.796875 0 
L 37.796875 17.1875 
L 4.890625 17.1875 
L 4.890625 26.703125 
z
" id="DejaVuSans-34"/>
      </defs>
      <g transform="translate(516.29154 778.477969)scale(0.13 -0.13)">
       <use xlink:href="#DejaVuSans-30"/>
       <use x="63.623047" xlink:href="#DejaVuSans-2e"/>
       <use x="95.410156" xlink:href="#DejaVuSans-34"/>
      </g>
     </g>
    </g>
    <g id="xtick_4">
     <g id="line2d_4">
      <g>
       <use style="stroke:#000000;stroke-width:1.3;" x="696.685714" xlink:href="#m81289457c8" y="756"/>
      </g>
     </g>
     <g id="text_4">
      <!-- 0.6 -->
      <defs>
       <path d="M 33.015625 40.375 
Q 26.375 40.375 22.484375 35.828125 
Q 18.609375 31.296875 18.609375 23.390625 
Q 18.609375 15.53125 22.484375 10.953125 
Q 26.375 6.390625 33.015625 6.390625 
Q 39.65625 6.390625 43.53125 10.953125 
Q 47.40625 15.53125 47.40625 23.390625 
Q 47.40625 31.296875 43.53125 35.828125 
Q 39.65625 40.375 33.015625 40.375 
z
M 52.59375 71.296875 
L 52.59375 62.3125 
Q 48.875 64.0625 45.09375 64.984375 
Q 41.3125 65.921875 37.59375 65.921875 
Q 27.828125 65.921875 22.671875 59.328125 
Q 17.53125 52.734375 16.796875 39.40625 
Q 19.671875 43.65625 24.015625 45.921875 
Q 28.375 48.1875 33.59375 48.1875 
Q 44.578125 48.1875 50.953125 41.515625 
Q 57.328125 34.859375 57.328125 23.390625 
Q 57.328125 12.15625 50.6875 5.359375 
Q 44.046875 -1.421875 33.015625 -1.421875 
Q 20.359375 -1.421875 13.671875 8.265625 
Q 6.984375 17.96875 6.984375 36.375 
Q 6.984375 53.65625 15.1875 63.9375 
Q 23.390625 74.21875 37.203125 74.21875 
Q 40.921875 74.21875 44.703125 73.484375 
Q 48.484375 72.75 52.59375 71.296875 
z
" id="DejaVuSans-36"/>
      </defs>
      <g transform="translate(686.348683 778.477969)scale(0.13 -0.13)">
       <use xlink:href="#DejaVuSans-30"/>
       <use x="63.623047" xlink:href="#DejaVuSans-2e"/>
       <use x="95.410156" xlink:href="#DejaVuSans-36"/>
      </g>
     </g>
    </g>
    <g id="xtick_5">
     <g id="line2d_5">
      <g>
       <use style="stroke:#000000;stroke-width:1.3;" x="866.742857" xlink:href="#m81289457c8" y="756"/>
      </g>
     </g>
     <g id="text_5">
      <!-- 0.8 -->
      <defs>
       <path d="M 31.78125 34.625 
Q 24.75 34.625 20.71875 30.859375 
Q 16.703125 27.09375 16.703125 20.515625 
Q 16.703125 13.921875 20.71875 10.15625 
Q 24.75 6.390625 31.78125 6.390625 
Q 38.8125 6.390625 42.859375 10.171875 
Q 46.921875 13.96875 46.921875 20.515625 
Q 46.921875 27.09375 42.890625 30.859375 
Q 38.875 34.625 31.78125 34.625 
z
M 21.921875 38.8125 
Q 15.578125 40.375 12.03125 44.71875 
Q 8.5 49.078125 8.5 55.328125 
Q 8.5 64.0625 14.71875 69.140625 
Q 20.953125 74.21875 31.78125 74.21875 
Q 42.671875 74.21875 48.875 69.140625 
Q 55.078125 64.0625 55.078125 55.328125 
Q 55.078125 49.078125 51.53125 44.71875 
Q 48 40.375 41.703125 38.8125 
Q 48.828125 37.15625 52.796875 32.3125 
Q 56.78125 27.484375 56.78125 20.515625 
Q 56.78125 9.90625 50.3125 4.234375 
Q 43.84375 -1.421875 31.78125 -1.421875 
Q 19.734375 -1.421875 13.25 4.234375 
Q 6.78125 9.90625 6.78125 20.515625 
Q 6.78125 27.484375 10.78125 32.3125 
Q 14.796875 37.15625 21.921875 38.8125 
z
M 18.3125 54.390625 
Q 18.3125 48.734375 21.84375 45.5625 
Q 25.390625 42.390625 31.78125 42.390625 
Q 38.140625 42.390625 41.71875 45.5625 
Q 45.3125 48.734375 45.3125 54.390625 
Q 45.3125 60.0625 41.71875 63.234375 
Q 38.140625 66.40625 31.78125 66.40625 
Q 25.390625 66.40625 21.84375 63.234375 
Q 18.3125 60.0625 18.3125 54.390625 
z
" id="DejaVuSans-38"/>
      </defs>
      <g transform="translate(856.405826 778.477969)scale(0.13 -0.13)">
       <use xlink:href="#DejaVuSans-30"/>
       <use x="63.623047" xlink:href="#DejaVuSans-2e"/>
       <use x="95.410156" xlink:href="#DejaVuSans-38"/>
      </g>
     </g>
    </g>
    <g id="xtick_6">
     <g id="line2d_6">
      <g>
       <use style="stroke:#000000;stroke-width:1.3;" x="1036.8" xlink:href="#m81289457c8" y="756"/>
      </g>
     </g>
     <g id="text_6">
      <!-- 1.0 -->
      <defs>
       <path d="M 12.40625 8.296875 
L 28.515625 8.296875 
L 28.515625 63.921875 
L 10.984375 60.40625 
L 10.984375 69.390625 
L 28.421875 72.90625 
L 38.28125 72.90625 
L 38.28125 8.296875 
L 54.390625 8.296875 
L 54.390625 0 
L 12.40625 0 
z
" id="DejaVuSans-31"/>
      </defs>
      <g transform="translate(1026.462969 778.477969)scale(0.13 -0.13)">
       <use xlink:href="#DejaVuSans-31"/>
       <use x="63.623047" xlink:href="#DejaVuSans-2e"/>
       <use x="95.410156" xlink:href="#DejaVuSans-30"/>
      </g>
     </g>
    </g>
    <g id="text_7">
     <!-- False Positive Rate -->
     <defs>
      <path d="M 9.8125 72.90625 
L 51.703125 72.90625 
L 51.703125 64.59375 
L 19.671875 64.59375 
L 19.671875 43.109375 
L 48.578125 43.109375 
L 48.578125 34.8125 
L 19.671875 34.8125 
L 19.671875 0 
L 9.8125 0 
z
" id="DejaVuSans-46"/>
      <path d="M 34.28125 27.484375 
Q 23.390625 27.484375 19.1875 25 
Q 14.984375 22.515625 14.984375 16.5 
Q 14.984375 11.71875 18.140625 8.90625 
Q 21.296875 6.109375 26.703125 6.109375 
Q 34.1875 6.109375 38.703125 11.40625 
Q 43.21875 16.703125 43.21875 25.484375 
L 43.21875 27.484375 
z
M 52.203125 31.203125 
L 52.203125 0 
L 43.21875 0 
L 43.21875 8.296875 
Q 40.140625 3.328125 35.546875 0.953125 
Q 30.953125 -1.421875 24.3125 -1.421875 
Q 15.921875 -1.421875 10.953125 3.296875 
Q 6 8.015625 6 15.921875 
Q 6 25.140625 12.171875 29.828125 
Q 18.359375 34.515625 30.609375 34.515625 
L 43.21875 34.515625 
L 43.21875 35.40625 
Q 43.21875 41.609375 39.140625 45 
Q 35.0625 48.390625 27.6875 48.390625 
Q 23 48.390625 18.546875 47.265625 
Q 14.109375 46.140625 10.015625 43.890625 
L 10.015625 52.203125 
Q 14.9375 54.109375 19.578125 55.046875 
Q 24.21875 56 28.609375 56 
Q 40.484375 56 46.34375 49.84375 
Q 52.203125 43.703125 52.203125 31.203125 
z
" id="DejaVuSans-61"/>
      <path d="M 9.421875 75.984375 
L 18.40625 75.984375 
L 18.40625 0 
L 9.421875 0 
z
" id="DejaVuSans-6c"/>
      <path d="M 44.28125 53.078125 
L 44.28125 44.578125 
Q 40.484375 46.53125 36.375 47.5 
Q 32.28125 48.484375 27.875 48.484375 
Q 21.1875 48.484375 17.84375 46.4375 
Q 14.5 44.390625 14.5 40.28125 
Q 14.5 37.15625 16.890625 35.375 
Q 19.28125 33.59375 26.515625 31.984375 
L 29.59375 31.296875 
Q 39.15625 29.25 43.1875 25.515625 
Q 47.21875 21.78125 47.21875 15.09375 
Q 47.21875 7.46875 41.1875 3.015625 
Q 35.15625 -1.421875 24.609375 -1.421875 
Q 20.21875 -1.421875 15.453125 -0.5625 
Q 10.6875 0.296875 5.421875 2 
L 5.421875 11.28125 
Q 10.40625 8.6875 15.234375 7.390625 
Q 20.0625 6.109375 24.8125 6.109375 
Q 31.15625 6.109375 34.5625 8.28125 
Q 37.984375 10.453125 37.984375 14.40625 
Q 37.984375 18.0625 35.515625 20.015625 
Q 33.0625 21.96875 24.703125 23.78125 
L 21.578125 24.515625 
Q 13.234375 26.265625 9.515625 29.90625 
Q 5.8125 33.546875 5.8125 39.890625 
Q 5.8125 47.609375 11.28125 51.796875 
Q 16.75 56 26.8125 56 
Q 31.78125 56 36.171875 55.265625 
Q 40.578125 54.546875 44.28125 53.078125 
z
" id="DejaVuSans-73"/>
      <path d="M 56.203125 29.59375 
L 56.203125 25.203125 
L 14.890625 25.203125 
Q 15.484375 15.921875 20.484375 11.0625 
Q 25.484375 6.203125 34.421875 6.203125 
Q 39.59375 6.203125 44.453125 7.46875 
Q 49.3125 8.734375 54.109375 11.28125 
L 54.109375 2.78125 
Q 49.265625 0.734375 44.1875 -0.34375 
Q 39.109375 -1.421875 33.890625 -1.421875 
Q 20.796875 -1.421875 13.15625 6.1875 
Q 5.515625 13.8125 5.515625 26.8125 
Q 5.515625 40.234375 12.765625 48.109375 
Q 20.015625 56 32.328125 56 
Q 43.359375 56 49.78125 48.890625 
Q 56.203125 41.796875 56.203125 29.59375 
z
M 47.21875 32.234375 
Q 47.125 39.59375 43.09375 43.984375 
Q 39.0625 48.390625 32.421875 48.390625 
Q 24.90625 48.390625 20.390625 44.140625 
Q 15.875 39.890625 15.1875 32.171875 
z
" id="DejaVuSans-65"/>
      <path id="DejaVuSans-20"/>
      <path d="M 19.671875 64.796875 
L 19.671875 37.40625 
L 32.078125 37.40625 
Q 38.96875 37.40625 42.71875 40.96875 
Q 46.484375 44.53125 46.484375 51.125 
Q 46.484375 57.671875 42.71875 61.234375 
Q 38.96875 64.796875 32.078125 64.796875 
z
M 9.8125 72.90625 
L 32.078125 72.90625 
Q 44.34375 72.90625 50.609375 67.359375 
Q 56.890625 61.8125 56.890625 51.125 
Q 56.890625 40.328125 50.609375 34.8125 
Q 44.34375 29.296875 32.078125 29.296875 
L 19.671875 29.296875 
L 19.671875 0 
L 9.8125 0 
z
" id="DejaVuSans-50"/>
      <path d="M 30.609375 48.390625 
Q 23.390625 48.390625 19.1875 42.75 
Q 14.984375 37.109375 14.984375 27.296875 
Q 14.984375 17.484375 19.15625 11.84375 
Q 23.34375 6.203125 30.609375 6.203125 
Q 37.796875 6.203125 41.984375 11.859375 
Q 46.1875 17.53125 46.1875 27.296875 
Q 46.1875 37.015625 41.984375 42.703125 
Q 37.796875 48.390625 30.609375 48.390625 
z
M 30.609375 56 
Q 42.328125 56 49.015625 48.375 
Q 55.71875 40.765625 55.71875 27.296875 
Q 55.71875 13.875 49.015625 6.21875 
Q 42.328125 -1.421875 30.609375 -1.421875 
Q 18.84375 -1.421875 12.171875 6.21875 
Q 5.515625 13.875 5.515625 27.296875 
Q 5.515625 40.765625 12.171875 48.375 
Q 18.84375 56 30.609375 56 
z
" id="DejaVuSans-6f"/>
      <path d="M 9.421875 54.6875 
L 18.40625 54.6875 
L 18.40625 0 
L 9.421875 0 
z
M 9.421875 75.984375 
L 18.40625 75.984375 
L 18.40625 64.59375 
L 9.421875 64.59375 
z
" id="DejaVuSans-69"/>
      <path d="M 18.3125 70.21875 
L 18.3125 54.6875 
L 36.8125 54.6875 
L 36.8125 47.703125 
L 18.3125 47.703125 
L 18.3125 18.015625 
Q 18.3125 11.328125 20.140625 9.421875 
Q 21.96875 7.515625 27.59375 7.515625 
L 36.8125 7.515625 
L 36.8125 0 
L 27.59375 0 
Q 17.1875 0 13.234375 3.875 
Q 9.28125 7.765625 9.28125 18.015625 
L 9.28125 47.703125 
L 2.6875 47.703125 
L 2.6875 54.6875 
L 9.28125 54.6875 
L 9.28125 70.21875 
z
" id="DejaVuSans-74"/>
      <path d="M 2.984375 54.6875 
L 12.5 54.6875 
L 29.59375 8.796875 
L 46.6875 54.6875 
L 56.203125 54.6875 
L 35.6875 0 
L 23.484375 0 
z
" id="DejaVuSans-76"/>
      <path d="M 44.390625 34.1875 
Q 47.5625 33.109375 50.5625 29.59375 
Q 53.5625 26.078125 56.59375 19.921875 
L 66.609375 0 
L 56 0 
L 46.6875 18.703125 
Q 43.0625 26.03125 39.671875 28.421875 
Q 36.28125 30.8125 30.421875 30.8125 
L 19.671875 30.8125 
L 19.671875 0 
L 9.8125 0 
L 9.8125 72.90625 
L 32.078125 72.90625 
Q 44.578125 72.90625 50.734375 67.671875 
Q 56.890625 62.453125 56.890625 51.90625 
Q 56.890625 45.015625 53.6875 40.46875 
Q 50.484375 35.9375 44.390625 34.1875 
z
M 19.671875 64.796875 
L 19.671875 38.921875 
L 32.078125 38.921875 
Q 39.203125 38.921875 42.84375 42.21875 
Q 46.484375 45.515625 46.484375 51.90625 
Q 46.484375 58.296875 42.84375 61.546875 
Q 39.203125 64.796875 32.078125 64.796875 
z
" id="DejaVuSans-52"/>
     </defs>
     <g transform="translate(514.87125 797.339062)scale(0.16 -0.16)">
      <use xlink:href="#DejaVuSans-46"/>
      <use x="57.378906" xlink:href="#DejaVuSans-61"/>
      <use x="118.658203" xlink:href="#DejaVuSans-6c"/>
      <use x="146.441406" xlink:href="#DejaVuSans-73"/>
      <use x="198.541016" xlink:href="#DejaVuSans-65"/>
      <use x="260.064453" xlink:href="#DejaVuSans-20"/>
      <use x="291.851562" xlink:href="#DejaVuSans-50"/>
      <use x="352.107422" xlink:href="#DejaVuSans-6f"/>
      <use x="413.289062" xlink:href="#DejaVuSans-73"/>
      <use x="465.388672" xlink:href="#DejaVuSans-69"/>
      <use x="493.171875" xlink:href="#DejaVuSans-74"/>
      <use x="532.380859" xlink:href="#DejaVuSans-69"/>
      <use x="560.164062" xlink:href="#DejaVuSans-76"/>
      <use x="619.34375" xlink:href="#DejaVuSans-65"/>
      <use x="680.867188" xlink:href="#DejaVuSans-20"/>
      <use x="712.654297" xlink:href="#DejaVuSans-52"/>
      <use x="782.105469" xlink:href="#DejaVuSans-61"/>
      <use x="843.384766" xlink:href="#DejaVuSans-74"/>
      <use x="882.59375" xlink:href="#DejaVuSans-65"/>
     </g>
    </g>
   </g>
   <g id="matplotlib.axis_2">
    <g id="ytick_1">
     <g id="line2d_7">
      <defs>
       <path d="M 0 0 
L -3.5 0 
" id="m72b87fb716" style="stroke:#000000;stroke-width:1.3;"/>
      </defs>
      <g>
       <use style="stroke:#000000;stroke-width:1.3;" x="144" xlink:href="#m72b87fb716" y="756"/>
      </g>
     </g>
     <g id="text_8">
      <!-- 0.0 -->
      <g transform="translate(110.725938 760.938984)scale(0.13 -0.13)">
       <use xlink:href="#DejaVuSans-30"/>
       <use x="63.623047" xlink:href="#DejaVuSans-2e"/>
       <use x="95.410156" xlink:href="#DejaVuSans-30"/>
      </g>
     </g>
    </g>
    <g id="ytick_2">
     <g id="line2d_8">
      <g>
       <use style="stroke:#000000;stroke-width:1.3;" x="144" xlink:href="#m72b87fb716" y="631.748571"/>
      </g>
     </g>
     <g id="text_9">
      <!-- 0.2 -->
      <g transform="translate(110.725938 636.687556)scale(0.13 -0.13)">
       <use xlink:href="#DejaVuSans-30"/>
       <use x="63.623047" xlink:href="#DejaVuSans-2e"/>
       <use x="95.410156" xlink:href="#DejaVuSans-32"/>
      </g>
     </g>
    </g>
    <g id="ytick_3">
     <g id="line2d_9">
      <g>
       <use style="stroke:#000000;stroke-width:1.3;" x="144" xlink:href="#m72b87fb716" y="507.497143"/>
      </g>
     </g>
     <g id="text_10">
      <!-- 0.4 -->
      <g transform="translate(110.725938 512.436127)scale(0.13 -0.13)">
       <use xlink:href="#DejaVuSans-30"/>
       <use x="63.623047" xlink:href="#DejaVuSans-2e"/>
       <use x="95.410156" xlink:href="#DejaVuSans-34"/>
      </g>
     </g>
    </g>
    <g id="ytick_4">
     <g id="line2d_10">
      <g>
       <use style="stroke:#000000;stroke-width:1.3;" x="144" xlink:href="#m72b87fb716" y="383.245714"/>
      </g>
     </g>
     <g id="text_11">
      <!-- 0.6 -->
      <g transform="translate(110.725938 388.184699)scale(0.13 -0.13)">
       <use xlink:href="#DejaVuSans-30"/>
       <use x="63.623047" xlink:href="#DejaVuSans-2e"/>
       <use x="95.410156" xlink:href="#DejaVuSans-36"/>
      </g>
     </g>
    </g>
    <g id="ytick_5">
     <g id="line2d_11">
      <g>
       <use style="stroke:#000000;stroke-width:1.3;" x="144" xlink:href="#m72b87fb716" y="258.994286"/>
      </g>
     </g>
     <g id="text_12">
      <!-- 0.8 -->
      <g transform="translate(110.725938 263.93327)scale(0.13 -0.13)">
       <use xlink:href="#DejaVuSans-30"/>
       <use x="63.623047" xlink:href="#DejaVuSans-2e"/>
       <use x="95.410156" xlink:href="#DejaVuSans-38"/>
      </g>
     </g>
    </g>
    <g id="ytick_6">
     <g id="line2d_12">
      <g>
       <use style="stroke:#000000;stroke-width:1.3;" x="144" xlink:href="#m72b87fb716" y="134.742857"/>
      </g>
     </g>
     <g id="text_13">
      <!-- 1.0 -->
      <g transform="translate(110.725938 139.681842)scale(0.13 -0.13)">
       <use xlink:href="#DejaVuSans-31"/>
       <use x="63.623047" xlink:href="#DejaVuSans-2e"/>
       <use x="95.410156" xlink:href="#DejaVuSans-30"/>
      </g>
     </g>
    </g>
    <g id="text_14">
     <!-- True Positive Rate -->
     <defs>
      <path d="M -0.296875 72.90625 
L 61.375 72.90625 
L 61.375 64.59375 
L 35.5 64.59375 
L 35.5 0 
L 25.59375 0 
L 25.59375 64.59375 
L -0.296875 64.59375 
z
" id="DejaVuSans-54"/>
      <path d="M 41.109375 46.296875 
Q 39.59375 47.171875 37.8125 47.578125 
Q 36.03125 48 33.890625 48 
Q 26.265625 48 22.1875 43.046875 
Q 18.109375 38.09375 18.109375 28.8125 
L 18.109375 0 
L 9.078125 0 
L 9.078125 54.6875 
L 18.109375 54.6875 
L 18.109375 46.1875 
Q 20.953125 51.171875 25.484375 53.578125 
Q 30.03125 56 36.53125 56 
Q 37.453125 56 38.578125 55.875 
Q 39.703125 55.765625 41.0625 55.515625 
z
" id="DejaVuSans-72"/>
      <path d="M 8.5 21.578125 
L 8.5 54.6875 
L 17.484375 54.6875 
L 17.484375 21.921875 
Q 17.484375 14.15625 20.5 10.265625 
Q 23.53125 6.390625 29.59375 6.390625 
Q 36.859375 6.390625 41.078125 11.03125 
Q 45.3125 15.671875 45.3125 23.6875 
L 45.3125 54.6875 
L 54.296875 54.6875 
L 54.296875 0 
L 45.3125 0 
L 45.3125 8.40625 
Q 42.046875 3.421875 37.71875 1 
Q 33.40625 -1.421875 27.6875 -1.421875 
Q 18.265625 -1.421875 13.375 4.4375 
Q 8.5 10.296875 8.5 21.578125 
z
M 31.109375 56 
z
" id="DejaVuSans-75"/>
     </defs>
     <g transform="translate(103.398438 502.71375)rotate(-90)scale(0.16 -0.16)">
      <use xlink:href="#DejaVuSans-54"/>
      <use x="60.865234" xlink:href="#DejaVuSans-72"/>
      <use x="101.978516" xlink:href="#DejaVuSans-75"/>
      <use x="165.357422" xlink:href="#DejaVuSans-65"/>
      <use x="226.880859" xlink:href="#DejaVuSans-20"/>
      <use x="258.667969" xlink:href="#DejaVuSans-50"/>
      <use x="318.923828" xlink:href="#DejaVuSans-6f"/>
      <use x="380.105469" xlink:href="#DejaVuSans-73"/>
      <use x="432.205078" xlink:href="#DejaVuSans-69"/>
      <use x="459.988281" xlink:href="#DejaVuSans-74"/>
      <use x="499.197266" xlink:href="#DejaVuSans-69"/>
      <use x="526.980469" xlink:href="#DejaVuSans-76"/>
      <use x="586.160156" xlink:href="#DejaVuSans-65"/>
      <use x="647.683594" xlink:href="#DejaVuSans-20"/>
      <use x="679.470703" xlink:href="#DejaVuSans-52"/>
      <use x="748.921875" xlink:href="#DejaVuSans-61"/>
      <use x="810.201172" xlink:href="#DejaVuSans-74"/>
      <use x="849.410156" xlink:href="#DejaVuSans-65"/>
     </g>
    </g>
   </g>
   <g id="line2d_13">
    <path clip-path="url(#p4667a797af)" d="M 186.514286 462.526237 
L 195.017143 462.526237 
L 203.52 462.526237 
L 212.022857 461.032831 
L 220.525714 461.032831 
L 229.028571 461.032831 
L 237.531429 433.082423 
L 246.034286 411.202831 
L 254.537143 409.059233 
L 263.04 404.330113 
L 271.542857 403.405623 
L 280.045714 403.405623 
L 288.548571 398.875623 
L 297.051429 388.560558 
L 305.554286 388.560558 
L 314.057143 384.030419 
L 322.56 384.030419 
L 331.062857 368.314092 
L 339.565714 365.170827 
L 348.068571 360.972103 
L 356.571429 352.90185 
L 365.074286 352.90185 
L 373.577143 350.744708 
L 382.08 344.273279 
L 390.582857 341.684708 
L 399.085714 341.222463 
L 407.588571 341.222463 
L 416.091429 341.222463 
L 424.594286 341.222463 
L 433.097143 335.745961 
L 441.6 334.451676 
L 450.102857 334.451676 
L 458.605714 334.451676 
L 467.108571 334.451676 
L 475.611429 324.436369 
L 484.114286 319.81392 
L 492.617143 319.41771 
L 501.12 319.41771 
L 509.622857 318.136031 
L 518.125714 318.136031 
L 526.628571 304.687424 
L 535.131429 304.687424 
L 543.634286 302.191302 
L 552.137143 299.057212 
L 560.64 299.057212 
L 569.142857 298.81604 
L 577.645714 298.81604 
L 586.148571 298.81604 
L 594.651429 296.967061 
L 603.154286 296.967061 
L 611.657143 285.845502 
L 620.16 285.845502 
L 628.662857 285.845502 
L 637.165714 282.609788 
L 645.668571 282.609788 
L 654.171429 282.609788 
L 662.674286 279.005617 
L 671.177143 277.580362 
L 679.68 276.470974 
L 688.182857 273.882403 
L 696.685714 271.826773 
L 705.188571 271.826773 
L 713.691429 269.66963 
L 722.194286 269.081318 
L 730.697143 269.081318 
L 739.2 268.685108 
L 747.702857 268.685108 
L 756.205714 259.522387 
L 764.708571 259.522387 
L 773.211429 259.522387 
L 781.714286 259.522387 
L 790.217143 259.522387 
L 798.72 258.729967 
L 807.222857 258.729967 
L 815.725714 258.729967 
L 824.228571 257.11211 
L 832.731429 257.11211 
L 841.234286 256.685423 
L 849.737143 256.444251 
L 858.24 254.661307 
L 866.742857 254.661307 
L 875.245714 254.661307 
L 883.748571 254.661307 
L 892.251429 254.661307 
L 900.754286 243.138569 
L 909.257143 243.138569 
L 917.76 241.784782 
L 926.262857 241.784782 
L 934.765714 240.27198 
L 943.268571 240.030809 
L 951.771429 240.030809 
L 960.274286 240.030809 
L 968.777143 239.568564 
L 977.28 239.172354 
L 985.782857 239.172354 
L 994.285714 233.563783 
L 1002.788571 233.563783 
L 1011.291429 233.563783 
L 1019.794286 233.563783 
L 1028.297143 233.563783 
L 1036.8 184.424939 
" style="fill:none;stroke:#0000ff;stroke-linecap:square;stroke-width:3;"/>
   </g>
   <g id="line2d_14">
    <path clip-path="url(#p4667a797af)" d="M 186.514286 756 
L 1036.8 134.742857 
" style="fill:none;stroke:#000080;stroke-dasharray:11.1,4.8;stroke-dashoffset:0;stroke-width:3;"/>
   </g>
   <g id="line2d_15">
    <path clip-path="url(#p4667a797af)" d="M 186.514286 535.952085 
L 195.017143 535.952085 
L 203.52 535.952085 
L 212.022857 519.180144 
L 220.525714 495.751627 
L 229.028571 491.18844 
L 237.531429 491.18844 
L 246.034286 474.482504 
L 254.537143 459.725417 
L 263.04 459.725417 
L 271.542857 454.289101 
L 280.045714 454.289101 
L 288.548571 443.85896 
L 297.051429 429.067123 
L 305.554286 424.006134 
L 314.057143 421.540828 
L 322.56 414.580447 
L 331.062857 411.925502 
L 339.565714 382.341829 
L 348.068571 377.778642 
L 356.571429 371.035081 
L 365.074286 368.629037 
L 373.577143 367.396384 
L 382.08 363.082099 
L 390.582857 351.123467 
L 399.085714 334.893535 
L 407.588571 334.893535 
L 416.091429 332.23859 
L 424.594286 331.160019 
L 433.097143 331.160019 
L 441.6 331.160019 
L 450.102857 329.294382 
L 458.605714 326.639437 
L 467.108571 325.311964 
L 475.611429 325.311964 
L 484.114286 323.984492 
L 492.617143 321.223349 
L 501.12 321.223349 
L 509.622857 321.223349 
L 518.125714 319.785254 
L 526.628571 314.475364 
L 535.131429 314.475364 
L 543.634286 314.475364 
L 552.137143 314.475364 
L 560.64 313.094792 
L 569.142857 313.094792 
L 577.645714 312.016221 
L 586.148571 303.620854 
L 594.651429 303.620854 
L 603.154286 300.965909 
L 611.657143 300.965909 
L 620.16 300.965909 
L 628.662857 300.965909 
L 637.165714 286.174072 
L 645.668571 278.998545 
L 654.171429 277.56045 
L 662.674286 277.56045 
L 671.177143 277.56045 
L 679.68 277.56045 
L 688.182857 277.56045 
L 696.685714 274.799307 
L 705.188571 274.799307 
L 713.691429 265.471122 
L 722.194286 265.471122 
L 730.697143 265.471122 
L 739.2 265.471122 
L 747.702857 265.471122 
L 756.205714 265.471122 
L 764.708571 264.09055 
L 773.211429 264.09055 
L 781.714286 263.157732 
L 790.217143 263.157732 
L 798.72 263.157732 
L 807.222857 263.157732 
L 815.725714 263.157732 
L 824.228571 263.157732 
L 832.731429 261.77716 
L 841.234286 196.115836 
L 849.737143 196.115836 
L 858.24 196.115836 
L 866.742857 196.115836 
L 875.245714 196.115836 
L 883.748571 196.115836 
L 892.251429 193.460891 
L 900.754286 193.460891 
L 909.257143 155.306338 
L 917.76 155.306338 
L 926.262857 155.306338 
L 934.765714 153.925766 
L 943.268571 153.925766 
L 951.771429 153.925766 
L 960.274286 153.925766 
L 968.777143 153.925766 
L 977.28 151.400331 
L 985.782857 151.400331 
L 994.285714 151.400331 
L 1002.788571 151.400331 
L 1011.291429 151.400331 
L 1019.794286 151.400331 
L 1028.297143 151.400331 
L 1036.8 149.534694 
" style="fill:none;stroke:#ff0000;stroke-linecap:square;stroke-width:3;"/>
   </g>
   <g id="line2d_16">
    <path clip-path="url(#p4667a797af)" d="M 186.514286 756 
L 1036.8 134.742857 
" style="fill:none;stroke:#000080;stroke-dasharray:11.1,4.8;stroke-dashoffset:0;stroke-width:3;"/>
   </g>
   <g id="line2d_17">
    <path clip-path="url(#p4667a797af)" d="M 186.514286 711.394172 
L 195.017143 711.394172 
L 203.52 701.497871 
L 212.022857 698.371744 
L 220.525714 691.694135 
L 229.028571 685.248433 
L 237.531429 668.202018 
L 246.034286 660.987063 
L 254.537143 658.487168 
L 263.04 656.694123 
L 271.542857 651.329423 
L 280.045714 646.082344 
L 288.548571 642.210389 
L 297.051429 637.794972 
L 305.554286 629.005732 
L 314.057143 627.138983 
L 322.56 621.584279 
L 331.062857 613.612123 
L 339.565714 610.419264 
L 348.068571 605.058132 
L 356.571429 591.831612 
L 365.074286 583.728309 
L 373.577143 578.676115 
L 382.08 570.70501 
L 390.582857 563.30735 
L 399.085714 557.568259 
L 407.588571 554.523534 
L 416.091429 542.029052 
L 424.594286 537.95469 
L 433.097143 536.823074 
L 441.6 531.521379 
L 450.102857 530.861029 
L 458.605714 522.343449 
L 467.108571 518.356958 
L 475.611429 509.791965 
L 484.114286 501.865382 
L 492.617143 487.349692 
L 501.12 480.216896 
L 509.622857 475.985889 
L 518.125714 470.61293 
L 526.628571 464.174575 
L 535.131429 462.055277 
L 543.634286 460.870996 
L 552.137143 457.058117 
L 560.64 453.083297 
L 569.142857 447.95129 
L 577.645714 445.69667 
L 586.148571 444.307064 
L 594.651429 441.688764 
L 603.154286 436.423262 
L 611.657143 429.352324 
L 620.16 425.163936 
L 628.662857 423.520399 
L 637.165714 419.433854 
L 645.668571 413.587685 
L 654.171429 411.866715 
L 662.674286 411.075317 
L 671.177143 408.2122 
L 679.68 404.003869 
L 688.182857 402.916868 
L 696.685714 396.178153 
L 705.188571 394.511677 
L 713.691429 389.046985 
L 722.194286 380.740316 
L 730.697143 380.329432 
L 739.2 377.878577 
L 747.702857 375.511018 
L 756.205714 372.54686 
L 764.708571 372.54686 
L 773.211429 371.55709 
L 781.714286 368.256693 
L 790.217143 367.434924 
L 798.72 355.495168 
L 807.222857 355.211333 
L 815.725714 354.725976 
L 824.228571 349.242176 
L 832.731429 344.87186 
L 841.234286 340.225709 
L 849.737143 339.4929 
L 858.24 339.4929 
L 866.742857 335.957121 
L 875.245714 330.275662 
L 883.748571 324.269331 
L 892.251429 323.294476 
L 900.754286 317.179597 
L 909.257143 315.490878 
L 917.76 315.09867 
L 926.262857 314.857358 
L 934.765714 312.75363 
L 943.268571 310.582021 
L 951.771429 308.926063 
L 960.274286 305.22962 
L 968.777143 303.38064 
L 977.28 301.579826 
L 985.782857 300.60316 
L 994.285714 299.807525 
L 1002.788571 297.171374 
L 1011.291429 294.777526 
L 1019.794286 293.339431 
L 1028.297143 291.423626 
L 1036.8 280.479331 
" style="fill:none;stroke:#008000;stroke-linecap:square;stroke-width:3;"/>
   </g>
   <g id="line2d_18">
    <path clip-path="url(#p4667a797af)" d="M 186.514286 756 
L 1036.8 134.742857 
" style="fill:none;stroke:#000080;stroke-dasharray:11.1,4.8;stroke-dashoffset:0;stroke-width:3;"/>
   </g>
   <g id="line2d_19">
    <path clip-path="url(#p4667a797af)" d="M 186.514286 530.679359 
L 195.017143 530.679359 
L 203.52 518.619508 
L 212.022857 500.342094 
L 220.525714 483.534815 
L 229.028571 470.534967 
L 237.531429 464.926846 
L 246.034286 462.208945 
L 254.537143 433.711704 
L 263.04 426.068651 
L 271.542857 415.275296 
L 280.045714 409.004887 
L 288.548571 402.96275 
L 297.051429 397.324642 
L 305.554286 392.048499 
L 314.057143 379.767483 
L 322.56 373.645439 
L 331.062857 370.821177 
L 339.565714 358.232174 
L 348.068571 350.359156 
L 356.571429 348.077619 
L 365.074286 343.389682 
L 373.577143 338.032851 
L 382.08 337.340218 
L 390.582857 330.667259 
L 399.085714 327.306107 
L 407.588571 325.423657 
L 416.091429 320.912959 
L 424.594286 320.493383 
L 433.097143 317.466338 
L 441.6 315.739905 
L 450.102857 313.846196 
L 458.605714 313.049712 
L 467.108571 309.509844 
L 475.611429 308.360125 
L 484.114286 306.683005 
L 492.617143 299.774281 
L 501.12 299.774281 
L 509.622857 295.547779 
L 518.125714 293.364468 
L 526.628571 293.231721 
L 535.131429 291.704863 
L 543.634286 289.138895 
L 552.137143 284.174967 
L 560.64 283.118408 
L 569.142857 282.94641 
L 577.645714 281.799357 
L 586.148571 279.339769 
L 594.651429 264.104177 
L 603.154286 261.895745 
L 611.657143 261.3479 
L 620.16 261.3479 
L 628.662857 260.612352 
L 637.165714 259.87276 
L 645.668571 258.276104 
L 654.171429 258.276104 
L 662.674286 258.276104 
L 671.177143 258.104106 
L 679.68 257.684338 
L 688.182857 256.468924 
L 696.685714 256.040287 
L 705.188571 251.861371 
L 713.691429 250.680791 
L 722.194286 250.680791 
L 730.697143 250.680791 
L 739.2 250.188682 
L 747.702857 250.188682 
L 756.205714 250.188682 
L 764.708571 250.188682 
L 773.211429 250.188682 
L 781.714286 248.271222 
L 790.217143 247.84668 
L 798.72 246.401007 
L 807.222857 239.408886 
L 815.725714 239.408886 
L 824.228571 238.838646 
L 832.731429 238.666648 
L 841.234286 238.507351 
L 849.737143 238.507351 
L 858.24 238.087583 
L 866.742857 237.81366 
L 875.245714 237.641662 
L 883.748571 236.828453 
L 892.251429 234.097652 
L 900.754286 234.097652 
L 909.257143 234.097652 
L 917.76 233.627003 
L 926.262857 233.627003 
L 934.765714 232.640359 
L 943.268571 232.640359 
L 951.771429 231.900767 
L 960.274286 231.254025 
L 968.777143 231.254025 
L 977.28 230.098993 
L 985.782857 230.098993 
L 994.285714 229.359402 
L 1002.788571 229.359402 
L 1011.291429 228.096684 
L 1019.794286 228.096684 
L 1028.297143 224.331489 
L 1036.8 217.386929 
" style="fill:none;stroke:#bf00bf;stroke-linecap:square;stroke-width:3;"/>
   </g>
   <g id="line2d_20">
    <path clip-path="url(#p4667a797af)" d="M 186.514286 756 
L 1036.8 134.742857 
" style="fill:none;stroke:#000080;stroke-dasharray:11.1,4.8;stroke-dashoffset:0;stroke-width:3;"/>
   </g>
   <g id="patch_3">
    <path d="M 144 756 
L 144 103.68 
" style="fill:none;stroke:#000000;stroke-linecap:square;stroke-linejoin:miter;stroke-width:0.8;"/>
   </g>
   <g id="patch_4">
    <path d="M 1036.8 756 
L 1036.8 103.68 
" style="fill:none;stroke:#000000;stroke-linecap:square;stroke-linejoin:miter;stroke-width:0.8;"/>
   </g>
   <g id="patch_5">
    <path d="M 144 756 
L 1036.8 756 
" style="fill:none;stroke:#000000;stroke-linecap:square;stroke-linejoin:miter;stroke-width:0.8;"/>
   </g>
   <g id="patch_6">
    <path d="M 144 103.68 
L 1036.8 103.68 
" style="fill:none;stroke:#000000;stroke-linecap:square;stroke-linejoin:miter;stroke-width:0.8;"/>
   </g>
   <g id="legend_1">
    <g id="patch_7">
     <path d="M 810.679219 749.5 
L 1027.7 749.5 
Q 1030.3 749.5 1030.3 746.9 
L 1030.3 671.87375 
Q 1030.3 669.27375 1027.7 669.27375 
L 810.679219 669.27375 
Q 808.079219 669.27375 808.079219 671.87375 
L 808.079219 746.9 
Q 808.079219 749.5 810.679219 749.5 
z
" style="fill:#ffffff;opacity:0.8;stroke:#cccccc;stroke-linejoin:miter;stroke-width:0.39;"/>
    </g>
    <g id="line2d_21">
     <path d="M 813.279219 679.801719 
L 839.279219 679.801719 
" style="fill:none;stroke:#0000ff;stroke-linecap:square;stroke-width:3;"/>
    </g>
    <g id="line2d_22"/>
    <g id="text_15">
     <!-- Clinical - AUC = 0.764 -->
     <defs>
      <path d="M 64.40625 67.28125 
L 64.40625 56.890625 
Q 59.421875 61.53125 53.78125 63.8125 
Q 48.140625 66.109375 41.796875 66.109375 
Q 29.296875 66.109375 22.65625 58.46875 
Q 16.015625 50.828125 16.015625 36.375 
Q 16.015625 21.96875 22.65625 14.328125 
Q 29.296875 6.6875 41.796875 6.6875 
Q 48.140625 6.6875 53.78125 8.984375 
Q 59.421875 11.28125 64.40625 15.921875 
L 64.40625 5.609375 
Q 59.234375 2.09375 53.4375 0.328125 
Q 47.65625 -1.421875 41.21875 -1.421875 
Q 24.65625 -1.421875 15.125 8.703125 
Q 5.609375 18.84375 5.609375 36.375 
Q 5.609375 53.953125 15.125 64.078125 
Q 24.65625 74.21875 41.21875 74.21875 
Q 47.75 74.21875 53.53125 72.484375 
Q 59.328125 70.75 64.40625 67.28125 
z
" id="DejaVuSans-43"/>
      <path d="M 54.890625 33.015625 
L 54.890625 0 
L 45.90625 0 
L 45.90625 32.71875 
Q 45.90625 40.484375 42.875 44.328125 
Q 39.84375 48.1875 33.796875 48.1875 
Q 26.515625 48.1875 22.3125 43.546875 
Q 18.109375 38.921875 18.109375 30.90625 
L 18.109375 0 
L 9.078125 0 
L 9.078125 54.6875 
L 18.109375 54.6875 
L 18.109375 46.1875 
Q 21.34375 51.125 25.703125 53.5625 
Q 30.078125 56 35.796875 56 
Q 45.21875 56 50.046875 50.171875 
Q 54.890625 44.34375 54.890625 33.015625 
z
" id="DejaVuSans-6e"/>
      <path d="M 48.78125 52.59375 
L 48.78125 44.1875 
Q 44.96875 46.296875 41.140625 47.34375 
Q 37.3125 48.390625 33.40625 48.390625 
Q 24.65625 48.390625 19.8125 42.84375 
Q 14.984375 37.3125 14.984375 27.296875 
Q 14.984375 17.28125 19.8125 11.734375 
Q 24.65625 6.203125 33.40625 6.203125 
Q 37.3125 6.203125 41.140625 7.25 
Q 44.96875 8.296875 48.78125 10.40625 
L 48.78125 2.09375 
Q 45.015625 0.34375 40.984375 -0.53125 
Q 36.96875 -1.421875 32.421875 -1.421875 
Q 20.0625 -1.421875 12.78125 6.34375 
Q 5.515625 14.109375 5.515625 27.296875 
Q 5.515625 40.671875 12.859375 48.328125 
Q 20.21875 56 33.015625 56 
Q 37.15625 56 41.109375 55.140625 
Q 45.0625 54.296875 48.78125 52.59375 
z
" id="DejaVuSans-63"/>
      <path d="M 4.890625 31.390625 
L 31.203125 31.390625 
L 31.203125 23.390625 
L 4.890625 23.390625 
z
" id="DejaVuSans-2d"/>
      <path d="M 34.1875 63.1875 
L 20.796875 26.90625 
L 47.609375 26.90625 
z
M 28.609375 72.90625 
L 39.796875 72.90625 
L 67.578125 0 
L 57.328125 0 
L 50.6875 18.703125 
L 17.828125 18.703125 
L 11.1875 0 
L 0.78125 0 
z
" id="DejaVuSans-41"/>
      <path d="M 8.6875 72.90625 
L 18.609375 72.90625 
L 18.609375 28.609375 
Q 18.609375 16.890625 22.84375 11.734375 
Q 27.09375 6.59375 36.625 6.59375 
Q 46.09375 6.59375 50.34375 11.734375 
Q 54.59375 16.890625 54.59375 28.609375 
L 54.59375 72.90625 
L 64.5 72.90625 
L 64.5 27.390625 
Q 64.5 13.140625 57.4375 5.859375 
Q 50.390625 -1.421875 36.625 -1.421875 
Q 22.796875 -1.421875 15.734375 5.859375 
Q 8.6875 13.140625 8.6875 27.390625 
z
" id="DejaVuSans-55"/>
      <path d="M 10.59375 45.40625 
L 73.1875 45.40625 
L 73.1875 37.203125 
L 10.59375 37.203125 
z
M 10.59375 25.484375 
L 73.1875 25.484375 
L 73.1875 17.1875 
L 10.59375 17.1875 
z
" id="DejaVuSans-3d"/>
      <path d="M 8.203125 72.90625 
L 55.078125 72.90625 
L 55.078125 68.703125 
L 28.609375 0 
L 18.3125 0 
L 43.21875 64.59375 
L 8.203125 64.59375 
z
" id="DejaVuSans-37"/>
     </defs>
     <g transform="translate(849.679219 684.351719)scale(0.13 -0.13)">
      <use xlink:href="#DejaVuSans-43"/>
      <use x="69.824219" xlink:href="#DejaVuSans-6c"/>
      <use x="97.607422" xlink:href="#DejaVuSans-69"/>
      <use x="125.390625" xlink:href="#DejaVuSans-6e"/>
      <use x="188.769531" xlink:href="#DejaVuSans-69"/>
      <use x="216.552734" xlink:href="#DejaVuSans-63"/>
      <use x="271.533203" xlink:href="#DejaVuSans-61"/>
      <use x="332.8125" xlink:href="#DejaVuSans-6c"/>
      <use x="360.595703" xlink:href="#DejaVuSans-20"/>
      <use x="392.382812" xlink:href="#DejaVuSans-2d"/>
      <use x="428.466797" xlink:href="#DejaVuSans-20"/>
      <use x="460.253906" xlink:href="#DejaVuSans-41"/>
      <use x="528.662109" xlink:href="#DejaVuSans-55"/>
      <use x="601.855469" xlink:href="#DejaVuSans-43"/>
      <use x="671.679688" xlink:href="#DejaVuSans-20"/>
      <use x="703.466797" xlink:href="#DejaVuSans-3d"/>
      <use x="787.255859" xlink:href="#DejaVuSans-20"/>
      <use x="819.042969" xlink:href="#DejaVuSans-30"/>
      <use x="882.666016" xlink:href="#DejaVuSans-2e"/>
      <use x="914.453125" xlink:href="#DejaVuSans-37"/>
      <use x="978.076172" xlink:href="#DejaVuSans-36"/>
      <use x="1041.699219" xlink:href="#DejaVuSans-34"/>
     </g>
    </g>
    <g id="line2d_23">
     <path d="M 813.279219 698.883281 
L 839.279219 698.883281 
" style="fill:none;stroke:#ff0000;stroke-linecap:square;stroke-width:3;"/>
    </g>
    <g id="line2d_24"/>
    <g id="text_16">
     <!-- Walking - AUC = 0.790 -->
     <defs>
      <path d="M 3.328125 72.90625 
L 13.28125 72.90625 
L 28.609375 11.28125 
L 43.890625 72.90625 
L 54.984375 72.90625 
L 70.3125 11.28125 
L 85.59375 72.90625 
L 95.609375 72.90625 
L 77.296875 0 
L 64.890625 0 
L 49.515625 63.28125 
L 33.984375 0 
L 21.578125 0 
z
" id="DejaVuSans-57"/>
      <path d="M 9.078125 75.984375 
L 18.109375 75.984375 
L 18.109375 31.109375 
L 44.921875 54.6875 
L 56.390625 54.6875 
L 27.390625 29.109375 
L 57.625 0 
L 45.90625 0 
L 18.109375 26.703125 
L 18.109375 0 
L 9.078125 0 
z
" id="DejaVuSans-6b"/>
      <path d="M 45.40625 27.984375 
Q 45.40625 37.75 41.375 43.109375 
Q 37.359375 48.484375 30.078125 48.484375 
Q 22.859375 48.484375 18.828125 43.109375 
Q 14.796875 37.75 14.796875 27.984375 
Q 14.796875 18.265625 18.828125 12.890625 
Q 22.859375 7.515625 30.078125 7.515625 
Q 37.359375 7.515625 41.375 12.890625 
Q 45.40625 18.265625 45.40625 27.984375 
z
M 54.390625 6.78125 
Q 54.390625 -7.171875 48.1875 -13.984375 
Q 42 -20.796875 29.203125 -20.796875 
Q 24.46875 -20.796875 20.265625 -20.09375 
Q 16.0625 -19.390625 12.109375 -17.921875 
L 12.109375 -9.1875 
Q 16.0625 -11.328125 19.921875 -12.34375 
Q 23.78125 -13.375 27.78125 -13.375 
Q 36.625 -13.375 41.015625 -8.765625 
Q 45.40625 -4.15625 45.40625 5.171875 
L 45.40625 9.625 
Q 42.625 4.78125 38.28125 2.390625 
Q 33.9375 0 27.875 0 
Q 17.828125 0 11.671875 7.65625 
Q 5.515625 15.328125 5.515625 27.984375 
Q 5.515625 40.671875 11.671875 48.328125 
Q 17.828125 56 27.875 56 
Q 33.9375 56 38.28125 53.609375 
Q 42.625 51.21875 45.40625 46.390625 
L 45.40625 54.6875 
L 54.390625 54.6875 
z
" id="DejaVuSans-67"/>
      <path d="M 10.984375 1.515625 
L 10.984375 10.5 
Q 14.703125 8.734375 18.5 7.8125 
Q 22.3125 6.890625 25.984375 6.890625 
Q 35.75 6.890625 40.890625 13.453125 
Q 46.046875 20.015625 46.78125 33.40625 
Q 43.953125 29.203125 39.59375 26.953125 
Q 35.25 24.703125 29.984375 24.703125 
Q 19.046875 24.703125 12.671875 31.3125 
Q 6.296875 37.9375 6.296875 49.421875 
Q 6.296875 60.640625 12.9375 67.421875 
Q 19.578125 74.21875 30.609375 74.21875 
Q 43.265625 74.21875 49.921875 64.515625 
Q 56.59375 54.828125 56.59375 36.375 
Q 56.59375 19.140625 48.40625 8.859375 
Q 40.234375 -1.421875 26.421875 -1.421875 
Q 22.703125 -1.421875 18.890625 -0.6875 
Q 15.09375 0.046875 10.984375 1.515625 
z
M 30.609375 32.421875 
Q 37.25 32.421875 41.125 36.953125 
Q 45.015625 41.5 45.015625 49.421875 
Q 45.015625 57.28125 41.125 61.84375 
Q 37.25 66.40625 30.609375 66.40625 
Q 23.96875 66.40625 20.09375 61.84375 
Q 16.21875 57.28125 16.21875 49.421875 
Q 16.21875 41.5 20.09375 36.953125 
Q 23.96875 32.421875 30.609375 32.421875 
z
" id="DejaVuSans-39"/>
     </defs>
     <g transform="translate(849.679219 703.433281)scale(0.13 -0.13)">
      <use xlink:href="#DejaVuSans-57"/>
      <use x="98.783203" xlink:href="#DejaVuSans-61"/>
      <use x="160.0625" xlink:href="#DejaVuSans-6c"/>
      <use x="187.845703" xlink:href="#DejaVuSans-6b"/>
      <use x="245.755859" xlink:href="#DejaVuSans-69"/>
      <use x="273.539062" xlink:href="#DejaVuSans-6e"/>
      <use x="336.917969" xlink:href="#DejaVuSans-67"/>
      <use x="400.394531" xlink:href="#DejaVuSans-20"/>
      <use x="432.181641" xlink:href="#DejaVuSans-2d"/>
      <use x="468.265625" xlink:href="#DejaVuSans-20"/>
      <use x="500.052734" xlink:href="#DejaVuSans-41"/>
      <use x="568.460938" xlink:href="#DejaVuSans-55"/>
      <use x="641.654297" xlink:href="#DejaVuSans-43"/>
      <use x="711.478516" xlink:href="#DejaVuSans-20"/>
      <use x="743.265625" xlink:href="#DejaVuSans-3d"/>
      <use x="827.054688" xlink:href="#DejaVuSans-20"/>
      <use x="858.841797" xlink:href="#DejaVuSans-30"/>
      <use x="922.464844" xlink:href="#DejaVuSans-2e"/>
      <use x="954.251953" xlink:href="#DejaVuSans-37"/>
      <use x="1017.875" xlink:href="#DejaVuSans-39"/>
      <use x="1081.498047" xlink:href="#DejaVuSans-30"/>
     </g>
    </g>
    <g id="line2d_25">
     <path d="M 813.279219 717.964844 
L 839.279219 717.964844 
" style="fill:none;stroke:#008000;stroke-linecap:square;stroke-width:3;"/>
    </g>
    <g id="line2d_26"/>
    <g id="text_17">
     <!-- Gross Motor - AUC = 0.581 -->
     <defs>
      <path d="M 59.515625 10.40625 
L 59.515625 29.984375 
L 43.40625 29.984375 
L 43.40625 38.09375 
L 69.28125 38.09375 
L 69.28125 6.78125 
Q 63.578125 2.734375 56.6875 0.65625 
Q 49.8125 -1.421875 42 -1.421875 
Q 24.90625 -1.421875 15.25 8.5625 
Q 5.609375 18.5625 5.609375 36.375 
Q 5.609375 54.25 15.25 64.234375 
Q 24.90625 74.21875 42 74.21875 
Q 49.125 74.21875 55.546875 72.453125 
Q 61.96875 70.703125 67.390625 67.28125 
L 67.390625 56.78125 
Q 61.921875 61.421875 55.765625 63.765625 
Q 49.609375 66.109375 42.828125 66.109375 
Q 29.4375 66.109375 22.71875 58.640625 
Q 16.015625 51.171875 16.015625 36.375 
Q 16.015625 21.625 22.71875 14.15625 
Q 29.4375 6.6875 42.828125 6.6875 
Q 48.046875 6.6875 52.140625 7.59375 
Q 56.25 8.5 59.515625 10.40625 
z
" id="DejaVuSans-47"/>
      <path d="M 9.8125 72.90625 
L 24.515625 72.90625 
L 43.109375 23.296875 
L 61.8125 72.90625 
L 76.515625 72.90625 
L 76.515625 0 
L 66.890625 0 
L 66.890625 64.015625 
L 48.09375 14.015625 
L 38.1875 14.015625 
L 19.390625 64.015625 
L 19.390625 0 
L 9.8125 0 
z
" id="DejaVuSans-4d"/>
      <path d="M 10.796875 72.90625 
L 49.515625 72.90625 
L 49.515625 64.59375 
L 19.828125 64.59375 
L 19.828125 46.734375 
Q 21.96875 47.46875 24.109375 47.828125 
Q 26.265625 48.1875 28.421875 48.1875 
Q 40.625 48.1875 47.75 41.5 
Q 54.890625 34.8125 54.890625 23.390625 
Q 54.890625 11.625 47.5625 5.09375 
Q 40.234375 -1.421875 26.90625 -1.421875 
Q 22.3125 -1.421875 17.546875 -0.640625 
Q 12.796875 0.140625 7.71875 1.703125 
L 7.71875 11.625 
Q 12.109375 9.234375 16.796875 8.0625 
Q 21.484375 6.890625 26.703125 6.890625 
Q 35.15625 6.890625 40.078125 11.328125 
Q 45.015625 15.765625 45.015625 23.390625 
Q 45.015625 31 40.078125 35.4375 
Q 35.15625 39.890625 26.703125 39.890625 
Q 22.75 39.890625 18.8125 39.015625 
Q 14.890625 38.140625 10.796875 36.28125 
z
" id="DejaVuSans-35"/>
     </defs>
     <g transform="translate(849.679219 722.514844)scale(0.13 -0.13)">
      <use xlink:href="#DejaVuSans-47"/>
      <use x="77.490234" xlink:href="#DejaVuSans-72"/>
      <use x="118.572266" xlink:href="#DejaVuSans-6f"/>
      <use x="179.753906" xlink:href="#DejaVuSans-73"/>
      <use x="231.853516" xlink:href="#DejaVuSans-73"/>
      <use x="283.953125" xlink:href="#DejaVuSans-20"/>
      <use x="315.740234" xlink:href="#DejaVuSans-4d"/>
      <use x="402.019531" xlink:href="#DejaVuSans-6f"/>
      <use x="463.201172" xlink:href="#DejaVuSans-74"/>
      <use x="502.410156" xlink:href="#DejaVuSans-6f"/>
      <use x="563.591797" xlink:href="#DejaVuSans-72"/>
      <use x="604.705078" xlink:href="#DejaVuSans-20"/>
      <use x="636.492188" xlink:href="#DejaVuSans-2d"/>
      <use x="672.576172" xlink:href="#DejaVuSans-20"/>
      <use x="704.363281" xlink:href="#DejaVuSans-41"/>
      <use x="772.771484" xlink:href="#DejaVuSans-55"/>
      <use x="845.964844" xlink:href="#DejaVuSans-43"/>
      <use x="915.789062" xlink:href="#DejaVuSans-20"/>
      <use x="947.576172" xlink:href="#DejaVuSans-3d"/>
      <use x="1031.365234" xlink:href="#DejaVuSans-20"/>
      <use x="1063.152344" xlink:href="#DejaVuSans-30"/>
      <use x="1126.775391" xlink:href="#DejaVuSans-2e"/>
      <use x="1158.5625" xlink:href="#DejaVuSans-35"/>
      <use x="1222.185547" xlink:href="#DejaVuSans-38"/>
      <use x="1285.808594" xlink:href="#DejaVuSans-31"/>
     </g>
    </g>
    <g id="line2d_27">
     <path d="M 813.279219 737.046406 
L 839.279219 737.046406 
" style="fill:none;stroke:#bf00bf;stroke-linecap:square;stroke-width:3;"/>
    </g>
    <g id="line2d_28"/>
    <g id="text_18">
     <!-- Fine Motor - AUC = 0.798 -->
     <g transform="translate(849.679219 741.596406)scale(0.13 -0.13)">
      <use xlink:href="#DejaVuSans-46"/>
      <use x="57.410156" xlink:href="#DejaVuSans-69"/>
      <use x="85.193359" xlink:href="#DejaVuSans-6e"/>
      <use x="148.572266" xlink:href="#DejaVuSans-65"/>
      <use x="210.095703" xlink:href="#DejaVuSans-20"/>
      <use x="241.882812" xlink:href="#DejaVuSans-4d"/>
      <use x="328.162109" xlink:href="#DejaVuSans-6f"/>
      <use x="389.34375" xlink:href="#DejaVuSans-74"/>
      <use x="428.552734" xlink:href="#DejaVuSans-6f"/>
      <use x="489.734375" xlink:href="#DejaVuSans-72"/>
      <use x="530.847656" xlink:href="#DejaVuSans-20"/>
      <use x="562.634766" xlink:href="#DejaVuSans-2d"/>
      <use x="598.71875" xlink:href="#DejaVuSans-20"/>
      <use x="630.505859" xlink:href="#DejaVuSans-41"/>
      <use x="698.914062" xlink:href="#DejaVuSans-55"/>
      <use x="772.107422" xlink:href="#DejaVuSans-43"/>
      <use x="841.931641" xlink:href="#DejaVuSans-20"/>
      <use x="873.71875" xlink:href="#DejaVuSans-3d"/>
      <use x="957.507812" xlink:href="#DejaVuSans-20"/>
      <use x="989.294922" xlink:href="#DejaVuSans-30"/>
      <use x="1052.917969" xlink:href="#DejaVuSans-2e"/>
      <use x="1084.705078" xlink:href="#DejaVuSans-37"/>
      <use x="1148.328125" xlink:href="#DejaVuSans-39"/>
      <use x="1211.951172" xlink:href="#DejaVuSans-38"/>
     </g>
    </g>
   </g>
  </g>
 </g>
 <defs>
  <clipPath id="p4667a797af">
   <rect height="652.32" width="892.8" x="144" y="103.68"/>
  </clipPath>
 </defs>
</svg>
