<?xml version="1.0" encoding="utf-8" standalone="no"?>
<!DOCTYPE svg PUBLIC "-//W3C//DTD SVG 1.1//EN"
  "http://www.w3.org/Graphics/SVG/1.1/DTD/svg11.dtd">
<!-- Created with matplotlib (http://matplotlib.org/) -->
<svg height="288pt" version="1.1" viewBox="0 0 432 288" width="432pt" xmlns="http://www.w3.org/2000/svg" xmlns:xlink="http://www.w3.org/1999/xlink">
 <defs>
  <style type="text/css">
*{stroke-linecap:butt;stroke-linejoin:round;}
  </style>
 </defs>
 <g id="figure_1">
  <g id="patch_1">
   <path d="M 0 288 
L 432 288 
L 432 0 
L 0 0 
z
" style="fill:#ffffff;"/>
  </g>
  <g id="axes_1">
   <g id="patch_2">
    <path d="M 54 252 
L 388.8 252 
L 388.8 34.56 
L 54 34.56 
z
" style="fill:#eaeaf2;"/>
   </g>
   <g id="matplotlib.axis_1">
    <g id="xtick_1">
     <g id="line2d_1">
      <path clip-path="url(#p4b10d186d6)" d="M 69.942857 252 
L 69.942857 34.56 
" style="fill:none;stroke:#ffffff;stroke-linecap:round;"/>
     </g>
     <g id="line2d_2"/>
     <g id="text_1">
      <!-- 0.0 -->
      <defs>
       <path d="M 51.703125 34.421875 
Q 51.703125 24.515625 49.828125 17.75 
Q 47.953125 10.984375 44.703125 6.8125 
Q 41.453125 2.640625 37.0625 0.828125 
Q 32.671875 -0.984375 27.6875 -0.984375 
Q 22.65625 -0.984375 18.3125 0.828125 
Q 13.96875 2.640625 10.765625 6.78125 
Q 7.5625 10.9375 5.734375 17.703125 
Q 3.90625 24.46875 3.90625 34.421875 
Q 3.90625 44.828125 5.734375 51.640625 
Q 7.5625 58.453125 10.78125 62.5 
Q 14.015625 66.546875 18.40625 68.1875 
Q 22.796875 69.828125 27.984375 69.828125 
Q 32.90625 69.828125 37.21875 68.1875 
Q 41.546875 66.546875 44.765625 62.5 
Q 48 58.453125 49.84375 51.640625 
Q 51.703125 44.828125 51.703125 34.421875 
M 42.78125 34.421875 
Q 42.78125 42.625 41.796875 48.0625 
Q 40.828125 53.515625 38.921875 56.765625 
Q 37.015625 60.015625 34.25 61.359375 
Q 31.5 62.703125 27.984375 62.703125 
Q 24.265625 62.703125 21.4375 61.328125 
Q 18.609375 59.96875 16.671875 56.71875 
Q 14.75 53.46875 13.765625 48.015625 
Q 12.796875 42.578125 12.796875 34.421875 
Q 12.796875 26.515625 13.796875 21.09375 
Q 14.796875 15.671875 16.71875 12.375 
Q 18.65625 9.078125 21.4375 7.640625 
Q 24.21875 6.203125 27.78125 6.203125 
Q 31.25 6.203125 34.03125 7.640625 
Q 36.8125 9.078125 38.734375 12.375 
Q 40.671875 15.671875 41.71875 21.09375 
Q 42.78125 26.515625 42.78125 34.421875 
" id="LiberationSans-30"/>
       <path d="M 9.125 0 
L 9.125 10.6875 
L 18.65625 10.6875 
L 18.65625 0 
z
" id="LiberationSans-2e"/>
      </defs>
      <g style="fill:#262626;" transform="translate(62.992857 266.246875)scale(0.1 -0.1)">
       <use xlink:href="#LiberationSans-30"/>
       <use x="55.615234" xlink:href="#LiberationSans-2e"/>
       <use x="83.398438" xlink:href="#LiberationSans-30"/>
      </g>
     </g>
    </g>
    <g id="xtick_2">
     <g id="line2d_3">
      <path clip-path="url(#p4b10d186d6)" d="M 133.714286 252 
L 133.714286 34.56 
" style="fill:none;stroke:#ffffff;stroke-linecap:round;"/>
     </g>
     <g id="line2d_4"/>
     <g id="text_2">
      <!-- 0.2 -->
      <defs>
       <path d="M 5.03125 0 
L 5.03125 6.203125 
Q 7.515625 11.921875 11.109375 16.28125 
Q 14.703125 20.65625 18.65625 24.1875 
Q 22.609375 27.734375 26.484375 30.765625 
Q 30.375 33.796875 33.5 36.8125 
Q 36.625 39.84375 38.546875 43.15625 
Q 40.484375 46.484375 40.484375 50.6875 
Q 40.484375 53.609375 39.59375 55.828125 
Q 38.71875 58.0625 37.0625 59.5625 
Q 35.40625 61.078125 33.078125 61.828125 
Q 30.765625 62.59375 27.9375 62.59375 
Q 25.296875 62.59375 22.96875 61.859375 
Q 20.65625 61.140625 18.84375 59.671875 
Q 17.046875 58.203125 15.890625 56.03125 
Q 14.75 53.859375 14.40625 50.984375 
L 5.421875 51.8125 
Q 5.859375 55.515625 7.46875 58.78125 
Q 9.078125 62.0625 11.90625 64.53125 
Q 14.75 67 18.71875 68.40625 
Q 22.703125 69.828125 27.9375 69.828125 
Q 33.0625 69.828125 37.0625 68.609375 
Q 41.0625 67.390625 43.8125 64.984375 
Q 46.578125 62.59375 48.046875 59.078125 
Q 49.515625 55.5625 49.515625 50.984375 
Q 49.515625 47.515625 48.265625 44.390625 
Q 47.015625 41.265625 44.9375 38.421875 
Q 42.875 35.59375 40.140625 32.953125 
Q 37.40625 30.328125 34.421875 27.8125 
Q 31.453125 25.296875 28.421875 22.828125 
Q 25.390625 20.359375 22.71875 17.859375 
Q 20.0625 15.375 17.96875 12.8125 
Q 15.875 10.25 14.703125 7.46875 
L 50.59375 7.46875 
L 50.59375 0 
z
" id="LiberationSans-32"/>
      </defs>
      <g style="fill:#262626;" transform="translate(126.764286 266.246875)scale(0.1 -0.1)">
       <use xlink:href="#LiberationSans-30"/>
       <use x="55.615234" xlink:href="#LiberationSans-2e"/>
       <use x="83.398438" xlink:href="#LiberationSans-32"/>
      </g>
     </g>
    </g>
    <g id="xtick_3">
     <g id="line2d_5">
      <path clip-path="url(#p4b10d186d6)" d="M 197.485714 252 
L 197.485714 34.56 
" style="fill:none;stroke:#ffffff;stroke-linecap:round;"/>
     </g>
     <g id="line2d_6"/>
     <g id="text_3">
      <!-- 0.4 -->
      <defs>
       <path d="M 43.015625 15.578125 
L 43.015625 0 
L 34.71875 0 
L 34.71875 15.578125 
L 2.296875 15.578125 
L 2.296875 22.40625 
L 33.796875 68.796875 
L 43.015625 68.796875 
L 43.015625 22.515625 
L 52.6875 22.515625 
L 52.6875 15.578125 
z
M 34.71875 58.890625 
Q 34.625 58.640625 34.234375 57.9375 
Q 33.84375 57.234375 33.34375 56.34375 
Q 32.859375 55.46875 32.34375 54.5625 
Q 31.84375 53.65625 31.453125 53.078125 
L 13.8125 27.09375 
Q 13.578125 26.703125 13.109375 26.0625 
Q 12.640625 25.4375 12.15625 24.78125 
Q 11.671875 24.125 11.171875 23.484375 
Q 10.6875 22.859375 10.40625 22.515625 
L 34.71875 22.515625 
z
" id="LiberationSans-34"/>
      </defs>
      <g style="fill:#262626;" transform="translate(190.535714 266.246875)scale(0.1 -0.1)">
       <use xlink:href="#LiberationSans-30"/>
       <use x="55.615234" xlink:href="#LiberationSans-2e"/>
       <use x="83.398438" xlink:href="#LiberationSans-34"/>
      </g>
     </g>
    </g>
    <g id="xtick_4">
     <g id="line2d_7">
      <path clip-path="url(#p4b10d186d6)" d="M 261.257143 252 
L 261.257143 34.56 
" style="fill:none;stroke:#ffffff;stroke-linecap:round;"/>
     </g>
     <g id="line2d_8"/>
     <g id="text_4">
      <!-- 0.6 -->
      <defs>
       <path d="M 51.21875 22.515625 
Q 51.21875 17.328125 49.78125 13 
Q 48.34375 8.6875 45.53125 5.578125 
Q 42.71875 2.484375 38.5625 0.75 
Q 34.421875 -0.984375 29 -0.984375 
Q 23 -0.984375 18.5 1.3125 
Q 14.015625 3.609375 11.03125 7.921875 
Q 8.0625 12.25 6.5625 18.53125 
Q 5.078125 24.8125 5.078125 32.8125 
Q 5.078125 42 6.765625 48.921875 
Q 8.453125 55.859375 11.625 60.5 
Q 14.796875 65.140625 19.359375 67.484375 
Q 23.921875 69.828125 29.6875 69.828125 
Q 33.203125 69.828125 36.28125 69.09375 
Q 39.359375 68.359375 41.875 66.71875 
Q 44.390625 65.09375 46.28125 62.40625 
Q 48.1875 59.71875 49.3125 55.8125 
L 40.921875 54.296875 
Q 39.546875 58.734375 36.546875 60.71875 
Q 33.546875 62.703125 29.59375 62.703125 
Q 25.984375 62.703125 23.046875 60.984375 
Q 20.125 59.28125 18.0625 55.875 
Q 16.015625 52.484375 14.90625 47.359375 
Q 13.8125 42.234375 13.8125 35.40625 
Q 16.21875 39.84375 20.5625 42.15625 
Q 24.90625 44.484375 30.515625 44.484375 
Q 35.203125 44.484375 39.015625 42.96875 
Q 42.828125 41.453125 45.53125 38.59375 
Q 48.25 35.75 49.734375 31.671875 
Q 51.21875 27.59375 51.21875 22.515625 
M 42.28125 22.125 
Q 42.28125 25.6875 41.40625 28.5625 
Q 40.53125 31.453125 38.765625 33.46875 
Q 37.015625 35.5 34.421875 36.59375 
Q 31.84375 37.703125 28.421875 37.703125 
Q 26.03125 37.703125 23.578125 36.984375 
Q 21.140625 36.28125 19.15625 34.6875 
Q 17.1875 33.109375 15.9375 30.515625 
Q 14.703125 27.9375 14.703125 24.21875 
Q 14.703125 20.40625 15.671875 17.109375 
Q 16.65625 13.8125 18.484375 11.375 
Q 20.3125 8.9375 22.890625 7.515625 
Q 25.484375 6.109375 28.71875 6.109375 
Q 31.890625 6.109375 34.40625 7.203125 
Q 36.921875 8.296875 38.671875 10.375 
Q 40.4375 12.453125 41.359375 15.421875 
Q 42.28125 18.40625 42.28125 22.125 
" id="LiberationSans-36"/>
      </defs>
      <g style="fill:#262626;" transform="translate(254.307143 266.246875)scale(0.1 -0.1)">
       <use xlink:href="#LiberationSans-30"/>
       <use x="55.615234" xlink:href="#LiberationSans-2e"/>
       <use x="83.398438" xlink:href="#LiberationSans-36"/>
      </g>
     </g>
    </g>
    <g id="xtick_5">
     <g id="line2d_9">
      <path clip-path="url(#p4b10d186d6)" d="M 325.028571 252 
L 325.028571 34.56 
" style="fill:none;stroke:#ffffff;stroke-linecap:round;"/>
     </g>
     <g id="line2d_10"/>
     <g id="text_5">
      <!-- 0.8 -->
      <defs>
       <path d="M 51.265625 19.1875 
Q 51.265625 14.796875 49.875 11.109375 
Q 48.484375 7.421875 45.625 4.734375 
Q 42.78125 2.046875 38.328125 0.53125 
Q 33.890625 -0.984375 27.828125 -0.984375 
Q 21.78125 -0.984375 17.359375 0.53125 
Q 12.9375 2.046875 10.03125 4.703125 
Q 7.125 7.375 5.734375 11.0625 
Q 4.34375 14.75 4.34375 19.09375 
Q 4.34375 22.859375 5.484375 25.78125 
Q 6.640625 28.71875 8.5625 30.828125 
Q 10.5 32.953125 12.96875 34.25 
Q 15.4375 35.546875 18.0625 35.984375 
L 18.0625 36.1875 
Q 15.1875 36.859375 12.90625 38.375 
Q 10.640625 39.890625 9.09375 42.015625 
Q 7.5625 44.140625 6.75 46.71875 
Q 5.953125 49.3125 5.953125 52.203125 
Q 5.953125 55.8125 7.34375 59 
Q 8.734375 62.203125 11.46875 64.625 
Q 14.203125 67.046875 18.25 68.4375 
Q 22.3125 69.828125 27.640625 69.828125 
Q 33.25 69.828125 37.375 68.40625 
Q 41.5 67 44.203125 64.578125 
Q 46.921875 62.15625 48.234375 58.9375 
Q 49.5625 55.71875 49.5625 52.09375 
Q 49.5625 49.265625 48.75 46.671875 
Q 47.953125 44.09375 46.40625 41.96875 
Q 44.875 39.84375 42.59375 38.34375 
Q 40.328125 36.859375 37.359375 36.28125 
L 37.359375 36.078125 
Q 40.328125 35.59375 42.859375 34.296875 
Q 45.40625 33.015625 47.265625 30.890625 
Q 49.125 28.765625 50.1875 25.828125 
Q 51.265625 22.90625 51.265625 19.1875 
M 40.4375 51.609375 
Q 40.4375 54.203125 39.765625 56.34375 
Q 39.109375 58.5 37.59375 60.03125 
Q 36.078125 61.578125 33.640625 62.421875 
Q 31.203125 63.28125 27.640625 63.28125 
Q 24.171875 63.28125 21.78125 62.421875 
Q 19.390625 61.578125 17.84375 60.03125 
Q 16.3125 58.5 15.625 56.34375 
Q 14.9375 54.203125 14.9375 51.609375 
Q 14.9375 49.5625 15.46875 47.40625 
Q 16.015625 45.265625 17.421875 43.5 
Q 18.84375 41.75 21.328125 40.625 
Q 23.828125 39.5 27.734375 39.5 
Q 31.890625 39.5 34.40625 40.625 
Q 36.921875 41.75 38.25 43.5 
Q 39.59375 45.265625 40.015625 47.40625 
Q 40.4375 49.5625 40.4375 51.609375 
M 42.140625 20.015625 
Q 42.140625 22.515625 41.453125 24.828125 
Q 40.765625 27.15625 39.109375 28.9375 
Q 37.453125 30.71875 34.640625 31.8125 
Q 31.84375 32.90625 27.640625 32.90625 
Q 23.78125 32.90625 21.0625 31.8125 
Q 18.359375 30.71875 16.671875 28.90625 
Q 14.984375 27.09375 14.203125 24.71875 
Q 13.421875 22.359375 13.421875 19.828125 
Q 13.421875 16.65625 14.203125 14.03125 
Q 14.984375 11.421875 16.6875 9.546875 
Q 18.40625 7.671875 21.1875 6.640625 
Q 23.96875 5.609375 27.9375 5.609375 
Q 31.9375 5.609375 34.671875 6.640625 
Q 37.40625 7.671875 39.0625 9.546875 
Q 40.71875 11.421875 41.421875 14.078125 
Q 42.140625 16.75 42.140625 20.015625 
" id="LiberationSans-38"/>
      </defs>
      <g style="fill:#262626;" transform="translate(318.078571 266.246875)scale(0.1 -0.1)">
       <use xlink:href="#LiberationSans-30"/>
       <use x="55.615234" xlink:href="#LiberationSans-2e"/>
       <use x="83.398438" xlink:href="#LiberationSans-38"/>
      </g>
     </g>
    </g>
    <g id="xtick_6">
     <g id="line2d_11">
      <path clip-path="url(#p4b10d186d6)" d="M 388.8 252 
L 388.8 34.56 
" style="fill:none;stroke:#ffffff;stroke-linecap:round;"/>
     </g>
     <g id="line2d_12"/>
     <g id="text_6">
      <!-- 1.0 -->
      <defs>
       <path d="M 7.625 0 
L 7.625 7.46875 
L 25.140625 7.46875 
L 25.140625 60.40625 
L 9.625 49.3125 
L 9.625 57.625 
L 25.875 68.796875 
L 33.984375 68.796875 
L 33.984375 7.46875 
L 50.734375 7.46875 
L 50.734375 0 
z
" id="LiberationSans-31"/>
      </defs>
      <g style="fill:#262626;" transform="translate(381.85 266.246875)scale(0.1 -0.1)">
       <use xlink:href="#LiberationSans-31"/>
       <use x="55.615234" xlink:href="#LiberationSans-2e"/>
       <use x="83.398438" xlink:href="#LiberationSans-30"/>
      </g>
     </g>
    </g>
    <g id="text_7">
     <!-- False Positive Rate -->
     <defs>
      <path d="M 17.53125 61.1875 
L 17.53125 35.59375 
L 55.90625 35.59375 
L 55.90625 27.875 
L 17.53125 27.875 
L 17.53125 0 
L 8.203125 0 
L 8.203125 68.796875 
L 57.078125 68.796875 
L 57.078125 61.1875 
z
" id="LiberationSans-46"/>
      <path d="M 20.21875 -0.984375 
Q 12.25 -0.984375 8.25 3.21875 
Q 4.25 7.421875 4.25 14.75 
Q 4.25 19.96875 6.21875 23.3125 
Q 8.203125 26.65625 11.390625 28.5625 
Q 14.59375 30.46875 18.6875 31.203125 
Q 22.796875 31.9375 27.046875 32.03125 
L 38.921875 32.234375 
L 38.921875 35.109375 
Q 38.921875 38.375 38.234375 40.671875 
Q 37.546875 42.96875 36.125 44.375 
Q 34.71875 45.796875 32.59375 46.453125 
Q 30.46875 47.125 27.59375 47.125 
Q 25.046875 47.125 23 46.75 
Q 20.953125 46.390625 19.4375 45.4375 
Q 17.921875 44.484375 16.984375 42.84375 
Q 16.0625 41.21875 15.765625 38.71875 
L 6.59375 39.546875 
Q 7.078125 42.671875 8.4375 45.28125 
Q 9.8125 47.90625 12.328125 49.796875 
Q 14.84375 51.703125 18.625 52.75 
Q 22.40625 53.8125 27.78125 53.8125 
Q 37.75 53.8125 42.765625 49.234375 
Q 47.796875 44.671875 47.796875 36.03125 
L 47.796875 13.28125 
Q 47.796875 9.375 48.828125 7.390625 
Q 49.859375 5.421875 52.734375 5.421875 
Q 53.46875 5.421875 54.203125 5.515625 
Q 54.9375 5.609375 55.609375 5.765625 
L 55.609375 0.296875 
Q 53.953125 -0.09375 52.3125 -0.28125 
Q 50.6875 -0.484375 48.828125 -0.484375 
Q 46.34375 -0.484375 44.5625 0.171875 
Q 42.78125 0.828125 41.65625 2.171875 
Q 40.53125 3.515625 39.9375 5.484375 
Q 39.359375 7.46875 39.203125 10.109375 
L 38.921875 10.109375 
Q 37.5 7.5625 35.8125 5.515625 
Q 34.125 3.46875 31.875 2.03125 
Q 29.640625 0.59375 26.78125 -0.1875 
Q 23.921875 -0.984375 20.21875 -0.984375 
M 22.21875 5.609375 
Q 26.421875 5.609375 29.5625 7.140625 
Q 32.71875 8.6875 34.78125 11.078125 
Q 36.859375 13.484375 37.890625 16.3125 
Q 38.921875 19.140625 38.921875 21.734375 
L 38.921875 26.078125 
L 29.296875 25.875 
Q 26.078125 25.828125 23.171875 25.40625 
Q 20.265625 25 18.0625 23.78125 
Q 15.875 22.5625 14.578125 20.359375 
Q 13.28125 18.171875 13.28125 14.59375 
Q 13.28125 10.296875 15.59375 7.953125 
Q 17.921875 5.609375 22.21875 5.609375 
" id="LiberationSans-61"/>
      <path d="M 6.734375 0 
L 6.734375 72.46875 
L 15.53125 72.46875 
L 15.53125 0 
z
" id="LiberationSans-6c"/>
      <path d="M 46.390625 14.59375 
Q 46.390625 10.890625 44.9375 7.984375 
Q 43.5 5.078125 40.765625 3.09375 
Q 38.03125 1.125 34.046875 0.0625 
Q 30.078125 -0.984375 24.953125 -0.984375 
Q 20.359375 -0.984375 16.671875 -0.265625 
Q 12.984375 0.4375 10.203125 2 
Q 7.421875 3.5625 5.53125 6.125 
Q 3.65625 8.6875 2.78125 12.40625 
L 10.546875 13.921875 
Q 11.671875 9.671875 15.1875 7.6875 
Q 18.703125 5.71875 24.953125 5.71875 
Q 27.78125 5.71875 30.140625 6.109375 
Q 32.515625 6.5 34.21875 7.453125 
Q 35.9375 8.40625 36.890625 9.984375 
Q 37.84375 11.578125 37.84375 13.921875 
Q 37.84375 16.3125 36.71875 17.84375 
Q 35.59375 19.390625 33.59375 20.40625 
Q 31.59375 21.4375 28.734375 22.1875 
Q 25.875 22.953125 22.46875 23.875 
Q 19.28125 24.703125 16.15625 25.734375 
Q 13.03125 26.765625 10.515625 28.4375 
Q 8.015625 30.125 6.453125 32.609375 
Q 4.890625 35.109375 4.890625 38.875 
Q 4.890625 46.09375 10.03125 49.875 
Q 15.1875 53.65625 25.046875 53.65625 
Q 33.796875 53.65625 38.9375 50.578125 
Q 44.09375 47.515625 45.453125 40.71875 
L 37.546875 39.75 
Q 37.109375 41.796875 35.9375 43.1875 
Q 34.765625 44.578125 33.109375 45.4375 
Q 31.453125 46.296875 29.375 46.65625 
Q 27.296875 47.015625 25.046875 47.015625 
Q 19.09375 47.015625 16.25 45.203125 
Q 13.421875 43.40625 13.421875 39.75 
Q 13.421875 37.59375 14.46875 36.203125 
Q 15.53125 34.8125 17.40625 33.859375 
Q 19.28125 32.90625 21.921875 32.203125 
Q 24.5625 31.5 27.734375 30.71875 
Q 29.828125 30.171875 32.03125 29.5625 
Q 34.234375 28.953125 36.296875 28.09375 
Q 38.375 27.25 40.203125 26.09375 
Q 42.046875 24.953125 43.40625 23.34375 
Q 44.78125 21.734375 45.578125 19.578125 
Q 46.390625 17.4375 46.390625 14.59375 
" id="LiberationSans-73"/>
      <path d="M 13.484375 24.5625 
Q 13.484375 20.40625 14.328125 16.90625 
Q 15.1875 13.421875 16.96875 10.90625 
Q 18.75 8.40625 21.53125 7 
Q 24.3125 5.609375 28.21875 5.609375 
Q 33.9375 5.609375 37.375 7.90625 
Q 40.828125 10.203125 42.046875 13.71875 
L 49.75 11.53125 
Q 48.921875 9.328125 47.4375 7.109375 
Q 45.953125 4.890625 43.453125 3.09375 
Q 40.96875 1.3125 37.234375 0.15625 
Q 33.5 -0.984375 28.21875 -0.984375 
Q 16.5 -0.984375 10.375 6 
Q 4.25 12.984375 4.25 26.765625 
Q 4.25 34.1875 6.09375 39.328125 
Q 7.953125 44.484375 11.171875 47.703125 
Q 14.40625 50.921875 18.703125 52.359375 
Q 23 53.8125 27.875 53.8125 
Q 34.515625 53.8125 38.984375 51.65625 
Q 43.453125 49.515625 46.15625 45.71875 
Q 48.875 41.9375 50.015625 36.8125 
Q 51.171875 31.6875 51.171875 25.734375 
L 51.171875 24.5625 
z
M 42.09375 31.296875 
Q 41.359375 39.65625 37.84375 43.484375 
Q 34.328125 47.3125 27.734375 47.3125 
Q 25.53125 47.3125 23.109375 46.609375 
Q 20.703125 45.90625 18.65625 44.09375 
Q 16.609375 42.28125 15.1875 39.171875 
Q 13.765625 36.078125 13.578125 31.296875 
z
" id="LiberationSans-65"/>
      <path id="LiberationSans-20"/>
      <path d="M 61.421875 48.09375 
Q 61.421875 43.609375 59.9375 39.71875 
Q 58.453125 35.84375 55.5 32.984375 
Q 52.546875 30.125 48.09375 28.46875 
Q 43.65625 26.8125 37.75 26.8125 
L 17.53125 26.8125 
L 17.53125 0 
L 8.203125 0 
L 8.203125 68.796875 
L 37.15625 68.796875 
Q 43.265625 68.796875 47.796875 67.3125 
Q 52.34375 65.828125 55.375 63.109375 
Q 58.40625 60.40625 59.90625 56.5625 
Q 61.421875 52.734375 61.421875 48.09375 
M 52.046875 48 
Q 52.046875 54.546875 48.046875 57.9375 
Q 44.046875 61.328125 36.03125 61.328125 
L 17.53125 61.328125 
L 17.53125 34.1875 
L 36.421875 34.1875 
Q 44.484375 34.1875 48.265625 37.75 
Q 52.046875 41.3125 52.046875 48 
" id="LiberationSans-50"/>
      <path d="M 51.421875 26.46875 
Q 51.421875 12.59375 45.3125 5.796875 
Q 39.203125 -0.984375 27.59375 -0.984375 
Q 22.078125 -0.984375 17.71875 0.671875 
Q 13.375 2.34375 10.375 5.765625 
Q 7.375 9.1875 5.78125 14.328125 
Q 4.203125 19.484375 4.203125 26.46875 
Q 4.203125 53.8125 27.875 53.8125 
Q 34.03125 53.8125 38.5 52.09375 
Q 42.96875 50.390625 45.828125 46.96875 
Q 48.6875 43.5625 50.046875 38.421875 
Q 51.421875 33.296875 51.421875 26.46875 
M 42.1875 26.46875 
Q 42.1875 32.625 41.234375 36.625 
Q 40.28125 40.625 38.453125 43.015625 
Q 36.625 45.40625 33.984375 46.359375 
Q 31.34375 47.3125 28.03125 47.3125 
Q 24.65625 47.3125 21.9375 46.3125 
Q 19.234375 45.3125 17.328125 42.890625 
Q 15.4375 40.484375 14.421875 36.46875 
Q 13.421875 32.46875 13.421875 26.46875 
Q 13.421875 20.3125 14.5 16.28125 
Q 15.578125 12.25 17.453125 9.859375 
Q 19.34375 7.46875 21.90625 6.484375 
Q 24.46875 5.515625 27.484375 5.515625 
Q 30.859375 5.515625 33.59375 6.46875 
Q 36.328125 7.421875 38.234375 9.8125 
Q 40.140625 12.203125 41.15625 16.25 
Q 42.1875 20.3125 42.1875 26.46875 
" id="LiberationSans-6f"/>
      <path d="M 6.6875 64.0625 
L 6.6875 72.46875 
L 15.484375 72.46875 
L 15.484375 64.0625 
z
M 6.6875 0 
L 6.6875 52.828125 
L 15.484375 52.828125 
L 15.484375 0 
z
" id="LiberationSans-69"/>
      <path d="M 27.046875 0.390625 
Q 25.046875 -0.140625 22.96875 -0.453125 
Q 20.90625 -0.78125 18.171875 -0.78125 
Q 7.625 -0.78125 7.625 11.1875 
L 7.625 46.4375 
L 1.515625 46.4375 
L 1.515625 52.828125 
L 7.953125 52.828125 
L 10.546875 64.65625 
L 16.40625 64.65625 
L 16.40625 52.828125 
L 26.171875 52.828125 
L 26.171875 46.4375 
L 16.40625 46.4375 
L 16.40625 13.09375 
Q 16.40625 9.28125 17.640625 7.734375 
Q 18.890625 6.203125 21.96875 6.203125 
Q 23.25 6.203125 24.4375 6.390625 
Q 25.640625 6.59375 27.046875 6.890625 
z
" id="LiberationSans-74"/>
      <path d="M 29.9375 0 
L 19.53125 0 
L 0.34375 52.828125 
L 9.71875 52.828125 
L 21.34375 18.453125 
Q 21.6875 17.390625 22.140625 15.84375 
Q 22.609375 14.3125 23.09375 12.640625 
Q 23.578125 10.984375 24 9.4375 
Q 24.421875 7.90625 24.703125 6.890625 
Q 25 7.90625 25.453125 9.4375 
Q 25.921875 10.984375 26.40625 12.59375 
Q 26.90625 14.203125 27.421875 15.734375 
Q 27.9375 17.28125 28.328125 18.359375 
L 40.328125 52.828125 
L 49.65625 52.828125 
z
" id="LiberationSans-76"/>
      <path d="M 56.84375 0 
L 38.96875 28.5625 
L 17.53125 28.5625 
L 17.53125 0 
L 8.203125 0 
L 8.203125 68.796875 
L 40.578125 68.796875 
Q 46.4375 68.796875 50.953125 67.453125 
Q 55.46875 66.109375 58.546875 63.5625 
Q 61.625 61.03125 63.234375 57.375 
Q 64.84375 53.71875 64.84375 49.125 
Q 64.84375 45.84375 63.890625 42.671875 
Q 62.9375 39.5 60.890625 36.859375 
Q 58.84375 34.234375 55.65625 32.328125 
Q 52.484375 30.421875 48.046875 29.640625 
L 67.578125 0 
z
M 55.46875 49.03125 
Q 55.46875 52.15625 54.390625 54.4375 
Q 53.328125 56.734375 51.265625 58.265625 
Q 49.21875 59.8125 46.28125 60.5625 
Q 43.359375 61.328125 39.65625 61.328125 
L 17.53125 61.328125 
L 17.53125 35.9375 
L 40.046875 35.9375 
Q 44.046875 35.9375 46.96875 36.9375 
Q 49.90625 37.9375 51.78125 39.6875 
Q 53.65625 41.453125 54.5625 43.84375 
Q 55.46875 46.234375 55.46875 49.03125 
" id="LiberationSans-52"/>
     </defs>
     <g style="fill:#262626;" transform="translate(152.485 283.916875)scale(0.16 -0.16)">
      <use xlink:href="#LiberationSans-46"/>
      <use x="61.083984" xlink:href="#LiberationSans-61"/>
      <use x="116.699219" xlink:href="#LiberationSans-6c"/>
      <use x="138.916016" xlink:href="#LiberationSans-73"/>
      <use x="188.916016" xlink:href="#LiberationSans-65"/>
      <use x="244.53125" xlink:href="#LiberationSans-20"/>
      <use x="272.314453" xlink:href="#LiberationSans-50"/>
      <use x="339.013672" xlink:href="#LiberationSans-6f"/>
      <use x="394.628906" xlink:href="#LiberationSans-73"/>
      <use x="444.628906" xlink:href="#LiberationSans-69"/>
      <use x="466.845703" xlink:href="#LiberationSans-74"/>
      <use x="494.628906" xlink:href="#LiberationSans-69"/>
      <use x="516.845703" xlink:href="#LiberationSans-76"/>
      <use x="566.845703" xlink:href="#LiberationSans-65"/>
      <use x="622.460938" xlink:href="#LiberationSans-20"/>
      <use x="650.244141" xlink:href="#LiberationSans-52"/>
      <use x="722.460938" xlink:href="#LiberationSans-61"/>
      <use x="778.076172" xlink:href="#LiberationSans-74"/>
      <use x="805.859375" xlink:href="#LiberationSans-65"/>
     </g>
    </g>
   </g>
   <g id="matplotlib.axis_2">
    <g id="ytick_1">
     <g id="line2d_13">
      <path clip-path="url(#p4b10d186d6)" d="M 54 252 
L 388.8 252 
" style="fill:none;stroke:#ffffff;stroke-linecap:round;"/>
     </g>
     <g id="line2d_14"/>
     <g id="text_8">
      <!-- 0.0 -->
      <g style="fill:#262626;" transform="translate(33.1 255.623437)scale(0.1 -0.1)">
       <use xlink:href="#LiberationSans-30"/>
       <use x="55.615234" xlink:href="#LiberationSans-2e"/>
       <use x="83.398438" xlink:href="#LiberationSans-30"/>
      </g>
     </g>
    </g>
    <g id="ytick_2">
     <g id="line2d_15">
      <path clip-path="url(#p4b10d186d6)" d="M 54 210.582857 
L 388.8 210.582857 
" style="fill:none;stroke:#ffffff;stroke-linecap:round;"/>
     </g>
     <g id="line2d_16"/>
     <g id="text_9">
      <!-- 0.2 -->
      <g style="fill:#262626;" transform="translate(33.1 214.206295)scale(0.1 -0.1)">
       <use xlink:href="#LiberationSans-30"/>
       <use x="55.615234" xlink:href="#LiberationSans-2e"/>
       <use x="83.398438" xlink:href="#LiberationSans-32"/>
      </g>
     </g>
    </g>
    <g id="ytick_3">
     <g id="line2d_17">
      <path clip-path="url(#p4b10d186d6)" d="M 54 169.165714 
L 388.8 169.165714 
" style="fill:none;stroke:#ffffff;stroke-linecap:round;"/>
     </g>
     <g id="line2d_18"/>
     <g id="text_10">
      <!-- 0.4 -->
      <g style="fill:#262626;" transform="translate(33.1 172.789152)scale(0.1 -0.1)">
       <use xlink:href="#LiberationSans-30"/>
       <use x="55.615234" xlink:href="#LiberationSans-2e"/>
       <use x="83.398438" xlink:href="#LiberationSans-34"/>
      </g>
     </g>
    </g>
    <g id="ytick_4">
     <g id="line2d_19">
      <path clip-path="url(#p4b10d186d6)" d="M 54 127.748571 
L 388.8 127.748571 
" style="fill:none;stroke:#ffffff;stroke-linecap:round;"/>
     </g>
     <g id="line2d_20"/>
     <g id="text_11">
      <!-- 0.6 -->
      <g style="fill:#262626;" transform="translate(33.1 131.372009)scale(0.1 -0.1)">
       <use xlink:href="#LiberationSans-30"/>
       <use x="55.615234" xlink:href="#LiberationSans-2e"/>
       <use x="83.398438" xlink:href="#LiberationSans-36"/>
      </g>
     </g>
    </g>
    <g id="ytick_5">
     <g id="line2d_21">
      <path clip-path="url(#p4b10d186d6)" d="M 54 86.331429 
L 388.8 86.331429 
" style="fill:none;stroke:#ffffff;stroke-linecap:round;"/>
     </g>
     <g id="line2d_22"/>
     <g id="text_12">
      <!-- 0.8 -->
      <g style="fill:#262626;" transform="translate(33.1 89.954866)scale(0.1 -0.1)">
       <use xlink:href="#LiberationSans-30"/>
       <use x="55.615234" xlink:href="#LiberationSans-2e"/>
       <use x="83.398438" xlink:href="#LiberationSans-38"/>
      </g>
     </g>
    </g>
    <g id="ytick_6">
     <g id="line2d_23">
      <path clip-path="url(#p4b10d186d6)" d="M 54 44.914286 
L 388.8 44.914286 
" style="fill:none;stroke:#ffffff;stroke-linecap:round;"/>
     </g>
     <g id="line2d_24"/>
     <g id="text_13">
      <!-- 1.0 -->
      <g style="fill:#262626;" transform="translate(33.1 48.537723)scale(0.1 -0.1)">
       <use xlink:href="#LiberationSans-31"/>
       <use x="55.615234" xlink:href="#LiberationSans-2e"/>
       <use x="83.398438" xlink:href="#LiberationSans-30"/>
      </g>
     </g>
    </g>
    <g id="text_14">
     <!-- True Positive Rate -->
     <defs>
      <path d="M 35.15625 61.1875 
L 35.15625 0 
L 25.875 0 
L 25.875 61.1875 
L 2.25 61.1875 
L 2.25 68.796875 
L 58.796875 68.796875 
L 58.796875 61.1875 
z
" id="LiberationSans-54"/>
      <path d="M 6.9375 0 
L 6.9375 40.53125 
Q 6.9375 42.1875 6.90625 43.921875 
Q 6.890625 45.65625 6.828125 47.265625 
Q 6.78125 48.875 6.734375 50.28125 
Q 6.6875 51.703125 6.640625 52.828125 
L 14.9375 52.828125 
Q 14.984375 51.703125 15.0625 50.265625 
Q 15.140625 48.828125 15.203125 47.3125 
Q 15.28125 45.796875 15.296875 44.40625 
Q 15.328125 43.015625 15.328125 42.046875 
L 15.53125 42.046875 
Q 16.453125 45.0625 17.5 47.28125 
Q 18.5625 49.515625 19.96875 50.953125 
Q 21.390625 52.390625 23.34375 53.09375 
Q 25.296875 53.8125 28.078125 53.8125 
Q 29.15625 53.8125 30.125 53.640625 
Q 31.109375 53.46875 31.640625 53.328125 
L 31.640625 45.265625 
Q 30.765625 45.515625 29.59375 45.625 
Q 28.421875 45.75 26.953125 45.75 
Q 23.921875 45.75 21.796875 44.375 
Q 19.671875 43.015625 18.328125 40.59375 
Q 17 38.1875 16.359375 34.84375 
Q 15.71875 31.5 15.71875 27.546875 
L 15.71875 0 
z
" id="LiberationSans-72"/>
      <path d="M 15.328125 52.828125 
L 15.328125 19.34375 
Q 15.328125 15.484375 15.890625 12.890625 
Q 16.453125 10.296875 17.71875 8.703125 
Q 19 7.125 21.0625 6.46875 
Q 23.140625 5.8125 26.21875 5.8125 
Q 29.34375 5.8125 31.859375 6.90625 
Q 34.375 8.015625 36.15625 10.078125 
Q 37.9375 12.15625 38.90625 15.203125 
Q 39.890625 18.265625 39.890625 22.21875 
L 39.890625 52.828125 
L 48.6875 52.828125 
L 48.6875 11.28125 
Q 48.6875 9.625 48.703125 7.78125 
Q 48.734375 5.953125 48.78125 4.3125 
Q 48.828125 2.6875 48.875 1.515625 
Q 48.921875 0.34375 48.96875 0 
L 40.671875 0 
Q 40.625 0.25 40.578125 1.3125 
Q 40.53125 2.390625 40.453125 3.78125 
Q 40.375 5.171875 40.328125 6.609375 
Q 40.28125 8.0625 40.28125 9.03125 
L 40.140625 9.03125 
Q 38.875 6.734375 37.359375 4.875 
Q 35.84375 3.03125 33.84375 1.734375 
Q 31.84375 0.4375 29.25 -0.265625 
Q 26.65625 -0.984375 23.25 -0.984375 
Q 18.84375 -0.984375 15.671875 0.09375 
Q 12.5 1.171875 10.453125 3.421875 
Q 8.40625 5.671875 7.453125 9.1875 
Q 6.5 12.703125 6.5 17.625 
L 6.5 52.828125 
z
" id="LiberationSans-75"/>
     </defs>
     <g style="fill:#262626;" transform="translate(25.78 209.0775)rotate(-90)scale(0.16 -0.16)">
      <use xlink:href="#LiberationSans-54"/>
      <use x="61.037109" xlink:href="#LiberationSans-72"/>
      <use x="94.337891" xlink:href="#LiberationSans-75"/>
      <use x="149.953125" xlink:href="#LiberationSans-65"/>
      <use x="205.568359" xlink:href="#LiberationSans-20"/>
      <use x="233.351562" xlink:href="#LiberationSans-50"/>
      <use x="300.050781" xlink:href="#LiberationSans-6f"/>
      <use x="355.666016" xlink:href="#LiberationSans-73"/>
      <use x="405.666016" xlink:href="#LiberationSans-69"/>
      <use x="427.882812" xlink:href="#LiberationSans-74"/>
      <use x="455.666016" xlink:href="#LiberationSans-69"/>
      <use x="477.882812" xlink:href="#LiberationSans-76"/>
      <use x="527.882812" xlink:href="#LiberationSans-65"/>
      <use x="583.498047" xlink:href="#LiberationSans-20"/>
      <use x="611.28125" xlink:href="#LiberationSans-52"/>
      <use x="683.498047" xlink:href="#LiberationSans-61"/>
      <use x="739.113281" xlink:href="#LiberationSans-74"/>
      <use x="766.896484" xlink:href="#LiberationSans-65"/>
     </g>
    </g>
   </g>
   <g id="PolyCollection_1">
    <path clip-path="url(#p4b10d186d6)" d="M 69.942857 244.76757 
L 69.942857 250.023572 
L 73.131429 243.121406 
L 76.32 236.67875 
L 79.508571 232.602389 
L 82.697143 229.252051 
L 85.885714 226.117603 
L 89.074286 222.380643 
L 92.262857 218.996492 
L 95.451429 215.408058 
L 98.64 210.552238 
L 101.828571 206.051411 
L 105.017143 202.281811 
L 108.205714 199.33541 
L 111.394286 196.827549 
L 114.582857 193.326838 
L 117.771429 190.554788 
L 120.96 186.701094 
L 124.148571 184.46743 
L 127.337143 182.401852 
L 130.525714 178.517421 
L 133.714286 176.041149 
L 136.902857 173.573581 
L 140.091429 170.042246 
L 143.28 166.9644 
L 146.468571 164.716447 
L 149.657143 162.096122 
L 152.845714 159.656289 
L 156.034286 157.510056 
L 159.222857 154.413909 
L 162.411429 151.319605 
L 165.6 149.058906 
L 168.788571 145.907865 
L 171.977143 143.216839 
L 175.165714 141.238314 
L 178.354286 138.951951 
L 181.542857 137.217511 
L 184.731429 135.438149 
L 187.92 133.393315 
L 191.108571 131.884198 
L 194.297143 130.17267 
L 197.485714 128.016535 
L 200.674286 126.432468 
L 203.862857 124.67117 
L 207.051429 122.993712 
L 210.24 121.262882 
L 213.428571 119.897581 
L 216.617143 118.00498 
L 219.805714 116.061748 
L 222.994286 113.747791 
L 226.182857 110.371598 
L 229.371429 108.584138 
L 232.56 106.392724 
L 235.748571 105.002789 
L 238.937143 102.776031 
L 242.125714 100.732658 
L 245.314286 98.179911 
L 248.502857 96.965138 
L 251.691429 95.646814 
L 254.88 93.560535 
L 258.068571 92.159538 
L 261.257143 89.933981 
L 264.445714 88.019543 
L 267.634286 85.695325 
L 270.822857 84.209279 
L 274.011429 83.050428 
L 277.2 81.970631 
L 280.388571 80.899299 
L 283.577143 79.83134 
L 286.765714 78.6359 
L 289.954286 77.77509 
L 293.142857 76.523611 
L 296.331429 75.433207 
L 299.52 74.598136 
L 302.708571 73.350031 
L 305.897143 72.589957 
L 309.085714 71.62411 
L 312.274286 70.65497 
L 315.462857 69.702942 
L 318.651429 68.633494 
L 321.84 67.848286 
L 325.028571 67.210239 
L 328.217143 66.449656 
L 331.405714 65.824775 
L 334.594286 65.180584 
L 337.782857 64.330598 
L 340.971429 63.541659 
L 344.16 62.512678 
L 347.348571 61.079703 
L 350.537143 60.033382 
L 353.725714 59.05107 
L 356.914286 58.187953 
L 360.102857 56.962098 
L 363.291429 55.909482 
L 366.48 54.717627 
L 369.668571 54.041712 
L 372.857143 52.941896 
L 376.045714 52.004271 
L 379.234286 50.439466 
L 382.422857 48.769042 
L 385.611429 47.273382 
L 388.8 44.914286 
L 388.8 44.914286 
L 388.8 44.914286 
L 385.611429 45.148234 
L 382.422857 45.417043 
L 379.234286 45.728608 
L 376.045714 46.200046 
L 372.857143 46.46616 
L 369.668571 46.832586 
L 366.48 47.371176 
L 363.291429 47.799626 
L 360.102857 48.010061 
L 356.914286 48.381419 
L 353.725714 48.768471 
L 350.537143 49.179551 
L 347.348571 49.676303 
L 344.16 50.351384 
L 340.971429 50.691497 
L 337.782857 51.386306 
L 334.594286 51.893913 
L 331.405714 52.338113 
L 328.217143 52.574605 
L 325.028571 52.993261 
L 321.84 53.293595 
L 318.651429 53.657708 
L 315.462857 54.423562 
L 312.274286 55.034939 
L 309.085714 55.65071 
L 305.897143 55.967425 
L 302.708571 56.521978 
L 299.52 57.089412 
L 296.331429 57.607036 
L 293.142857 58.221257 
L 289.954286 58.962285 
L 286.765714 59.546091 
L 283.577143 60.185173 
L 280.388571 60.989012 
L 277.2 61.86031 
L 274.011429 62.612313 
L 270.822857 63.174161 
L 267.634286 63.873082 
L 264.445714 65.205956 
L 261.257143 66.514592 
L 258.068571 67.895304 
L 254.88 69.175649 
L 251.691429 70.445353 
L 248.502857 71.592443 
L 245.314286 72.789808 
L 242.125714 74.367738 
L 238.937143 75.418608 
L 235.748571 77.095241 
L 232.56 78.203651 
L 229.371429 80.142462 
L 226.182857 81.475194 
L 222.994286 83.175488 
L 219.805714 84.918812 
L 216.617143 86.465786 
L 213.428571 87.923505 
L 210.24 89.274301 
L 207.051429 90.944937 
L 203.862857 92.698259 
L 200.674286 94.319242 
L 197.485714 95.796469 
L 194.297143 97.787803 
L 191.108571 99.823541 
L 187.92 101.328041 
L 184.731429 103.390905 
L 181.542857 105.179791 
L 178.354286 107.471781 
L 175.165714 109.293584 
L 171.977143 111.059394 
L 168.788571 113.082907 
L 165.6 115.752954 
L 162.411429 117.60605 
L 159.222857 120.769466 
L 156.034286 124.155856 
L 152.845714 126.705228 
L 149.657143 129.545303 
L 146.468571 132.069137 
L 143.28 134.624159 
L 140.091429 137.460312 
L 136.902857 140.796686 
L 133.714286 143.665793 
L 130.525714 146.309473 
L 127.337143 149.786521 
L 124.148571 152.454297 
L 120.96 155.488478 
L 117.771429 159.310046 
L 114.582857 162.572047 
L 111.394286 165.891452 
L 108.205714 168.794942 
L 105.017143 172.639393 
L 101.828571 176.447989 
L 98.64 180.790543 
L 95.451429 185.937264 
L 92.262857 190.316175 
L 89.074286 194.641541 
L 85.885714 199.29659 
L 82.697143 203.148745 
L 79.508571 208.24043 
L 76.32 216.188343 
L 73.131429 229.567918 
L 69.942857 244.76757 
z
" style="fill:#55a868;fill-opacity:0.2;"/>
   </g>
   <g id="PolyCollection_2">
    <path clip-path="url(#p4b10d186d6)" d="M 69.942857 245.311945 
L 69.942857 250.369135 
L 73.131429 244.215788 
L 76.32 239.276229 
L 79.508571 235.76423 
L 82.697143 231.508798 
L 85.885714 229.079609 
L 89.074286 226.952255 
L 92.262857 225.020573 
L 95.451429 222.05252 
L 98.64 218.574591 
L 101.828571 216.398738 
L 105.017143 213.958387 
L 108.205714 211.772285 
L 111.394286 208.560058 
L 114.582857 204.780389 
L 117.771429 202.292604 
L 120.96 200.387474 
L 124.148571 198.101909 
L 127.337143 195.636203 
L 130.525714 193.277139 
L 133.714286 191.632854 
L 136.902857 190.11701 
L 140.091429 188.046576 
L 143.28 186.204029 
L 146.468571 183.845575 
L 149.657143 181.657874 
L 152.845714 179.834444 
L 156.034286 177.762462 
L 159.222857 174.578718 
L 162.411429 172.582835 
L 165.6 169.72451 
L 168.788571 167.446703 
L 171.977143 163.814106 
L 175.165714 161.129583 
L 178.354286 158.572194 
L 181.542857 155.486798 
L 184.731429 152.59792 
L 187.92 150.459637 
L 191.108571 148.22677 
L 194.297143 145.40147 
L 197.485714 142.18664 
L 200.674286 138.685657 
L 203.862857 136.344823 
L 207.051429 133.95268 
L 210.24 132.041494 
L 213.428571 130.930305 
L 216.617143 129.029155 
L 219.805714 127.94701 
L 222.994286 126.051775 
L 226.182857 124.760611 
L 229.371429 123.080163 
L 232.56 121.470136 
L 235.748571 120.261976 
L 238.937143 118.536965 
L 242.125714 116.729691 
L 245.314286 115.595208 
L 248.502857 113.611461 
L 251.691429 111.555422 
L 254.88 109.461007 
L 258.068571 107.946056 
L 261.257143 106.443557 
L 264.445714 105.065219 
L 267.634286 102.710742 
L 270.822857 101.289019 
L 274.011429 99.654655 
L 277.2 98.178349 
L 280.388571 96.279133 
L 283.577143 94.161935 
L 286.765714 92.061331 
L 289.954286 90.250295 
L 293.142857 88.475502 
L 296.331429 86.52962 
L 299.52 85.234341 
L 302.708571 84.013545 
L 305.897143 82.849402 
L 309.085714 80.788926 
L 312.274286 79.501066 
L 315.462857 78.176673 
L 318.651429 76.882733 
L 321.84 74.937136 
L 325.028571 73.141175 
L 328.217143 71.607023 
L 331.405714 70.008299 
L 334.594286 68.907988 
L 337.782857 66.951396 
L 340.971429 65.271368 
L 344.16 63.446457 
L 347.348571 61.207211 
L 350.537143 57.771044 
L 353.725714 56.303243 
L 356.914286 54.703164 
L 360.102857 53.675465 
L 363.291429 52.902263 
L 366.48 52.011268 
L 369.668571 51.465894 
L 372.857143 50.674425 
L 376.045714 49.731108 
L 379.234286 48.977073 
L 382.422857 47.894161 
L 385.611429 47.211709 
L 388.8 44.914286 
L 388.8 44.914286 
L 388.8 44.914286 
L 385.611429 45.032093 
L 382.422857 45.32992 
L 379.234286 45.586521 
L 376.045714 46.029775 
L 372.857143 46.510092 
L 369.668571 47.054014 
L 366.48 47.432721 
L 363.291429 47.889077 
L 360.102857 48.342245 
L 356.914286 49.048341 
L 353.725714 49.984837 
L 350.537143 50.881416 
L 347.348571 52.026181 
L 344.16 53.052936 
L 340.971429 54.053004 
L 337.782857 54.826755 
L 334.594286 55.71095 
L 331.405714 56.559952 
L 328.217143 57.562596 
L 325.028571 58.537728 
L 321.84 59.545621 
L 318.651429 60.835108 
L 315.462857 61.924266 
L 312.274286 62.824967 
L 309.085714 64.033933 
L 305.897143 65.235891 
L 302.708571 66.408562 
L 299.52 67.437008 
L 296.331429 68.325175 
L 293.142857 70.011559 
L 289.954286 71.116725 
L 286.765714 72.937056 
L 283.577143 74.510297 
L 280.388571 76.392045 
L 277.2 78.082802 
L 274.011429 79.410486 
L 270.822857 80.637425 
L 267.634286 81.791779 
L 264.445714 83.426866 
L 261.257143 84.590014 
L 258.068571 85.767404 
L 254.88 86.905809 
L 251.691429 89.074792 
L 248.502857 91.161796 
L 245.314286 92.613263 
L 242.125714 93.795223 
L 238.937143 95.100933 
L 235.748571 97.065196 
L 232.56 98.013871 
L 229.371429 99.680405 
L 226.182857 101.318978 
L 222.994286 102.969434 
L 219.805714 105.02505 
L 216.617143 106.034321 
L 213.428571 107.75403 
L 210.24 108.832455 
L 207.051429 110.732781 
L 203.862857 112.699934 
L 200.674286 114.710358 
L 197.485714 117.065134 
L 194.297143 119.321376 
L 191.108571 121.249744 
L 187.92 123.298553 
L 184.731429 125.218809 
L 181.542857 126.884282 
L 178.354286 129.54539 
L 175.165714 132.612564 
L 171.977143 135.452033 
L 168.788571 138.208712 
L 165.6 140.225428 
L 162.411429 142.216195 
L 159.222857 144.468859 
L 156.034286 147.344497 
L 152.845714 149.599674 
L 149.657143 152.324352 
L 146.468571 155.36126 
L 143.28 158.623021 
L 140.091429 160.786274 
L 136.902857 163.119681 
L 133.714286 165.617751 
L 130.525714 167.438862 
L 127.337143 170.264145 
L 124.148571 173.479474 
L 120.96 176.12249 
L 117.771429 178.196606 
L 114.582857 180.928994 
L 111.394286 184.886245 
L 108.205714 187.857386 
L 105.017143 190.595366 
L 101.828571 193.244083 
L 98.64 195.978419 
L 95.451429 199.302908 
L 92.262857 202.55656 
L 89.074286 205.085609 
L 85.885714 207.749682 
L 82.697143 211.283653 
L 79.508571 215.761715 
L 76.32 220.951381 
L 73.131429 229.500828 
L 69.942857 245.311945 
z
" style="fill:#4c72b0;fill-opacity:0.2;"/>
   </g>
   <g id="PolyCollection_3">
    <path clip-path="url(#p4b10d186d6)" d="M 69.942857 237.600537 
L 69.942857 250.475619 
L 73.131429 243.832452 
L 76.32 240.452001 
L 79.508571 238.29382 
L 82.697143 235.212425 
L 85.885714 233.2793 
L 89.074286 230.891751 
L 92.262857 228.526708 
L 95.451429 225.701869 
L 98.64 223.902678 
L 101.828571 221.737385 
L 105.017143 219.711973 
L 108.205714 217.168162 
L 111.394286 213.52047 
L 114.582857 211.194231 
L 117.771429 208.98172 
L 120.96 206.862784 
L 124.148571 204.991641 
L 127.337143 202.827954 
L 130.525714 200.416382 
L 133.714286 198.502983 
L 136.902857 196.863641 
L 140.091429 194.9554 
L 143.28 193.023188 
L 146.468571 190.569428 
L 149.657143 188.536888 
L 152.845714 186.292541 
L 156.034286 184.077557 
L 159.222857 181.369353 
L 162.411429 179.570102 
L 165.6 177.232347 
L 168.788571 174.925501 
L 171.977143 173.037983 
L 175.165714 170.047618 
L 178.354286 167.409247 
L 181.542857 165.003781 
L 184.731429 163.07324 
L 187.92 160.983341 
L 191.108571 159.202463 
L 194.297143 157.115297 
L 197.485714 155.028112 
L 200.674286 152.482484 
L 203.862857 149.150367 
L 207.051429 147.154619 
L 210.24 144.725183 
L 213.428571 141.698636 
L 216.617143 139.509117 
L 219.805714 137.488581 
L 222.994286 135.611982 
L 226.182857 133.914316 
L 229.371429 131.243496 
L 232.56 129.328928 
L 235.748571 127.234082 
L 238.937143 125.446839 
L 242.125714 123.292797 
L 245.314286 121.259019 
L 248.502857 119.69143 
L 251.691429 117.585932 
L 254.88 115.948407 
L 258.068571 114.003158 
L 261.257143 111.899843 
L 264.445714 110.725835 
L 267.634286 108.457895 
L 270.822857 106.946588 
L 274.011429 105.132168 
L 277.2 103.660978 
L 280.388571 101.37214 
L 283.577143 100.076471 
L 286.765714 98.501696 
L 289.954286 96.877756 
L 293.142857 95.402308 
L 296.331429 93.566831 
L 299.52 92.007595 
L 302.708571 89.833181 
L 305.897143 87.836637 
L 309.085714 86.346991 
L 312.274286 84.642684 
L 315.462857 82.436037 
L 318.651429 80.536479 
L 321.84 78.22136 
L 325.028571 75.987941 
L 328.217143 74.571414 
L 331.405714 72.626334 
L 334.594286 71.282722 
L 337.782857 69.750913 
L 340.971429 68.731953 
L 344.16 67.249015 
L 347.348571 65.901638 
L 350.537143 64.86736 
L 353.725714 64.030336 
L 356.914286 63.324713 
L 360.102857 62.543116 
L 363.291429 61.154101 
L 366.48 59.596264 
L 369.668571 58.197318 
L 372.857143 56.908338 
L 376.045714 56.231109 
L 379.234286 54.419546 
L 382.422857 52.030625 
L 385.611429 49.398944 
L 388.8 44.914286 
L 388.8 44.914286 
L 388.8 44.914286 
L 385.611429 45.673213 
L 382.422857 45.904447 
L 379.234286 46.163717 
L 376.045714 46.636778 
L 372.857143 46.890326 
L 369.668571 47.404143 
L 366.48 47.849042 
L 363.291429 48.540046 
L 360.102857 48.972105 
L 356.914286 49.332684 
L 353.725714 49.818033 
L 350.537143 50.387465 
L 347.348571 51.160879 
L 344.16 51.74648 
L 340.971429 52.383684 
L 337.782857 53.197573 
L 334.594286 54.206261 
L 331.405714 54.914165 
L 328.217143 55.762392 
L 325.028571 56.558166 
L 321.84 57.799518 
L 318.651429 58.937053 
L 315.462857 59.741944 
L 312.274286 60.814808 
L 309.085714 61.715104 
L 305.897143 62.402933 
L 302.708571 63.587672 
L 299.52 64.413971 
L 296.331429 65.261271 
L 293.142857 66.363798 
L 289.954286 67.322597 
L 286.765714 68.431296 
L 283.577143 68.962996 
L 280.388571 70.064774 
L 277.2 71.633173 
L 274.011429 72.502835 
L 270.822857 73.503341 
L 267.634286 74.765229 
L 264.445714 76.60599 
L 261.257143 77.690207 
L 258.068571 79.131419 
L 254.88 80.930706 
L 251.691429 82.513112 
L 248.502857 84.223477 
L 245.314286 85.446042 
L 242.125714 86.931285 
L 238.937143 88.965231 
L 235.748571 90.487425 
L 232.56 92.226936 
L 229.371429 94.701719 
L 226.182857 96.349291 
L 222.994286 97.593551 
L 219.805714 99.177095 
L 216.617143 101.045338 
L 213.428571 103.098845 
L 210.24 104.917876 
L 207.051429 107.425578 
L 203.862857 108.697821 
L 200.674286 110.848097 
L 197.485714 112.888193 
L 194.297143 114.873952 
L 191.108571 117.13765 
L 187.92 119.483446 
L 184.731429 121.629896 
L 181.542857 123.669799 
L 178.354286 126.200338 
L 175.165714 129.078831 
L 171.977143 132.26373 
L 168.788571 134.062657 
L 165.6 136.549904 
L 162.411429 139.005712 
L 159.222857 141.834259 
L 156.034286 145.353833 
L 152.845714 148.229976 
L 149.657143 151.05761 
L 146.468571 153.634798 
L 143.28 156.690885 
L 140.091429 159.315487 
L 136.902857 161.604388 
L 133.714286 163.63926 
L 130.525714 166.240912 
L 127.337143 169.430471 
L 124.148571 173.035114 
L 120.96 175.77119 
L 117.771429 178.93383 
L 114.582857 181.884324 
L 111.394286 185.043032 
L 108.205714 189.199268 
L 105.017143 192.540911 
L 101.828571 195.444115 
L 98.64 198.025385 
L 95.451429 200.480774 
L 92.262857 203.522681 
L 89.074286 206.523572 
L 85.885714 209.936307 
L 82.697143 212.583836 
L 79.508571 217.043409 
L 76.32 220.835691 
L 73.131429 226.298146 
L 69.942857 237.600537 
z
" style="fill:#8172b2;fill-opacity:0.2;"/>
   </g>
   <g id="PolyCollection_4">
    <path clip-path="url(#p4b10d186d6)" d="M 69.942857 242.736625 
L 69.942857 251.329544 
L 73.131429 250.327072 
L 76.32 248.917506 
L 79.508571 248.004865 
L 82.697143 246.268976 
L 85.885714 244.518531 
L 89.074286 242.725578 
L 92.262857 240.606663 
L 95.451429 238.661699 
L 98.64 237.519824 
L 101.828571 236.455865 
L 105.017143 234.7822 
L 108.205714 233.401036 
L 111.394286 231.949521 
L 114.582857 230.212255 
L 117.771429 227.339824 
L 120.96 225.028223 
L 124.148571 223.02796 
L 127.337143 221.251951 
L 130.525714 218.682715 
L 133.714286 217.180857 
L 136.902857 214.597674 
L 140.091429 212.091413 
L 143.28 210.798863 
L 146.468571 209.675043 
L 149.657143 208.42341 
L 152.845714 207.108727 
L 156.034286 205.864491 
L 159.222857 204.237568 
L 162.411429 203.328167 
L 165.6 201.463505 
L 168.788571 200.259259 
L 171.977143 198.4798 
L 175.165714 197.128668 
L 178.354286 195.812248 
L 181.542857 193.62027 
L 184.731429 191.718833 
L 187.92 190.532012 
L 191.108571 189.170119 
L 194.297143 187.624966 
L 197.485714 185.537107 
L 200.674286 184.034605 
L 203.862857 181.903781 
L 207.051429 180.292951 
L 210.24 178.889794 
L 213.428571 177.770264 
L 216.617143 176.344149 
L 219.805714 174.978372 
L 222.994286 173.44557 
L 226.182857 171.933085 
L 229.371429 169.91486 
L 232.56 167.151385 
L 235.748571 165.549371 
L 238.937143 163.027065 
L 242.125714 160.897401 
L 245.314286 159.459074 
L 248.502857 157.841778 
L 251.691429 156.114197 
L 254.88 154.0898 
L 258.068571 153.00017 
L 261.257143 151.285704 
L 264.445714 149.625297 
L 267.634286 147.379319 
L 270.822857 145.876489 
L 274.011429 144.052028 
L 277.2 142.889304 
L 280.388571 141.282411 
L 283.577143 139.718553 
L 286.765714 134.45307 
L 289.954286 132.280129 
L 293.142857 128.918692 
L 296.331429 127.214228 
L 299.52 124.820413 
L 302.708571 122.611916 
L 305.897143 119.923718 
L 309.085714 117.151938 
L 312.274286 114.036134 
L 315.462857 110.645753 
L 318.651429 109.181324 
L 321.84 107.019813 
L 325.028571 104.183504 
L 328.217143 100.524162 
L 331.405714 97.252176 
L 334.594286 95.495344 
L 337.782857 94.115687 
L 340.971429 92.887435 
L 344.16 91.561024 
L 347.348571 90.219107 
L 350.537143 87.709526 
L 353.725714 85.729801 
L 356.914286 84.422886 
L 360.102857 83.630626 
L 363.291429 81.842666 
L 366.48 80.138611 
L 369.668571 78.605479 
L 372.857143 77.688735 
L 376.045714 77.132267 
L 379.234286 75.979392 
L 382.422857 74.992133 
L 385.611429 73.347505 
L 388.8 44.914286 
L 388.8 44.914286 
L 388.8 44.914286 
L 385.611429 46.191621 
L 382.422857 47.493279 
L 379.234286 48.200115 
L 376.045714 48.870556 
L 372.857143 49.312966 
L 369.668571 50.593243 
L 366.48 52.148193 
L 363.291429 53.492019 
L 360.102857 55.163171 
L 356.914286 56.144779 
L 353.725714 57.513996 
L 350.537143 59.513646 
L 347.348571 61.610528 
L 344.16 63.339813 
L 340.971429 64.716305 
L 337.782857 66.093205 
L 334.594286 67.795174 
L 331.405714 69.749561 
L 328.217143 73.66798 
L 325.028571 76.906814 
L 321.84 79.07185 
L 318.651429 81.214209 
L 315.462857 82.763727 
L 312.274286 85.42973 
L 309.085714 88.620947 
L 305.897143 90.729554 
L 302.708571 93.044238 
L 299.52 94.83323 
L 296.331429 97.133418 
L 293.142857 98.971014 
L 289.954286 101.119184 
L 286.765714 102.957935 
L 283.577143 105.715616 
L 280.388571 107.557275 
L 277.2 109.704568 
L 274.011429 111.12163 
L 270.822857 112.978176 
L 267.634286 114.51002 
L 264.445714 116.819807 
L 261.257143 119.252858 
L 258.068571 121.037479 
L 254.88 122.333306 
L 251.691429 125.112496 
L 248.502857 127.793891 
L 245.314286 129.59237 
L 242.125714 131.323386 
L 238.937143 133.359288 
L 235.748571 135.633273 
L 232.56 138.053395 
L 229.371429 139.824377 
L 226.182857 141.649456 
L 222.994286 142.994479 
L 219.805714 144.50249 
L 216.617143 145.831241 
L 213.428571 146.993508 
L 210.24 148.093084 
L 207.051429 149.385417 
L 203.862857 150.445393 
L 200.674286 152.182988 
L 197.485714 153.599003 
L 194.297143 155.81696 
L 191.108571 157.199318 
L 187.92 158.600556 
L 184.731429 159.733953 
L 181.542857 161.447067 
L 178.354286 163.159137 
L 175.165714 164.601786 
L 171.977143 165.844949 
L 168.788571 167.554911 
L 165.6 169.582702 
L 162.411429 171.893324 
L 159.222857 173.187745 
L 156.034286 175.263107 
L 152.845714 177.076298 
L 149.657143 178.853147 
L 146.468571 180.978412 
L 143.28 183.070809 
L 140.091429 184.92093 
L 136.902857 187.621882 
L 133.714286 190.423294 
L 130.525714 192.238764 
L 127.337143 194.561522 
L 124.148571 196.500725 
L 120.96 198.76668 
L 117.771429 200.79173 
L 114.582857 203.467669 
L 111.394286 206.613791 
L 108.205714 209.534041 
L 105.017143 212.597095 
L 101.828571 216.327341 
L 98.64 217.802111 
L 95.451429 218.900827 
L 92.262857 221.370853 
L 89.074286 225.30413 
L 85.885714 227.392432 
L 82.697143 230.665807 
L 79.508571 234.463436 
L 76.32 236.629819 
L 73.131429 238.901912 
L 69.942857 242.736625 
z
" style="fill:#c44e52;fill-opacity:0.2;"/>
   </g>
   <g id="line2d_25">
    <path clip-path="url(#p4b10d186d6)" d="M 69.942857 247.691557 
L 73.131429 236.81177 
L 76.32 226.977177 
L 79.508571 220.878893 
L 82.697143 216.572413 
L 85.885714 213.076338 
L 89.074286 208.782166 
L 92.262857 204.825673 
L 95.451429 200.815181 
L 98.64 195.74578 
L 101.828571 191.304752 
L 105.017143 187.518382 
L 108.205714 184.169539 
L 111.394286 181.252931 
L 114.582857 177.731907 
L 117.771429 174.693659 
L 120.96 170.77681 
L 124.148571 168.115923 
L 127.337143 165.670546 
L 130.525714 162.005567 
L 133.714286 159.37525 
L 136.902857 156.735021 
L 140.091429 153.005921 
L 143.28 149.989345 
L 146.468571 147.449495 
L 149.657143 145.034513 
L 152.845714 142.273119 
L 156.034286 139.855349 
L 159.222857 136.403998 
L 162.411429 133.195527 
L 165.6 131.186651 
L 168.788571 128.515789 
L 171.977143 126.289675 
L 175.165714 124.367141 
L 178.354286 122.392986 
L 181.542857 120.20512 
L 184.731429 118.482705 
L 187.92 116.409468 
L 191.108571 114.779669 
L 194.297143 112.939758 
L 197.485714 110.782098 
L 200.674286 109.158559 
L 203.862857 107.475357 
L 207.051429 105.683428 
L 210.24 103.987252 
L 213.428571 102.631645 
L 216.617143 100.84853 
L 219.805714 99.101293 
L 222.994286 97.038504 
L 226.182857 94.666647 
L 229.371429 93.044495 
L 232.56 91.04636 
L 235.748571 89.714413 
L 238.937143 87.793288 
L 242.125714 86.326366 
L 245.314286 84.286222 
L 248.502857 83.023504 
L 251.691429 81.856658 
L 254.88 80.219779 
L 258.068571 78.921281 
L 261.257143 77.250543 
L 264.445714 75.667065 
L 267.634286 73.8243 
L 270.822857 72.779541 
L 274.011429 71.962967 
L 277.2 71.038544 
L 280.388571 70.065958 
L 283.577143 69.164512 
L 286.765714 68.247734 
L 289.954286 67.510643 
L 293.142857 66.557088 
L 296.331429 65.727373 
L 299.52 65.084384 
L 302.708571 64.214893 
L 305.897143 63.524837 
L 309.085714 62.898854 
L 312.274286 62.078603 
L 315.462857 61.290833 
L 318.651429 60.365083 
L 321.84 59.874398 
L 325.028571 59.431591 
L 328.217143 58.827588 
L 331.405714 58.444074 
L 334.594286 57.831161 
L 337.782857 57.196517 
L 340.971429 56.384044 
L 344.16 55.759109 
L 347.348571 54.7812 
L 350.537143 54.074181 
L 353.725714 53.360344 
L 356.914286 52.733424 
L 360.102857 51.982485 
L 363.291429 51.408024 
L 366.48 50.645516 
L 369.668571 50.010081 
L 372.857143 49.282415 
L 376.045714 48.741923 
L 379.234286 47.779263 
L 382.422857 46.901048 
L 385.611429 46.103633 
L 388.8 44.914286 
" style="fill:none;stroke:#55a868;stroke-linecap:round;stroke-width:3;"/>
   </g>
   <g id="line2d_26">
    <path clip-path="url(#p4b10d186d6)" d="M 69.942857 252 
L 388.8 44.914286 
" style="fill:none;stroke:#000080;stroke-dasharray:8.4,3.6;stroke-dashoffset:0;stroke-width:3;"/>
   </g>
   <g id="line2d_27">
    <path clip-path="url(#p4b10d186d6)" d="M 69.942857 248.127714 
L 73.131429 237.400892 
L 76.32 230.682268 
L 79.508571 226.326119 
L 82.697143 221.935308 
L 85.885714 218.820243 
L 89.074286 216.330697 
L 92.262857 214.123278 
L 95.451429 211.069974 
L 98.64 207.602906 
L 101.828571 205.105138 
L 105.017143 202.576793 
L 108.205714 200.025439 
L 111.394286 196.976574 
L 114.582857 193.031599 
L 117.771429 190.427371 
L 120.96 188.440912 
L 124.148571 186.014619 
L 127.337143 183.124998 
L 130.525714 180.479007 
L 133.714286 178.767273 
L 136.902857 176.714514 
L 140.091429 174.587078 
L 143.28 172.599767 
L 146.468571 169.852331 
L 149.657143 167.250356 
L 152.845714 164.898706 
L 156.034286 162.85036 
L 159.222857 159.848363 
L 162.411429 157.761853 
L 165.6 155.34423 
L 168.788571 153.132412 
L 171.977143 150.082724 
L 175.165714 147.278527 
L 178.354286 144.370462 
L 181.542857 141.635384 
L 184.731429 139.209439 
L 187.92 137.25895 
L 191.108571 135.117914 
L 194.297143 132.631605 
L 197.485714 129.7295 
L 200.674286 126.843125 
L 203.862857 124.480243 
L 207.051429 122.242728 
L 210.24 120.358688 
L 213.428571 119.225549 
L 216.617143 117.415278 
L 219.805714 116.293947 
L 222.994286 114.444865 
L 226.182857 112.921813 
L 229.371429 111.239062 
L 232.56 109.61395 
L 235.748571 108.519133 
L 238.937143 106.79742 
L 242.125714 105.207417 
L 245.314286 104.027872 
L 248.502857 102.336932 
L 251.691429 100.069391 
L 254.88 97.836347 
L 258.068571 96.451989 
L 261.257143 95.068388 
L 264.445714 93.779326 
L 267.634286 91.841498 
L 270.822857 90.495001 
L 274.011429 88.990674 
L 277.2 87.476497 
L 280.388571 85.622327 
L 283.577143 83.545288 
L 286.765714 81.739805 
L 289.954286 79.875943 
L 293.142857 78.445563 
L 296.331429 76.70464 
L 299.52 75.564698 
L 302.708571 74.470256 
L 305.897143 73.248682 
L 309.085714 71.566294 
L 312.274286 70.307781 
L 315.462857 69.271149 
L 318.651429 68.078835 
L 321.84 66.534729 
L 325.028571 65.215279 
L 328.217143 63.828299 
L 331.405714 62.545551 
L 334.594286 61.555626 
L 337.782857 60.177379 
L 340.971429 59.048267 
L 344.16 57.679338 
L 347.348571 56.225483 
L 350.537143 54.095283 
L 353.725714 52.930799 
L 356.914286 51.702425 
L 360.102857 50.829846 
L 363.291429 50.218495 
L 366.48 49.527417 
L 369.668571 49.05219 
L 372.857143 48.369383 
L 376.045714 47.638761 
L 379.234286 47.039024 
L 382.422857 46.444128 
L 385.611429 45.948629 
L 388.8 44.914286 
" style="fill:none;stroke:#4c72b0;stroke-linecap:round;stroke-width:3;"/>
   </g>
   <g id="line2d_28">
    <path clip-path="url(#p4b10d186d6)" d="M 69.942857 252 
L 388.8 44.914286 
" style="fill:none;stroke:#000080;stroke-dasharray:8.4,3.6;stroke-dashoffset:0;stroke-width:3;"/>
   </g>
   <g id="line2d_29">
    <path clip-path="url(#p4b10d186d6)" d="M 69.942857 244.987621 
L 73.131429 235.996824 
L 76.32 231.437474 
L 79.508571 228.370128 
L 82.697143 224.655529 
L 85.885714 222.266781 
L 89.074286 219.378601 
L 92.262857 216.561486 
L 95.451429 213.641027 
L 98.64 211.353787 
L 101.828571 208.832627 
L 105.017143 206.319042 
L 108.205714 203.210838 
L 111.394286 199.281537 
L 114.582857 196.3543 
L 117.771429 193.79437 
L 120.96 191.181917 
L 124.148571 188.842608 
L 127.337143 185.902833 
L 130.525714 183.070327 
L 133.714286 180.797192 
L 136.902857 178.899687 
L 140.091429 176.717309 
L 143.28 174.435513 
L 146.468571 171.744595 
L 149.657143 169.403401 
L 152.845714 166.926341 
L 156.034286 164.345012 
L 159.222857 161.22639 
L 162.411429 158.920694 
L 165.6 156.371563 
L 168.788571 153.798049 
L 171.977143 151.894587 
L 175.165714 148.749684 
L 178.354286 145.965212 
L 181.542857 143.412349 
L 184.731429 141.400413 
L 187.92 139.075045 
L 191.108571 136.932489 
L 194.297143 134.68801 
L 197.485714 132.58375 
L 200.674286 130.449648 
L 203.862857 127.848792 
L 207.051429 126.051159 
L 210.24 123.481937 
L 213.428571 121.24897 
L 216.617143 119.027718 
L 219.805714 117.057815 
L 222.994286 115.276982 
L 226.182857 113.831326 
L 229.371429 111.686552 
L 232.56 109.547726 
L 235.748571 107.664229 
L 238.937143 105.981873 
L 242.125714 103.943764 
L 245.314286 102.109936 
L 248.502857 100.809046 
L 251.691429 98.866443 
L 254.88 97.209146 
L 258.068571 95.355719 
L 261.257143 93.558917 
L 264.445714 92.394204 
L 267.634286 90.413004 
L 270.822857 89.069251 
L 274.011429 87.655648 
L 277.2 86.364046 
L 280.388571 84.352524 
L 283.577143 83.075933 
L 286.765714 82.160162 
L 289.954286 80.690787 
L 293.142857 79.480318 
L 296.331429 78.010225 
L 299.52 76.883994 
L 302.708571 75.542832 
L 305.897143 74.002636 
L 309.085714 72.999386 
L 312.274286 71.718029 
L 315.462857 70.077402 
L 318.651429 68.818985 
L 321.84 67.098138 
L 325.028571 65.364074 
L 328.217143 64.27999 
L 331.405714 62.907378 
L 334.594286 61.901867 
L 337.782857 60.603462 
L 340.971429 59.68064 
L 344.16 58.648197 
L 347.348571 57.755042 
L 350.537143 56.762796 
L 353.725714 56.066955 
L 356.914286 55.443766 
L 360.102857 54.810988 
L 363.291429 53.983201 
L 366.48 52.852642 
L 369.668571 51.958265 
L 372.857143 51.096523 
L 376.045714 50.640715 
L 379.234286 49.541408 
L 382.422857 48.353466 
L 385.611429 47.24939 
L 388.8 44.914286 
" style="fill:none;stroke:#8172b2;stroke-linecap:round;stroke-width:3;"/>
   </g>
   <g id="line2d_30">
    <path clip-path="url(#p4b10d186d6)" d="M 69.942857 252 
L 388.8 44.914286 
" style="fill:none;stroke:#000080;stroke-dasharray:8.4,3.6;stroke-dashoffset:0;stroke-width:3;"/>
   </g>
   <g id="line2d_31">
    <path clip-path="url(#p4b10d186d6)" d="M 69.942857 247.967018 
L 73.131429 245.481948 
L 76.32 243.651143 
L 79.508571 242.14744 
L 82.697143 239.427323 
L 85.885714 236.702978 
L 89.074286 234.730602 
L 92.262857 231.597334 
L 95.451429 229.253921 
L 98.64 228.103613 
L 101.828571 226.857955 
L 105.017143 224.200424 
L 108.205714 222.086655 
L 111.394286 219.945628 
L 114.582857 217.68444 
L 117.771429 214.95248 
L 120.96 212.763695 
L 124.148571 210.631744 
L 127.337143 208.598959 
L 130.525714 206.14367 
L 133.714286 204.457922 
L 136.902857 201.826326 
L 140.091429 199.165389 
L 143.28 197.514196 
L 146.468571 195.960066 
L 149.657143 194.345679 
L 152.845714 192.811919 
L 156.034286 191.186923 
L 159.222857 189.294912 
L 162.411429 188.274333 
L 165.6 186.223308 
L 168.788571 184.631536 
L 171.977143 182.898573 
L 175.165714 181.562435 
L 178.354286 180.164874 
L 181.542857 178.271496 
L 184.731429 176.540164 
L 187.92 175.32956 
L 191.108571 173.886231 
L 194.297143 172.418435 
L 197.485714 170.252802 
L 200.674286 168.803909 
L 203.862857 166.921863 
L 207.051429 165.52323 
L 210.24 164.159453 
L 213.428571 163.01128 
L 216.617143 161.641711 
L 219.805714 160.126953 
L 222.994286 158.503541 
L 226.182857 157.017732 
L 229.371429 155.02411 
L 232.56 152.797456 
L 235.748571 150.770024 
L 238.937143 148.54516 
L 242.125714 146.445923 
L 245.314286 144.888497 
L 248.502857 142.935056 
L 251.691429 140.913869 
L 254.88 138.40886 
L 258.068571 137.204123 
L 261.257143 135.485514 
L 264.445714 133.464212 
L 267.634286 131.227857 
L 270.822857 129.674002 
L 274.011429 127.784371 
L 277.2 126.500874 
L 280.388571 124.572491 
L 283.577143 122.996318 
L 286.765714 118.824048 
L 289.954286 116.751367 
L 293.142857 113.936401 
L 296.331429 112.192196 
L 299.52 109.678301 
L 302.708571 107.620003 
L 305.897143 104.969094 
L 309.085714 102.4611 
L 312.274286 99.018009 
L 315.462857 96.001291 
L 318.651429 94.395023 
L 321.84 92.23166 
L 325.028571 89.491211 
L 328.217143 85.765899 
L 331.405714 82.025683 
L 334.594286 80.042154 
L 337.782857 78.377483 
L 340.971429 77.022184 
L 344.16 75.536619 
L 347.348571 73.908966 
L 350.537143 71.506545 
L 353.725714 69.490237 
L 356.914286 68.105397 
L 360.102857 67.131893 
L 363.291429 65.119223 
L 366.48 63.516326 
L 369.668571 61.799114 
L 372.857143 60.716319 
L 376.045714 60.152646 
L 379.234286 59.294513 
L 382.422857 58.206764 
L 385.611429 56.401055 
L 388.8 44.914286 
" style="fill:none;stroke:#c44e52;stroke-linecap:round;stroke-width:3;"/>
   </g>
   <g id="line2d_32">
    <path clip-path="url(#p4b10d186d6)" d="M 69.942857 252 
L 388.8 44.914286 
" style="fill:none;stroke:#000080;stroke-dasharray:8.4,3.6;stroke-dashoffset:0;stroke-width:3;"/>
   </g>
   <g id="patch_3">
    <path d="M 54 252 
L 54 34.56 
" style="fill:none;"/>
   </g>
   <g id="patch_4">
    <path d="M 388.8 252 
L 388.8 34.56 
" style="fill:none;"/>
   </g>
   <g id="patch_5">
    <path d="M 54 252 
L 388.8 252 
" style="fill:none;"/>
   </g>
   <g id="patch_6">
    <path d="M 54 34.56 
L 388.8 34.56 
" style="fill:none;"/>
   </g>
   <g id="legend_1">
    <g id="line2d_33">
     <path d="M 206.460938 194.459375 
L 226.460938 194.459375 
" style="fill:none;stroke:#55a868;stroke-linecap:round;stroke-width:3;"/>
    </g>
    <g id="line2d_34"/>
    <g id="text_15">
     <!-- Hand - AUC = 0.695 -->
     <defs>
      <path d="M 54.734375 0 
L 54.734375 31.890625 
L 17.53125 31.890625 
L 17.53125 0 
L 8.203125 0 
L 8.203125 68.796875 
L 17.53125 68.796875 
L 17.53125 39.703125 
L 54.734375 39.703125 
L 54.734375 68.796875 
L 64.0625 68.796875 
L 64.0625 0 
z
" id="LiberationSans-48"/>
      <path d="M 40.28125 0 
L 40.28125 33.5 
Q 40.28125 37.359375 39.71875 39.9375 
Q 39.15625 42.53125 37.890625 44.109375 
Q 36.625 45.703125 34.546875 46.359375 
Q 32.46875 47.015625 29.390625 47.015625 
Q 26.265625 47.015625 23.75 45.921875 
Q 21.234375 44.828125 19.453125 42.75 
Q 17.671875 40.671875 16.6875 37.625 
Q 15.71875 34.578125 15.71875 30.609375 
L 15.71875 0 
L 6.9375 0 
L 6.9375 41.546875 
Q 6.9375 43.21875 6.90625 45.046875 
Q 6.890625 46.875 6.828125 48.5 
Q 6.78125 50.140625 6.734375 51.3125 
Q 6.6875 52.484375 6.640625 52.828125 
L 14.9375 52.828125 
Q 14.984375 52.59375 15.03125 51.515625 
Q 15.09375 50.4375 15.15625 49.046875 
Q 15.234375 47.65625 15.28125 46.21875 
Q 15.328125 44.78125 15.328125 43.796875 
L 15.484375 43.796875 
Q 16.75 46.09375 18.265625 47.953125 
Q 19.78125 49.8125 21.78125 51.09375 
Q 23.78125 52.390625 26.359375 53.09375 
Q 28.953125 53.8125 32.375 53.8125 
Q 36.765625 53.8125 39.9375 52.734375 
Q 43.109375 51.65625 45.15625 49.40625 
Q 47.21875 47.171875 48.171875 43.625 
Q 49.125 40.09375 49.125 35.203125 
L 49.125 0 
z
" id="LiberationSans-6e"/>
      <path d="M 40.09375 8.5 
Q 37.640625 3.421875 33.609375 1.21875 
Q 29.59375 -0.984375 23.640625 -0.984375 
Q 13.625 -0.984375 8.90625 5.75 
Q 4.203125 12.5 4.203125 26.171875 
Q 4.203125 53.8125 23.640625 53.8125 
Q 29.640625 53.8125 33.640625 51.609375 
Q 37.640625 49.421875 40.09375 44.625 
L 40.1875 44.625 
Q 40.1875 45.125 40.15625 46.171875 
Q 40.140625 47.21875 40.109375 48.359375 
Q 40.09375 49.515625 40.09375 50.53125 
Q 40.09375 51.5625 40.09375 52 
L 40.09375 72.46875 
L 48.875 72.46875 
L 48.875 10.890625 
Q 48.875 8.984375 48.890625 7.21875 
Q 48.921875 5.46875 48.96875 4 
Q 49.03125 2.546875 49.078125 1.484375 
Q 49.125 0.4375 49.171875 0 
L 40.765625 0 
Q 40.671875 0.484375 40.59375 1.390625 
Q 40.53125 2.296875 40.453125 3.46875 
Q 40.375 4.640625 40.328125 5.9375 
Q 40.28125 7.234375 40.28125 8.5 
z
M 13.421875 26.46875 
Q 13.421875 21 14.109375 17.09375 
Q 14.796875 13.1875 16.3125 10.671875 
Q 17.828125 8.15625 20.171875 6.984375 
Q 22.515625 5.8125 25.875 5.8125 
Q 29.34375 5.8125 32 6.9375 
Q 34.671875 8.0625 36.453125 10.578125 
Q 38.234375 13.09375 39.15625 17.140625 
Q 40.09375 21.1875 40.09375 27.046875 
Q 40.09375 32.671875 39.15625 36.546875 
Q 38.234375 40.4375 36.421875 42.828125 
Q 34.625 45.21875 32 46.265625 
Q 29.390625 47.3125 25.984375 47.3125 
Q 22.75 47.3125 20.40625 46.1875 
Q 18.0625 45.0625 16.5 42.578125 
Q 14.9375 40.09375 14.171875 36.109375 
Q 13.421875 32.125 13.421875 26.46875 
" id="LiberationSans-64"/>
      <path d="M 4.4375 22.65625 
L 4.4375 30.46875 
L 28.859375 30.46875 
L 28.859375 22.65625 
z
" id="LiberationSans-2d"/>
      <path d="M 56.984375 0 
L 49.125 20.125 
L 17.78125 20.125 
L 9.859375 0 
L 0.203125 0 
L 28.265625 68.796875 
L 38.875 68.796875 
L 66.5 0 
z
M 37.5 50.09375 
Q 36.71875 52.046875 36 54.046875 
Q 35.296875 56.0625 34.765625 57.6875 
Q 34.234375 59.328125 33.859375 60.421875 
Q 33.5 61.53125 33.453125 61.765625 
Q 33.34375 61.53125 33 60.40625 
Q 32.671875 59.28125 32.109375 57.609375 
Q 31.546875 55.953125 30.828125 53.953125 
Q 30.125 51.953125 29.390625 50 
L 20.609375 27.390625 
L 46.34375 27.390625 
z
" id="LiberationSans-41"/>
      <path d="M 35.6875 -0.984375 
Q 30.03125 -0.984375 24.953125 0.53125 
Q 19.875 2.046875 16.03125 5.25 
Q 12.203125 8.453125 9.953125 13.359375 
Q 7.71875 18.265625 7.71875 25 
L 7.71875 68.796875 
L 17.046875 68.796875 
L 17.046875 25.78125 
Q 17.046875 20.5625 18.4375 16.921875 
Q 19.828125 13.28125 22.3125 10.984375 
Q 24.8125 8.6875 28.203125 7.640625 
Q 31.59375 6.59375 35.640625 6.59375 
Q 39.65625 6.59375 43.21875 7.65625 
Q 46.78125 8.734375 49.46875 11.078125 
Q 52.15625 13.421875 53.6875 17.203125 
Q 55.21875 21 55.21875 26.421875 
L 55.21875 68.796875 
L 64.5 68.796875 
L 64.5 25.875 
Q 64.5 19 62.234375 13.9375 
Q 59.96875 8.890625 56.0625 5.5625 
Q 52.15625 2.25 46.90625 0.625 
Q 41.65625 -0.984375 35.6875 -0.984375 
" id="LiberationSans-55"/>
      <path d="M 38.671875 62.203125 
Q 32.8125 62.203125 28.296875 60.25 
Q 23.78125 58.296875 20.71875 54.6875 
Q 17.671875 51.078125 16.109375 46 
Q 14.546875 40.921875 14.546875 34.71875 
Q 14.546875 28.515625 16.234375 23.359375 
Q 17.921875 18.21875 21.0625 14.5 
Q 24.21875 10.796875 28.78125 8.734375 
Q 33.34375 6.6875 39.0625 6.6875 
Q 43.0625 6.6875 46.359375 7.734375 
Q 49.65625 8.796875 52.3125 10.6875 
Q 54.984375 12.59375 57.078125 15.203125 
Q 59.1875 17.828125 60.796875 21 
L 68.40625 17.1875 
Q 66.546875 13.328125 63.8125 10 
Q 61.078125 6.6875 57.390625 4.25 
Q 53.71875 1.8125 49.046875 0.40625 
Q 44.390625 -0.984375 38.625 -0.984375 
Q 30.28125 -0.984375 24 1.671875 
Q 17.71875 4.34375 13.5 9.109375 
Q 9.28125 13.875 7.171875 20.40625 
Q 5.078125 26.953125 5.078125 34.71875 
Q 5.078125 42.78125 7.296875 49.265625 
Q 9.515625 55.765625 13.78125 60.328125 
Q 18.0625 64.890625 24.3125 67.359375 
Q 30.5625 69.828125 38.578125 69.828125 
Q 49.5625 69.828125 56.9375 65.53125 
Q 64.3125 61.234375 67.78125 52.78125 
L 58.9375 49.859375 
Q 57.953125 52.296875 56.296875 54.515625 
Q 54.640625 56.734375 52.140625 58.4375 
Q 49.65625 60.15625 46.3125 61.171875 
Q 42.96875 62.203125 38.671875 62.203125 
" id="LiberationSans-43"/>
      <path d="M 4.890625 41.796875 
L 4.890625 49.03125 
L 53.46875 49.03125 
L 53.46875 41.796875 
z
M 4.890625 16.796875 
L 4.890625 24.03125 
L 53.46875 24.03125 
L 53.46875 16.796875 
z
" id="LiberationSans-3d"/>
      <path d="M 50.875 35.796875 
Q 50.875 26.609375 49.140625 19.703125 
Q 47.40625 12.796875 44.1875 8.203125 
Q 40.96875 3.609375 36.34375 1.3125 
Q 31.734375 -0.984375 25.984375 -0.984375 
Q 22.015625 -0.984375 18.84375 -0.171875 
Q 15.671875 0.640625 13.171875 2.34375 
Q 10.6875 4.046875 8.921875 6.78125 
Q 7.171875 9.515625 6.109375 13.375 
L 14.5 14.703125 
Q 15.875 10.25 18.78125 8.171875 
Q 21.6875 6.109375 26.125 6.109375 
Q 29.6875 6.109375 32.640625 7.78125 
Q 35.59375 9.46875 37.671875 12.84375 
Q 39.75 16.21875 40.921875 21.296875 
Q 42.09375 26.375 42.1875 33.203125 
Q 41.15625 30.90625 39.375 29.09375 
Q 37.59375 27.296875 35.328125 26.046875 
Q 33.0625 24.8125 30.421875 24.140625 
Q 27.78125 23.484375 25.09375 23.484375 
Q 20.40625 23.484375 16.625 25.171875 
Q 12.84375 26.859375 10.203125 29.875 
Q 7.5625 32.90625 6.125 37.171875 
Q 4.6875 41.453125 4.6875 46.6875 
Q 4.6875 52 6.21875 56.296875 
Q 7.765625 60.59375 10.6875 63.59375 
Q 13.625 66.609375 17.890625 68.21875 
Q 22.171875 69.828125 27.59375 69.828125 
Q 39.0625 69.828125 44.96875 61.328125 
Q 50.875 52.828125 50.875 35.796875 
M 41.3125 44.28125 
Q 41.3125 48.09375 40.40625 51.453125 
Q 39.5 54.828125 37.71875 57.3125 
Q 35.9375 59.8125 33.328125 61.25 
Q 30.71875 62.703125 27.296875 62.703125 
Q 24.125 62.703125 21.578125 61.578125 
Q 19.046875 60.453125 17.28125 58.375 
Q 15.53125 56.296875 14.578125 53.3125 
Q 13.625 50.34375 13.625 46.6875 
Q 13.625 43.21875 14.46875 40.234375 
Q 15.328125 37.25 17.03125 35.078125 
Q 18.75 32.90625 21.28125 31.65625 
Q 23.828125 30.421875 27.203125 30.421875 
Q 29.640625 30.421875 32.15625 31.25 
Q 34.671875 32.078125 36.6875 33.78125 
Q 38.71875 35.5 40.015625 38.109375 
Q 41.3125 40.71875 41.3125 44.28125 
" id="LiberationSans-39"/>
      <path d="M 51.421875 22.40625 
Q 51.421875 17.234375 49.859375 12.9375 
Q 48.296875 8.640625 45.21875 5.53125 
Q 42.140625 2.4375 37.578125 0.71875 
Q 33.015625 -0.984375 27 -0.984375 
Q 21.578125 -0.984375 17.546875 0.28125 
Q 13.53125 1.5625 10.734375 3.78125 
Q 7.953125 6 6.3125 8.984375 
Q 4.6875 11.96875 4 15.375 
L 12.890625 16.40625 
Q 13.421875 14.453125 14.390625 12.625 
Q 15.375 10.796875 17.0625 9.34375 
Q 18.75 7.90625 21.21875 7.046875 
Q 23.6875 6.203125 27.203125 6.203125 
Q 30.609375 6.203125 33.390625 7.25 
Q 36.1875 8.296875 38.15625 10.34375 
Q 40.140625 12.40625 41.203125 15.375 
Q 42.28125 18.359375 42.28125 22.21875 
Q 42.28125 25.390625 41.25 28.046875 
Q 40.234375 30.71875 38.328125 32.640625 
Q 36.421875 34.578125 33.65625 35.640625 
Q 30.90625 36.71875 27.390625 36.71875 
Q 25.203125 36.71875 23.34375 36.328125 
Q 21.484375 35.9375 19.890625 35.25 
Q 18.3125 34.578125 17.015625 33.671875 
Q 15.71875 32.765625 14.59375 31.78125 
L 6 31.78125 
L 8.296875 68.796875 
L 47.40625 68.796875 
L 47.40625 61.328125 
L 16.3125 61.328125 
L 14.984375 39.5 
Q 17.328125 41.3125 20.84375 42.59375 
Q 24.359375 43.890625 29.203125 43.890625 
Q 34.328125 43.890625 38.421875 42.328125 
Q 42.53125 40.765625 45.40625 37.90625 
Q 48.296875 35.0625 49.859375 31.109375 
Q 51.421875 27.15625 51.421875 22.40625 
" id="LiberationSans-35"/>
     </defs>
     <g style="fill:#262626;" transform="translate(234.460938 197.959375)scale(0.1 -0.1)">
      <use xlink:href="#LiberationSans-48"/>
      <use x="72.216797" xlink:href="#LiberationSans-61"/>
      <use x="127.832031" xlink:href="#LiberationSans-6e"/>
      <use x="183.447266" xlink:href="#LiberationSans-64"/>
      <use x="239.0625" xlink:href="#LiberationSans-20"/>
      <use x="266.845703" xlink:href="#LiberationSans-2d"/>
      <use x="300.146484" xlink:href="#LiberationSans-20"/>
      <use x="327.851562" xlink:href="#LiberationSans-41"/>
      <use x="394.550781" xlink:href="#LiberationSans-55"/>
      <use x="466.767578" xlink:href="#LiberationSans-43"/>
      <use x="538.984375" xlink:href="#LiberationSans-20"/>
      <use x="566.767578" xlink:href="#LiberationSans-3d"/>
      <use x="625.166016" xlink:href="#LiberationSans-20"/>
      <use x="652.949219" xlink:href="#LiberationSans-30"/>
      <use x="708.564453" xlink:href="#LiberationSans-2e"/>
      <use x="736.347656" xlink:href="#LiberationSans-36"/>
      <use x="791.962891" xlink:href="#LiberationSans-39"/>
      <use x="847.578125" xlink:href="#LiberationSans-35"/>
     </g>
    </g>
    <g id="line2d_35">
     <path d="M 206.460938 208.78125 
L 226.460938 208.78125 
" style="fill:none;stroke:#4c72b0;stroke-linecap:round;stroke-width:3;"/>
    </g>
    <g id="line2d_36"/>
    <g id="text_16">
     <!-- Arm - AUC = 0.632 -->
     <defs>
      <path d="M 37.5 0 
L 37.5 33.5 
Q 37.5 37.359375 37.015625 39.9375 
Q 36.53125 42.53125 35.375 44.109375 
Q 34.234375 45.703125 32.375 46.359375 
Q 30.515625 47.015625 27.828125 47.015625 
Q 25.046875 47.015625 22.796875 45.921875 
Q 20.5625 44.828125 18.96875 42.75 
Q 17.390625 40.671875 16.53125 37.625 
Q 15.671875 34.578125 15.671875 30.609375 
L 15.671875 0 
L 6.9375 0 
L 6.9375 41.546875 
Q 6.9375 43.21875 6.90625 45.046875 
Q 6.890625 46.875 6.828125 48.5 
Q 6.78125 50.140625 6.734375 51.3125 
Q 6.6875 52.484375 6.640625 52.828125 
L 14.9375 52.828125 
Q 14.984375 52.59375 15.03125 51.515625 
Q 15.09375 50.4375 15.15625 49.046875 
Q 15.234375 47.65625 15.28125 46.21875 
Q 15.328125 44.78125 15.328125 43.796875 
L 15.484375 43.796875 
Q 16.65625 46.09375 18.015625 47.953125 
Q 19.390625 49.8125 21.21875 51.09375 
Q 23.046875 52.390625 25.40625 53.09375 
Q 27.78125 53.8125 30.90625 53.8125 
Q 36.921875 53.8125 40.40625 51.421875 
Q 43.890625 49.03125 45.265625 43.796875 
L 45.40625 43.796875 
Q 46.578125 46.09375 48.046875 47.953125 
Q 49.515625 49.8125 51.46875 51.09375 
Q 53.421875 52.390625 55.859375 53.09375 
Q 58.296875 53.8125 61.421875 53.8125 
Q 65.4375 53.8125 68.328125 52.734375 
Q 71.234375 51.65625 73.09375 49.40625 
Q 74.953125 47.171875 75.828125 43.625 
Q 76.703125 40.09375 76.703125 35.203125 
L 76.703125 0 
L 68.015625 0 
L 68.015625 33.5 
Q 68.015625 37.359375 67.53125 39.9375 
Q 67.046875 42.53125 65.890625 44.109375 
Q 64.75 45.703125 62.890625 46.359375 
Q 61.03125 47.015625 58.34375 47.015625 
Q 55.5625 47.015625 53.3125 45.96875 
Q 51.078125 44.921875 49.484375 42.875 
Q 47.90625 40.828125 47.046875 37.75 
Q 46.1875 34.671875 46.1875 30.609375 
L 46.1875 0 
z
" id="LiberationSans-6d"/>
      <path d="M 51.21875 19 
Q 51.21875 14.265625 49.671875 10.546875 
Q 48.140625 6.84375 45.1875 4.265625 
Q 42.234375 1.703125 37.859375 0.359375 
Q 33.5 -0.984375 27.875 -0.984375 
Q 21.484375 -0.984375 17.109375 0.609375 
Q 12.75 2.203125 9.90625 4.8125 
Q 7.078125 7.421875 5.65625 10.765625 
Q 4.25 14.109375 3.8125 17.671875 
L 12.890625 18.5 
Q 13.28125 15.765625 14.328125 13.515625 
Q 15.375 11.28125 17.1875 9.671875 
Q 19 8.0625 21.625 7.171875 
Q 24.265625 6.296875 27.875 6.296875 
Q 34.515625 6.296875 38.296875 9.5625 
Q 42.09375 12.84375 42.09375 19.28125 
Q 42.09375 23.09375 40.40625 25.40625 
Q 38.71875 27.734375 36.203125 29.03125 
Q 33.6875 30.328125 30.734375 30.765625 
Q 27.78125 31.203125 25.296875 31.203125 
L 20.3125 31.203125 
L 20.3125 38.8125 
L 25.09375 38.8125 
Q 27.59375 38.8125 30.265625 39.328125 
Q 32.953125 39.84375 35.171875 41.1875 
Q 37.40625 42.53125 38.84375 44.828125 
Q 40.28125 47.125 40.28125 50.6875 
Q 40.28125 56.203125 37.03125 59.390625 
Q 33.796875 62.59375 27.390625 62.59375 
Q 21.578125 62.59375 17.984375 59.609375 
Q 14.40625 56.640625 13.8125 51.21875 
L 4.984375 51.90625 
Q 5.515625 56.453125 7.46875 59.8125 
Q 9.421875 63.1875 12.421875 65.40625 
Q 15.4375 67.625 19.28125 68.71875 
Q 23.140625 69.828125 27.484375 69.828125 
Q 33.25 69.828125 37.390625 68.375 
Q 41.546875 66.9375 44.1875 64.46875 
Q 46.828125 62.015625 48.0625 58.6875 
Q 49.3125 55.375 49.3125 51.609375 
Q 49.3125 48.578125 48.484375 45.9375 
Q 47.65625 43.3125 45.890625 41.203125 
Q 44.140625 39.109375 41.421875 37.59375 
Q 38.71875 36.078125 34.90625 35.296875 
L 34.90625 35.109375 
Q 39.0625 34.671875 42.140625 33.21875 
Q 45.21875 31.78125 47.21875 29.625 
Q 49.21875 27.484375 50.21875 24.75 
Q 51.21875 22.015625 51.21875 19 
" id="LiberationSans-33"/>
     </defs>
     <g style="fill:#262626;" transform="translate(234.460938 212.28125)scale(0.1 -0.1)">
      <use xlink:href="#LiberationSans-41"/>
      <use x="66.699219" xlink:href="#LiberationSans-72"/>
      <use x="100" xlink:href="#LiberationSans-6d"/>
      <use x="183.300781" xlink:href="#LiberationSans-20"/>
      <use x="211.083984" xlink:href="#LiberationSans-2d"/>
      <use x="244.384766" xlink:href="#LiberationSans-20"/>
      <use x="272.089844" xlink:href="#LiberationSans-41"/>
      <use x="338.789062" xlink:href="#LiberationSans-55"/>
      <use x="411.005859" xlink:href="#LiberationSans-43"/>
      <use x="483.222656" xlink:href="#LiberationSans-20"/>
      <use x="511.005859" xlink:href="#LiberationSans-3d"/>
      <use x="569.404297" xlink:href="#LiberationSans-20"/>
      <use x="597.1875" xlink:href="#LiberationSans-30"/>
      <use x="652.802734" xlink:href="#LiberationSans-2e"/>
      <use x="680.585938" xlink:href="#LiberationSans-36"/>
      <use x="736.201172" xlink:href="#LiberationSans-33"/>
      <use x="791.816406" xlink:href="#LiberationSans-32"/>
     </g>
    </g>
    <g id="line2d_37">
     <path d="M 206.460938 223.103125 
L 226.460938 223.103125 
" style="fill:none;stroke:#8172b2;stroke-linecap:round;stroke-width:3;"/>
    </g>
    <g id="line2d_38"/>
    <g id="text_17">
     <!-- Hand+Arm+Thigh - AUC = 0.626 -->
     <defs>
      <path d="M 32.765625 29.6875 
L 32.765625 8.796875 
L 25.59375 8.796875 
L 25.59375 29.6875 
L 4.890625 29.6875 
L 4.890625 36.8125 
L 25.59375 36.8125 
L 25.59375 57.71875 
L 32.765625 57.71875 
L 32.765625 36.8125 
L 53.46875 36.8125 
L 53.46875 29.6875 
z
" id="LiberationSans-2b"/>
      <path d="M 15.484375 43.796875 
Q 16.9375 46.484375 18.640625 48.359375 
Q 20.359375 50.25 22.40625 51.46875 
Q 24.46875 52.6875 26.90625 53.25 
Q 29.34375 53.8125 32.375 53.8125 
Q 37.453125 53.8125 40.703125 52.4375 
Q 43.953125 51.078125 45.828125 48.609375 
Q 47.703125 46.140625 48.40625 42.71875 
Q 49.125 39.3125 49.125 35.203125 
L 49.125 0 
L 40.28125 0 
L 40.28125 33.5 
Q 40.28125 36.859375 39.859375 39.390625 
Q 39.453125 41.9375 38.28125 43.625 
Q 37.109375 45.3125 34.953125 46.15625 
Q 32.8125 47.015625 29.390625 47.015625 
Q 26.265625 47.015625 23.75 45.890625 
Q 21.234375 44.78125 19.453125 42.71875 
Q 17.671875 40.671875 16.6875 37.734375 
Q 15.71875 34.8125 15.71875 31.15625 
L 15.71875 0 
L 6.9375 0 
L 6.9375 72.46875 
L 15.71875 72.46875 
L 15.71875 53.609375 
Q 15.71875 52 15.671875 50.390625 
Q 15.625 48.78125 15.546875 47.40625 
Q 15.484375 46.046875 15.421875 45.09375 
Q 15.375 44.140625 15.328125 43.796875 
z
" id="LiberationSans-68"/>
      <path d="M 26.765625 -20.75 
Q 22.21875 -20.75 18.703125 -19.8125 
Q 15.1875 -18.890625 12.6875 -17.15625 
Q 10.203125 -15.4375 8.640625 -13.03125 
Q 7.078125 -10.640625 6.390625 -7.71875 
L 15.234375 -6.453125 
Q 16.109375 -10.109375 19.109375 -12.078125 
Q 22.125 -14.0625 27 -14.0625 
Q 29.984375 -14.0625 32.421875 -13.234375 
Q 34.859375 -12.40625 36.5625 -10.5625 
Q 38.28125 -8.734375 39.203125 -5.796875 
Q 40.140625 -2.875 40.140625 1.3125 
L 40.140625 9.8125 
L 40.046875 9.8125 
Q 39.0625 7.8125 37.625 5.984375 
Q 36.1875 4.15625 34.109375 2.734375 
Q 32.03125 1.3125 29.296875 0.453125 
Q 26.5625 -0.390625 23.046875 -0.390625 
Q 18.015625 -0.390625 14.421875 1.296875 
Q 10.84375 2.984375 8.5625 6.34375 
Q 6.296875 9.71875 5.25 14.71875 
Q 4.203125 19.734375 4.203125 26.3125 
Q 4.203125 32.671875 5.25 37.75 
Q 6.296875 42.828125 8.65625 46.359375 
Q 11.03125 49.90625 14.8125 51.78125 
Q 18.609375 53.65625 24.03125 53.65625 
Q 29.640625 53.65625 33.765625 51.09375 
Q 37.890625 48.53125 40.140625 43.796875 
L 40.234375 43.796875 
Q 40.234375 45.015625 40.296875 46.53125 
Q 40.375 48.046875 40.453125 49.390625 
Q 40.53125 50.734375 40.625 51.703125 
Q 40.71875 52.6875 40.828125 52.828125 
L 49.171875 52.828125 
Q 49.125 52.390625 49.078125 51.34375 
Q 49.03125 50.296875 48.96875 48.828125 
Q 48.921875 47.359375 48.890625 45.578125 
Q 48.875 43.796875 48.875 41.890625 
L 48.875 1.515625 
Q 48.875 -9.578125 43.421875 -15.15625 
Q 37.984375 -20.75 26.765625 -20.75 
M 40.140625 26.421875 
Q 40.140625 31.9375 38.9375 35.859375 
Q 37.75 39.796875 35.796875 42.28125 
Q 33.84375 44.78125 31.328125 45.953125 
Q 28.8125 47.125 26.171875 47.125 
Q 22.796875 47.125 20.375 45.953125 
Q 17.96875 44.78125 16.375 42.265625 
Q 14.796875 39.75 14.03125 35.8125 
Q 13.28125 31.890625 13.28125 26.421875 
Q 13.28125 20.703125 14.03125 16.8125 
Q 14.796875 12.9375 16.359375 10.546875 
Q 17.921875 8.15625 20.3125 7.125 
Q 22.703125 6.109375 26.03125 6.109375 
Q 28.65625 6.109375 31.171875 7.21875 
Q 33.6875 8.34375 35.6875 10.78125 
Q 37.703125 13.234375 38.921875 17.09375 
Q 40.140625 20.953125 40.140625 26.421875 
" id="LiberationSans-67"/>
     </defs>
     <g style="fill:#262626;" transform="translate(234.460938 226.603125)scale(0.1 -0.1)">
      <use xlink:href="#LiberationSans-48"/>
      <use x="72.216797" xlink:href="#LiberationSans-61"/>
      <use x="127.832031" xlink:href="#LiberationSans-6e"/>
      <use x="183.447266" xlink:href="#LiberationSans-64"/>
      <use x="239.0625" xlink:href="#LiberationSans-2b"/>
      <use x="297.460938" xlink:href="#LiberationSans-41"/>
      <use x="364.160156" xlink:href="#LiberationSans-72"/>
      <use x="397.460938" xlink:href="#LiberationSans-6d"/>
      <use x="480.761719" xlink:href="#LiberationSans-2b"/>
      <use x="539.160156" xlink:href="#LiberationSans-54"/>
      <use x="600.244141" xlink:href="#LiberationSans-68"/>
      <use x="655.859375" xlink:href="#LiberationSans-69"/>
      <use x="678.076172" xlink:href="#LiberationSans-67"/>
      <use x="733.691406" xlink:href="#LiberationSans-68"/>
      <use x="789.306641" xlink:href="#LiberationSans-20"/>
      <use x="817.089844" xlink:href="#LiberationSans-2d"/>
      <use x="850.390625" xlink:href="#LiberationSans-20"/>
      <use x="878.095703" xlink:href="#LiberationSans-41"/>
      <use x="944.794922" xlink:href="#LiberationSans-55"/>
      <use x="1017.011719" xlink:href="#LiberationSans-43"/>
      <use x="1089.228516" xlink:href="#LiberationSans-20"/>
      <use x="1117.011719" xlink:href="#LiberationSans-3d"/>
      <use x="1175.410156" xlink:href="#LiberationSans-20"/>
      <use x="1203.193359" xlink:href="#LiberationSans-30"/>
      <use x="1258.808594" xlink:href="#LiberationSans-2e"/>
      <use x="1286.591797" xlink:href="#LiberationSans-36"/>
      <use x="1342.207031" xlink:href="#LiberationSans-32"/>
      <use x="1397.822266" xlink:href="#LiberationSans-36"/>
     </g>
    </g>
    <g id="line2d_39">
     <path d="M 206.460938 237.425 
L 226.460938 237.425 
" style="fill:none;stroke:#c44e52;stroke-linecap:round;stroke-width:3;"/>
    </g>
    <g id="line2d_40"/>
    <g id="text_18">
     <!-- Thigh - AUC = 0.504 -->
     <g style="fill:#262626;" transform="translate(234.460938 240.925)scale(0.1 -0.1)">
      <use xlink:href="#LiberationSans-54"/>
      <use x="61.083984" xlink:href="#LiberationSans-68"/>
      <use x="116.699219" xlink:href="#LiberationSans-69"/>
      <use x="138.916016" xlink:href="#LiberationSans-67"/>
      <use x="194.53125" xlink:href="#LiberationSans-68"/>
      <use x="250.146484" xlink:href="#LiberationSans-20"/>
      <use x="277.929688" xlink:href="#LiberationSans-2d"/>
      <use x="311.230469" xlink:href="#LiberationSans-20"/>
      <use x="338.935547" xlink:href="#LiberationSans-41"/>
      <use x="405.634766" xlink:href="#LiberationSans-55"/>
      <use x="477.851562" xlink:href="#LiberationSans-43"/>
      <use x="550.068359" xlink:href="#LiberationSans-20"/>
      <use x="577.851562" xlink:href="#LiberationSans-3d"/>
      <use x="636.25" xlink:href="#LiberationSans-20"/>
      <use x="664.033203" xlink:href="#LiberationSans-30"/>
      <use x="719.648438" xlink:href="#LiberationSans-2e"/>
      <use x="747.431641" xlink:href="#LiberationSans-35"/>
      <use x="803.046875" xlink:href="#LiberationSans-30"/>
      <use x="858.662109" xlink:href="#LiberationSans-34"/>
     </g>
    </g>
   </g>
  </g>
 </g>
 <defs>
  <clipPath id="p4b10d186d6">
   <rect height="217.44" width="334.8" x="54" y="34.56"/>
  </clipPath>
 </defs>
</svg>
