<?xml version="1.0" encoding="utf-8" standalone="no"?>
<!DOCTYPE svg PUBLIC "-//W3C//DTD SVG 1.1//EN"
  "http://www.w3.org/Graphics/SVG/1.1/DTD/svg11.dtd">
<!-- Created with matplotlib (http://matplotlib.org/) -->
<svg height="288pt" version="1.1" viewBox="0 0 432 288" width="432pt" xmlns="http://www.w3.org/2000/svg" xmlns:xlink="http://www.w3.org/1999/xlink">
 <defs>
  <style type="text/css">
*{stroke-linecap:butt;stroke-linejoin:round;}
  </style>
 </defs>
 <g id="figure_1">
  <g id="patch_1">
   <path d="M 0 288 
L 432 288 
L 432 0 
L 0 0 
z
" style="fill:#ffffff;"/>
  </g>
  <g id="axes_1">
   <g id="patch_2">
    <path d="M 54 252 
L 388.8 252 
L 388.8 34.56 
L 54 34.56 
z
" style="fill:#eaeaf2;"/>
   </g>
   <g id="matplotlib.axis_1">
    <g id="xtick_1">
     <g id="line2d_1">
      <path clip-path="url(#p250e3ddbc4)" d="M 69.942857 252 
L 69.942857 34.56 
" style="fill:none;stroke:#ffffff;stroke-linecap:round;"/>
     </g>
     <g id="line2d_2"/>
     <g id="text_1">
      <!-- 0.0 -->
      <defs>
       <path d="M 51.703125 34.421875 
Q 51.703125 24.515625 49.828125 17.75 
Q 47.953125 10.984375 44.703125 6.8125 
Q 41.453125 2.640625 37.0625 0.828125 
Q 32.671875 -0.984375 27.6875 -0.984375 
Q 22.65625 -0.984375 18.3125 0.828125 
Q 13.96875 2.640625 10.765625 6.78125 
Q 7.5625 10.9375 5.734375 17.703125 
Q 3.90625 24.46875 3.90625 34.421875 
Q 3.90625 44.828125 5.734375 51.640625 
Q 7.5625 58.453125 10.78125 62.5 
Q 14.015625 66.546875 18.40625 68.1875 
Q 22.796875 69.828125 27.984375 69.828125 
Q 32.90625 69.828125 37.21875 68.1875 
Q 41.546875 66.546875 44.765625 62.5 
Q 48 58.453125 49.84375 51.640625 
Q 51.703125 44.828125 51.703125 34.421875 
M 42.78125 34.421875 
Q 42.78125 42.625 41.796875 48.0625 
Q 40.828125 53.515625 38.921875 56.765625 
Q 37.015625 60.015625 34.25 61.359375 
Q 31.5 62.703125 27.984375 62.703125 
Q 24.265625 62.703125 21.4375 61.328125 
Q 18.609375 59.96875 16.671875 56.71875 
Q 14.75 53.46875 13.765625 48.015625 
Q 12.796875 42.578125 12.796875 34.421875 
Q 12.796875 26.515625 13.796875 21.09375 
Q 14.796875 15.671875 16.71875 12.375 
Q 18.65625 9.078125 21.4375 7.640625 
Q 24.21875 6.203125 27.78125 6.203125 
Q 31.25 6.203125 34.03125 7.640625 
Q 36.8125 9.078125 38.734375 12.375 
Q 40.671875 15.671875 41.71875 21.09375 
Q 42.78125 26.515625 42.78125 34.421875 
" id="LiberationSans-30"/>
       <path d="M 9.125 0 
L 9.125 10.6875 
L 18.65625 10.6875 
L 18.65625 0 
z
" id="LiberationSans-2e"/>
      </defs>
      <g style="fill:#262626;" transform="translate(62.992857 266.246875)scale(0.1 -0.1)">
       <use xlink:href="#LiberationSans-30"/>
       <use x="55.615234" xlink:href="#LiberationSans-2e"/>
       <use x="83.398438" xlink:href="#LiberationSans-30"/>
      </g>
     </g>
    </g>
    <g id="xtick_2">
     <g id="line2d_3">
      <path clip-path="url(#p250e3ddbc4)" d="M 133.714286 252 
L 133.714286 34.56 
" style="fill:none;stroke:#ffffff;stroke-linecap:round;"/>
     </g>
     <g id="line2d_4"/>
     <g id="text_2">
      <!-- 0.2 -->
      <defs>
       <path d="M 5.03125 0 
L 5.03125 6.203125 
Q 7.515625 11.921875 11.109375 16.28125 
Q 14.703125 20.65625 18.65625 24.1875 
Q 22.609375 27.734375 26.484375 30.765625 
Q 30.375 33.796875 33.5 36.8125 
Q 36.625 39.84375 38.546875 43.15625 
Q 40.484375 46.484375 40.484375 50.6875 
Q 40.484375 53.609375 39.59375 55.828125 
Q 38.71875 58.0625 37.0625 59.5625 
Q 35.40625 61.078125 33.078125 61.828125 
Q 30.765625 62.59375 27.9375 62.59375 
Q 25.296875 62.59375 22.96875 61.859375 
Q 20.65625 61.140625 18.84375 59.671875 
Q 17.046875 58.203125 15.890625 56.03125 
Q 14.75 53.859375 14.40625 50.984375 
L 5.421875 51.8125 
Q 5.859375 55.515625 7.46875 58.78125 
Q 9.078125 62.0625 11.90625 64.53125 
Q 14.75 67 18.71875 68.40625 
Q 22.703125 69.828125 27.9375 69.828125 
Q 33.0625 69.828125 37.0625 68.609375 
Q 41.0625 67.390625 43.8125 64.984375 
Q 46.578125 62.59375 48.046875 59.078125 
Q 49.515625 55.5625 49.515625 50.984375 
Q 49.515625 47.515625 48.265625 44.390625 
Q 47.015625 41.265625 44.9375 38.421875 
Q 42.875 35.59375 40.140625 32.953125 
Q 37.40625 30.328125 34.421875 27.8125 
Q 31.453125 25.296875 28.421875 22.828125 
Q 25.390625 20.359375 22.71875 17.859375 
Q 20.0625 15.375 17.96875 12.8125 
Q 15.875 10.25 14.703125 7.46875 
L 50.59375 7.46875 
L 50.59375 0 
z
" id="LiberationSans-32"/>
      </defs>
      <g style="fill:#262626;" transform="translate(126.764286 266.246875)scale(0.1 -0.1)">
       <use xlink:href="#LiberationSans-30"/>
       <use x="55.615234" xlink:href="#LiberationSans-2e"/>
       <use x="83.398438" xlink:href="#LiberationSans-32"/>
      </g>
     </g>
    </g>
    <g id="xtick_3">
     <g id="line2d_5">
      <path clip-path="url(#p250e3ddbc4)" d="M 197.485714 252 
L 197.485714 34.56 
" style="fill:none;stroke:#ffffff;stroke-linecap:round;"/>
     </g>
     <g id="line2d_6"/>
     <g id="text_3">
      <!-- 0.4 -->
      <defs>
       <path d="M 43.015625 15.578125 
L 43.015625 0 
L 34.71875 0 
L 34.71875 15.578125 
L 2.296875 15.578125 
L 2.296875 22.40625 
L 33.796875 68.796875 
L 43.015625 68.796875 
L 43.015625 22.515625 
L 52.6875 22.515625 
L 52.6875 15.578125 
z
M 34.71875 58.890625 
Q 34.625 58.640625 34.234375 57.9375 
Q 33.84375 57.234375 33.34375 56.34375 
Q 32.859375 55.46875 32.34375 54.5625 
Q 31.84375 53.65625 31.453125 53.078125 
L 13.8125 27.09375 
Q 13.578125 26.703125 13.109375 26.0625 
Q 12.640625 25.4375 12.15625 24.78125 
Q 11.671875 24.125 11.171875 23.484375 
Q 10.6875 22.859375 10.40625 22.515625 
L 34.71875 22.515625 
z
" id="LiberationSans-34"/>
      </defs>
      <g style="fill:#262626;" transform="translate(190.535714 266.246875)scale(0.1 -0.1)">
       <use xlink:href="#LiberationSans-30"/>
       <use x="55.615234" xlink:href="#LiberationSans-2e"/>
       <use x="83.398438" xlink:href="#LiberationSans-34"/>
      </g>
     </g>
    </g>
    <g id="xtick_4">
     <g id="line2d_7">
      <path clip-path="url(#p250e3ddbc4)" d="M 261.257143 252 
L 261.257143 34.56 
" style="fill:none;stroke:#ffffff;stroke-linecap:round;"/>
     </g>
     <g id="line2d_8"/>
     <g id="text_4">
      <!-- 0.6 -->
      <defs>
       <path d="M 51.21875 22.515625 
Q 51.21875 17.328125 49.78125 13 
Q 48.34375 8.6875 45.53125 5.578125 
Q 42.71875 2.484375 38.5625 0.75 
Q 34.421875 -0.984375 29 -0.984375 
Q 23 -0.984375 18.5 1.3125 
Q 14.015625 3.609375 11.03125 7.921875 
Q 8.0625 12.25 6.5625 18.53125 
Q 5.078125 24.8125 5.078125 32.8125 
Q 5.078125 42 6.765625 48.921875 
Q 8.453125 55.859375 11.625 60.5 
Q 14.796875 65.140625 19.359375 67.484375 
Q 23.921875 69.828125 29.6875 69.828125 
Q 33.203125 69.828125 36.28125 69.09375 
Q 39.359375 68.359375 41.875 66.71875 
Q 44.390625 65.09375 46.28125 62.40625 
Q 48.1875 59.71875 49.3125 55.8125 
L 40.921875 54.296875 
Q 39.546875 58.734375 36.546875 60.71875 
Q 33.546875 62.703125 29.59375 62.703125 
Q 25.984375 62.703125 23.046875 60.984375 
Q 20.125 59.28125 18.0625 55.875 
Q 16.015625 52.484375 14.90625 47.359375 
Q 13.8125 42.234375 13.8125 35.40625 
Q 16.21875 39.84375 20.5625 42.15625 
Q 24.90625 44.484375 30.515625 44.484375 
Q 35.203125 44.484375 39.015625 42.96875 
Q 42.828125 41.453125 45.53125 38.59375 
Q 48.25 35.75 49.734375 31.671875 
Q 51.21875 27.59375 51.21875 22.515625 
M 42.28125 22.125 
Q 42.28125 25.6875 41.40625 28.5625 
Q 40.53125 31.453125 38.765625 33.46875 
Q 37.015625 35.5 34.421875 36.59375 
Q 31.84375 37.703125 28.421875 37.703125 
Q 26.03125 37.703125 23.578125 36.984375 
Q 21.140625 36.28125 19.15625 34.6875 
Q 17.1875 33.109375 15.9375 30.515625 
Q 14.703125 27.9375 14.703125 24.21875 
Q 14.703125 20.40625 15.671875 17.109375 
Q 16.65625 13.8125 18.484375 11.375 
Q 20.3125 8.9375 22.890625 7.515625 
Q 25.484375 6.109375 28.71875 6.109375 
Q 31.890625 6.109375 34.40625 7.203125 
Q 36.921875 8.296875 38.671875 10.375 
Q 40.4375 12.453125 41.359375 15.421875 
Q 42.28125 18.40625 42.28125 22.125 
" id="LiberationSans-36"/>
      </defs>
      <g style="fill:#262626;" transform="translate(254.307143 266.246875)scale(0.1 -0.1)">
       <use xlink:href="#LiberationSans-30"/>
       <use x="55.615234" xlink:href="#LiberationSans-2e"/>
       <use x="83.398438" xlink:href="#LiberationSans-36"/>
      </g>
     </g>
    </g>
    <g id="xtick_5">
     <g id="line2d_9">
      <path clip-path="url(#p250e3ddbc4)" d="M 325.028571 252 
L 325.028571 34.56 
" style="fill:none;stroke:#ffffff;stroke-linecap:round;"/>
     </g>
     <g id="line2d_10"/>
     <g id="text_5">
      <!-- 0.8 -->
      <defs>
       <path d="M 51.265625 19.1875 
Q 51.265625 14.796875 49.875 11.109375 
Q 48.484375 7.421875 45.625 4.734375 
Q 42.78125 2.046875 38.328125 0.53125 
Q 33.890625 -0.984375 27.828125 -0.984375 
Q 21.78125 -0.984375 17.359375 0.53125 
Q 12.9375 2.046875 10.03125 4.703125 
Q 7.125 7.375 5.734375 11.0625 
Q 4.34375 14.75 4.34375 19.09375 
Q 4.34375 22.859375 5.484375 25.78125 
Q 6.640625 28.71875 8.5625 30.828125 
Q 10.5 32.953125 12.96875 34.25 
Q 15.4375 35.546875 18.0625 35.984375 
L 18.0625 36.1875 
Q 15.1875 36.859375 12.90625 38.375 
Q 10.640625 39.890625 9.09375 42.015625 
Q 7.5625 44.140625 6.75 46.71875 
Q 5.953125 49.3125 5.953125 52.203125 
Q 5.953125 55.8125 7.34375 59 
Q 8.734375 62.203125 11.46875 64.625 
Q 14.203125 67.046875 18.25 68.4375 
Q 22.3125 69.828125 27.640625 69.828125 
Q 33.25 69.828125 37.375 68.40625 
Q 41.5 67 44.203125 64.578125 
Q 46.921875 62.15625 48.234375 58.9375 
Q 49.5625 55.71875 49.5625 52.09375 
Q 49.5625 49.265625 48.75 46.671875 
Q 47.953125 44.09375 46.40625 41.96875 
Q 44.875 39.84375 42.59375 38.34375 
Q 40.328125 36.859375 37.359375 36.28125 
L 37.359375 36.078125 
Q 40.328125 35.59375 42.859375 34.296875 
Q 45.40625 33.015625 47.265625 30.890625 
Q 49.125 28.765625 50.1875 25.828125 
Q 51.265625 22.90625 51.265625 19.1875 
M 40.4375 51.609375 
Q 40.4375 54.203125 39.765625 56.34375 
Q 39.109375 58.5 37.59375 60.03125 
Q 36.078125 61.578125 33.640625 62.421875 
Q 31.203125 63.28125 27.640625 63.28125 
Q 24.171875 63.28125 21.78125 62.421875 
Q 19.390625 61.578125 17.84375 60.03125 
Q 16.3125 58.5 15.625 56.34375 
Q 14.9375 54.203125 14.9375 51.609375 
Q 14.9375 49.5625 15.46875 47.40625 
Q 16.015625 45.265625 17.421875 43.5 
Q 18.84375 41.75 21.328125 40.625 
Q 23.828125 39.5 27.734375 39.5 
Q 31.890625 39.5 34.40625 40.625 
Q 36.921875 41.75 38.25 43.5 
Q 39.59375 45.265625 40.015625 47.40625 
Q 40.4375 49.5625 40.4375 51.609375 
M 42.140625 20.015625 
Q 42.140625 22.515625 41.453125 24.828125 
Q 40.765625 27.15625 39.109375 28.9375 
Q 37.453125 30.71875 34.640625 31.8125 
Q 31.84375 32.90625 27.640625 32.90625 
Q 23.78125 32.90625 21.0625 31.8125 
Q 18.359375 30.71875 16.671875 28.90625 
Q 14.984375 27.09375 14.203125 24.71875 
Q 13.421875 22.359375 13.421875 19.828125 
Q 13.421875 16.65625 14.203125 14.03125 
Q 14.984375 11.421875 16.6875 9.546875 
Q 18.40625 7.671875 21.1875 6.640625 
Q 23.96875 5.609375 27.9375 5.609375 
Q 31.9375 5.609375 34.671875 6.640625 
Q 37.40625 7.671875 39.0625 9.546875 
Q 40.71875 11.421875 41.421875 14.078125 
Q 42.140625 16.75 42.140625 20.015625 
" id="LiberationSans-38"/>
      </defs>
      <g style="fill:#262626;" transform="translate(318.078571 266.246875)scale(0.1 -0.1)">
       <use xlink:href="#LiberationSans-30"/>
       <use x="55.615234" xlink:href="#LiberationSans-2e"/>
       <use x="83.398438" xlink:href="#LiberationSans-38"/>
      </g>
     </g>
    </g>
    <g id="xtick_6">
     <g id="line2d_11">
      <path clip-path="url(#p250e3ddbc4)" d="M 388.8 252 
L 388.8 34.56 
" style="fill:none;stroke:#ffffff;stroke-linecap:round;"/>
     </g>
     <g id="line2d_12"/>
     <g id="text_6">
      <!-- 1.0 -->
      <defs>
       <path d="M 7.625 0 
L 7.625 7.46875 
L 25.140625 7.46875 
L 25.140625 60.40625 
L 9.625 49.3125 
L 9.625 57.625 
L 25.875 68.796875 
L 33.984375 68.796875 
L 33.984375 7.46875 
L 50.734375 7.46875 
L 50.734375 0 
z
" id="LiberationSans-31"/>
      </defs>
      <g style="fill:#262626;" transform="translate(381.85 266.246875)scale(0.1 -0.1)">
       <use xlink:href="#LiberationSans-31"/>
       <use x="55.615234" xlink:href="#LiberationSans-2e"/>
       <use x="83.398438" xlink:href="#LiberationSans-30"/>
      </g>
     </g>
    </g>
    <g id="text_7">
     <!-- False Positive Rate -->
     <defs>
      <path d="M 17.53125 61.1875 
L 17.53125 35.59375 
L 55.90625 35.59375 
L 55.90625 27.875 
L 17.53125 27.875 
L 17.53125 0 
L 8.203125 0 
L 8.203125 68.796875 
L 57.078125 68.796875 
L 57.078125 61.1875 
z
" id="LiberationSans-46"/>
      <path d="M 20.21875 -0.984375 
Q 12.25 -0.984375 8.25 3.21875 
Q 4.25 7.421875 4.25 14.75 
Q 4.25 19.96875 6.21875 23.3125 
Q 8.203125 26.65625 11.390625 28.5625 
Q 14.59375 30.46875 18.6875 31.203125 
Q 22.796875 31.9375 27.046875 32.03125 
L 38.921875 32.234375 
L 38.921875 35.109375 
Q 38.921875 38.375 38.234375 40.671875 
Q 37.546875 42.96875 36.125 44.375 
Q 34.71875 45.796875 32.59375 46.453125 
Q 30.46875 47.125 27.59375 47.125 
Q 25.046875 47.125 23 46.75 
Q 20.953125 46.390625 19.4375 45.4375 
Q 17.921875 44.484375 16.984375 42.84375 
Q 16.0625 41.21875 15.765625 38.71875 
L 6.59375 39.546875 
Q 7.078125 42.671875 8.4375 45.28125 
Q 9.8125 47.90625 12.328125 49.796875 
Q 14.84375 51.703125 18.625 52.75 
Q 22.40625 53.8125 27.78125 53.8125 
Q 37.75 53.8125 42.765625 49.234375 
Q 47.796875 44.671875 47.796875 36.03125 
L 47.796875 13.28125 
Q 47.796875 9.375 48.828125 7.390625 
Q 49.859375 5.421875 52.734375 5.421875 
Q 53.46875 5.421875 54.203125 5.515625 
Q 54.9375 5.609375 55.609375 5.765625 
L 55.609375 0.296875 
Q 53.953125 -0.09375 52.3125 -0.28125 
Q 50.6875 -0.484375 48.828125 -0.484375 
Q 46.34375 -0.484375 44.5625 0.171875 
Q 42.78125 0.828125 41.65625 2.171875 
Q 40.53125 3.515625 39.9375 5.484375 
Q 39.359375 7.46875 39.203125 10.109375 
L 38.921875 10.109375 
Q 37.5 7.5625 35.8125 5.515625 
Q 34.125 3.46875 31.875 2.03125 
Q 29.640625 0.59375 26.78125 -0.1875 
Q 23.921875 -0.984375 20.21875 -0.984375 
M 22.21875 5.609375 
Q 26.421875 5.609375 29.5625 7.140625 
Q 32.71875 8.6875 34.78125 11.078125 
Q 36.859375 13.484375 37.890625 16.3125 
Q 38.921875 19.140625 38.921875 21.734375 
L 38.921875 26.078125 
L 29.296875 25.875 
Q 26.078125 25.828125 23.171875 25.40625 
Q 20.265625 25 18.0625 23.78125 
Q 15.875 22.5625 14.578125 20.359375 
Q 13.28125 18.171875 13.28125 14.59375 
Q 13.28125 10.296875 15.59375 7.953125 
Q 17.921875 5.609375 22.21875 5.609375 
" id="LiberationSans-61"/>
      <path d="M 6.734375 0 
L 6.734375 72.46875 
L 15.53125 72.46875 
L 15.53125 0 
z
" id="LiberationSans-6c"/>
      <path d="M 46.390625 14.59375 
Q 46.390625 10.890625 44.9375 7.984375 
Q 43.5 5.078125 40.765625 3.09375 
Q 38.03125 1.125 34.046875 0.0625 
Q 30.078125 -0.984375 24.953125 -0.984375 
Q 20.359375 -0.984375 16.671875 -0.265625 
Q 12.984375 0.4375 10.203125 2 
Q 7.421875 3.5625 5.53125 6.125 
Q 3.65625 8.6875 2.78125 12.40625 
L 10.546875 13.921875 
Q 11.671875 9.671875 15.1875 7.6875 
Q 18.703125 5.71875 24.953125 5.71875 
Q 27.78125 5.71875 30.140625 6.109375 
Q 32.515625 6.5 34.21875 7.453125 
Q 35.9375 8.40625 36.890625 9.984375 
Q 37.84375 11.578125 37.84375 13.921875 
Q 37.84375 16.3125 36.71875 17.84375 
Q 35.59375 19.390625 33.59375 20.40625 
Q 31.59375 21.4375 28.734375 22.1875 
Q 25.875 22.953125 22.46875 23.875 
Q 19.28125 24.703125 16.15625 25.734375 
Q 13.03125 26.765625 10.515625 28.4375 
Q 8.015625 30.125 6.453125 32.609375 
Q 4.890625 35.109375 4.890625 38.875 
Q 4.890625 46.09375 10.03125 49.875 
Q 15.1875 53.65625 25.046875 53.65625 
Q 33.796875 53.65625 38.9375 50.578125 
Q 44.09375 47.515625 45.453125 40.71875 
L 37.546875 39.75 
Q 37.109375 41.796875 35.9375 43.1875 
Q 34.765625 44.578125 33.109375 45.4375 
Q 31.453125 46.296875 29.375 46.65625 
Q 27.296875 47.015625 25.046875 47.015625 
Q 19.09375 47.015625 16.25 45.203125 
Q 13.421875 43.40625 13.421875 39.75 
Q 13.421875 37.59375 14.46875 36.203125 
Q 15.53125 34.8125 17.40625 33.859375 
Q 19.28125 32.90625 21.921875 32.203125 
Q 24.5625 31.5 27.734375 30.71875 
Q 29.828125 30.171875 32.03125 29.5625 
Q 34.234375 28.953125 36.296875 28.09375 
Q 38.375 27.25 40.203125 26.09375 
Q 42.046875 24.953125 43.40625 23.34375 
Q 44.78125 21.734375 45.578125 19.578125 
Q 46.390625 17.4375 46.390625 14.59375 
" id="LiberationSans-73"/>
      <path d="M 13.484375 24.5625 
Q 13.484375 20.40625 14.328125 16.90625 
Q 15.1875 13.421875 16.96875 10.90625 
Q 18.75 8.40625 21.53125 7 
Q 24.3125 5.609375 28.21875 5.609375 
Q 33.9375 5.609375 37.375 7.90625 
Q 40.828125 10.203125 42.046875 13.71875 
L 49.75 11.53125 
Q 48.921875 9.328125 47.4375 7.109375 
Q 45.953125 4.890625 43.453125 3.09375 
Q 40.96875 1.3125 37.234375 0.15625 
Q 33.5 -0.984375 28.21875 -0.984375 
Q 16.5 -0.984375 10.375 6 
Q 4.25 12.984375 4.25 26.765625 
Q 4.25 34.1875 6.09375 39.328125 
Q 7.953125 44.484375 11.171875 47.703125 
Q 14.40625 50.921875 18.703125 52.359375 
Q 23 53.8125 27.875 53.8125 
Q 34.515625 53.8125 38.984375 51.65625 
Q 43.453125 49.515625 46.15625 45.71875 
Q 48.875 41.9375 50.015625 36.8125 
Q 51.171875 31.6875 51.171875 25.734375 
L 51.171875 24.5625 
z
M 42.09375 31.296875 
Q 41.359375 39.65625 37.84375 43.484375 
Q 34.328125 47.3125 27.734375 47.3125 
Q 25.53125 47.3125 23.109375 46.609375 
Q 20.703125 45.90625 18.65625 44.09375 
Q 16.609375 42.28125 15.1875 39.171875 
Q 13.765625 36.078125 13.578125 31.296875 
z
" id="LiberationSans-65"/>
      <path id="LiberationSans-20"/>
      <path d="M 61.421875 48.09375 
Q 61.421875 43.609375 59.9375 39.71875 
Q 58.453125 35.84375 55.5 32.984375 
Q 52.546875 30.125 48.09375 28.46875 
Q 43.65625 26.8125 37.75 26.8125 
L 17.53125 26.8125 
L 17.53125 0 
L 8.203125 0 
L 8.203125 68.796875 
L 37.15625 68.796875 
Q 43.265625 68.796875 47.796875 67.3125 
Q 52.34375 65.828125 55.375 63.109375 
Q 58.40625 60.40625 59.90625 56.5625 
Q 61.421875 52.734375 61.421875 48.09375 
M 52.046875 48 
Q 52.046875 54.546875 48.046875 57.9375 
Q 44.046875 61.328125 36.03125 61.328125 
L 17.53125 61.328125 
L 17.53125 34.1875 
L 36.421875 34.1875 
Q 44.484375 34.1875 48.265625 37.75 
Q 52.046875 41.3125 52.046875 48 
" id="LiberationSans-50"/>
      <path d="M 51.421875 26.46875 
Q 51.421875 12.59375 45.3125 5.796875 
Q 39.203125 -0.984375 27.59375 -0.984375 
Q 22.078125 -0.984375 17.71875 0.671875 
Q 13.375 2.34375 10.375 5.765625 
Q 7.375 9.1875 5.78125 14.328125 
Q 4.203125 19.484375 4.203125 26.46875 
Q 4.203125 53.8125 27.875 53.8125 
Q 34.03125 53.8125 38.5 52.09375 
Q 42.96875 50.390625 45.828125 46.96875 
Q 48.6875 43.5625 50.046875 38.421875 
Q 51.421875 33.296875 51.421875 26.46875 
M 42.1875 26.46875 
Q 42.1875 32.625 41.234375 36.625 
Q 40.28125 40.625 38.453125 43.015625 
Q 36.625 45.40625 33.984375 46.359375 
Q 31.34375 47.3125 28.03125 47.3125 
Q 24.65625 47.3125 21.9375 46.3125 
Q 19.234375 45.3125 17.328125 42.890625 
Q 15.4375 40.484375 14.421875 36.46875 
Q 13.421875 32.46875 13.421875 26.46875 
Q 13.421875 20.3125 14.5 16.28125 
Q 15.578125 12.25 17.453125 9.859375 
Q 19.34375 7.46875 21.90625 6.484375 
Q 24.46875 5.515625 27.484375 5.515625 
Q 30.859375 5.515625 33.59375 6.46875 
Q 36.328125 7.421875 38.234375 9.8125 
Q 40.140625 12.203125 41.15625 16.25 
Q 42.1875 20.3125 42.1875 26.46875 
" id="LiberationSans-6f"/>
      <path d="M 6.6875 64.0625 
L 6.6875 72.46875 
L 15.484375 72.46875 
L 15.484375 64.0625 
z
M 6.6875 0 
L 6.6875 52.828125 
L 15.484375 52.828125 
L 15.484375 0 
z
" id="LiberationSans-69"/>
      <path d="M 27.046875 0.390625 
Q 25.046875 -0.140625 22.96875 -0.453125 
Q 20.90625 -0.78125 18.171875 -0.78125 
Q 7.625 -0.78125 7.625 11.1875 
L 7.625 46.4375 
L 1.515625 46.4375 
L 1.515625 52.828125 
L 7.953125 52.828125 
L 10.546875 64.65625 
L 16.40625 64.65625 
L 16.40625 52.828125 
L 26.171875 52.828125 
L 26.171875 46.4375 
L 16.40625 46.4375 
L 16.40625 13.09375 
Q 16.40625 9.28125 17.640625 7.734375 
Q 18.890625 6.203125 21.96875 6.203125 
Q 23.25 6.203125 24.4375 6.390625 
Q 25.640625 6.59375 27.046875 6.890625 
z
" id="LiberationSans-74"/>
      <path d="M 29.9375 0 
L 19.53125 0 
L 0.34375 52.828125 
L 9.71875 52.828125 
L 21.34375 18.453125 
Q 21.6875 17.390625 22.140625 15.84375 
Q 22.609375 14.3125 23.09375 12.640625 
Q 23.578125 10.984375 24 9.4375 
Q 24.421875 7.90625 24.703125 6.890625 
Q 25 7.90625 25.453125 9.4375 
Q 25.921875 10.984375 26.40625 12.59375 
Q 26.90625 14.203125 27.421875 15.734375 
Q 27.9375 17.28125 28.328125 18.359375 
L 40.328125 52.828125 
L 49.65625 52.828125 
z
" id="LiberationSans-76"/>
      <path d="M 56.84375 0 
L 38.96875 28.5625 
L 17.53125 28.5625 
L 17.53125 0 
L 8.203125 0 
L 8.203125 68.796875 
L 40.578125 68.796875 
Q 46.4375 68.796875 50.953125 67.453125 
Q 55.46875 66.109375 58.546875 63.5625 
Q 61.625 61.03125 63.234375 57.375 
Q 64.84375 53.71875 64.84375 49.125 
Q 64.84375 45.84375 63.890625 42.671875 
Q 62.9375 39.5 60.890625 36.859375 
Q 58.84375 34.234375 55.65625 32.328125 
Q 52.484375 30.421875 48.046875 29.640625 
L 67.578125 0 
z
M 55.46875 49.03125 
Q 55.46875 52.15625 54.390625 54.4375 
Q 53.328125 56.734375 51.265625 58.265625 
Q 49.21875 59.8125 46.28125 60.5625 
Q 43.359375 61.328125 39.65625 61.328125 
L 17.53125 61.328125 
L 17.53125 35.9375 
L 40.046875 35.9375 
Q 44.046875 35.9375 46.96875 36.9375 
Q 49.90625 37.9375 51.78125 39.6875 
Q 53.65625 41.453125 54.5625 43.84375 
Q 55.46875 46.234375 55.46875 49.03125 
" id="LiberationSans-52"/>
     </defs>
     <g style="fill:#262626;" transform="translate(152.485 283.916875)scale(0.16 -0.16)">
      <use xlink:href="#LiberationSans-46"/>
      <use x="61.083984" xlink:href="#LiberationSans-61"/>
      <use x="116.699219" xlink:href="#LiberationSans-6c"/>
      <use x="138.916016" xlink:href="#LiberationSans-73"/>
      <use x="188.916016" xlink:href="#LiberationSans-65"/>
      <use x="244.53125" xlink:href="#LiberationSans-20"/>
      <use x="272.314453" xlink:href="#LiberationSans-50"/>
      <use x="339.013672" xlink:href="#LiberationSans-6f"/>
      <use x="394.628906" xlink:href="#LiberationSans-73"/>
      <use x="444.628906" xlink:href="#LiberationSans-69"/>
      <use x="466.845703" xlink:href="#LiberationSans-74"/>
      <use x="494.628906" xlink:href="#LiberationSans-69"/>
      <use x="516.845703" xlink:href="#LiberationSans-76"/>
      <use x="566.845703" xlink:href="#LiberationSans-65"/>
      <use x="622.460938" xlink:href="#LiberationSans-20"/>
      <use x="650.244141" xlink:href="#LiberationSans-52"/>
      <use x="722.460938" xlink:href="#LiberationSans-61"/>
      <use x="778.076172" xlink:href="#LiberationSans-74"/>
      <use x="805.859375" xlink:href="#LiberationSans-65"/>
     </g>
    </g>
   </g>
   <g id="matplotlib.axis_2">
    <g id="ytick_1">
     <g id="line2d_13">
      <path clip-path="url(#p250e3ddbc4)" d="M 54 252 
L 388.8 252 
" style="fill:none;stroke:#ffffff;stroke-linecap:round;"/>
     </g>
     <g id="line2d_14"/>
     <g id="text_8">
      <!-- 0.0 -->
      <g style="fill:#262626;" transform="translate(33.1 255.623437)scale(0.1 -0.1)">
       <use xlink:href="#LiberationSans-30"/>
       <use x="55.615234" xlink:href="#LiberationSans-2e"/>
       <use x="83.398438" xlink:href="#LiberationSans-30"/>
      </g>
     </g>
    </g>
    <g id="ytick_2">
     <g id="line2d_15">
      <path clip-path="url(#p250e3ddbc4)" d="M 54 210.582857 
L 388.8 210.582857 
" style="fill:none;stroke:#ffffff;stroke-linecap:round;"/>
     </g>
     <g id="line2d_16"/>
     <g id="text_9">
      <!-- 0.2 -->
      <g style="fill:#262626;" transform="translate(33.1 214.206295)scale(0.1 -0.1)">
       <use xlink:href="#LiberationSans-30"/>
       <use x="55.615234" xlink:href="#LiberationSans-2e"/>
       <use x="83.398438" xlink:href="#LiberationSans-32"/>
      </g>
     </g>
    </g>
    <g id="ytick_3">
     <g id="line2d_17">
      <path clip-path="url(#p250e3ddbc4)" d="M 54 169.165714 
L 388.8 169.165714 
" style="fill:none;stroke:#ffffff;stroke-linecap:round;"/>
     </g>
     <g id="line2d_18"/>
     <g id="text_10">
      <!-- 0.4 -->
      <g style="fill:#262626;" transform="translate(33.1 172.789152)scale(0.1 -0.1)">
       <use xlink:href="#LiberationSans-30"/>
       <use x="55.615234" xlink:href="#LiberationSans-2e"/>
       <use x="83.398438" xlink:href="#LiberationSans-34"/>
      </g>
     </g>
    </g>
    <g id="ytick_4">
     <g id="line2d_19">
      <path clip-path="url(#p250e3ddbc4)" d="M 54 127.748571 
L 388.8 127.748571 
" style="fill:none;stroke:#ffffff;stroke-linecap:round;"/>
     </g>
     <g id="line2d_20"/>
     <g id="text_11">
      <!-- 0.6 -->
      <g style="fill:#262626;" transform="translate(33.1 131.372009)scale(0.1 -0.1)">
       <use xlink:href="#LiberationSans-30"/>
       <use x="55.615234" xlink:href="#LiberationSans-2e"/>
       <use x="83.398438" xlink:href="#LiberationSans-36"/>
      </g>
     </g>
    </g>
    <g id="ytick_5">
     <g id="line2d_21">
      <path clip-path="url(#p250e3ddbc4)" d="M 54 86.331429 
L 388.8 86.331429 
" style="fill:none;stroke:#ffffff;stroke-linecap:round;"/>
     </g>
     <g id="line2d_22"/>
     <g id="text_12">
      <!-- 0.8 -->
      <g style="fill:#262626;" transform="translate(33.1 89.954866)scale(0.1 -0.1)">
       <use xlink:href="#LiberationSans-30"/>
       <use x="55.615234" xlink:href="#LiberationSans-2e"/>
       <use x="83.398438" xlink:href="#LiberationSans-38"/>
      </g>
     </g>
    </g>
    <g id="ytick_6">
     <g id="line2d_23">
      <path clip-path="url(#p250e3ddbc4)" d="M 54 44.914286 
L 388.8 44.914286 
" style="fill:none;stroke:#ffffff;stroke-linecap:round;"/>
     </g>
     <g id="line2d_24"/>
     <g id="text_13">
      <!-- 1.0 -->
      <g style="fill:#262626;" transform="translate(33.1 48.537723)scale(0.1 -0.1)">
       <use xlink:href="#LiberationSans-31"/>
       <use x="55.615234" xlink:href="#LiberationSans-2e"/>
       <use x="83.398438" xlink:href="#LiberationSans-30"/>
      </g>
     </g>
    </g>
    <g id="text_14">
     <!-- True Positive Rate -->
     <defs>
      <path d="M 35.15625 61.1875 
L 35.15625 0 
L 25.875 0 
L 25.875 61.1875 
L 2.25 61.1875 
L 2.25 68.796875 
L 58.796875 68.796875 
L 58.796875 61.1875 
z
" id="LiberationSans-54"/>
      <path d="M 6.9375 0 
L 6.9375 40.53125 
Q 6.9375 42.1875 6.90625 43.921875 
Q 6.890625 45.65625 6.828125 47.265625 
Q 6.78125 48.875 6.734375 50.28125 
Q 6.6875 51.703125 6.640625 52.828125 
L 14.9375 52.828125 
Q 14.984375 51.703125 15.0625 50.265625 
Q 15.140625 48.828125 15.203125 47.3125 
Q 15.28125 45.796875 15.296875 44.40625 
Q 15.328125 43.015625 15.328125 42.046875 
L 15.53125 42.046875 
Q 16.453125 45.0625 17.5 47.28125 
Q 18.5625 49.515625 19.96875 50.953125 
Q 21.390625 52.390625 23.34375 53.09375 
Q 25.296875 53.8125 28.078125 53.8125 
Q 29.15625 53.8125 30.125 53.640625 
Q 31.109375 53.46875 31.640625 53.328125 
L 31.640625 45.265625 
Q 30.765625 45.515625 29.59375 45.625 
Q 28.421875 45.75 26.953125 45.75 
Q 23.921875 45.75 21.796875 44.375 
Q 19.671875 43.015625 18.328125 40.59375 
Q 17 38.1875 16.359375 34.84375 
Q 15.71875 31.5 15.71875 27.546875 
L 15.71875 0 
z
" id="LiberationSans-72"/>
      <path d="M 15.328125 52.828125 
L 15.328125 19.34375 
Q 15.328125 15.484375 15.890625 12.890625 
Q 16.453125 10.296875 17.71875 8.703125 
Q 19 7.125 21.0625 6.46875 
Q 23.140625 5.8125 26.21875 5.8125 
Q 29.34375 5.8125 31.859375 6.90625 
Q 34.375 8.015625 36.15625 10.078125 
Q 37.9375 12.15625 38.90625 15.203125 
Q 39.890625 18.265625 39.890625 22.21875 
L 39.890625 52.828125 
L 48.6875 52.828125 
L 48.6875 11.28125 
Q 48.6875 9.625 48.703125 7.78125 
Q 48.734375 5.953125 48.78125 4.3125 
Q 48.828125 2.6875 48.875 1.515625 
Q 48.921875 0.34375 48.96875 0 
L 40.671875 0 
Q 40.625 0.25 40.578125 1.3125 
Q 40.53125 2.390625 40.453125 3.78125 
Q 40.375 5.171875 40.328125 6.609375 
Q 40.28125 8.0625 40.28125 9.03125 
L 40.140625 9.03125 
Q 38.875 6.734375 37.359375 4.875 
Q 35.84375 3.03125 33.84375 1.734375 
Q 31.84375 0.4375 29.25 -0.265625 
Q 26.65625 -0.984375 23.25 -0.984375 
Q 18.84375 -0.984375 15.671875 0.09375 
Q 12.5 1.171875 10.453125 3.421875 
Q 8.40625 5.671875 7.453125 9.1875 
Q 6.5 12.703125 6.5 17.625 
L 6.5 52.828125 
z
" id="LiberationSans-75"/>
     </defs>
     <g style="fill:#262626;" transform="translate(25.78 209.0775)rotate(-90)scale(0.16 -0.16)">
      <use xlink:href="#LiberationSans-54"/>
      <use x="61.037109" xlink:href="#LiberationSans-72"/>
      <use x="94.337891" xlink:href="#LiberationSans-75"/>
      <use x="149.953125" xlink:href="#LiberationSans-65"/>
      <use x="205.568359" xlink:href="#LiberationSans-20"/>
      <use x="233.351562" xlink:href="#LiberationSans-50"/>
      <use x="300.050781" xlink:href="#LiberationSans-6f"/>
      <use x="355.666016" xlink:href="#LiberationSans-73"/>
      <use x="405.666016" xlink:href="#LiberationSans-69"/>
      <use x="427.882812" xlink:href="#LiberationSans-74"/>
      <use x="455.666016" xlink:href="#LiberationSans-69"/>
      <use x="477.882812" xlink:href="#LiberationSans-76"/>
      <use x="527.882812" xlink:href="#LiberationSans-65"/>
      <use x="583.498047" xlink:href="#LiberationSans-20"/>
      <use x="611.28125" xlink:href="#LiberationSans-52"/>
      <use x="683.498047" xlink:href="#LiberationSans-61"/>
      <use x="739.113281" xlink:href="#LiberationSans-74"/>
      <use x="766.896484" xlink:href="#LiberationSans-65"/>
     </g>
    </g>
   </g>
   <g id="PolyCollection_1">
    <path clip-path="url(#p250e3ddbc4)" d="M 69.942857 245.499995 
L 69.942857 250.984054 
L 73.131429 233.627857 
L 76.32 222.839959 
L 79.508571 209.388303 
L 82.697143 200.982354 
L 85.885714 195.684345 
L 89.074286 189.934619 
L 92.262857 184.676549 
L 95.451429 180.64116 
L 98.64 176.620819 
L 101.828571 170.523506 
L 105.017143 166.415638 
L 108.205714 162.737083 
L 111.394286 158.551059 
L 114.582857 154.953912 
L 117.771429 151.453734 
L 120.96 146.103108 
L 124.148571 142.101947 
L 127.337143 139.964218 
L 130.525714 135.563228 
L 133.714286 133.397558 
L 136.902857 131.08036 
L 140.091429 128.646198 
L 143.28 126.516326 
L 146.468571 124.20208 
L 149.657143 121.716365 
L 152.845714 119.542474 
L 156.034286 117.531135 
L 159.222857 115.519853 
L 162.411429 113.884328 
L 165.6 110.578891 
L 168.788571 108.616888 
L 171.977143 105.983939 
L 175.165714 104.096573 
L 178.354286 102.775149 
L 181.542857 101.405095 
L 184.731429 99.462291 
L 187.92 97.848994 
L 191.108571 95.59736 
L 194.297143 93.380431 
L 197.485714 91.66478 
L 200.674286 89.609043 
L 203.862857 87.919638 
L 207.051429 86.781087 
L 210.24 85.228166 
L 213.428571 83.950396 
L 216.617143 82.231752 
L 219.805714 81.472215 
L 222.994286 80.153753 
L 226.182857 78.978301 
L 229.371429 77.47373 
L 232.56 76.787946 
L 235.748571 75.997554 
L 238.937143 75.567903 
L 242.125714 74.937609 
L 245.314286 74.022346 
L 248.502857 73.356844 
L 251.691429 72.566354 
L 254.88 71.374682 
L 258.068571 70.697132 
L 261.257143 70.017141 
L 264.445714 69.481416 
L 267.634286 68.859615 
L 270.822857 67.726965 
L 274.011429 67.268513 
L 277.2 67.032978 
L 280.388571 66.642677 
L 283.577143 66.020172 
L 286.765714 65.128304 
L 289.954286 64.509132 
L 293.142857 63.802128 
L 296.331429 62.892515 
L 299.52 62.105131 
L 302.708571 61.665747 
L 305.897143 61.083042 
L 309.085714 60.803464 
L 312.274286 60.084006 
L 315.462857 59.781241 
L 318.651429 59.177216 
L 321.84 58.617501 
L 325.028571 58.135695 
L 328.217143 57.517325 
L 331.405714 57.147779 
L 334.594286 56.493214 
L 337.782857 56.112633 
L 340.971429 55.728012 
L 344.16 55.251365 
L 347.348571 54.323167 
L 350.537143 53.952359 
L 353.725714 53.302098 
L 356.914286 52.576478 
L 360.102857 51.985311 
L 363.291429 51.428345 
L 366.48 51.080923 
L 369.668571 50.678853 
L 372.857143 50.00758 
L 376.045714 47.24624 
L 379.234286 46.784493 
L 382.422857 46.357982 
L 385.611429 45.54542 
L 388.8 44.914286 
L 388.8 44.914286 
L 388.8 44.914286 
L 385.611429 44.947578 
L 382.422857 45.035288 
L 379.234286 45.147046 
L 376.045714 45.261258 
L 372.857143 45.505268 
L 369.668571 45.761533 
L 366.48 46.006868 
L 363.291429 46.201417 
L 360.102857 46.483527 
L 356.914286 46.878317 
L 353.725714 47.316321 
L 350.537143 47.535624 
L 347.348571 47.824782 
L 344.16 48.007744 
L 340.971429 48.396866 
L 337.782857 48.675401 
L 334.594286 48.827895 
L 331.405714 49.112835 
L 328.217143 49.352961 
L 325.028571 49.642827 
L 321.84 49.87644 
L 318.651429 50.258724 
L 315.462857 50.577375 
L 312.274286 50.765953 
L 309.085714 50.925943 
L 305.897143 51.021482 
L 302.708571 51.4054 
L 299.52 51.615069 
L 296.331429 52.182953 
L 293.142857 52.571985 
L 289.954286 52.859967 
L 286.765714 53.31817 
L 283.577143 53.728101 
L 280.388571 53.99215 
L 277.2 54.213701 
L 274.011429 54.341051 
L 270.822857 54.616962 
L 267.634286 55.311394 
L 264.445714 55.809783 
L 261.257143 56.190114 
L 258.068571 56.480006 
L 254.88 57.122095 
L 251.691429 57.837975 
L 248.502857 58.104646 
L 245.314286 58.476199 
L 242.125714 59.013873 
L 238.937143 59.501951 
L 235.748571 59.726497 
L 232.56 60.210095 
L 229.371429 60.675894 
L 226.182857 61.642111 
L 222.994286 62.23893 
L 219.805714 63.267658 
L 216.617143 63.653174 
L 213.428571 64.65066 
L 210.24 65.375863 
L 207.051429 66.07542 
L 203.862857 66.675265 
L 200.674286 67.499951 
L 197.485714 68.646558 
L 194.297143 69.807479 
L 191.108571 70.962602 
L 187.92 72.128798 
L 184.731429 73.072903 
L 181.542857 74.115449 
L 178.354286 74.976259 
L 175.165714 75.778669 
L 171.977143 76.731105 
L 168.788571 78.280687 
L 165.6 79.408389 
L 162.411429 83.875 
L 159.222857 84.757044 
L 156.034286 85.823536 
L 152.845714 86.94011 
L 149.657143 88.117989 
L 146.468571 89.643493 
L 143.28 90.888292 
L 140.091429 91.93363 
L 136.902857 93.517546 
L 133.714286 95.087783 
L 130.525714 96.68389 
L 127.337143 102.974646 
L 124.148571 103.862663 
L 120.96 108.061932 
L 117.771429 112.349627 
L 114.582857 116.887793 
L 111.394286 120.529361 
L 108.205714 124.246074 
L 105.017143 127.793901 
L 101.828571 133.203579 
L 98.64 136.954079 
L 95.451429 142.16463 
L 92.262857 145.855624 
L 89.074286 152.861782 
L 85.885714 157.19664 
L 82.697143 160.723919 
L 79.508571 169.517747 
L 76.32 180.311973 
L 73.131429 199.05161 
L 69.942857 245.499995 
z
" style="fill:#55a868;fill-opacity:0.2;"/>
   </g>
   <g id="PolyCollection_2">
    <path clip-path="url(#p250e3ddbc4)" d="M 69.942857 245.014374 
L 69.942857 250.905253 
L 73.131429 242.586933 
L 76.32 236.745498 
L 79.508571 227.46841 
L 82.697143 218.741075 
L 85.885714 212.151656 
L 89.074286 205.279647 
L 92.262857 200.751024 
L 95.451429 195.524881 
L 98.64 190.998516 
L 101.828571 187.737534 
L 105.017143 185.332066 
L 108.205714 181.800834 
L 111.394286 177.737034 
L 114.582857 173.923375 
L 117.771429 171.160599 
L 120.96 168.249208 
L 124.148571 165.773275 
L 127.337143 163.659556 
L 130.525714 160.486977 
L 133.714286 158.328201 
L 136.902857 155.913666 
L 140.091429 153.603914 
L 143.28 151.266397 
L 146.468571 150.134727 
L 149.657143 148.495519 
L 152.845714 146.846896 
L 156.034286 145.081091 
L 159.222857 142.886074 
L 162.411429 140.69998 
L 165.6 139.141588 
L 168.788571 137.169096 
L 171.977143 135.468751 
L 175.165714 134.367249 
L 178.354286 132.84829 
L 181.542857 131.078018 
L 184.731429 130.184916 
L 187.92 129.07647 
L 191.108571 127.711904 
L 194.297143 125.248289 
L 197.485714 124.107219 
L 200.674286 122.652372 
L 203.862857 120.714259 
L 207.051429 119.085325 
L 210.24 118.430113 
L 213.428571 117.412796 
L 216.617143 116.184495 
L 219.805714 115.000723 
L 222.994286 114.467903 
L 226.182857 113.225621 
L 229.371429 111.708431 
L 232.56 110.429132 
L 235.748571 109.098998 
L 238.937143 108.072604 
L 242.125714 106.801059 
L 245.314286 105.193316 
L 248.502857 103.58457 
L 251.691429 102.597219 
L 254.88 101.574911 
L 258.068571 100.527401 
L 261.257143 99.239795 
L 264.445714 98.542418 
L 267.634286 97.554143 
L 270.822857 96.472877 
L 274.011429 95.529937 
L 277.2 94.928473 
L 280.388571 94.217296 
L 283.577143 93.644282 
L 286.765714 92.671471 
L 289.954286 91.93916 
L 293.142857 91.277441 
L 296.331429 90.655652 
L 299.52 90.157845 
L 302.708571 89.141736 
L 305.897143 87.813913 
L 309.085714 86.387312 
L 312.274286 84.792506 
L 315.462857 83.601256 
L 318.651429 81.069775 
L 321.84 78.873951 
L 325.028571 77.480849 
L 328.217143 75.339545 
L 331.405714 73.816441 
L 334.594286 72.823695 
L 337.782857 72.284294 
L 340.971429 71.437857 
L 344.16 70.39433 
L 347.348571 69.449854 
L 350.537143 68.909651 
L 353.725714 68.438329 
L 356.914286 67.853634 
L 360.102857 67.210203 
L 363.291429 66.714702 
L 366.48 65.796929 
L 369.668571 64.88288 
L 372.857143 63.718674 
L 376.045714 59.660775 
L 379.234286 58.072514 
L 382.422857 55.461269 
L 385.611429 52.806452 
L 388.8 44.914286 
L 388.8 44.914286 
L 388.8 44.914286 
L 385.611429 44.941613 
L 382.422857 44.962871 
L 379.234286 45.239817 
L 376.045714 45.270372 
L 372.857143 45.46335 
L 369.668571 45.499557 
L 366.48 45.644998 
L 363.291429 45.717425 
L 360.102857 45.87949 
L 356.914286 46.460259 
L 353.725714 46.565425 
L 350.537143 46.975869 
L 347.348571 47.106001 
L 344.16 47.335608 
L 340.971429 47.625803 
L 337.782857 47.699437 
L 334.594286 47.819881 
L 331.405714 47.982908 
L 328.217143 48.48928 
L 325.028571 48.908377 
L 321.84 49.194791 
L 318.651429 49.67113 
L 315.462857 50.278327 
L 312.274286 50.551256 
L 309.085714 51.036 
L 305.897143 51.467583 
L 302.708571 51.869305 
L 299.52 52.641181 
L 296.331429 53.054245 
L 293.142857 53.358987 
L 289.954286 54.024461 
L 286.765714 54.536059 
L 283.577143 55.658687 
L 280.388571 56.348823 
L 277.2 56.907653 
L 274.011429 57.435595 
L 270.822857 58.013292 
L 267.634286 58.995369 
L 264.445714 59.751434 
L 261.257143 60.135204 
L 258.068571 61.033806 
L 254.88 61.617734 
L 251.691429 62.708325 
L 248.502857 63.288399 
L 245.314286 64.552628 
L 242.125714 65.231523 
L 238.937143 66.181847 
L 235.748571 66.836585 
L 232.56 67.81825 
L 229.371429 68.454318 
L 226.182857 69.555911 
L 222.994286 70.377316 
L 219.805714 70.743123 
L 216.617143 71.678574 
L 213.428571 72.899139 
L 210.24 73.621791 
L 207.051429 74.262012 
L 203.862857 75.661614 
L 200.674286 76.927708 
L 197.485714 77.730277 
L 194.297143 78.620007 
L 191.108571 80.540263 
L 187.92 81.721169 
L 184.731429 82.749018 
L 181.542857 83.480816 
L 178.354286 84.630583 
L 175.165714 85.572609 
L 171.977143 86.509548 
L 168.788571 87.971594 
L 165.6 89.253478 
L 162.411429 90.42492 
L 159.222857 91.835844 
L 156.034286 93.21846 
L 152.845714 95.250169 
L 149.657143 96.863508 
L 146.468571 98.30913 
L 143.28 99.31959 
L 140.091429 100.496231 
L 136.902857 102.18901 
L 133.714286 104.406721 
L 130.525714 106.34342 
L 127.337143 109.08744 
L 124.148571 110.505877 
L 120.96 112.373987 
L 117.771429 114.787842 
L 114.582857 117.017046 
L 111.394286 119.851285 
L 108.205714 124.55802 
L 105.017143 126.914635 
L 101.828571 128.504002 
L 98.64 132.8659 
L 95.451429 138.24832 
L 92.262857 143.237528 
L 89.074286 148.612555 
L 85.885714 163.124577 
L 82.697143 171.528583 
L 79.508571 186.776481 
L 76.32 202.531296 
L 73.131429 211.413269 
L 69.942857 245.014374 
z
" style="fill:#4c72b0;fill-opacity:0.2;"/>
   </g>
   <g id="PolyCollection_3">
    <path clip-path="url(#p250e3ddbc4)" d="M 69.942857 249.983798 
L 69.942857 251.801509 
L 73.131429 245.933415 
L 76.32 243.030914 
L 79.508571 238.915621 
L 82.697143 236.454882 
L 85.885714 233.936372 
L 89.074286 230.313082 
L 92.262857 228.026547 
L 95.451429 225.474475 
L 98.64 222.94861 
L 101.828571 216.807581 
L 105.017143 214.946052 
L 108.205714 211.381978 
L 111.394286 208.89494 
L 114.582857 202.067932 
L 117.771429 199.834021 
L 120.96 195.017307 
L 124.148571 190.713303 
L 127.337143 188.937875 
L 130.525714 185.809981 
L 133.714286 183.698322 
L 136.902857 181.632134 
L 140.091429 180.227884 
L 143.28 176.22787 
L 146.468571 173.255556 
L 149.657143 169.826567 
L 152.845714 167.480741 
L 156.034286 164.422415 
L 159.222857 161.142376 
L 162.411429 159.112418 
L 165.6 156.905904 
L 168.788571 155.158844 
L 171.977143 152.992283 
L 175.165714 151.405763 
L 178.354286 149.601891 
L 181.542857 148.106057 
L 184.731429 146.101606 
L 187.92 144.386806 
L 191.108571 142.393752 
L 194.297143 140.137096 
L 197.485714 138.921082 
L 200.674286 136.863259 
L 203.862857 135.050158 
L 207.051429 132.865019 
L 210.24 130.8652 
L 213.428571 127.941394 
L 216.617143 126.369412 
L 219.805714 124.143213 
L 222.994286 121.983691 
L 226.182857 120.379619 
L 229.371429 118.594772 
L 232.56 116.750438 
L 235.748571 114.974483 
L 238.937143 112.819571 
L 242.125714 110.717165 
L 245.314286 109.536655 
L 248.502857 107.379497 
L 251.691429 105.092038 
L 254.88 103.363127 
L 258.068571 102.009493 
L 261.257143 100.082787 
L 264.445714 98.579857 
L 267.634286 96.268885 
L 270.822857 94.392034 
L 274.011429 93.372185 
L 277.2 92.297845 
L 280.388571 91.039627 
L 283.577143 90.03058 
L 286.765714 88.474751 
L 289.954286 86.936966 
L 293.142857 85.678642 
L 296.331429 84.609645 
L 299.52 83.293712 
L 302.708571 82.273162 
L 305.897143 80.831655 
L 309.085714 79.731145 
L 312.274286 78.349892 
L 315.462857 76.385996 
L 318.651429 74.537493 
L 321.84 72.590044 
L 325.028571 71.084128 
L 328.217143 70.028757 
L 331.405714 69.454353 
L 334.594286 67.710903 
L 337.782857 66.403881 
L 340.971429 64.710433 
L 344.16 63.649628 
L 347.348571 62.328988 
L 350.537143 61.661101 
L 353.725714 60.423155 
L 356.914286 58.59997 
L 360.102857 57.524004 
L 363.291429 56.908204 
L 366.48 55.342292 
L 369.668571 53.849779 
L 372.857143 53.208699 
L 376.045714 52.043539 
L 379.234286 50.978422 
L 382.422857 50.289162 
L 385.611429 48.92539 
L 388.8 44.914286 
L 388.8 44.914286 
L 388.8 44.914286 
L 385.611429 44.941613 
L 382.422857 45.23413 
L 379.234286 45.564599 
L 376.045714 45.743765 
L 372.857143 46.011797 
L 369.668571 46.284291 
L 366.48 46.897303 
L 363.291429 47.179875 
L 360.102857 47.381526 
L 356.914286 47.649639 
L 353.725714 48.159345 
L 350.537143 48.79054 
L 347.348571 49.011732 
L 344.16 49.42819 
L 340.971429 49.718405 
L 337.782857 50.570889 
L 334.594286 50.828679 
L 331.405714 51.135097 
L 328.217143 51.341562 
L 325.028571 51.792471 
L 321.84 52.517383 
L 318.651429 52.95868 
L 315.462857 53.40906 
L 312.274286 54.022128 
L 309.085714 54.364446 
L 305.897143 54.563414 
L 302.708571 55.068173 
L 299.52 55.474032 
L 296.331429 56.101086 
L 293.142857 56.652663 
L 289.954286 57.246655 
L 286.765714 57.839119 
L 283.577143 58.699017 
L 280.388571 59.199378 
L 277.2 59.875995 
L 274.011429 60.317742 
L 270.822857 60.998765 
L 267.634286 62.192282 
L 264.445714 63.670875 
L 261.257143 64.65342 
L 258.068571 65.604499 
L 254.88 66.729603 
L 251.691429 67.745857 
L 248.502857 69.217037 
L 245.314286 70.544144 
L 242.125714 71.651047 
L 238.937143 73.35097 
L 235.748571 74.699289 
L 232.56 76.378834 
L 229.371429 77.811449 
L 226.182857 80.041111 
L 222.994286 81.507387 
L 219.805714 83.6457 
L 216.617143 85.26188 
L 213.428571 86.532841 
L 210.24 88.129329 
L 207.051429 89.526894 
L 203.862857 92.272399 
L 200.674286 93.304672 
L 197.485714 94.679213 
L 194.297143 95.737643 
L 191.108571 97.507402 
L 187.92 98.912117 
L 184.731429 100.156326 
L 181.542857 101.720896 
L 178.354286 102.988326 
L 175.165714 104.106008 
L 171.977143 104.984405 
L 168.788571 107.850701 
L 165.6 109.610163 
L 162.411429 111.39201 
L 159.222857 113.112929 
L 156.034286 117.020082 
L 152.845714 119.085621 
L 149.657143 124.977203 
L 146.468571 127.928692 
L 143.28 133.594995 
L 140.091429 137.93191 
L 136.902857 138.828119 
L 133.714286 143.549709 
L 130.525714 145.376244 
L 127.337143 151.988353 
L 124.148571 154.073855 
L 120.96 158.461302 
L 117.771429 166.139667 
L 114.582857 169.561281 
L 111.394286 175.861237 
L 108.205714 179.969551 
L 105.017143 185.067023 
L 101.828571 186.892107 
L 98.64 192.437676 
L 95.451429 196.347143 
L 92.262857 200.282307 
L 89.074286 205.043893 
L 85.885714 209.687854 
L 82.697143 214.122794 
L 79.508571 217.737251 
L 76.32 225.574142 
L 73.131429 232.362094 
L 69.942857 249.983798 
z
" style="fill:#8172b2;fill-opacity:0.2;"/>
   </g>
   <g id="PolyCollection_4">
    <path clip-path="url(#p250e3ddbc4)" d="M 69.942857 251.366615 
L 69.942857 252 
L 73.131429 251.575778 
L 76.32 251.157618 
L 79.508571 250.933463 
L 82.697143 250.600121 
L 85.885714 248.710346 
L 89.074286 246.400985 
L 92.262857 244.424227 
L 95.451429 243.338 
L 98.64 241.966508 
L 101.828571 240.817963 
L 105.017143 239.307317 
L 108.205714 237.870338 
L 111.394286 235.425759 
L 114.582857 233.684459 
L 117.771429 232.11313 
L 120.96 230.629709 
L 124.148571 229.412726 
L 127.337143 227.874007 
L 130.525714 225.953343 
L 133.714286 224.335768 
L 136.902857 222.42576 
L 140.091429 221.541299 
L 143.28 219.914967 
L 146.468571 218.355231 
L 149.657143 216.089399 
L 152.845714 212.802549 
L 156.034286 211.72905 
L 159.222857 209.409579 
L 162.411429 207.862097 
L 165.6 205.200061 
L 168.788571 204.607189 
L 171.977143 204.002683 
L 175.165714 202.544971 
L 178.354286 200.22397 
L 181.542857 198.811374 
L 184.731429 195.105861 
L 187.92 193.139982 
L 191.108571 190.872843 
L 194.297143 188.021275 
L 197.485714 187.023506 
L 200.674286 186.368305 
L 203.862857 185.798298 
L 207.051429 184.479172 
L 210.24 182.455607 
L 213.428571 181.125396 
L 216.617143 179.866486 
L 219.805714 177.766535 
L 222.994286 176.700499 
L 226.182857 175.405648 
L 229.371429 174.170973 
L 232.56 173.461245 
L 235.748571 171.685831 
L 238.937143 169.571404 
L 242.125714 167.697216 
L 245.314286 163.607291 
L 248.502857 159.948974 
L 251.691429 157.096249 
L 254.88 154.565764 
L 258.068571 148.246324 
L 261.257143 141.9655 
L 264.445714 135.273555 
L 267.634286 133.327227 
L 270.822857 129.26239 
L 274.011429 127.561649 
L 277.2 124.010956 
L 280.388571 120.583715 
L 283.577143 118.192472 
L 286.765714 115.356593 
L 289.954286 112.281143 
L 293.142857 110.300149 
L 296.331429 107.015746 
L 299.52 105.51577 
L 302.708571 104.444816 
L 305.897143 102.100949 
L 309.085714 99.268157 
L 312.274286 96.234814 
L 315.462857 91.923684 
L 318.651429 87.805068 
L 321.84 83.766015 
L 325.028571 80.734746 
L 328.217143 76.689862 
L 331.405714 74.03659 
L 334.594286 70.450178 
L 337.782857 67.797443 
L 340.971429 66.795953 
L 344.16 64.731193 
L 347.348571 62.500645 
L 350.537143 60.590404 
L 353.725714 58.46267 
L 356.914286 57.644778 
L 360.102857 56.554032 
L 363.291429 55.004916 
L 366.48 54.462831 
L 369.668571 53.927834 
L 372.857143 53.176987 
L 376.045714 50.590548 
L 379.234286 48.823488 
L 382.422857 46.53419 
L 385.611429 46.099436 
L 388.8 44.914286 
L 388.8 44.914286 
L 388.8 44.914286 
L 385.611429 44.914286 
L 382.422857 44.926696 
L 379.234286 44.938583 
L 376.045714 45.013572 
L 372.857143 45.036821 
L 369.668571 45.050018 
L 366.48 45.086988 
L 363.291429 45.14642 
L 360.102857 45.268955 
L 356.914286 45.311471 
L 353.725714 45.451699 
L 350.537143 45.579265 
L 347.348571 45.889303 
L 344.16 46.219877 
L 340.971429 46.637967 
L 337.782857 46.931174 
L 334.594286 47.207866 
L 331.405714 48.089973 
L 328.217143 49.131514 
L 325.028571 50.289227 
L 321.84 50.890134 
L 318.651429 52.216559 
L 315.462857 53.239445 
L 312.274286 55.051005 
L 309.085714 56.425989 
L 305.897143 57.884017 
L 302.708571 58.770799 
L 299.52 59.716729 
L 296.331429 60.838625 
L 293.142857 65.631644 
L 289.954286 67.730586 
L 286.765714 70.615378 
L 283.577143 73.560685 
L 280.388571 76.905864 
L 277.2 80.488838 
L 274.011429 83.129469 
L 270.822857 85.284527 
L 267.634286 88.060875 
L 264.445714 89.877596 
L 261.257143 92.606605 
L 258.068571 98.423424 
L 254.88 104.554048 
L 251.691429 108.165713 
L 248.502857 111.952036 
L 245.314286 115.838223 
L 242.125714 119.23975 
L 238.937143 121.319969 
L 235.748571 123.623039 
L 232.56 125.176184 
L 229.371429 125.964475 
L 226.182857 127.341687 
L 222.994286 129.018143 
L 219.805714 129.997994 
L 216.617143 131.895123 
L 213.428571 133.31589 
L 210.24 134.941729 
L 207.051429 137.064675 
L 203.862857 138.505577 
L 200.674286 139.444015 
L 197.485714 140.464598 
L 194.297143 141.451208 
L 191.108571 144.841023 
L 187.92 147.534201 
L 184.731429 150.094794 
L 181.542857 154.667837 
L 178.354286 156.822368 
L 175.165714 159.539512 
L 171.977143 160.977602 
L 168.788571 161.611271 
L 165.6 162.210966 
L 162.411429 163.885254 
L 159.222857 165.894234 
L 156.034286 167.500734 
L 152.845714 168.722571 
L 149.657143 170.952508 
L 146.468571 172.69556 
L 143.28 174.848077 
L 140.091429 177.331103 
L 136.902857 178.470622 
L 133.714286 187.336643 
L 130.525714 189.564857 
L 127.337143 191.215344 
L 124.148571 193.060135 
L 120.96 194.678689 
L 117.771429 203.131367 
L 114.582857 205.296837 
L 111.394286 207.7692 
L 108.205714 210.254369 
L 105.017143 212.32107 
L 101.828571 220.941789 
L 98.64 222.687462 
L 95.451429 224.575953 
L 92.262857 226.10141 
L 89.074286 228.742879 
L 85.885714 231.069092 
L 82.697143 243.876382 
L 79.508571 245.717419 
L 76.32 247.52703 
L 73.131429 249.078059 
L 69.942857 251.366615 
z
" style="fill:#c44e52;fill-opacity:0.2;"/>
   </g>
   <g id="line2d_25">
    <path clip-path="url(#p250e3ddbc4)" d="M 69.942857 248.352983 
L 73.131429 217.888945 
L 76.32 202.939345 
L 79.508571 190.535686 
L 82.697143 181.506481 
L 85.885714 176.998822 
L 89.074286 172.10466 
L 92.262857 165.726405 
L 95.451429 161.723966 
L 98.64 157.259051 
L 101.828571 152.211338 
L 105.017143 147.7098 
L 108.205714 143.886298 
L 111.394286 139.975244 
L 114.582857 136.283022 
L 117.771429 132.259568 
L 120.96 127.439936 
L 124.148571 123.425837 
L 127.337143 121.834537 
L 130.525714 116.254573 
L 133.714286 114.432579 
L 136.902857 112.433516 
L 140.091429 110.532427 
L 143.28 108.915563 
L 146.468571 107.085319 
L 149.657143 105.065624 
L 152.845714 103.439384 
L 156.034286 101.834191 
L 159.222857 100.256328 
L 162.411429 99.110709 
L 165.6 95.122219 
L 168.788571 93.478709 
L 171.977143 91.48306 
L 175.165714 90.112001 
L 178.354286 88.966514 
L 181.542857 87.725336 
L 184.731429 86.225348 
L 187.92 84.947583 
L 191.108571 83.235846 
L 194.297143 81.603577 
L 197.485714 80.106456 
L 200.674286 78.484749 
L 203.862857 77.278796 
L 207.051429 76.467482 
L 210.24 75.271766 
L 213.428571 74.244157 
L 216.617143 72.933924 
L 219.805714 72.341737 
L 222.994286 71.236071 
L 226.182857 70.338359 
L 229.371429 69.04431 
L 232.56 68.474138 
L 235.748571 67.811793 
L 238.937143 67.492394 
L 242.125714 66.906261 
L 245.314286 66.239277 
L 248.502857 65.605581 
L 251.691429 65.057596 
L 254.88 64.114007 
L 258.068571 63.472866 
L 261.257143 62.966558 
L 264.445714 62.452584 
L 267.634286 61.897923 
L 270.822857 60.951347 
L 274.011429 60.511094 
L 277.2 60.308778 
L 280.388571 60.015825 
L 283.577143 59.55622 
L 286.765714 58.972805 
L 289.954286 58.399925 
L 293.142857 57.915221 
L 296.331429 57.248617 
L 299.52 56.535548 
L 302.708571 56.222793 
L 305.897143 55.763611 
L 309.085714 55.569904 
L 312.274286 55.131501 
L 315.462857 54.865179 
L 318.651429 54.423857 
L 321.84 53.905504 
L 325.028571 53.554514 
L 328.217143 53.097154 
L 331.405714 52.770479 
L 334.594286 52.282553 
L 337.782857 52.019383 
L 340.971429 51.62582 
L 344.16 51.218775 
L 347.348571 50.755543 
L 350.537143 50.404389 
L 353.725714 49.963958 
L 356.914286 49.369238 
L 360.102857 48.869563 
L 363.291429 48.437389 
L 366.48 48.122379 
L 369.668571 47.799066 
L 372.857143 47.341541 
L 376.045714 46.137964 
L 379.234286 45.848283 
L 382.422857 45.558569 
L 385.611429 45.191582 
L 388.8 44.914286 
" style="fill:none;stroke:#55a868;stroke-linecap:round;stroke-width:3;"/>
   </g>
   <g id="line2d_26">
    <path clip-path="url(#p250e3ddbc4)" d="M 69.942857 252 
L 388.8 44.914286 
" style="fill:none;stroke:#000080;stroke-dasharray:8.4,3.6;stroke-dashoffset:0;stroke-width:3;"/>
   </g>
   <g id="line2d_27">
    <path clip-path="url(#p250e3ddbc4)" d="M 69.942857 248.28491 
L 73.131429 228.977465 
L 76.32 221.487318 
L 79.508571 208.572941 
L 82.697143 196.304853 
L 85.885714 188.099055 
L 89.074286 178.075081 
L 92.262857 173.064394 
L 95.451429 167.897708 
L 98.64 162.914517 
L 101.828571 158.9763 
L 105.017143 156.631293 
L 108.205714 153.748845 
L 111.394286 149.262861 
L 114.582857 146.010897 
L 117.771429 143.315607 
L 120.96 140.67291 
L 124.148571 138.479267 
L 127.337143 136.681874 
L 130.525714 133.455639 
L 133.714286 131.354596 
L 136.902857 128.921013 
L 140.091429 126.844913 
L 143.28 125.133945 
L 146.468571 123.921916 
L 149.657143 122.294465 
L 152.845714 120.469936 
L 156.034286 118.653638 
L 159.222857 116.770644 
L 162.411429 114.938991 
L 165.6 113.465213 
L 168.788571 111.711066 
L 171.977143 109.946151 
L 175.165714 108.951275 
L 178.354286 107.587432 
L 181.542857 106.208752 
L 184.731429 105.432217 
L 187.92 104.27206 
L 191.108571 102.964286 
L 194.297143 100.63986 
L 197.485714 99.599375 
L 200.674286 98.366143 
L 203.862857 96.775952 
L 207.051429 95.183201 
L 210.24 94.515344 
L 213.428571 93.585556 
L 216.617143 92.295807 
L 219.805714 91.161379 
L 222.994286 90.685565 
L 226.182857 89.566686 
L 229.371429 88.183447 
L 232.56 87.127606 
L 235.748571 85.958005 
L 238.937143 85.140791 
L 242.125714 83.981643 
L 245.314286 82.729892 
L 248.502857 81.173774 
L 251.691429 80.188269 
L 254.88 79.13577 
L 258.068571 78.245943 
L 261.257143 77.074568 
L 264.445714 76.548582 
L 267.634286 75.690667 
L 270.822857 74.526459 
L 274.011429 73.67723 
L 277.2 73.120859 
L 280.388571 72.46436 
L 283.577143 71.78071 
L 286.765714 70.771688 
L 289.954286 70.140404 
L 293.142857 69.418668 
L 296.331429 68.985654 
L 299.52 68.463435 
L 302.708571 67.563909 
L 305.897143 66.779906 
L 309.085714 65.866796 
L 312.274286 64.818791 
L 315.462857 64.219676 
L 318.651429 62.851677 
L 321.84 61.606792 
L 325.028571 60.865268 
L 328.217143 59.784362 
L 331.405714 58.820835 
L 334.594286 58.318521 
L 337.782857 58.001889 
L 340.971429 57.478576 
L 344.16 56.832467 
L 347.348571 56.280896 
L 350.537143 55.953749 
L 353.725714 55.440593 
L 356.914286 55.154336 
L 360.102857 54.481874 
L 363.291429 54.133781 
L 366.48 53.737729 
L 369.668571 53.1939 
L 372.857143 52.63806 
L 376.045714 50.62179 
L 379.234286 49.933809 
L 382.422857 48.683044 
L 385.611429 47.736786 
L 388.8 44.914286 
" style="fill:none;stroke:#4c72b0;stroke-linecap:round;stroke-width:3;"/>
   </g>
   <g id="line2d_28">
    <path clip-path="url(#p250e3ddbc4)" d="M 69.942857 252 
L 388.8 44.914286 
" style="fill:none;stroke:#000080;stroke-dasharray:8.4,3.6;stroke-dashoffset:0;stroke-width:3;"/>
   </g>
   <g id="line2d_29">
    <path clip-path="url(#p250e3ddbc4)" d="M 69.942857 251.014177 
L 73.131429 239.536718 
L 76.32 234.777966 
L 79.508571 229.113776 
L 82.697143 225.960605 
L 85.885714 222.534862 
L 89.074286 218.103154 
L 92.262857 214.783126 
L 95.451429 211.382569 
L 98.64 208.069463 
L 101.828571 202.101112 
L 105.017143 200.172092 
L 108.205714 196.002945 
L 111.394286 192.664721 
L 114.582857 186.200124 
L 117.771429 183.359994 
L 120.96 177.162501 
L 124.148571 172.366391 
L 127.337143 170.449313 
L 130.525714 166.154133 
L 133.714286 164.171171 
L 136.902857 161.187376 
L 140.091429 160.076422 
L 143.28 155.782547 
L 146.468571 151.658613 
L 149.657143 148.336844 
L 152.845714 144.216014 
L 156.034286 141.677912 
L 159.222857 137.955933 
L 162.411429 136.025442 
L 165.6 133.929675 
L 168.788571 132.172086 
L 171.977143 129.474612 
L 175.165714 128.210822 
L 178.354286 126.819912 
L 181.542857 125.229505 
L 184.731429 123.430967 
L 187.92 122.053412 
L 191.108571 120.380939 
L 194.297143 118.413625 
L 197.485714 117.281081 
L 200.674286 115.393837 
L 203.862857 113.949888 
L 207.051429 111.332511 
L 210.24 109.651813 
L 213.428571 107.388169 
L 216.617143 105.891818 
L 219.805714 103.754157 
L 222.994286 101.595892 
L 226.182857 99.888987 
L 229.371429 97.817558 
L 232.56 96.078085 
L 235.748571 94.325948 
L 238.937143 92.583605 
L 242.125714 90.546715 
L 245.314286 89.31026 
L 248.502857 87.481141 
L 251.691429 85.664664 
L 254.88 84.264947 
L 258.068571 83.081964 
L 261.257143 81.625246 
L 264.445714 80.345995 
L 267.634286 78.433026 
L 270.822857 76.812615 
L 274.011429 75.914126 
L 277.2 75.118435 
L 280.388571 74.149744 
L 283.577143 73.362268 
L 286.765714 72.184195 
L 289.954286 71.100427 
L 293.142857 70.16985 
L 296.331429 69.296467 
L 299.52 68.346641 
L 302.708571 67.670406 
L 305.897143 66.658828 
L 309.085714 66.004695 
L 312.274286 65.159511 
L 315.462857 63.946039 
L 318.651429 62.831258 
L 321.84 61.713729 
L 325.028571 60.643756 
L 328.217143 59.856564 
L 331.405714 59.459843 
L 334.594286 58.470934 
L 337.782857 57.752591 
L 340.971429 56.506615 
L 344.16 55.809579 
L 347.348571 54.97427 
L 350.537143 54.512184 
L 353.725714 53.44554 
L 356.914286 52.358917 
L 360.102857 51.728 
L 363.291429 51.308309 
L 366.48 50.463811 
L 369.668571 49.404143 
L 372.857143 48.937798 
L 376.045714 48.302386 
L 379.234286 47.790794 
L 382.422857 47.158147 
L 385.611429 46.473759 
L 388.8 44.914286 
" style="fill:none;stroke:#8172b2;stroke-linecap:round;stroke-width:3;"/>
   </g>
   <g id="line2d_30">
    <path clip-path="url(#p250e3ddbc4)" d="M 69.942857 252 
L 388.8 44.914286 
" style="fill:none;stroke:#000080;stroke-dasharray:8.4,3.6;stroke-dashoffset:0;stroke-width:3;"/>
   </g>
   <g id="line2d_31">
    <path clip-path="url(#p250e3ddbc4)" d="M 69.942857 251.729929 
L 73.131429 250.412748 
L 76.32 249.451009 
L 79.508571 248.577466 
L 82.697143 247.63697 
L 85.885714 241.558741 
L 89.074286 239.14075 
L 92.262857 236.538297 
L 95.451429 235.049942 
L 98.64 233.207412 
L 101.828571 231.625411 
L 105.017143 227.486861 
L 108.205714 225.59849 
L 111.394286 222.92192 
L 114.582857 220.585877 
L 117.771429 218.635862 
L 120.96 214.643803 
L 124.148571 213.19497 
L 127.337143 211.314096 
L 130.525714 209.600086 
L 133.714286 207.501603 
L 136.902857 203.282943 
L 140.091429 202.141507 
L 143.28 199.912126 
L 146.468571 198.040988 
L 149.657143 195.878666 
L 152.845714 192.868381 
L 156.034286 191.651725 
L 159.222857 189.504047 
L 162.411429 187.56276 
L 165.6 185.209088 
L 168.788571 184.729454 
L 171.977143 184.001954 
L 175.165714 182.162201 
L 178.354286 179.66793 
L 181.542857 177.755423 
L 184.731429 173.345403 
L 187.92 170.852409 
L 191.108571 168.224473 
L 194.297143 164.754223 
L 197.485714 163.657781 
L 200.674286 162.827212 
L 203.862857 161.963725 
L 207.051429 160.689197 
L 210.24 158.586271 
L 213.428571 157.051013 
L 216.617143 155.55968 
L 219.805714 153.509098 
L 222.994286 152.412773 
L 226.182857 150.744971 
L 229.371429 149.242784 
L 232.56 148.444514 
L 235.748571 146.801889 
L 238.937143 144.563411 
L 242.125714 142.492339 
L 245.314286 138.558447 
L 248.502857 134.582998 
L 251.691429 131.16658 
L 254.88 128.148114 
L 258.068571 121.318506 
L 261.257143 115.207516 
L 264.445714 110.834312 
L 267.634286 108.906365 
L 270.822857 105.3067 
L 274.011429 103.286225 
L 277.2 100.333225 
L 280.388571 96.875071 
L 283.577143 93.91579 
L 286.765714 90.641452 
L 289.954286 87.82498 
L 293.142857 85.72183 
L 296.331429 81.748547 
L 299.52 80.298094 
L 302.708571 79.175037 
L 305.897143 77.503113 
L 309.085714 75.136823 
L 312.274286 72.887696 
L 315.462857 70.052629 
L 318.651429 67.666726 
L 321.84 64.841942 
L 325.028571 63.252436 
L 328.217143 60.801451 
L 331.405714 58.975692 
L 334.594286 57.079289 
L 337.782857 55.96954 
L 340.971429 55.289661 
L 344.16 54.339932 
L 347.348571 53.339622 
L 350.537143 52.386938 
L 353.725714 51.499923 
L 356.914286 51.045795 
L 360.102857 50.314828 
L 363.291429 49.341893 
L 366.48 48.964288 
L 369.668571 48.58487 
L 372.857143 48.281203 
L 376.045714 47.286959 
L 379.234286 46.556007 
L 382.422857 45.55572 
L 385.611429 45.348315 
L 388.8 44.914286 
" style="fill:none;stroke:#c44e52;stroke-linecap:round;stroke-width:3;"/>
   </g>
   <g id="line2d_32">
    <path clip-path="url(#p250e3ddbc4)" d="M 69.942857 252 
L 388.8 44.914286 
" style="fill:none;stroke:#000080;stroke-dasharray:8.4,3.6;stroke-dashoffset:0;stroke-width:3;"/>
   </g>
   <g id="patch_3">
    <path d="M 54 252 
L 54 34.56 
" style="fill:none;"/>
   </g>
   <g id="patch_4">
    <path d="M 388.8 252 
L 388.8 34.56 
" style="fill:none;"/>
   </g>
   <g id="patch_5">
    <path d="M 54 252 
L 388.8 252 
" style="fill:none;"/>
   </g>
   <g id="patch_6">
    <path d="M 54 34.56 
L 388.8 34.56 
" style="fill:none;"/>
   </g>
   <g id="legend_1">
    <g id="line2d_33">
     <path d="M 206.460938 194.459375 
L 226.460938 194.459375 
" style="fill:none;stroke:#55a868;stroke-linecap:round;stroke-width:3;"/>
    </g>
    <g id="line2d_34"/>
    <g id="text_15">
     <!-- Hand - AUC = 0.800 -->
     <defs>
      <path d="M 54.734375 0 
L 54.734375 31.890625 
L 17.53125 31.890625 
L 17.53125 0 
L 8.203125 0 
L 8.203125 68.796875 
L 17.53125 68.796875 
L 17.53125 39.703125 
L 54.734375 39.703125 
L 54.734375 68.796875 
L 64.0625 68.796875 
L 64.0625 0 
z
" id="LiberationSans-48"/>
      <path d="M 40.28125 0 
L 40.28125 33.5 
Q 40.28125 37.359375 39.71875 39.9375 
Q 39.15625 42.53125 37.890625 44.109375 
Q 36.625 45.703125 34.546875 46.359375 
Q 32.46875 47.015625 29.390625 47.015625 
Q 26.265625 47.015625 23.75 45.921875 
Q 21.234375 44.828125 19.453125 42.75 
Q 17.671875 40.671875 16.6875 37.625 
Q 15.71875 34.578125 15.71875 30.609375 
L 15.71875 0 
L 6.9375 0 
L 6.9375 41.546875 
Q 6.9375 43.21875 6.90625 45.046875 
Q 6.890625 46.875 6.828125 48.5 
Q 6.78125 50.140625 6.734375 51.3125 
Q 6.6875 52.484375 6.640625 52.828125 
L 14.9375 52.828125 
Q 14.984375 52.59375 15.03125 51.515625 
Q 15.09375 50.4375 15.15625 49.046875 
Q 15.234375 47.65625 15.28125 46.21875 
Q 15.328125 44.78125 15.328125 43.796875 
L 15.484375 43.796875 
Q 16.75 46.09375 18.265625 47.953125 
Q 19.78125 49.8125 21.78125 51.09375 
Q 23.78125 52.390625 26.359375 53.09375 
Q 28.953125 53.8125 32.375 53.8125 
Q 36.765625 53.8125 39.9375 52.734375 
Q 43.109375 51.65625 45.15625 49.40625 
Q 47.21875 47.171875 48.171875 43.625 
Q 49.125 40.09375 49.125 35.203125 
L 49.125 0 
z
" id="LiberationSans-6e"/>
      <path d="M 40.09375 8.5 
Q 37.640625 3.421875 33.609375 1.21875 
Q 29.59375 -0.984375 23.640625 -0.984375 
Q 13.625 -0.984375 8.90625 5.75 
Q 4.203125 12.5 4.203125 26.171875 
Q 4.203125 53.8125 23.640625 53.8125 
Q 29.640625 53.8125 33.640625 51.609375 
Q 37.640625 49.421875 40.09375 44.625 
L 40.1875 44.625 
Q 40.1875 45.125 40.15625 46.171875 
Q 40.140625 47.21875 40.109375 48.359375 
Q 40.09375 49.515625 40.09375 50.53125 
Q 40.09375 51.5625 40.09375 52 
L 40.09375 72.46875 
L 48.875 72.46875 
L 48.875 10.890625 
Q 48.875 8.984375 48.890625 7.21875 
Q 48.921875 5.46875 48.96875 4 
Q 49.03125 2.546875 49.078125 1.484375 
Q 49.125 0.4375 49.171875 0 
L 40.765625 0 
Q 40.671875 0.484375 40.59375 1.390625 
Q 40.53125 2.296875 40.453125 3.46875 
Q 40.375 4.640625 40.328125 5.9375 
Q 40.28125 7.234375 40.28125 8.5 
z
M 13.421875 26.46875 
Q 13.421875 21 14.109375 17.09375 
Q 14.796875 13.1875 16.3125 10.671875 
Q 17.828125 8.15625 20.171875 6.984375 
Q 22.515625 5.8125 25.875 5.8125 
Q 29.34375 5.8125 32 6.9375 
Q 34.671875 8.0625 36.453125 10.578125 
Q 38.234375 13.09375 39.15625 17.140625 
Q 40.09375 21.1875 40.09375 27.046875 
Q 40.09375 32.671875 39.15625 36.546875 
Q 38.234375 40.4375 36.421875 42.828125 
Q 34.625 45.21875 32 46.265625 
Q 29.390625 47.3125 25.984375 47.3125 
Q 22.75 47.3125 20.40625 46.1875 
Q 18.0625 45.0625 16.5 42.578125 
Q 14.9375 40.09375 14.171875 36.109375 
Q 13.421875 32.125 13.421875 26.46875 
" id="LiberationSans-64"/>
      <path d="M 4.4375 22.65625 
L 4.4375 30.46875 
L 28.859375 30.46875 
L 28.859375 22.65625 
z
" id="LiberationSans-2d"/>
      <path d="M 56.984375 0 
L 49.125 20.125 
L 17.78125 20.125 
L 9.859375 0 
L 0.203125 0 
L 28.265625 68.796875 
L 38.875 68.796875 
L 66.5 0 
z
M 37.5 50.09375 
Q 36.71875 52.046875 36 54.046875 
Q 35.296875 56.0625 34.765625 57.6875 
Q 34.234375 59.328125 33.859375 60.421875 
Q 33.5 61.53125 33.453125 61.765625 
Q 33.34375 61.53125 33 60.40625 
Q 32.671875 59.28125 32.109375 57.609375 
Q 31.546875 55.953125 30.828125 53.953125 
Q 30.125 51.953125 29.390625 50 
L 20.609375 27.390625 
L 46.34375 27.390625 
z
" id="LiberationSans-41"/>
      <path d="M 35.6875 -0.984375 
Q 30.03125 -0.984375 24.953125 0.53125 
Q 19.875 2.046875 16.03125 5.25 
Q 12.203125 8.453125 9.953125 13.359375 
Q 7.71875 18.265625 7.71875 25 
L 7.71875 68.796875 
L 17.046875 68.796875 
L 17.046875 25.78125 
Q 17.046875 20.5625 18.4375 16.921875 
Q 19.828125 13.28125 22.3125 10.984375 
Q 24.8125 8.6875 28.203125 7.640625 
Q 31.59375 6.59375 35.640625 6.59375 
Q 39.65625 6.59375 43.21875 7.65625 
Q 46.78125 8.734375 49.46875 11.078125 
Q 52.15625 13.421875 53.6875 17.203125 
Q 55.21875 21 55.21875 26.421875 
L 55.21875 68.796875 
L 64.5 68.796875 
L 64.5 25.875 
Q 64.5 19 62.234375 13.9375 
Q 59.96875 8.890625 56.0625 5.5625 
Q 52.15625 2.25 46.90625 0.625 
Q 41.65625 -0.984375 35.6875 -0.984375 
" id="LiberationSans-55"/>
      <path d="M 38.671875 62.203125 
Q 32.8125 62.203125 28.296875 60.25 
Q 23.78125 58.296875 20.71875 54.6875 
Q 17.671875 51.078125 16.109375 46 
Q 14.546875 40.921875 14.546875 34.71875 
Q 14.546875 28.515625 16.234375 23.359375 
Q 17.921875 18.21875 21.0625 14.5 
Q 24.21875 10.796875 28.78125 8.734375 
Q 33.34375 6.6875 39.0625 6.6875 
Q 43.0625 6.6875 46.359375 7.734375 
Q 49.65625 8.796875 52.3125 10.6875 
Q 54.984375 12.59375 57.078125 15.203125 
Q 59.1875 17.828125 60.796875 21 
L 68.40625 17.1875 
Q 66.546875 13.328125 63.8125 10 
Q 61.078125 6.6875 57.390625 4.25 
Q 53.71875 1.8125 49.046875 0.40625 
Q 44.390625 -0.984375 38.625 -0.984375 
Q 30.28125 -0.984375 24 1.671875 
Q 17.71875 4.34375 13.5 9.109375 
Q 9.28125 13.875 7.171875 20.40625 
Q 5.078125 26.953125 5.078125 34.71875 
Q 5.078125 42.78125 7.296875 49.265625 
Q 9.515625 55.765625 13.78125 60.328125 
Q 18.0625 64.890625 24.3125 67.359375 
Q 30.5625 69.828125 38.578125 69.828125 
Q 49.5625 69.828125 56.9375 65.53125 
Q 64.3125 61.234375 67.78125 52.78125 
L 58.9375 49.859375 
Q 57.953125 52.296875 56.296875 54.515625 
Q 54.640625 56.734375 52.140625 58.4375 
Q 49.65625 60.15625 46.3125 61.171875 
Q 42.96875 62.203125 38.671875 62.203125 
" id="LiberationSans-43"/>
      <path d="M 4.890625 41.796875 
L 4.890625 49.03125 
L 53.46875 49.03125 
L 53.46875 41.796875 
z
M 4.890625 16.796875 
L 4.890625 24.03125 
L 53.46875 24.03125 
L 53.46875 16.796875 
z
" id="LiberationSans-3d"/>
     </defs>
     <g style="fill:#262626;" transform="translate(234.460938 197.959375)scale(0.1 -0.1)">
      <use xlink:href="#LiberationSans-48"/>
      <use x="72.216797" xlink:href="#LiberationSans-61"/>
      <use x="127.832031" xlink:href="#LiberationSans-6e"/>
      <use x="183.447266" xlink:href="#LiberationSans-64"/>
      <use x="239.0625" xlink:href="#LiberationSans-20"/>
      <use x="266.845703" xlink:href="#LiberationSans-2d"/>
      <use x="300.146484" xlink:href="#LiberationSans-20"/>
      <use x="327.851562" xlink:href="#LiberationSans-41"/>
      <use x="394.550781" xlink:href="#LiberationSans-55"/>
      <use x="466.767578" xlink:href="#LiberationSans-43"/>
      <use x="538.984375" xlink:href="#LiberationSans-20"/>
      <use x="566.767578" xlink:href="#LiberationSans-3d"/>
      <use x="625.166016" xlink:href="#LiberationSans-20"/>
      <use x="652.949219" xlink:href="#LiberationSans-30"/>
      <use x="708.564453" xlink:href="#LiberationSans-2e"/>
      <use x="736.347656" xlink:href="#LiberationSans-38"/>
      <use x="791.962891" xlink:href="#LiberationSans-30"/>
      <use x="847.578125" xlink:href="#LiberationSans-30"/>
     </g>
    </g>
    <g id="line2d_35">
     <path d="M 206.460938 208.78125 
L 226.460938 208.78125 
" style="fill:none;stroke:#4c72b0;stroke-linecap:round;stroke-width:3;"/>
    </g>
    <g id="line2d_36"/>
    <g id="text_16">
     <!-- Arm - AUC = 0.739 -->
     <defs>
      <path d="M 37.5 0 
L 37.5 33.5 
Q 37.5 37.359375 37.015625 39.9375 
Q 36.53125 42.53125 35.375 44.109375 
Q 34.234375 45.703125 32.375 46.359375 
Q 30.515625 47.015625 27.828125 47.015625 
Q 25.046875 47.015625 22.796875 45.921875 
Q 20.5625 44.828125 18.96875 42.75 
Q 17.390625 40.671875 16.53125 37.625 
Q 15.671875 34.578125 15.671875 30.609375 
L 15.671875 0 
L 6.9375 0 
L 6.9375 41.546875 
Q 6.9375 43.21875 6.90625 45.046875 
Q 6.890625 46.875 6.828125 48.5 
Q 6.78125 50.140625 6.734375 51.3125 
Q 6.6875 52.484375 6.640625 52.828125 
L 14.9375 52.828125 
Q 14.984375 52.59375 15.03125 51.515625 
Q 15.09375 50.4375 15.15625 49.046875 
Q 15.234375 47.65625 15.28125 46.21875 
Q 15.328125 44.78125 15.328125 43.796875 
L 15.484375 43.796875 
Q 16.65625 46.09375 18.015625 47.953125 
Q 19.390625 49.8125 21.21875 51.09375 
Q 23.046875 52.390625 25.40625 53.09375 
Q 27.78125 53.8125 30.90625 53.8125 
Q 36.921875 53.8125 40.40625 51.421875 
Q 43.890625 49.03125 45.265625 43.796875 
L 45.40625 43.796875 
Q 46.578125 46.09375 48.046875 47.953125 
Q 49.515625 49.8125 51.46875 51.09375 
Q 53.421875 52.390625 55.859375 53.09375 
Q 58.296875 53.8125 61.421875 53.8125 
Q 65.4375 53.8125 68.328125 52.734375 
Q 71.234375 51.65625 73.09375 49.40625 
Q 74.953125 47.171875 75.828125 43.625 
Q 76.703125 40.09375 76.703125 35.203125 
L 76.703125 0 
L 68.015625 0 
L 68.015625 33.5 
Q 68.015625 37.359375 67.53125 39.9375 
Q 67.046875 42.53125 65.890625 44.109375 
Q 64.75 45.703125 62.890625 46.359375 
Q 61.03125 47.015625 58.34375 47.015625 
Q 55.5625 47.015625 53.3125 45.96875 
Q 51.078125 44.921875 49.484375 42.875 
Q 47.90625 40.828125 47.046875 37.75 
Q 46.1875 34.671875 46.1875 30.609375 
L 46.1875 0 
z
" id="LiberationSans-6d"/>
      <path d="M 50.59375 61.671875 
Q 45.40625 53.765625 41.0625 46.453125 
Q 36.71875 39.15625 33.59375 31.75 
Q 30.46875 24.359375 28.734375 16.578125 
Q 27 8.796875 27 0 
L 17.828125 0 
Q 17.828125 8.25 19.78125 16.1875 
Q 21.734375 24.125 25.046875 31.765625 
Q 28.375 39.40625 32.765625 46.78125 
Q 37.15625 54.15625 42.09375 61.328125 
L 5.125 61.328125 
L 5.125 68.796875 
L 50.59375 68.796875 
z
" id="LiberationSans-37"/>
      <path d="M 51.21875 19 
Q 51.21875 14.265625 49.671875 10.546875 
Q 48.140625 6.84375 45.1875 4.265625 
Q 42.234375 1.703125 37.859375 0.359375 
Q 33.5 -0.984375 27.875 -0.984375 
Q 21.484375 -0.984375 17.109375 0.609375 
Q 12.75 2.203125 9.90625 4.8125 
Q 7.078125 7.421875 5.65625 10.765625 
Q 4.25 14.109375 3.8125 17.671875 
L 12.890625 18.5 
Q 13.28125 15.765625 14.328125 13.515625 
Q 15.375 11.28125 17.1875 9.671875 
Q 19 8.0625 21.625 7.171875 
Q 24.265625 6.296875 27.875 6.296875 
Q 34.515625 6.296875 38.296875 9.5625 
Q 42.09375 12.84375 42.09375 19.28125 
Q 42.09375 23.09375 40.40625 25.40625 
Q 38.71875 27.734375 36.203125 29.03125 
Q 33.6875 30.328125 30.734375 30.765625 
Q 27.78125 31.203125 25.296875 31.203125 
L 20.3125 31.203125 
L 20.3125 38.8125 
L 25.09375 38.8125 
Q 27.59375 38.8125 30.265625 39.328125 
Q 32.953125 39.84375 35.171875 41.1875 
Q 37.40625 42.53125 38.84375 44.828125 
Q 40.28125 47.125 40.28125 50.6875 
Q 40.28125 56.203125 37.03125 59.390625 
Q 33.796875 62.59375 27.390625 62.59375 
Q 21.578125 62.59375 17.984375 59.609375 
Q 14.40625 56.640625 13.8125 51.21875 
L 4.984375 51.90625 
Q 5.515625 56.453125 7.46875 59.8125 
Q 9.421875 63.1875 12.421875 65.40625 
Q 15.4375 67.625 19.28125 68.71875 
Q 23.140625 69.828125 27.484375 69.828125 
Q 33.25 69.828125 37.390625 68.375 
Q 41.546875 66.9375 44.1875 64.46875 
Q 46.828125 62.015625 48.0625 58.6875 
Q 49.3125 55.375 49.3125 51.609375 
Q 49.3125 48.578125 48.484375 45.9375 
Q 47.65625 43.3125 45.890625 41.203125 
Q 44.140625 39.109375 41.421875 37.59375 
Q 38.71875 36.078125 34.90625 35.296875 
L 34.90625 35.109375 
Q 39.0625 34.671875 42.140625 33.21875 
Q 45.21875 31.78125 47.21875 29.625 
Q 49.21875 27.484375 50.21875 24.75 
Q 51.21875 22.015625 51.21875 19 
" id="LiberationSans-33"/>
      <path d="M 50.875 35.796875 
Q 50.875 26.609375 49.140625 19.703125 
Q 47.40625 12.796875 44.1875 8.203125 
Q 40.96875 3.609375 36.34375 1.3125 
Q 31.734375 -0.984375 25.984375 -0.984375 
Q 22.015625 -0.984375 18.84375 -0.171875 
Q 15.671875 0.640625 13.171875 2.34375 
Q 10.6875 4.046875 8.921875 6.78125 
Q 7.171875 9.515625 6.109375 13.375 
L 14.5 14.703125 
Q 15.875 10.25 18.78125 8.171875 
Q 21.6875 6.109375 26.125 6.109375 
Q 29.6875 6.109375 32.640625 7.78125 
Q 35.59375 9.46875 37.671875 12.84375 
Q 39.75 16.21875 40.921875 21.296875 
Q 42.09375 26.375 42.1875 33.203125 
Q 41.15625 30.90625 39.375 29.09375 
Q 37.59375 27.296875 35.328125 26.046875 
Q 33.0625 24.8125 30.421875 24.140625 
Q 27.78125 23.484375 25.09375 23.484375 
Q 20.40625 23.484375 16.625 25.171875 
Q 12.84375 26.859375 10.203125 29.875 
Q 7.5625 32.90625 6.125 37.171875 
Q 4.6875 41.453125 4.6875 46.6875 
Q 4.6875 52 6.21875 56.296875 
Q 7.765625 60.59375 10.6875 63.59375 
Q 13.625 66.609375 17.890625 68.21875 
Q 22.171875 69.828125 27.59375 69.828125 
Q 39.0625 69.828125 44.96875 61.328125 
Q 50.875 52.828125 50.875 35.796875 
M 41.3125 44.28125 
Q 41.3125 48.09375 40.40625 51.453125 
Q 39.5 54.828125 37.71875 57.3125 
Q 35.9375 59.8125 33.328125 61.25 
Q 30.71875 62.703125 27.296875 62.703125 
Q 24.125 62.703125 21.578125 61.578125 
Q 19.046875 60.453125 17.28125 58.375 
Q 15.53125 56.296875 14.578125 53.3125 
Q 13.625 50.34375 13.625 46.6875 
Q 13.625 43.21875 14.46875 40.234375 
Q 15.328125 37.25 17.03125 35.078125 
Q 18.75 32.90625 21.28125 31.65625 
Q 23.828125 30.421875 27.203125 30.421875 
Q 29.640625 30.421875 32.15625 31.25 
Q 34.671875 32.078125 36.6875 33.78125 
Q 38.71875 35.5 40.015625 38.109375 
Q 41.3125 40.71875 41.3125 44.28125 
" id="LiberationSans-39"/>
     </defs>
     <g style="fill:#262626;" transform="translate(234.460938 212.28125)scale(0.1 -0.1)">
      <use xlink:href="#LiberationSans-41"/>
      <use x="66.699219" xlink:href="#LiberationSans-72"/>
      <use x="100" xlink:href="#LiberationSans-6d"/>
      <use x="183.300781" xlink:href="#LiberationSans-20"/>
      <use x="211.083984" xlink:href="#LiberationSans-2d"/>
      <use x="244.384766" xlink:href="#LiberationSans-20"/>
      <use x="272.089844" xlink:href="#LiberationSans-41"/>
      <use x="338.789062" xlink:href="#LiberationSans-55"/>
      <use x="411.005859" xlink:href="#LiberationSans-43"/>
      <use x="483.222656" xlink:href="#LiberationSans-20"/>
      <use x="511.005859" xlink:href="#LiberationSans-3d"/>
      <use x="569.404297" xlink:href="#LiberationSans-20"/>
      <use x="597.1875" xlink:href="#LiberationSans-30"/>
      <use x="652.802734" xlink:href="#LiberationSans-2e"/>
      <use x="680.585938" xlink:href="#LiberationSans-37"/>
      <use x="736.201172" xlink:href="#LiberationSans-33"/>
      <use x="791.816406" xlink:href="#LiberationSans-39"/>
     </g>
    </g>
    <g id="line2d_37">
     <path d="M 206.460938 223.103125 
L 226.460938 223.103125 
" style="fill:none;stroke:#8172b2;stroke-linecap:round;stroke-width:3;"/>
    </g>
    <g id="line2d_38"/>
    <g id="text_17">
     <!-- Hand+Arm+Thigh - AUC = 0.674 -->
     <defs>
      <path d="M 32.765625 29.6875 
L 32.765625 8.796875 
L 25.59375 8.796875 
L 25.59375 29.6875 
L 4.890625 29.6875 
L 4.890625 36.8125 
L 25.59375 36.8125 
L 25.59375 57.71875 
L 32.765625 57.71875 
L 32.765625 36.8125 
L 53.46875 36.8125 
L 53.46875 29.6875 
z
" id="LiberationSans-2b"/>
      <path d="M 15.484375 43.796875 
Q 16.9375 46.484375 18.640625 48.359375 
Q 20.359375 50.25 22.40625 51.46875 
Q 24.46875 52.6875 26.90625 53.25 
Q 29.34375 53.8125 32.375 53.8125 
Q 37.453125 53.8125 40.703125 52.4375 
Q 43.953125 51.078125 45.828125 48.609375 
Q 47.703125 46.140625 48.40625 42.71875 
Q 49.125 39.3125 49.125 35.203125 
L 49.125 0 
L 40.28125 0 
L 40.28125 33.5 
Q 40.28125 36.859375 39.859375 39.390625 
Q 39.453125 41.9375 38.28125 43.625 
Q 37.109375 45.3125 34.953125 46.15625 
Q 32.8125 47.015625 29.390625 47.015625 
Q 26.265625 47.015625 23.75 45.890625 
Q 21.234375 44.78125 19.453125 42.71875 
Q 17.671875 40.671875 16.6875 37.734375 
Q 15.71875 34.8125 15.71875 31.15625 
L 15.71875 0 
L 6.9375 0 
L 6.9375 72.46875 
L 15.71875 72.46875 
L 15.71875 53.609375 
Q 15.71875 52 15.671875 50.390625 
Q 15.625 48.78125 15.546875 47.40625 
Q 15.484375 46.046875 15.421875 45.09375 
Q 15.375 44.140625 15.328125 43.796875 
z
" id="LiberationSans-68"/>
      <path d="M 26.765625 -20.75 
Q 22.21875 -20.75 18.703125 -19.8125 
Q 15.1875 -18.890625 12.6875 -17.15625 
Q 10.203125 -15.4375 8.640625 -13.03125 
Q 7.078125 -10.640625 6.390625 -7.71875 
L 15.234375 -6.453125 
Q 16.109375 -10.109375 19.109375 -12.078125 
Q 22.125 -14.0625 27 -14.0625 
Q 29.984375 -14.0625 32.421875 -13.234375 
Q 34.859375 -12.40625 36.5625 -10.5625 
Q 38.28125 -8.734375 39.203125 -5.796875 
Q 40.140625 -2.875 40.140625 1.3125 
L 40.140625 9.8125 
L 40.046875 9.8125 
Q 39.0625 7.8125 37.625 5.984375 
Q 36.1875 4.15625 34.109375 2.734375 
Q 32.03125 1.3125 29.296875 0.453125 
Q 26.5625 -0.390625 23.046875 -0.390625 
Q 18.015625 -0.390625 14.421875 1.296875 
Q 10.84375 2.984375 8.5625 6.34375 
Q 6.296875 9.71875 5.25 14.71875 
Q 4.203125 19.734375 4.203125 26.3125 
Q 4.203125 32.671875 5.25 37.75 
Q 6.296875 42.828125 8.65625 46.359375 
Q 11.03125 49.90625 14.8125 51.78125 
Q 18.609375 53.65625 24.03125 53.65625 
Q 29.640625 53.65625 33.765625 51.09375 
Q 37.890625 48.53125 40.140625 43.796875 
L 40.234375 43.796875 
Q 40.234375 45.015625 40.296875 46.53125 
Q 40.375 48.046875 40.453125 49.390625 
Q 40.53125 50.734375 40.625 51.703125 
Q 40.71875 52.6875 40.828125 52.828125 
L 49.171875 52.828125 
Q 49.125 52.390625 49.078125 51.34375 
Q 49.03125 50.296875 48.96875 48.828125 
Q 48.921875 47.359375 48.890625 45.578125 
Q 48.875 43.796875 48.875 41.890625 
L 48.875 1.515625 
Q 48.875 -9.578125 43.421875 -15.15625 
Q 37.984375 -20.75 26.765625 -20.75 
M 40.140625 26.421875 
Q 40.140625 31.9375 38.9375 35.859375 
Q 37.75 39.796875 35.796875 42.28125 
Q 33.84375 44.78125 31.328125 45.953125 
Q 28.8125 47.125 26.171875 47.125 
Q 22.796875 47.125 20.375 45.953125 
Q 17.96875 44.78125 16.375 42.265625 
Q 14.796875 39.75 14.03125 35.8125 
Q 13.28125 31.890625 13.28125 26.421875 
Q 13.28125 20.703125 14.03125 16.8125 
Q 14.796875 12.9375 16.359375 10.546875 
Q 17.921875 8.15625 20.3125 7.125 
Q 22.703125 6.109375 26.03125 6.109375 
Q 28.65625 6.109375 31.171875 7.21875 
Q 33.6875 8.34375 35.6875 10.78125 
Q 37.703125 13.234375 38.921875 17.09375 
Q 40.140625 20.953125 40.140625 26.421875 
" id="LiberationSans-67"/>
     </defs>
     <g style="fill:#262626;" transform="translate(234.460938 226.603125)scale(0.1 -0.1)">
      <use xlink:href="#LiberationSans-48"/>
      <use x="72.216797" xlink:href="#LiberationSans-61"/>
      <use x="127.832031" xlink:href="#LiberationSans-6e"/>
      <use x="183.447266" xlink:href="#LiberationSans-64"/>
      <use x="239.0625" xlink:href="#LiberationSans-2b"/>
      <use x="297.460938" xlink:href="#LiberationSans-41"/>
      <use x="364.160156" xlink:href="#LiberationSans-72"/>
      <use x="397.460938" xlink:href="#LiberationSans-6d"/>
      <use x="480.761719" xlink:href="#LiberationSans-2b"/>
      <use x="539.160156" xlink:href="#LiberationSans-54"/>
      <use x="600.244141" xlink:href="#LiberationSans-68"/>
      <use x="655.859375" xlink:href="#LiberationSans-69"/>
      <use x="678.076172" xlink:href="#LiberationSans-67"/>
      <use x="733.691406" xlink:href="#LiberationSans-68"/>
      <use x="789.306641" xlink:href="#LiberationSans-20"/>
      <use x="817.089844" xlink:href="#LiberationSans-2d"/>
      <use x="850.390625" xlink:href="#LiberationSans-20"/>
      <use x="878.095703" xlink:href="#LiberationSans-41"/>
      <use x="944.794922" xlink:href="#LiberationSans-55"/>
      <use x="1017.011719" xlink:href="#LiberationSans-43"/>
      <use x="1089.228516" xlink:href="#LiberationSans-20"/>
      <use x="1117.011719" xlink:href="#LiberationSans-3d"/>
      <use x="1175.410156" xlink:href="#LiberationSans-20"/>
      <use x="1203.193359" xlink:href="#LiberationSans-30"/>
      <use x="1258.808594" xlink:href="#LiberationSans-2e"/>
      <use x="1286.591797" xlink:href="#LiberationSans-36"/>
      <use x="1342.207031" xlink:href="#LiberationSans-37"/>
      <use x="1397.822266" xlink:href="#LiberationSans-34"/>
     </g>
    </g>
    <g id="line2d_39">
     <path d="M 206.460938 237.425 
L 226.460938 237.425 
" style="fill:none;stroke:#c44e52;stroke-linecap:round;stroke-width:3;"/>
    </g>
    <g id="line2d_40"/>
    <g id="text_18">
     <!-- Thigh - AUC = 0.539 -->
     <defs>
      <path d="M 51.421875 22.40625 
Q 51.421875 17.234375 49.859375 12.9375 
Q 48.296875 8.640625 45.21875 5.53125 
Q 42.140625 2.4375 37.578125 0.71875 
Q 33.015625 -0.984375 27 -0.984375 
Q 21.578125 -0.984375 17.546875 0.28125 
Q 13.53125 1.5625 10.734375 3.78125 
Q 7.953125 6 6.3125 8.984375 
Q 4.6875 11.96875 4 15.375 
L 12.890625 16.40625 
Q 13.421875 14.453125 14.390625 12.625 
Q 15.375 10.796875 17.0625 9.34375 
Q 18.75 7.90625 21.21875 7.046875 
Q 23.6875 6.203125 27.203125 6.203125 
Q 30.609375 6.203125 33.390625 7.25 
Q 36.1875 8.296875 38.15625 10.34375 
Q 40.140625 12.40625 41.203125 15.375 
Q 42.28125 18.359375 42.28125 22.21875 
Q 42.28125 25.390625 41.25 28.046875 
Q 40.234375 30.71875 38.328125 32.640625 
Q 36.421875 34.578125 33.65625 35.640625 
Q 30.90625 36.71875 27.390625 36.71875 
Q 25.203125 36.71875 23.34375 36.328125 
Q 21.484375 35.9375 19.890625 35.25 
Q 18.3125 34.578125 17.015625 33.671875 
Q 15.71875 32.765625 14.59375 31.78125 
L 6 31.78125 
L 8.296875 68.796875 
L 47.40625 68.796875 
L 47.40625 61.328125 
L 16.3125 61.328125 
L 14.984375 39.5 
Q 17.328125 41.3125 20.84375 42.59375 
Q 24.359375 43.890625 29.203125 43.890625 
Q 34.328125 43.890625 38.421875 42.328125 
Q 42.53125 40.765625 45.40625 37.90625 
Q 48.296875 35.0625 49.859375 31.109375 
Q 51.421875 27.15625 51.421875 22.40625 
" id="LiberationSans-35"/>
     </defs>
     <g style="fill:#262626;" transform="translate(234.460938 240.925)scale(0.1 -0.1)">
      <use xlink:href="#LiberationSans-54"/>
      <use x="61.083984" xlink:href="#LiberationSans-68"/>
      <use x="116.699219" xlink:href="#LiberationSans-69"/>
      <use x="138.916016" xlink:href="#LiberationSans-67"/>
      <use x="194.53125" xlink:href="#LiberationSans-68"/>
      <use x="250.146484" xlink:href="#LiberationSans-20"/>
      <use x="277.929688" xlink:href="#LiberationSans-2d"/>
      <use x="311.230469" xlink:href="#LiberationSans-20"/>
      <use x="338.935547" xlink:href="#LiberationSans-41"/>
      <use x="405.634766" xlink:href="#LiberationSans-55"/>
      <use x="477.851562" xlink:href="#LiberationSans-43"/>
      <use x="550.068359" xlink:href="#LiberationSans-20"/>
      <use x="577.851562" xlink:href="#LiberationSans-3d"/>
      <use x="636.25" xlink:href="#LiberationSans-20"/>
      <use x="664.033203" xlink:href="#LiberationSans-30"/>
      <use x="719.648438" xlink:href="#LiberationSans-2e"/>
      <use x="747.431641" xlink:href="#LiberationSans-35"/>
      <use x="803.046875" xlink:href="#LiberationSans-33"/>
      <use x="858.662109" xlink:href="#LiberationSans-39"/>
     </g>
    </g>
   </g>
  </g>
 </g>
 <defs>
  <clipPath id="p250e3ddbc4">
   <rect height="217.44" width="334.8" x="54" y="34.56"/>
  </clipPath>
 </defs>
</svg>
